<?xml version="1.0" encoding="UTF-8"?>
<svg xmlns="http://www.w3.org/2000/svg" width="420mm" height="297mm" viewBox="0 0 1587 1122" preserveAspectRatio="xMidYMid meet">
  <defs>
  <!-- Tường ngoài: gạch chéo đôi (cross-hatch) — chuẩn CAD kiến trúc -->
  <pattern id="hatch-ext" patternUnits="userSpaceOnUse" width="5" height="5">
    <line x1="0" y1="0" x2="5" y2="5" stroke="#000" stroke-width="0.6"/>
    <line x1="5" y1="0" x2="0" y2="5" stroke="#000" stroke-width="0.6"/>
  </pattern>
  <!-- Tường trong: gạch chéo đơn — mảnh hơn -->
  <pattern id="hatch-int" patternUnits="userSpaceOnUse" width="4" height="4">
    <line x1="0" y1="0" x2="4" y2="4" stroke="#555" stroke-width="0.4"/>
  </pattern>
  <!-- Tường tô đặc (cho cột / tường chịu lực) -->
  <pattern id="hatch-solid" patternUnits="userSpaceOnUse" width="3" height="3">
    <rect width="3" height="3" fill="#333"/>
  </pattern>
</defs>
  <rect width="1587" height="1122" fill="white"/>
  <!-- LẦU 1 | 5m×20m | Scale 1/61 | A3 landscape | BMT Decor -->
  <line x1="226.11360000000005" y1="343.33000000000004" x2="226.11360000000005" y2="730.6700000000001" stroke="#999999" stroke-width="0.4" stroke-dasharray="8 4 2 4"/>
  <circle cx="226.11360000000005" cy="730.6700000000001" r="14" fill="white" stroke="#000000" stroke-width="1.2"/>
  <text x="226.11360000000005" y="735.6700000000001" text-anchor="middle" font-family="'Arial Narrow', Arial, sans-serif" font-size="13" fill="#000000" font-weight="bold">1</text>
  <circle cx="226.11360000000005" cy="343.33000000000004" r="14" fill="white" stroke="#000000" stroke-width="1.2"/>
  <text x="226.11360000000005" y="348.33000000000004" text-anchor="middle" font-family="'Arial Narrow', Arial, sans-serif" font-size="13" fill="#000000" font-weight="bold">1</text>
  <line x1="540.8297600000001" y1="343.33000000000004" x2="540.8297600000001" y2="730.6700000000001" stroke="#999999" stroke-width="0.4" stroke-dasharray="8 4 2 4"/>
  <circle cx="540.8297600000001" cy="730.6700000000001" r="14" fill="white" stroke="#000000" stroke-width="1.2"/>
  <text x="540.8297600000001" y="735.6700000000001" text-anchor="middle" font-family="'Arial Narrow', Arial, sans-serif" font-size="13" fill="#000000" font-weight="bold">2</text>
  <circle cx="540.8297600000001" cy="343.33000000000004" r="14" fill="white" stroke="#000000" stroke-width="1.2"/>
  <text x="540.8297600000001" y="348.33000000000004" text-anchor="middle" font-family="'Arial Narrow', Arial, sans-serif" font-size="13" fill="#000000" font-weight="bold">2</text>
  <line x1="722.16036" y1="343.33000000000004" x2="722.16036" y2="730.6700000000001" stroke="#999999" stroke-width="0.4" stroke-dasharray="8 4 2 4"/>
  <circle cx="722.16036" cy="730.6700000000001" r="14" fill="white" stroke="#000000" stroke-width="1.2"/>
  <text x="722.16036" y="735.6700000000001" text-anchor="middle" font-family="'Arial Narrow', Arial, sans-serif" font-size="13" fill="#000000" font-weight="bold">3</text>
  <circle cx="722.16036" cy="343.33000000000004" r="14" fill="white" stroke="#000000" stroke-width="1.2"/>
  <text x="722.16036" y="348.33000000000004" text-anchor="middle" font-family="'Arial Narrow', Arial, sans-serif" font-size="13" fill="#000000" font-weight="bold">3</text>
  <line x1="806.37152" y1="343.33000000000004" x2="806.37152" y2="730.6700000000001" stroke="#999999" stroke-width="0.4" stroke-dasharray="8 4 2 4"/>
  <circle cx="806.37152" cy="730.6700000000001" r="14" fill="white" stroke="#000000" stroke-width="1.2"/>
  <text x="806.37152" y="735.6700000000001" text-anchor="middle" font-family="'Arial Narrow', Arial, sans-serif" font-size="13" fill="#000000" font-weight="bold">4</text>
  <circle cx="806.37152" cy="343.33000000000004" r="14" fill="white" stroke="#000000" stroke-width="1.2"/>
  <text x="806.37152" y="348.33000000000004" text-anchor="middle" font-family="'Arial Narrow', Arial, sans-serif" font-size="13" fill="#000000" font-weight="bold">4</text>
  <line x1="875.83036" y1="343.33000000000004" x2="875.83036" y2="730.6700000000001" stroke="#999999" stroke-width="0.4" stroke-dasharray="8 4 2 4"/>
  <circle cx="875.83036" cy="730.6700000000001" r="14" fill="white" stroke="#000000" stroke-width="1.2"/>
  <text x="875.83036" y="735.6700000000001" text-anchor="middle" font-family="'Arial Narrow', Arial, sans-serif" font-size="13" fill="#000000" font-weight="bold">5</text>
  <circle cx="875.83036" cy="343.33000000000004" r="14" fill="white" stroke="#000000" stroke-width="1.2"/>
  <text x="875.83036" y="348.33000000000004" text-anchor="middle" font-family="'Arial Narrow', Arial, sans-serif" font-size="13" fill="#000000" font-weight="bold">5</text>
  <line x1="1035.0324799999999" y1="343.33000000000004" x2="1035.0324799999999" y2="730.6700000000001" stroke="#999999" stroke-width="0.4" stroke-dasharray="8 4 2 4"/>
  <circle cx="1035.0324799999999" cy="730.6700000000001" r="14" fill="white" stroke="#000000" stroke-width="1.2"/>
  <text x="1035.0324799999999" y="735.6700000000001" text-anchor="middle" font-family="'Arial Narrow', Arial, sans-serif" font-size="13" fill="#000000" font-weight="bold">6</text>
  <circle cx="1035.0324799999999" cy="343.33000000000004" r="14" fill="white" stroke="#000000" stroke-width="1.2"/>
  <text x="1035.0324799999999" y="348.33000000000004" text-anchor="middle" font-family="'Arial Narrow', Arial, sans-serif" font-size="13" fill="#000000" font-weight="bold">6</text>
  <line x1="1165.34464" y1="343.33000000000004" x2="1165.34464" y2="730.6700000000001" stroke="#999999" stroke-width="0.4" stroke-dasharray="8 4 2 4"/>
  <circle cx="1165.34464" cy="730.6700000000001" r="14" fill="white" stroke="#000000" stroke-width="1.2"/>
  <text x="1165.34464" y="735.6700000000001" text-anchor="middle" font-family="'Arial Narrow', Arial, sans-serif" font-size="13" fill="#000000" font-weight="bold">7</text>
  <circle cx="1165.34464" cy="343.33000000000004" r="14" fill="white" stroke="#000000" stroke-width="1.2"/>
  <text x="1165.34464" y="348.33000000000004" text-anchor="middle" font-family="'Arial Narrow', Arial, sans-serif" font-size="13" fill="#000000" font-weight="bold">7</text>
  <line x1="1443.1799999999998" y1="343.33000000000004" x2="1443.1799999999998" y2="730.6700000000001" stroke="#999999" stroke-width="0.4" stroke-dasharray="8 4 2 4"/>
  <circle cx="1443.1799999999998" cy="730.6700000000001" r="14" fill="white" stroke="#000000" stroke-width="1.2"/>
  <text x="1443.1799999999998" y="735.6700000000001" text-anchor="middle" font-family="'Arial Narrow', Arial, sans-serif" font-size="13" fill="#000000" font-weight="bold">8</text>
  <circle cx="1443.1799999999998" cy="343.33000000000004" r="14" fill="white" stroke="#000000" stroke-width="1.2"/>
  <text x="1443.1799999999998" y="348.33000000000004" text-anchor="middle" font-family="'Arial Narrow', Arial, sans-serif" font-size="13" fill="#000000" font-weight="bold">8</text>
  <line x1="173.82000000000005" y1="383.33000000000004" x2="1483.1799999999998" y2="383.33000000000004" stroke="#999999" stroke-width="0.4" stroke-dasharray="8 4 2 4"/>
  <circle cx="173.82000000000005" cy="383.33000000000004" r="14" fill="white" stroke="#000000" stroke-width="1.2"/>
  <text x="173.82000000000005" y="388.33000000000004" text-anchor="middle" font-family="'Arial Narrow', Arial, sans-serif" font-size="13" fill="#000000" font-weight="bold">A</text>
  <circle cx="1483.1799999999998" cy="383.33000000000004" r="14" fill="white" stroke="#000000" stroke-width="1.2"/>
  <text x="1483.1799999999998" y="388.33000000000004" text-anchor="middle" font-family="'Arial Narrow', Arial, sans-serif" font-size="13" fill="#000000" font-weight="bold">A</text>
  <line x1="173.82000000000005" y1="690.6700000000001" x2="1483.1799999999998" y2="690.6700000000001" stroke="#999999" stroke-width="0.4" stroke-dasharray="8 4 2 4"/>
  <circle cx="173.82000000000005" cy="690.6700000000001" r="14" fill="white" stroke="#000000" stroke-width="1.2"/>
  <text x="173.82000000000005" y="695.6700000000001" text-anchor="middle" font-family="'Arial Narrow', Arial, sans-serif" font-size="13" fill="#000000" font-weight="bold">B</text>
  <circle cx="1483.1799999999998" cy="690.6700000000001" r="14" fill="white" stroke="#000000" stroke-width="1.2"/>
  <text x="1483.1799999999998" y="695.6700000000001" text-anchor="middle" font-family="'Arial Narrow', Arial, sans-serif" font-size="13" fill="#000000" font-weight="bold">B</text>
  <rect x="219.96680000000003" y="377.18320000000006" width="12.2936" height="12.2936" fill="#000000" stroke="none"/>
  <rect x="219.96680000000003" y="684.5232000000001" width="12.2936" height="12.2936" fill="#000000" stroke="none"/>
  <rect x="534.6829600000001" y="377.18320000000006" width="12.2936" height="12.2936" fill="#000000" stroke="none"/>
  <rect x="534.6829600000001" y="684.5232000000001" width="12.2936" height="12.2936" fill="#000000" stroke="none"/>
  <rect x="716.01356" y="377.18320000000006" width="12.2936" height="12.2936" fill="#000000" stroke="none"/>
  <rect x="716.01356" y="684.5232000000001" width="12.2936" height="12.2936" fill="#000000" stroke="none"/>
  <rect x="800.22472" y="377.18320000000006" width="12.2936" height="12.2936" fill="#000000" stroke="none"/>
  <rect x="800.22472" y="684.5232000000001" width="12.2936" height="12.2936" fill="#000000" stroke="none"/>
  <rect x="869.68356" y="377.18320000000006" width="12.2936" height="12.2936" fill="#000000" stroke="none"/>
  <rect x="869.68356" y="684.5232000000001" width="12.2936" height="12.2936" fill="#000000" stroke="none"/>
  <rect x="1028.8856799999999" y="377.18320000000006" width="12.2936" height="12.2936" fill="#000000" stroke="none"/>
  <rect x="1028.8856799999999" y="684.5232000000001" width="12.2936" height="12.2936" fill="#000000" stroke="none"/>
  <rect x="1159.19784" y="377.18320000000006" width="12.2936" height="12.2936" fill="#000000" stroke="none"/>
  <rect x="1159.19784" y="684.5232000000001" width="12.2936" height="12.2936" fill="#000000" stroke="none"/>
  <rect x="1437.0331999999999" y="377.18320000000006" width="12.2936" height="12.2936" fill="#000000" stroke="none"/>
  <rect x="1437.0331999999999" y="684.5232000000001" width="12.2936" height="12.2936" fill="#000000" stroke="none"/>
  <rect x="722.16036" y="395.62360000000007" width="153.67" height="282.7528" fill="white" stroke="none"/>
  <rect x="722.16036" y="395.62360000000007" width="153.67" height="282.7528" fill="white" stroke="#000000" stroke-width="1"/>
  <line x1="722.16036" y1="395.62360000000007" x2="875.8303599999999" y2="678.3764000000001" stroke="#000000" stroke-width="0.6"/>
  <line x1="875.8303599999999" y1="395.62360000000007" x2="722.16036" y2="678.3764000000001" stroke="#000000" stroke-width="0.6"/>
  <text x="798.99536" y="541" text-anchor="middle" font-family="'Arial Narrow', Arial, sans-serif" font-size="7" fill="#000000">THÔNG TẦNG</text>
  <text x="798.99536" y="535" text-anchor="middle" font-family="'Arial Narrow', Arial, sans-serif" font-size="9" fill="#000" font-weight="bold">Cầu thang</text>
  <text x="798.99536" y="547" text-anchor="middle" font-family="'Arial Narrow', Arial, sans-serif" font-size="7.5" fill="#333">11.5m²</text>
  <rect x="226.11360000000005" y="395.62360000000007" width="307.34" height="282.7528" fill="white" stroke="none"/>
  <rect x="324.78360000000004" y="415.41629600000005" width="110" height="95" fill="white" stroke="#000000" stroke-width="0.8"/>
  <rect x="324.78360000000004" y="415.41629600000005" width="110" height="6.65" fill="#c0c0c0" stroke="#000000" stroke-width="0.6"/>
  <rect x="329.1836" y="425.066296" width="39.6" height="17.099999999999998" rx="4" fill="#e8e8e8" stroke="#000000" stroke-width="0.5"/>
  <line x1="348.9836" y1="426.066296" x2="348.9836" y2="441.16629600000005" stroke="#000000" stroke-width="0.25"/>
  <rect x="390.78360000000004" y="425.066296" width="39.6" height="17.099999999999998" rx="4" fill="#e8e8e8" stroke="#000000" stroke-width="0.5"/>
  <line x1="410.58360000000005" y1="426.066296" x2="410.58360000000005" y2="441.16629600000005" stroke="#000000" stroke-width="0.25"/>
  <line x1="326.78360000000004" y1="453.41629600000005" x2="432.78360000000004" y2="453.41629600000005" stroke="#000000" stroke-width="0.4"/>
  <path d="M 328.78360000000004 453.41629600000005 Q 379.78360000000004 459.41629600000005 430.78360000000004 453.41629600000005" fill="none" stroke="#000000" stroke-width="0.3"/>
  <line x1="379.78360000000004" y1="456.41629600000005" x2="379.78360000000004" y2="508.41629600000005" stroke="#000000" stroke-width="0.2" stroke-dasharray="3 3"/>
  <rect x="305.78360000000004" y="415.41629600000005" width="16" height="16" fill="white" stroke="#000000" stroke-width="0.6"/>
  <circle cx="313.78360000000004" cy="423.41629600000005" r="3" fill="none" stroke="#000000" stroke-width="0.35"/>
  <rect x="437.78360000000004" y="415.41629600000005" width="16" height="16" fill="white" stroke="#000000" stroke-width="0.6"/>
  <circle cx="445.78360000000004" cy="423.41629600000005" r="3" fill="none" stroke="#000000" stroke-width="0.35"/>
  <rect x="245.90629600000005" y="636.583704" width="267.75460799999996" height="22" fill="white" stroke="#000000" stroke-width="0.7"/>
  <line x1="246.90629600000005" y1="637.583704" x2="298.45721760000004" y2="657.583704" stroke="#000000" stroke-width="0.3"/>
  <line x1="298.45721760000004" y1="637.583704" x2="246.90629600000005" y2="657.583704" stroke="#000000" stroke-width="0.3"/>
  <circle cx="270.6817568000001" cy="647.583704" r="1" fill="#000000" stroke="none"/>
  <circle cx="274.6817568000001" cy="647.583704" r="1" fill="#000000" stroke="none"/>
  <line x1="299.45721760000004" y1="636.583704" x2="299.45721760000004" y2="658.583704" stroke="#000000" stroke-width="0.5"/>
  <line x1="300.45721760000004" y1="637.583704" x2="352.0081392" y2="657.583704" stroke="#000000" stroke-width="0.3"/>
  <line x1="352.0081392" y1="637.583704" x2="300.45721760000004" y2="657.583704" stroke="#000000" stroke-width="0.3"/>
  <circle cx="324.23267840000005" cy="647.583704" r="1" fill="#000000" stroke="none"/>
  <circle cx="328.23267840000005" cy="647.583704" r="1" fill="#000000" stroke="none"/>
  <line x1="353.0081392000001" y1="636.583704" x2="353.0081392000001" y2="658.583704" stroke="#000000" stroke-width="0.5"/>
  <line x1="354.0081392000001" y1="637.583704" x2="405.55906080000005" y2="657.583704" stroke="#000000" stroke-width="0.3"/>
  <line x1="405.55906080000005" y1="637.583704" x2="354.0081392000001" y2="657.583704" stroke="#000000" stroke-width="0.3"/>
  <circle cx="377.7836000000001" cy="647.583704" r="1" fill="#000000" stroke="none"/>
  <circle cx="381.7836000000001" cy="647.583704" r="1" fill="#000000" stroke="none"/>
  <line x1="406.55906080000005" y1="636.583704" x2="406.55906080000005" y2="658.583704" stroke="#000000" stroke-width="0.5"/>
  <line x1="407.55906080000005" y1="637.583704" x2="459.10998240000004" y2="657.583704" stroke="#000000" stroke-width="0.3"/>
  <line x1="459.10998240000004" y1="637.583704" x2="407.55906080000005" y2="657.583704" stroke="#000000" stroke-width="0.3"/>
  <circle cx="431.3345216000001" cy="647.583704" r="1" fill="#000000" stroke="none"/>
  <circle cx="435.3345216000001" cy="647.583704" r="1" fill="#000000" stroke="none"/>
  <line x1="460.10998240000004" y1="636.583704" x2="460.10998240000004" y2="658.583704" stroke="#000000" stroke-width="0.5"/>
  <line x1="461.10998240000004" y1="637.583704" x2="512.6609040000001" y2="657.583704" stroke="#000000" stroke-width="0.3"/>
  <line x1="512.6609040000001" y1="637.583704" x2="461.10998240000004" y2="657.583704" stroke="#000000" stroke-width="0.3"/>
  <circle cx="484.88544320000005" cy="647.583704" r="1" fill="#000000" stroke="none"/>
  <circle cx="488.88544320000005" cy="647.583704" r="1" fill="#000000" stroke="none"/>
  <rect x="245.90629600000005" y="612.583704" width="48" height="14" fill="white" stroke="#000000" stroke-width="0.6"/>
  <line x1="247.90629600000005" y1="619.583704" x2="291.90629600000005" y2="619.583704" stroke="#000000" stroke-width="0.25"/>
  <circle cx="269.90629600000005" cy="635.583704" r="6" fill="none" stroke="#000000" stroke-width="0.5"/>
  <path d="M 263.90629600000005 636.583704 A 8 8 0 0 0 275.90629600000005 636.583704" fill="none" stroke="#000000" stroke-width="0.4"/>
  <text x="379.78360000000004" y="535" text-anchor="middle" font-family="'Arial Narrow', Arial, sans-serif" font-size="9" fill="#000" font-weight="bold">Phòng ngủ Master</text>
  <text x="379.78360000000004" y="547" text-anchor="middle" font-family="'Arial Narrow', Arial, sans-serif" font-size="7.5" fill="#333">23.0m²</text>
  <rect x="540.8297600000001" y="395.62360000000007" width="258.1656" height="282.7528" fill="white" stroke="none"/>
  <rect x="629.9125600000001" y="413.6951920000001" width="80" height="95" fill="white" stroke="#000000" stroke-width="0.8"/>
  <rect x="629.9125600000001" y="413.6951920000001" width="80" height="6.65" fill="#c0c0c0" stroke="#000000" stroke-width="0.6"/>
  <rect x="633.1125600000001" y="423.34519200000005" width="28.799999999999997" height="17.099999999999998" rx="4" fill="#e8e8e8" stroke="#000000" stroke-width="0.5"/>
  <line x1="647.5125600000001" y1="424.34519200000005" x2="647.5125600000001" y2="439.4451920000001" stroke="#000000" stroke-width="0.25"/>
  <rect x="677.9125600000001" y="423.34519200000005" width="28.799999999999997" height="17.099999999999998" rx="4" fill="#e8e8e8" stroke="#000000" stroke-width="0.5"/>
  <line x1="692.3125600000001" y1="424.34519200000005" x2="692.3125600000001" y2="439.4451920000001" stroke="#000000" stroke-width="0.25"/>
  <line x1="631.9125600000001" y1="451.6951920000001" x2="707.9125600000001" y2="451.6951920000001" stroke="#000000" stroke-width="0.4"/>
  <path d="M 633.9125600000001 451.6951920000001 Q 669.9125600000001 457.6951920000001 705.9125600000001 451.6951920000001" fill="none" stroke="#000000" stroke-width="0.3"/>
  <line x1="669.9125600000001" y1="454.6951920000001" x2="669.9125600000001" y2="506.6951920000001" stroke="#000000" stroke-width="0.2" stroke-dasharray="3 3"/>
  <rect x="610.9125600000001" y="413.6951920000001" width="16" height="16" fill="white" stroke="#000000" stroke-width="0.6"/>
  <circle cx="618.9125600000001" cy="421.6951920000001" r="3" fill="none" stroke="#000000" stroke-width="0.35"/>
  <rect x="712.9125600000001" y="413.6951920000001" width="16" height="16" fill="white" stroke="#000000" stroke-width="0.6"/>
  <circle cx="720.9125600000001" cy="421.6951920000001" r="3" fill="none" stroke="#000000" stroke-width="0.35"/>
  <rect x="558.9013520000001" y="638.3048080000001" width="222.022416" height="22" fill="white" stroke="#000000" stroke-width="0.7"/>
  <line x1="559.9013520000001" y1="639.3048080000001" x2="602.3058352" y2="659.3048080000001" stroke="#000000" stroke-width="0.3"/>
  <line x1="602.3058352" y1="639.3048080000001" x2="559.9013520000001" y2="659.3048080000001" stroke="#000000" stroke-width="0.3"/>
  <circle cx="579.1035936000001" cy="649.3048080000001" r="1" fill="#000000" stroke="none"/>
  <circle cx="583.1035936000001" cy="649.3048080000001" r="1" fill="#000000" stroke="none"/>
  <line x1="603.3058352" y1="638.3048080000001" x2="603.3058352" y2="660.3048080000001" stroke="#000000" stroke-width="0.5"/>
  <line x1="604.3058352" y1="639.3048080000001" x2="646.7103184" y2="659.3048080000001" stroke="#000000" stroke-width="0.3"/>
  <line x1="646.7103184" y1="639.3048080000001" x2="604.3058352" y2="659.3048080000001" stroke="#000000" stroke-width="0.3"/>
  <circle cx="623.5080768" cy="649.3048080000001" r="1" fill="#000000" stroke="none"/>
  <circle cx="627.5080768" cy="649.3048080000001" r="1" fill="#000000" stroke="none"/>
  <line x1="647.7103184000001" y1="638.3048080000001" x2="647.7103184000001" y2="660.3048080000001" stroke="#000000" stroke-width="0.5"/>
  <line x1="648.7103184000001" y1="639.3048080000001" x2="691.1148016000001" y2="659.3048080000001" stroke="#000000" stroke-width="0.3"/>
  <line x1="691.1148016000001" y1="639.3048080000001" x2="648.7103184000001" y2="659.3048080000001" stroke="#000000" stroke-width="0.3"/>
  <circle cx="667.9125600000001" cy="649.3048080000001" r="1" fill="#000000" stroke="none"/>
  <circle cx="671.9125600000001" cy="649.3048080000001" r="1" fill="#000000" stroke="none"/>
  <line x1="692.1148016000001" y1="638.3048080000001" x2="692.1148016000001" y2="660.3048080000001" stroke="#000000" stroke-width="0.5"/>
  <line x1="693.1148016000001" y1="639.3048080000001" x2="735.5192848" y2="659.3048080000001" stroke="#000000" stroke-width="0.3"/>
  <line x1="735.5192848" y1="639.3048080000001" x2="693.1148016000001" y2="659.3048080000001" stroke="#000000" stroke-width="0.3"/>
  <circle cx="712.3170432000001" cy="649.3048080000001" r="1" fill="#000000" stroke="none"/>
  <circle cx="716.3170432000001" cy="649.3048080000001" r="1" fill="#000000" stroke="none"/>
  <line x1="736.5192848000002" y1="638.3048080000001" x2="736.5192848000002" y2="660.3048080000001" stroke="#000000" stroke-width="0.5"/>
  <line x1="737.5192848000002" y1="639.3048080000001" x2="779.9237680000001" y2="659.3048080000001" stroke="#000000" stroke-width="0.3"/>
  <line x1="779.9237680000001" y1="639.3048080000001" x2="737.5192848000002" y2="659.3048080000001" stroke="#000000" stroke-width="0.3"/>
  <circle cx="756.7215264000001" cy="649.3048080000001" r="1" fill="#000000" stroke="none"/>
  <circle cx="760.7215264000001" cy="649.3048080000001" r="1" fill="#000000" stroke="none"/>
  <rect x="558.9013520000001" y="614.3048080000001" width="48" height="14" fill="white" stroke="#000000" stroke-width="0.6"/>
  <line x1="560.9013520000001" y1="621.3048080000001" x2="604.9013520000001" y2="621.3048080000001" stroke="#000000" stroke-width="0.25"/>
  <circle cx="582.9013520000001" cy="637.3048080000001" r="6" fill="none" stroke="#000000" stroke-width="0.5"/>
  <path d="M 576.9013520000001 638.3048080000001 A 8 8 0 0 0 588.9013520000001 638.3048080000001" fill="none" stroke="#000000" stroke-width="0.4"/>
  <text x="669.9125600000001" y="535" text-anchor="middle" font-family="'Arial Narrow', Arial, sans-serif" font-size="9" fill="#000" font-weight="bold">Phòng ngủ 1</text>
  <text x="669.9125600000001" y="547" text-anchor="middle" font-family="'Arial Narrow', Arial, sans-serif" font-size="7.5" fill="#333">19.3m²</text>
  <rect x="806.37152" y="395.62360000000007" width="221.2848" height="282.7528" fill="white" stroke="none"/>
  <rect x="877.01392" y="411.11353600000007" width="80" height="95" fill="white" stroke="#000000" stroke-width="0.8"/>
  <rect x="877.01392" y="411.11353600000007" width="80" height="6.65" fill="#c0c0c0" stroke="#000000" stroke-width="0.6"/>
  <rect x="880.21392" y="420.76353600000004" width="28.799999999999997" height="17.099999999999998" rx="4" fill="#e8e8e8" stroke="#000000" stroke-width="0.5"/>
  <line x1="894.61392" y1="421.76353600000004" x2="894.61392" y2="436.86353600000007" stroke="#000000" stroke-width="0.25"/>
  <rect x="925.01392" y="420.76353600000004" width="28.799999999999997" height="17.099999999999998" rx="4" fill="#e8e8e8" stroke="#000000" stroke-width="0.5"/>
  <line x1="939.41392" y1="421.76353600000004" x2="939.41392" y2="436.86353600000007" stroke="#000000" stroke-width="0.25"/>
  <line x1="879.01392" y1="449.11353600000007" x2="955.01392" y2="449.11353600000007" stroke="#000000" stroke-width="0.4"/>
  <path d="M 881.01392 449.11353600000007 Q 917.01392 455.11353600000007 953.01392 449.11353600000007" fill="none" stroke="#000000" stroke-width="0.3"/>
  <line x1="917.01392" y1="452.11353600000007" x2="917.01392" y2="504.11353600000007" stroke="#000000" stroke-width="0.2" stroke-dasharray="3 3"/>
  <rect x="858.01392" y="411.11353600000007" width="16" height="16" fill="white" stroke="#000000" stroke-width="0.6"/>
  <circle cx="866.01392" cy="419.11353600000007" r="3" fill="none" stroke="#000000" stroke-width="0.35"/>
  <rect x="960.01392" y="411.11353600000007" width="16" height="16" fill="white" stroke="#000000" stroke-width="0.6"/>
  <circle cx="968.01392" cy="419.11353600000007" r="3" fill="none" stroke="#000000" stroke-width="0.35"/>
  <rect x="821.8614560000001" y="640.886464" width="190.304928" height="22" fill="white" stroke="#000000" stroke-width="0.7"/>
  <line x1="822.8614560000001" y1="641.886464" x2="858.9224416000001" y2="661.886464" stroke="#000000" stroke-width="0.3"/>
  <line x1="858.9224416000001" y1="641.886464" x2="822.8614560000001" y2="661.886464" stroke="#000000" stroke-width="0.3"/>
  <circle cx="838.8919488000001" cy="651.886464" r="1" fill="#000000" stroke="none"/>
  <circle cx="842.8919488000001" cy="651.886464" r="1" fill="#000000" stroke="none"/>
  <line x1="859.9224416000001" y1="640.886464" x2="859.9224416000001" y2="662.886464" stroke="#000000" stroke-width="0.5"/>
  <line x1="860.9224416000001" y1="641.886464" x2="896.9834272" y2="661.886464" stroke="#000000" stroke-width="0.3"/>
  <line x1="896.9834272" y1="641.886464" x2="860.9224416000001" y2="661.886464" stroke="#000000" stroke-width="0.3"/>
  <circle cx="876.9529344000001" cy="651.886464" r="1" fill="#000000" stroke="none"/>
  <circle cx="880.9529344000001" cy="651.886464" r="1" fill="#000000" stroke="none"/>
  <line x1="897.9834272" y1="640.886464" x2="897.9834272" y2="662.886464" stroke="#000000" stroke-width="0.5"/>
  <line x1="898.9834272" y1="641.886464" x2="935.0444128" y2="661.886464" stroke="#000000" stroke-width="0.3"/>
  <line x1="935.0444128" y1="641.886464" x2="898.9834272" y2="661.886464" stroke="#000000" stroke-width="0.3"/>
  <circle cx="915.0139200000001" cy="651.886464" r="1" fill="#000000" stroke="none"/>
  <circle cx="919.0139200000001" cy="651.886464" r="1" fill="#000000" stroke="none"/>
  <line x1="936.0444128" y1="640.886464" x2="936.0444128" y2="662.886464" stroke="#000000" stroke-width="0.5"/>
  <line x1="937.0444128" y1="641.886464" x2="973.1053984" y2="661.886464" stroke="#000000" stroke-width="0.3"/>
  <line x1="973.1053984" y1="641.886464" x2="937.0444128" y2="661.886464" stroke="#000000" stroke-width="0.3"/>
  <circle cx="953.0749056000001" cy="651.886464" r="1" fill="#000000" stroke="none"/>
  <circle cx="957.0749056000001" cy="651.886464" r="1" fill="#000000" stroke="none"/>
  <line x1="974.1053984" y1="640.886464" x2="974.1053984" y2="662.886464" stroke="#000000" stroke-width="0.5"/>
  <line x1="975.1053984" y1="641.886464" x2="1011.166384" y2="661.886464" stroke="#000000" stroke-width="0.3"/>
  <line x1="1011.166384" y1="641.886464" x2="975.1053984" y2="661.886464" stroke="#000000" stroke-width="0.3"/>
  <circle cx="991.1358912000001" cy="651.886464" r="1" fill="#000000" stroke="none"/>
  <circle cx="995.1358912000001" cy="651.886464" r="1" fill="#000000" stroke="none"/>
  <rect x="821.8614560000001" y="616.886464" width="48" height="14" fill="white" stroke="#000000" stroke-width="0.6"/>
  <line x1="823.8614560000001" y1="623.886464" x2="867.8614560000001" y2="623.886464" stroke="#000000" stroke-width="0.25"/>
  <circle cx="845.8614560000001" cy="639.886464" r="6" fill="none" stroke="#000000" stroke-width="0.5"/>
  <path d="M 839.8614560000001 640.886464 A 8 8 0 0 0 851.8614560000001 640.886464" fill="none" stroke="#000000" stroke-width="0.4"/>
  <text x="917.01392" y="535" text-anchor="middle" font-family="'Arial Narrow', Arial, sans-serif" font-size="9" fill="#000" font-weight="bold">Phòng ngủ 2</text>
  <text x="917.01392" y="547" text-anchor="middle" font-family="'Arial Narrow', Arial, sans-serif" font-size="7.5" fill="#333">16.6m²</text>
  <rect x="1035.0324799999999" y="395.62360000000007" width="122.93599999999999" height="282.7528" fill="white" stroke="none"/>
  <rect x="1043.638" y="404.2291200000001" width="38" height="22" rx="1" fill="white" stroke="#000000" stroke-width="0.7"/>
  <ellipse cx="1062.638" cy="416.3291200000001" rx="12.920000000000002" ry="7.48" fill="none" stroke="#000000" stroke-width="0.5"/>
  <circle cx="1062.638" cy="416.3291200000001" r="1.5" fill="#000000" stroke="none"/>
  <circle cx="1062.638" cy="407.5291200000001" r="2.2" fill="#000000" stroke="none"/>
  <line x1="1062.638" y1="409.7291200000001" x2="1062.638" y2="411.2691200000001" stroke="#000000" stroke-width="0.6"/>
  <rect x="1049.338" y="397.62912000000006" width="26.599999999999998" height="5.5" fill="none" stroke="#000000" stroke-width="0.3" stroke-dasharray="2 1"/>
  <rect x="1122.9629599999998" y="629.77088" width="22.8" height="8.8" rx="2" fill="white" stroke="#000000" stroke-width="0.7"/>
  <circle cx="1131.9629599999998" cy="634.17088" r="1.8" fill="none" stroke="#000000" stroke-width="0.4"/>
  <circle cx="1136.76296" cy="634.17088" r="1.8" fill="none" stroke="#000000" stroke-width="0.4"/>
  <ellipse cx="1134.36296" cy="654.57088" rx="13.8" ry="14.399999999999999" fill="white" stroke="#000000" stroke-width="0.7"/>
  <ellipse cx="1134.36296" cy="653.77088" rx="10.200000000000001" ry="10.8" fill="none" stroke="#000000" stroke-width="0.4"/>
  <line x1="1126.86296" y1="639.57088" x2="1141.86296" y2="639.57088" stroke="#000000" stroke-width="0.4"/>
  <rect x="1043.638" y="431.2291200000001" width="40.1754848" height="72" rx="4" fill="white" stroke="#000000" stroke-width="0.8"/>
  <rect x="1046.638" y="434.2291200000001" width="34.1754848" height="66" rx="3" fill="none" stroke="#000000" stroke-width="0.4"/>
  <circle cx="1063.7257424" cy="493.2291200000001" r="2.5" fill="none" stroke="#000000" stroke-width="0.5"/>
  <circle cx="1063.7257424" cy="493.2291200000001" r="0.8" fill="#000000" stroke="none"/>
  <circle cx="1057.69941968" cy="439.2291200000001" r="2.5" fill="none" stroke="#000000" stroke-width="0.5"/>
  <circle cx="1069.75206512" cy="439.2291200000001" r="2.5" fill="none" stroke="#000000" stroke-width="0.5"/>
  <line x1="1081.8134848" y1="452.8291200000001" x2="1081.8134848" y2="481.62912000000006" stroke="#000000" stroke-width="0.6"/>
  <rect x="1093.50048" y="573.831264" width="6" height="6" fill="none" stroke="#000000" stroke-width="0.4"/>
  <line x1="1093.50048" y1="573.831264" x2="1099.50048" y2="579.831264" stroke="#000000" stroke-width="0.3"/>
  <line x1="1099.50048" y1="573.831264" x2="1093.50048" y2="579.831264" stroke="#000000" stroke-width="0.3"/>
  <text x="1096.50048" y="535" text-anchor="middle" font-family="'Arial Narrow', Arial, sans-serif" font-size="9" fill="#000" font-weight="bold">WC</text>
  <text x="1096.50048" y="547" text-anchor="middle" font-family="'Arial Narrow', Arial, sans-serif" font-size="7.5" fill="#333">9.2m²</text>
  <path d="M 1047.0324799999999 664.3764000000001 L 1041.0324799999999 670.3764000000001 L 1053.0324799999999 670.3764000000001 Z" fill="#000" stroke="none"/>
  <text x="1056.0324799999999" y="672.3764000000001" font-family="'Arial Narrow', Arial, sans-serif" font-size="8" fill="#000">+0.050</text>
  <rect x="1165.34464" y="395.62360000000007" width="265.54176" height="282.7528" fill="white" stroke="none"/>
  <rect x="1183.9325632" y="414.21152320000004" width="120" height="26" fill="white" stroke="#000000" stroke-width="0.7"/>
  <rect x="1185.9325632" y="418.1115232" width="24" height="18.2" fill="none" stroke="#000000" stroke-width="0.35"/>
  <line x1="1185.9325632" y1="427.21152320000004" x2="1209.9325632" y2="427.21152320000004" stroke="#000000" stroke-width="0.25"/>
  <circle cx="1243.9325632" cy="458.21152320000004" r="10" fill="none" stroke="#000000" stroke-width="0.6"/>
  <line x1="1243.9325632" y1="453.21152320000004" x2="1243.9325632" y2="444.21152320000004" stroke="#000000" stroke-width="0.35"/>
  <circle cx="1243.9325632" cy="444.21152320000004" r="1.2" fill="#000000" stroke="none"/>
  <line x1="1248.6878457814757" y1="456.6664382281253" x2="1257.2473544281322" y2="453.88528527875076" stroke="#000000" stroke-width="0.35"/>
  <circle cx="1257.2473544281322" cy="453.88528527875076" r="1.2" fill="#000000" stroke="none"/>
  <line x1="1246.8714894614623" y1="462.2566081718748" x2="1252.1615567320946" y2="469.53776112124933" stroke="#000000" stroke-width="0.35"/>
  <circle cx="1252.1615567320946" cy="469.53776112124933" r="1.2" fill="#000000" stroke="none"/>
  <line x1="1240.9936369385377" y1="462.2566081718748" x2="1235.7035696679054" y2="469.53776112124933" stroke="#000000" stroke-width="0.35"/>
  <circle cx="1235.7035696679054" cy="469.53776112124933" r="1.2" fill="#000000" stroke="none"/>
  <line x1="1239.1772806185243" y1="456.6664382281253" x2="1230.6177719718678" y2="453.88528527875076" stroke="#000000" stroke-width="0.35"/>
  <circle cx="1230.6177719718678" cy="453.88528527875076" r="1.2" fill="#000000" stroke="none"/>
  <rect x="1396.2984768000001" y="414.21152320000004" width="16" height="65" fill="white" stroke="#000000" stroke-width="0.6"/>
  <line x1="1396.2984768000001" y1="430.46152320000004" x2="1412.2984768000001" y2="430.46152320000004" stroke="#000000" stroke-width="0.35"/>
  <line x1="1396.2984768000001" y1="446.71152320000004" x2="1412.2984768000001" y2="446.71152320000004" stroke="#000000" stroke-width="0.35"/>
  <line x1="1396.2984768000001" y1="462.96152320000004" x2="1412.2984768000001" y2="462.96152320000004" stroke="#000000" stroke-width="0.35"/>
  <text x="1298.11552" y="535" text-anchor="middle" font-family="'Arial Narrow', Arial, sans-serif" font-size="9" fill="#000" font-weight="bold">Phòng làm việc</text>
  <text x="1298.11552" y="547" text-anchor="middle" font-family="'Arial Narrow', Arial, sans-serif" font-size="7.5" fill="#333">19.9m²</text>
  <polygon points="207.67,383.33 207.67,690.67 219.97,690.67 219.97,383.33" fill="url(#hatch-ext)" stroke="#000" stroke-width="1.4"/>
  <line x1="207.67320000000004" y1="383.33000000000004" x2="207.67320000000004" y2="690.6700000000001" stroke="#000" stroke-width="1.5" stroke-linecap="square"/>
  <line x1="219.96680000000006" y1="383.33000000000004" x2="219.96680000000006" y2="690.6700000000001" stroke="#000" stroke-width="1.5" stroke-linecap="square"/>
  <polygon points="1437.03,383.33 1437.03,690.67 1449.33,690.67 1449.33,383.33" fill="url(#hatch-ext)" stroke="#000" stroke-width="1.4"/>
  <line x1="1437.0331999999999" y1="383.33000000000004" x2="1437.0331999999999" y2="690.6700000000001" stroke="#000" stroke-width="1.5" stroke-linecap="square"/>
  <line x1="1449.3267999999998" y1="383.33000000000004" x2="1449.3267999999998" y2="690.6700000000001" stroke="#000" stroke-width="1.5" stroke-linecap="square"/>
  <polygon points="213.82,389.48 1443.18,389.48 1443.18,377.18 213.82,377.18" fill="url(#hatch-ext)" stroke="#000" stroke-width="1.4"/>
  <line x1="213.82000000000005" y1="389.4768" x2="1443.1799999999998" y2="389.4768" stroke="#000" stroke-width="1.5" stroke-linecap="square"/>
  <line x1="213.82000000000005" y1="377.18320000000006" x2="1443.1799999999998" y2="377.18320000000006" stroke="#000" stroke-width="1.5" stroke-linecap="square"/>
  <polygon points="213.82,696.82 1443.18,696.82 1443.18,684.52 213.82,684.52" fill="url(#hatch-ext)" stroke="#000" stroke-width="1.4"/>
  <line x1="213.82000000000005" y1="696.8168000000001" x2="1443.1799999999998" y2="696.8168000000001" stroke="#000" stroke-width="1.5" stroke-linecap="square"/>
  <line x1="213.82000000000005" y1="684.5232000000001" x2="1443.1799999999998" y2="684.5232000000001" stroke="#000" stroke-width="1.5" stroke-linecap="square"/>
  <polygon points="529.77,395.62 529.77,678.38 537.14,678.38 537.14,395.62" fill="url(#hatch-int)" stroke="#000" stroke-width="0.7"/>
  <line x1="529.76552" y1="395.62360000000007" x2="529.76552" y2="678.3764" stroke="#000" stroke-width="0.8" stroke-linecap="square"/>
  <line x1="537.1416800000001" y1="395.62360000000007" x2="537.1416800000001" y2="678.3764" stroke="#000" stroke-width="0.8" stroke-linecap="square"/>
  <polygon points="795.31,395.62 795.31,678.38 802.68,678.38 802.68,395.62" fill="url(#hatch-int)" stroke="#000" stroke-width="0.7"/>
  <line x1="795.30728" y1="395.62360000000007" x2="795.30728" y2="678.3764" stroke="#000" stroke-width="0.8" stroke-linecap="square"/>
  <line x1="802.68344" y1="395.62360000000007" x2="802.68344" y2="678.3764" stroke="#000" stroke-width="0.8" stroke-linecap="square"/>
  <polygon points="1023.97,395.62 1023.97,678.38 1031.34,678.38 1031.34,395.62" fill="url(#hatch-int)" stroke="#000" stroke-width="0.7"/>
  <line x1="1023.96824" y1="395.62360000000007" x2="1023.96824" y2="678.3764" stroke="#000" stroke-width="0.8" stroke-linecap="square"/>
  <line x1="1031.3444" y1="395.62360000000007" x2="1031.3444" y2="678.3764" stroke="#000" stroke-width="0.8" stroke-linecap="square"/>
  <polygon points="1154.28,395.62 1154.28,678.38 1161.66,678.38 1161.66,395.62" fill="url(#hatch-int)" stroke="#000" stroke-width="0.7"/>
  <line x1="1154.2804" y1="395.62360000000007" x2="1154.2804" y2="678.3764" stroke="#000" stroke-width="0.8" stroke-linecap="square"/>
  <line x1="1161.65656" y1="395.62360000000007" x2="1161.65656" y2="678.3764" stroke="#000" stroke-width="0.8" stroke-linecap="square"/>
  <polygon points="206.17,568.73 206.17,505.27 221.47,505.27 221.47,568.73" fill="white" stroke="none"/>
  <polygon points="528.27,565.66 528.27,508.34 538.64,508.34 538.64,565.66" fill="white" stroke="none"/>
  <polygon points="793.81,565.66 793.81,508.34 804.18,508.34 804.18,565.66" fill="white" stroke="none"/>
  <polygon points="1022.47,565.66 1022.47,508.34 1032.84,508.34 1032.84,565.66" fill="white" stroke="none"/>
  <rect x="212.82000000000005" y="483.2522" width="75.76159999999999" height="15.2936" fill="white" stroke="none"/>
  <line x1="213.82000000000005" y1="487.899" x2="287.58160000000004" y2="487.899" stroke="#000000" stroke-width="2"/>
  <line x1="213.82000000000005" y1="493.899" x2="287.58160000000004" y2="493.899" stroke="#000000" stroke-width="2"/>
  <line x1="213.82000000000005" y1="487.899" x2="213.82000000000005" y2="493.899" stroke="#000000" stroke-width="1"/>
  <line x1="287.58160000000004" y1="487.899" x2="287.58160000000004" y2="493.899" stroke="#000000" stroke-width="1"/>
  <line x1="213.82000000000005" y1="487.899" x2="287.58160000000004" y2="493.899" stroke="#000000" stroke-width="0.5"/>
  <line x1="287.58160000000004" y1="487.899" x2="213.82000000000005" y2="493.899" stroke="#000000" stroke-width="0.5"/>
  <rect x="240.70080000000004" y="468.899" width="20" height="12" rx="2" fill="white" stroke="#000" stroke-width="0.5"/>
  <text x="250.70080000000004" y="478.899" text-anchor="middle" font-family="'Arial Narrow', Arial, sans-serif" font-size="7" fill="#000">S1</text>
  <rect x="1442.1799999999998" y="492.47240000000005" width="63.467999999999996" height="15.2936" fill="white" stroke="none"/>
  <line x1="1443.1799999999998" y1="497.11920000000003" x2="1504.648" y2="497.11920000000003" stroke="#000000" stroke-width="2"/>
  <line x1="1443.1799999999998" y1="503.11920000000003" x2="1504.648" y2="503.11920000000003" stroke="#000000" stroke-width="2"/>
  <line x1="1443.1799999999998" y1="497.11920000000003" x2="1443.1799999999998" y2="503.11920000000003" stroke="#000000" stroke-width="1"/>
  <line x1="1504.648" y1="497.11920000000003" x2="1504.648" y2="503.11920000000003" stroke="#000000" stroke-width="1"/>
  <line x1="1443.1799999999998" y1="497.11920000000003" x2="1504.648" y2="503.11920000000003" stroke="#000000" stroke-width="0.5"/>
  <line x1="1504.648" y1="497.11920000000003" x2="1443.1799999999998" y2="503.11920000000003" stroke="#000000" stroke-width="0.5"/>
  <rect x="1463.9139999999998" y="478.11920000000003" width="20" height="12" rx="2" fill="white" stroke="#000" stroke-width="0.5"/>
  <text x="1473.9139999999998" y="488.11920000000003" text-anchor="middle" font-family="'Arial Narrow', Arial, sans-serif" font-size="7" fill="#000">S2</text>
  <line x1="213.82000000000005" y1="506.266" x2="275.28800000000007" y2="506.266" stroke="#000000" stroke-width="2"/>
  <line x1="213.82000000000005" y1="506.266" x2="213.82000000000005" y2="567.734" stroke="#000000" stroke-width="0.8"/>
  <path d="M 213.82000000000005 567.734 A 61.467999999999996 61.467999999999996 0 0 1 275.28800000000007 506.266" fill="none" stroke="#000000" stroke-width="0.7"/>
  <rect x="234.55400000000006" y="486.266" width="20" height="12" rx="2" fill="white" stroke="#000" stroke-width="0.5"/>
  <text x="244.55400000000006" y="496.266" text-anchor="middle" font-family="'Arial Narrow', Arial, sans-serif" font-size="7" fill="#000">D1</text>
  <line x1="533.4536" y1="509.3394" x2="588.7748" y2="509.3394" stroke="#000000" stroke-width="2"/>
  <line x1="533.4536" y1="509.3394" x2="533.4536" y2="564.6606" stroke="#000000" stroke-width="0.8"/>
  <path d="M 533.4536 564.6606 A 55.3212 55.3212 0 0 1 588.7748 509.3394" fill="none" stroke="#000000" stroke-width="0.7"/>
  <rect x="551.1142000000001" y="489.3394" width="20" height="12" rx="2" fill="white" stroke="#000" stroke-width="0.5"/>
  <text x="561.1142000000001" y="499.3394" text-anchor="middle" font-family="'Arial Narrow', Arial, sans-serif" font-size="7" fill="#000">D2</text>
  <line x1="798.99536" y1="509.3394" x2="854.31656" y2="509.3394" stroke="#000000" stroke-width="2"/>
  <line x1="798.99536" y1="509.3394" x2="798.99536" y2="564.6606" stroke="#000000" stroke-width="0.8"/>
  <path d="M 798.99536 564.6606 A 55.3212 55.3212 0 0 1 854.31656 509.3394" fill="none" stroke="#000000" stroke-width="0.7"/>
  <rect x="816.65596" y="489.3394" width="20" height="12" rx="2" fill="white" stroke="#000" stroke-width="0.5"/>
  <text x="826.65596" y="499.3394" text-anchor="middle" font-family="'Arial Narrow', Arial, sans-serif" font-size="7" fill="#000">D3</text>
  <line x1="1027.65632" y1="509.3394" x2="1082.9775200000001" y2="509.3394" stroke="#000000" stroke-width="2"/>
  <line x1="1027.65632" y1="509.3394" x2="1027.65632" y2="564.6606" stroke="#000000" stroke-width="0.8"/>
  <path d="M 1027.65632 564.6606 A 55.3212 55.3212 0 0 1 1082.9775200000001 509.3394" fill="none" stroke="#000000" stroke-width="0.7"/>
  <rect x="1045.31692" y="489.3394" width="20" height="12" rx="2" fill="white" stroke="#000" stroke-width="0.5"/>
  <text x="1055.31692" y="499.3394" text-anchor="middle" font-family="'Arial Narrow', Arial, sans-serif" font-size="7" fill="#000">D4</text>
  <circle cx="1473.1799999999998" cy="413.33000000000004" r="16" fill="white" stroke="#000" stroke-width="1"/>
  <path d="M 1473.1799999999998 400.33000000000004 L 1468.1799999999998 413.33000000000004 L 1473.1799999999998 408.33000000000004 L 1478.1799999999998 413.33000000000004 Z" fill="#000" stroke="none"/>
  <path d="M 1473.1799999999998 426.33000000000004 L 1468.1799999999998 413.33000000000004 L 1473.1799999999998 418.33000000000004 L 1478.1799999999998 413.33000000000004 Z" fill="white" stroke="#000" stroke-width="0.6"/>
  <text x="1473.1799999999998" y="393.33000000000004" text-anchor="middle" font-family="'Arial Narrow', Arial, sans-serif" font-size="9" fill="#000" font-weight="bold">N</text>
  <rect x="213.82000000000005" y="383.33000000000004" width="1229.36" height="307.34" fill="none" stroke="#000000" stroke-width="2"/>
  <line x1="213.82000000000005" y1="692.6700000000001" x2="213.82000000000005" y2="712.6700000000001" stroke="#000000" stroke-width="0.35"/>
  <line x1="226.11360000000005" y1="692.6700000000001" x2="226.11360000000005" y2="712.6700000000001" stroke="#000000" stroke-width="0.35"/>
  <line x1="213.82000000000005" y1="710.6700000000001" x2="226.11360000000005" y2="710.6700000000001" stroke="#000000" stroke-width="0.5"/>
  <line x1="211.82000000000005" y1="714.6700000000001" x2="215.82000000000005" y2="706.6700000000001" stroke="#000000" stroke-width="0.8"/>
  <line x1="224.11360000000005" y1="714.6700000000001" x2="228.11360000000005" y2="706.6700000000001" stroke="#000000" stroke-width="0.8"/>
  <text x="219.96680000000003" y="705.6700000000001" text-anchor="middle" font-family="'Arial Narrow', Arial, sans-serif" font-size="10" fill="#000000">200</text>
  <line x1="226.11360000000005" y1="692.6700000000001" x2="226.11360000000005" y2="712.6700000000001" stroke="#000000" stroke-width="0.35"/>
  <line x1="533.4536" y1="692.6700000000001" x2="533.4536" y2="712.6700000000001" stroke="#000000" stroke-width="0.35"/>
  <line x1="226.11360000000005" y1="710.6700000000001" x2="533.4536" y2="710.6700000000001" stroke="#000000" stroke-width="0.5"/>
  <line x1="224.11360000000005" y1="714.6700000000001" x2="228.11360000000005" y2="706.6700000000001" stroke="#000000" stroke-width="0.8"/>
  <line x1="531.4536" y1="714.6700000000001" x2="535.4536" y2="706.6700000000001" stroke="#000000" stroke-width="0.8"/>
  <text x="379.78360000000004" y="705.6700000000001" text-anchor="middle" font-family="'Arial Narrow', Arial, sans-serif" font-size="10" fill="#000000">5000</text>
  <line x1="533.4536" y1="692.6700000000001" x2="533.4536" y2="712.6700000000001" stroke="#000000" stroke-width="0.35"/>
  <line x1="540.8297600000001" y1="692.6700000000001" x2="540.8297600000001" y2="712.6700000000001" stroke="#000000" stroke-width="0.35"/>
  <line x1="533.4536" y1="710.6700000000001" x2="540.8297600000001" y2="710.6700000000001" stroke="#000000" stroke-width="0.5"/>
  <line x1="531.4536" y1="714.6700000000001" x2="535.4536" y2="706.6700000000001" stroke="#000000" stroke-width="0.8"/>
  <line x1="538.8297600000001" y1="714.6700000000001" x2="542.8297600000001" y2="706.6700000000001" stroke="#000000" stroke-width="0.8"/>
  <text x="537.1416800000001" y="705.6700000000001" text-anchor="middle" font-family="'Arial Narrow', Arial, sans-serif" font-size="10" fill="#000000">120</text>
  <line x1="540.8297600000001" y1="692.6700000000001" x2="540.8297600000001" y2="712.6700000000001" stroke="#000000" stroke-width="0.35"/>
  <line x1="722.16036" y1="692.6700000000001" x2="722.16036" y2="712.6700000000001" stroke="#000000" stroke-width="0.35"/>
  <line x1="540.8297600000001" y1="710.6700000000001" x2="722.16036" y2="710.6700000000001" stroke="#000000" stroke-width="0.5"/>
  <line x1="538.8297600000001" y1="714.6700000000001" x2="542.8297600000001" y2="706.6700000000001" stroke="#000000" stroke-width="0.8"/>
  <line x1="720.16036" y1="714.6700000000001" x2="724.16036" y2="706.6700000000001" stroke="#000000" stroke-width="0.8"/>
  <text x="631.49506" y="705.6700000000001" text-anchor="middle" font-family="'Arial Narrow', Arial, sans-serif" font-size="10" fill="#000000">2950</text>
  <line x1="722.16036" y1="692.6700000000001" x2="722.16036" y2="712.6700000000001" stroke="#000000" stroke-width="0.35"/>
  <line x1="798.99536" y1="692.6700000000001" x2="798.99536" y2="712.6700000000001" stroke="#000000" stroke-width="0.35"/>
  <line x1="722.16036" y1="710.6700000000001" x2="798.99536" y2="710.6700000000001" stroke="#000000" stroke-width="0.5"/>
  <line x1="720.16036" y1="714.6700000000001" x2="724.16036" y2="706.6700000000001" stroke="#000000" stroke-width="0.8"/>
  <line x1="796.99536" y1="714.6700000000001" x2="800.99536" y2="706.6700000000001" stroke="#000000" stroke-width="0.8"/>
  <text x="760.57786" y="705.6700000000001" text-anchor="middle" font-family="'Arial Narrow', Arial, sans-serif" font-size="10" fill="#000000">1250</text>
  <line x1="798.99536" y1="692.6700000000001" x2="798.99536" y2="712.6700000000001" stroke="#000000" stroke-width="0.35"/>
  <line x1="806.37152" y1="692.6700000000001" x2="806.37152" y2="712.6700000000001" stroke="#000000" stroke-width="0.35"/>
  <line x1="798.99536" y1="710.6700000000001" x2="806.37152" y2="710.6700000000001" stroke="#000000" stroke-width="0.5"/>
  <line x1="796.99536" y1="714.6700000000001" x2="800.99536" y2="706.6700000000001" stroke="#000000" stroke-width="0.8"/>
  <line x1="804.37152" y1="714.6700000000001" x2="808.37152" y2="706.6700000000001" stroke="#000000" stroke-width="0.8"/>
  <text x="802.68344" y="705.6700000000001" text-anchor="middle" font-family="'Arial Narrow', Arial, sans-serif" font-size="10" fill="#000000">120</text>
  <line x1="806.37152" y1="692.6700000000001" x2="806.37152" y2="712.6700000000001" stroke="#000000" stroke-width="0.35"/>
  <line x1="875.83036" y1="692.6700000000001" x2="875.83036" y2="712.6700000000001" stroke="#000000" stroke-width="0.35"/>
  <line x1="806.37152" y1="710.6700000000001" x2="875.83036" y2="710.6700000000001" stroke="#000000" stroke-width="0.5"/>
  <line x1="804.37152" y1="714.6700000000001" x2="808.37152" y2="706.6700000000001" stroke="#000000" stroke-width="0.8"/>
  <line x1="873.83036" y1="714.6700000000001" x2="877.83036" y2="706.6700000000001" stroke="#000000" stroke-width="0.8"/>
  <text x="841.10094" y="705.6700000000001" text-anchor="middle" font-family="'Arial Narrow', Arial, sans-serif" font-size="10" fill="#000000">1130</text>
  <line x1="875.83036" y1="692.6700000000001" x2="875.83036" y2="712.6700000000001" stroke="#000000" stroke-width="0.35"/>
  <line x1="1027.65632" y1="692.6700000000001" x2="1027.65632" y2="712.6700000000001" stroke="#000000" stroke-width="0.35"/>
  <line x1="875.83036" y1="710.6700000000001" x2="1027.65632" y2="710.6700000000001" stroke="#000000" stroke-width="0.5"/>
  <line x1="873.83036" y1="714.6700000000001" x2="877.83036" y2="706.6700000000001" stroke="#000000" stroke-width="0.8"/>
  <line x1="1025.65632" y1="714.6700000000001" x2="1029.65632" y2="706.6700000000001" stroke="#000000" stroke-width="0.8"/>
  <text x="951.74334" y="705.6700000000001" text-anchor="middle" font-family="'Arial Narrow', Arial, sans-serif" font-size="10" fill="#000000">2470</text>
  <line x1="1027.65632" y1="692.6700000000001" x2="1027.65632" y2="712.6700000000001" stroke="#000000" stroke-width="0.35"/>
  <line x1="1035.0324799999999" y1="692.6700000000001" x2="1035.0324799999999" y2="712.6700000000001" stroke="#000000" stroke-width="0.35"/>
  <line x1="1027.65632" y1="710.6700000000001" x2="1035.0324799999999" y2="710.6700000000001" stroke="#000000" stroke-width="0.5"/>
  <line x1="1025.65632" y1="714.6700000000001" x2="1029.65632" y2="706.6700000000001" stroke="#000000" stroke-width="0.8"/>
  <line x1="1033.0324799999999" y1="714.6700000000001" x2="1037.0324799999999" y2="706.6700000000001" stroke="#000000" stroke-width="0.8"/>
  <text x="1031.3444" y="705.6700000000001" text-anchor="middle" font-family="'Arial Narrow', Arial, sans-serif" font-size="10" fill="#000000">120</text>
  <line x1="1035.0324799999999" y1="692.6700000000001" x2="1035.0324799999999" y2="712.6700000000001" stroke="#000000" stroke-width="0.35"/>
  <line x1="1157.96848" y1="692.6700000000001" x2="1157.96848" y2="712.6700000000001" stroke="#000000" stroke-width="0.35"/>
  <line x1="1035.0324799999999" y1="710.6700000000001" x2="1157.96848" y2="710.6700000000001" stroke="#000000" stroke-width="0.5"/>
  <line x1="1033.0324799999999" y1="714.6700000000001" x2="1037.0324799999999" y2="706.6700000000001" stroke="#000000" stroke-width="0.8"/>
  <line x1="1155.96848" y1="714.6700000000001" x2="1159.96848" y2="706.6700000000001" stroke="#000000" stroke-width="0.8"/>
  <text x="1096.50048" y="705.6700000000001" text-anchor="middle" font-family="'Arial Narrow', Arial, sans-serif" font-size="10" fill="#000000">2000</text>
  <line x1="1157.96848" y1="692.6700000000001" x2="1157.96848" y2="712.6700000000001" stroke="#000000" stroke-width="0.35"/>
  <line x1="1165.34464" y1="692.6700000000001" x2="1165.34464" y2="712.6700000000001" stroke="#000000" stroke-width="0.35"/>
  <line x1="1157.96848" y1="710.6700000000001" x2="1165.34464" y2="710.6700000000001" stroke="#000000" stroke-width="0.5"/>
  <line x1="1155.96848" y1="714.6700000000001" x2="1159.96848" y2="706.6700000000001" stroke="#000000" stroke-width="0.8"/>
  <line x1="1163.34464" y1="714.6700000000001" x2="1167.34464" y2="706.6700000000001" stroke="#000000" stroke-width="0.8"/>
  <text x="1161.65656" y="705.6700000000001" text-anchor="middle" font-family="'Arial Narrow', Arial, sans-serif" font-size="10" fill="#000000">120</text>
  <line x1="1165.34464" y1="692.6700000000001" x2="1165.34464" y2="712.6700000000001" stroke="#000000" stroke-width="0.35"/>
  <line x1="1430.8863999999999" y1="692.6700000000001" x2="1430.8863999999999" y2="712.6700000000001" stroke="#000000" stroke-width="0.35"/>
  <line x1="1165.34464" y1="710.6700000000001" x2="1430.8863999999999" y2="710.6700000000001" stroke="#000000" stroke-width="0.5"/>
  <line x1="1163.34464" y1="714.6700000000001" x2="1167.34464" y2="706.6700000000001" stroke="#000000" stroke-width="0.8"/>
  <line x1="1428.8863999999999" y1="714.6700000000001" x2="1432.8863999999999" y2="706.6700000000001" stroke="#000000" stroke-width="0.8"/>
  <text x="1298.1155199999998" y="705.6700000000001" text-anchor="middle" font-family="'Arial Narrow', Arial, sans-serif" font-size="10" fill="#000000">4320</text>
  <line x1="1430.8863999999999" y1="692.6700000000001" x2="1430.8863999999999" y2="712.6700000000001" stroke="#000000" stroke-width="0.35"/>
  <line x1="1443.1799999999998" y1="692.6700000000001" x2="1443.1799999999998" y2="712.6700000000001" stroke="#000000" stroke-width="0.35"/>
  <line x1="1430.8863999999999" y1="710.6700000000001" x2="1443.1799999999998" y2="710.6700000000001" stroke="#000000" stroke-width="0.5"/>
  <line x1="1428.8863999999999" y1="714.6700000000001" x2="1432.8863999999999" y2="706.6700000000001" stroke="#000000" stroke-width="0.8"/>
  <line x1="1441.1799999999998" y1="714.6700000000001" x2="1445.1799999999998" y2="706.6700000000001" stroke="#000000" stroke-width="0.8"/>
  <text x="1437.0331999999999" y="705.6700000000001" text-anchor="middle" font-family="'Arial Narrow', Arial, sans-serif" font-size="10" fill="#000000">200</text>
  <line x1="213.82000000000005" y1="692.6700000000001" x2="213.82000000000005" y2="734.6700000000001" stroke="#000000" stroke-width="0.35"/>
  <line x1="226.11360000000005" y1="692.6700000000001" x2="226.11360000000005" y2="734.6700000000001" stroke="#000000" stroke-width="0.35"/>
  <line x1="213.82000000000005" y1="732.6700000000001" x2="226.11360000000005" y2="732.6700000000001" stroke="#000000" stroke-width="0.5"/>
  <line x1="211.82000000000005" y1="736.6700000000001" x2="215.82000000000005" y2="728.6700000000001" stroke="#000000" stroke-width="0.8"/>
  <line x1="224.11360000000005" y1="736.6700000000001" x2="228.11360000000005" y2="728.6700000000001" stroke="#000000" stroke-width="0.8"/>
  <text x="219.96680000000003" y="727.6700000000001" text-anchor="middle" font-family="'Arial Narrow', Arial, sans-serif" font-size="10" fill="#000000">200</text>
  <line x1="226.11360000000005" y1="692.6700000000001" x2="226.11360000000005" y2="734.6700000000001" stroke="#000000" stroke-width="0.35"/>
  <line x1="540.8297600000001" y1="692.6700000000001" x2="540.8297600000001" y2="734.6700000000001" stroke="#000000" stroke-width="0.35"/>
  <line x1="226.11360000000005" y1="732.6700000000001" x2="540.8297600000001" y2="732.6700000000001" stroke="#000000" stroke-width="0.5"/>
  <line x1="224.11360000000005" y1="736.6700000000001" x2="228.11360000000005" y2="728.6700000000001" stroke="#000000" stroke-width="0.8"/>
  <line x1="538.8297600000001" y1="736.6700000000001" x2="542.8297600000001" y2="728.6700000000001" stroke="#000000" stroke-width="0.8"/>
  <text x="383.47168000000005" y="727.6700000000001" text-anchor="middle" font-family="'Arial Narrow', Arial, sans-serif" font-size="10" fill="#000000">5120</text>
  <line x1="540.8297600000001" y1="692.6700000000001" x2="540.8297600000001" y2="734.6700000000001" stroke="#000000" stroke-width="0.35"/>
  <line x1="722.16036" y1="692.6700000000001" x2="722.16036" y2="734.6700000000001" stroke="#000000" stroke-width="0.35"/>
  <line x1="540.8297600000001" y1="732.6700000000001" x2="722.16036" y2="732.6700000000001" stroke="#000000" stroke-width="0.5"/>
  <line x1="538.8297600000001" y1="736.6700000000001" x2="542.8297600000001" y2="728.6700000000001" stroke="#000000" stroke-width="0.8"/>
  <line x1="720.16036" y1="736.6700000000001" x2="724.16036" y2="728.6700000000001" stroke="#000000" stroke-width="0.8"/>
  <text x="631.49506" y="727.6700000000001" text-anchor="middle" font-family="'Arial Narrow', Arial, sans-serif" font-size="10" fill="#000000">2950</text>
  <line x1="722.16036" y1="692.6700000000001" x2="722.16036" y2="734.6700000000001" stroke="#000000" stroke-width="0.35"/>
  <line x1="806.37152" y1="692.6700000000001" x2="806.37152" y2="734.6700000000001" stroke="#000000" stroke-width="0.35"/>
  <line x1="722.16036" y1="732.6700000000001" x2="806.37152" y2="732.6700000000001" stroke="#000000" stroke-width="0.5"/>
  <line x1="720.16036" y1="736.6700000000001" x2="724.16036" y2="728.6700000000001" stroke="#000000" stroke-width="0.8"/>
  <line x1="804.37152" y1="736.6700000000001" x2="808.37152" y2="728.6700000000001" stroke="#000000" stroke-width="0.8"/>
  <text x="764.26594" y="727.6700000000001" text-anchor="middle" font-family="'Arial Narrow', Arial, sans-serif" font-size="10" fill="#000000">1370</text>
  <line x1="806.37152" y1="692.6700000000001" x2="806.37152" y2="734.6700000000001" stroke="#000000" stroke-width="0.35"/>
  <line x1="875.83036" y1="692.6700000000001" x2="875.83036" y2="734.6700000000001" stroke="#000000" stroke-width="0.35"/>
  <line x1="806.37152" y1="732.6700000000001" x2="875.83036" y2="732.6700000000001" stroke="#000000" stroke-width="0.5"/>
  <line x1="804.37152" y1="736.6700000000001" x2="808.37152" y2="728.6700000000001" stroke="#000000" stroke-width="0.8"/>
  <line x1="873.83036" y1="736.6700000000001" x2="877.83036" y2="728.6700000000001" stroke="#000000" stroke-width="0.8"/>
  <text x="841.10094" y="727.6700000000001" text-anchor="middle" font-family="'Arial Narrow', Arial, sans-serif" font-size="10" fill="#000000">1130</text>
  <line x1="875.83036" y1="692.6700000000001" x2="875.83036" y2="734.6700000000001" stroke="#000000" stroke-width="0.35"/>
  <line x1="1035.0324799999999" y1="692.6700000000001" x2="1035.0324799999999" y2="734.6700000000001" stroke="#000000" stroke-width="0.35"/>
  <line x1="875.83036" y1="732.6700000000001" x2="1035.0324799999999" y2="732.6700000000001" stroke="#000000" stroke-width="0.5"/>
  <line x1="873.83036" y1="736.6700000000001" x2="877.83036" y2="728.6700000000001" stroke="#000000" stroke-width="0.8"/>
  <line x1="1033.0324799999999" y1="736.6700000000001" x2="1037.0324799999999" y2="728.6700000000001" stroke="#000000" stroke-width="0.8"/>
  <text x="955.4314199999999" y="727.6700000000001" text-anchor="middle" font-family="'Arial Narrow', Arial, sans-serif" font-size="10" fill="#000000">2590</text>
  <line x1="1035.0324799999999" y1="692.6700000000001" x2="1035.0324799999999" y2="734.6700000000001" stroke="#000000" stroke-width="0.35"/>
  <line x1="1165.34464" y1="692.6700000000001" x2="1165.34464" y2="734.6700000000001" stroke="#000000" stroke-width="0.35"/>
  <line x1="1035.0324799999999" y1="732.6700000000001" x2="1165.34464" y2="732.6700000000001" stroke="#000000" stroke-width="0.5"/>
  <line x1="1033.0324799999999" y1="736.6700000000001" x2="1037.0324799999999" y2="728.6700000000001" stroke="#000000" stroke-width="0.8"/>
  <line x1="1163.34464" y1="736.6700000000001" x2="1167.34464" y2="728.6700000000001" stroke="#000000" stroke-width="0.8"/>
  <text x="1100.18856" y="727.6700000000001" text-anchor="middle" font-family="'Arial Narrow', Arial, sans-serif" font-size="10" fill="#000000">2120</text>
  <line x1="1165.34464" y1="692.6700000000001" x2="1165.34464" y2="734.6700000000001" stroke="#000000" stroke-width="0.35"/>
  <line x1="1443.1799999999998" y1="692.6700000000001" x2="1443.1799999999998" y2="734.6700000000001" stroke="#000000" stroke-width="0.35"/>
  <line x1="1165.34464" y1="732.6700000000001" x2="1443.1799999999998" y2="732.6700000000001" stroke="#000000" stroke-width="0.5"/>
  <line x1="1163.34464" y1="736.6700000000001" x2="1167.34464" y2="728.6700000000001" stroke="#000000" stroke-width="0.8"/>
  <line x1="1441.1799999999998" y1="736.6700000000001" x2="1445.1799999999998" y2="728.6700000000001" stroke="#000000" stroke-width="0.8"/>
  <text x="1304.2623199999998" y="727.6700000000001" text-anchor="middle" font-family="'Arial Narrow', Arial, sans-serif" font-size="10" fill="#000000">4520</text>
  <line x1="213.82000000000005" y1="692.6700000000001" x2="213.82000000000005" y2="756.6700000000001" stroke="#000000" stroke-width="0.35"/>
  <line x1="1443.1799999999998" y1="692.6700000000001" x2="1443.1799999999998" y2="756.6700000000001" stroke="#000000" stroke-width="0.35"/>
  <line x1="213.82000000000005" y1="754.6700000000001" x2="1443.1799999999998" y2="754.6700000000001" stroke="#000000" stroke-width="0.5"/>
  <line x1="211.82000000000005" y1="758.6700000000001" x2="215.82000000000005" y2="750.6700000000001" stroke="#000000" stroke-width="0.8"/>
  <line x1="1441.1799999999998" y1="758.6700000000001" x2="1445.1799999999998" y2="750.6700000000001" stroke="#000000" stroke-width="0.8"/>
  <text x="828.5" y="749.6700000000001" text-anchor="middle" font-family="'Arial Narrow', Arial, sans-serif" font-size="10" fill="#000000">20000</text>
  <line x1="211.82000000000005" y1="383.33000000000004" x2="191.82000000000005" y2="383.33000000000004" stroke="#000000" stroke-width="0.35"/>
  <line x1="211.82000000000005" y1="395.62360000000007" x2="191.82000000000005" y2="395.62360000000007" stroke="#000000" stroke-width="0.35"/>
  <line x1="193.82000000000005" y1="383.33000000000004" x2="193.82000000000005" y2="395.62360000000007" stroke="#000000" stroke-width="0.5"/>
  <line x1="189.82000000000005" y1="385.33000000000004" x2="197.82000000000005" y2="381.33000000000004" stroke="#000000" stroke-width="0.8"/>
  <line x1="189.82000000000005" y1="397.62360000000007" x2="197.82000000000005" y2="393.62360000000007" stroke="#000000" stroke-width="0.8"/>
  <text x="185.82000000000005" y="389.4768" text-anchor="middle" font-family="'Arial Narrow', Arial, sans-serif" font-size="7.5" fill="#000000" transform="rotate(-90, 185.82000000000005, 389.4768)">200</text>
  <line x1="211.82000000000005" y1="395.62360000000007" x2="191.82000000000005" y2="395.62360000000007" stroke="#000000" stroke-width="0.35"/>
  <line x1="211.82000000000005" y1="678.3764" x2="191.82000000000005" y2="678.3764" stroke="#000000" stroke-width="0.35"/>
  <line x1="193.82000000000005" y1="395.62360000000007" x2="193.82000000000005" y2="678.3764" stroke="#000000" stroke-width="0.5"/>
  <line x1="189.82000000000005" y1="397.62360000000007" x2="197.82000000000005" y2="393.62360000000007" stroke="#000000" stroke-width="0.8"/>
  <line x1="189.82000000000005" y1="680.3764" x2="197.82000000000005" y2="676.3764" stroke="#000000" stroke-width="0.8"/>
  <text x="185.82000000000005" y="537" text-anchor="middle" font-family="'Arial Narrow', Arial, sans-serif" font-size="7.5" fill="#000000" transform="rotate(-90, 185.82000000000005, 537)">4600</text>
  <line x1="211.82000000000005" y1="678.3764" x2="191.82000000000005" y2="678.3764" stroke="#000000" stroke-width="0.35"/>
  <line x1="211.82000000000005" y1="690.6700000000001" x2="191.82000000000005" y2="690.6700000000001" stroke="#000000" stroke-width="0.35"/>
  <line x1="193.82000000000005" y1="678.3764" x2="193.82000000000005" y2="690.6700000000001" stroke="#000000" stroke-width="0.5"/>
  <line x1="189.82000000000005" y1="680.3764" x2="197.82000000000005" y2="676.3764" stroke="#000000" stroke-width="0.8"/>
  <line x1="189.82000000000005" y1="692.6700000000001" x2="197.82000000000005" y2="688.6700000000001" stroke="#000000" stroke-width="0.8"/>
  <text x="185.82000000000005" y="684.5232000000001" text-anchor="middle" font-family="'Arial Narrow', Arial, sans-serif" font-size="7.5" fill="#000000" transform="rotate(-90, 185.82000000000005, 684.5232000000001)">200</text>
  <line x1="211.82000000000005" y1="383.33000000000004" x2="169.82000000000005" y2="383.33000000000004" stroke="#000000" stroke-width="0.35"/>
  <line x1="211.82000000000005" y1="690.6700000000001" x2="169.82000000000005" y2="690.6700000000001" stroke="#000000" stroke-width="0.35"/>
  <line x1="171.82000000000005" y1="383.33000000000004" x2="171.82000000000005" y2="690.6700000000001" stroke="#000000" stroke-width="0.5"/>
  <line x1="167.82000000000005" y1="385.33000000000004" x2="175.82000000000005" y2="381.33000000000004" stroke="#000000" stroke-width="0.8"/>
  <line x1="167.82000000000005" y1="692.6700000000001" x2="175.82000000000005" y2="688.6700000000001" stroke="#000000" stroke-width="0.8"/>
  <text x="163.82000000000005" y="537" text-anchor="middle" font-family="'Arial Narrow', Arial, sans-serif" font-size="7.5" fill="#000000" transform="rotate(-90, 163.82000000000005, 537)">5000</text>
  <line x1="211.82000000000005" y1="383.33000000000004" x2="147.82000000000005" y2="383.33000000000004" stroke="#000000" stroke-width="0.35"/>
  <line x1="211.82000000000005" y1="690.6700000000001" x2="147.82000000000005" y2="690.6700000000001" stroke="#000000" stroke-width="0.35"/>
  <line x1="149.82000000000005" y1="383.33000000000004" x2="149.82000000000005" y2="690.6700000000001" stroke="#000000" stroke-width="0.5"/>
  <line x1="145.82000000000005" y1="385.33000000000004" x2="153.82000000000005" y2="381.33000000000004" stroke="#000000" stroke-width="0.8"/>
  <line x1="145.82000000000005" y1="692.6700000000001" x2="153.82000000000005" y2="688.6700000000001" stroke="#000000" stroke-width="0.8"/>
  <text x="141.82000000000005" y="537" text-anchor="middle" font-family="'Arial Narrow', Arial, sans-serif" font-size="7.5" fill="#000000" transform="rotate(-90, 141.82000000000005, 537)">5000</text>
  <line x1="213.82000000000005" y1="381.33000000000004" x2="213.82000000000005" y2="361.33000000000004" stroke="#000000" stroke-width="0.35"/>
  <line x1="226.11360000000005" y1="381.33000000000004" x2="226.11360000000005" y2="361.33000000000004" stroke="#000000" stroke-width="0.35"/>
  <line x1="213.82000000000005" y1="363.33000000000004" x2="226.11360000000005" y2="363.33000000000004" stroke="#000000" stroke-width="0.5"/>
  <line x1="211.82000000000005" y1="367.33000000000004" x2="215.82000000000005" y2="359.33000000000004" stroke="#000000" stroke-width="0.8"/>
  <line x1="224.11360000000005" y1="367.33000000000004" x2="228.11360000000005" y2="359.33000000000004" stroke="#000000" stroke-width="0.8"/>
  <text x="219.96680000000003" y="376.33000000000004" text-anchor="middle" font-family="'Arial Narrow', Arial, sans-serif" font-size="10" fill="#000000">200</text>
  <line x1="226.11360000000005" y1="381.33000000000004" x2="226.11360000000005" y2="361.33000000000004" stroke="#000000" stroke-width="0.35"/>
  <line x1="533.4536" y1="381.33000000000004" x2="533.4536" y2="361.33000000000004" stroke="#000000" stroke-width="0.35"/>
  <line x1="226.11360000000005" y1="363.33000000000004" x2="533.4536" y2="363.33000000000004" stroke="#000000" stroke-width="0.5"/>
  <line x1="224.11360000000005" y1="367.33000000000004" x2="228.11360000000005" y2="359.33000000000004" stroke="#000000" stroke-width="0.8"/>
  <line x1="531.4536" y1="367.33000000000004" x2="535.4536" y2="359.33000000000004" stroke="#000000" stroke-width="0.8"/>
  <text x="379.78360000000004" y="376.33000000000004" text-anchor="middle" font-family="'Arial Narrow', Arial, sans-serif" font-size="10" fill="#000000">5000</text>
  <line x1="533.4536" y1="381.33000000000004" x2="533.4536" y2="361.33000000000004" stroke="#000000" stroke-width="0.35"/>
  <line x1="540.8297600000001" y1="381.33000000000004" x2="540.8297600000001" y2="361.33000000000004" stroke="#000000" stroke-width="0.35"/>
  <line x1="533.4536" y1="363.33000000000004" x2="540.8297600000001" y2="363.33000000000004" stroke="#000000" stroke-width="0.5"/>
  <line x1="531.4536" y1="367.33000000000004" x2="535.4536" y2="359.33000000000004" stroke="#000000" stroke-width="0.8"/>
  <line x1="538.8297600000001" y1="367.33000000000004" x2="542.8297600000001" y2="359.33000000000004" stroke="#000000" stroke-width="0.8"/>
  <text x="537.1416800000001" y="376.33000000000004" text-anchor="middle" font-family="'Arial Narrow', Arial, sans-serif" font-size="10" fill="#000000">120</text>
  <line x1="540.8297600000001" y1="381.33000000000004" x2="540.8297600000001" y2="361.33000000000004" stroke="#000000" stroke-width="0.35"/>
  <line x1="722.16036" y1="381.33000000000004" x2="722.16036" y2="361.33000000000004" stroke="#000000" stroke-width="0.35"/>
  <line x1="540.8297600000001" y1="363.33000000000004" x2="722.16036" y2="363.33000000000004" stroke="#000000" stroke-width="0.5"/>
  <line x1="538.8297600000001" y1="367.33000000000004" x2="542.8297600000001" y2="359.33000000000004" stroke="#000000" stroke-width="0.8"/>
  <line x1="720.16036" y1="367.33000000000004" x2="724.16036" y2="359.33000000000004" stroke="#000000" stroke-width="0.8"/>
  <text x="631.49506" y="376.33000000000004" text-anchor="middle" font-family="'Arial Narrow', Arial, sans-serif" font-size="10" fill="#000000">2950</text>
  <line x1="722.16036" y1="381.33000000000004" x2="722.16036" y2="361.33000000000004" stroke="#000000" stroke-width="0.35"/>
  <line x1="798.99536" y1="381.33000000000004" x2="798.99536" y2="361.33000000000004" stroke="#000000" stroke-width="0.35"/>
  <line x1="722.16036" y1="363.33000000000004" x2="798.99536" y2="363.33000000000004" stroke="#000000" stroke-width="0.5"/>
  <line x1="720.16036" y1="367.33000000000004" x2="724.16036" y2="359.33000000000004" stroke="#000000" stroke-width="0.8"/>
  <line x1="796.99536" y1="367.33000000000004" x2="800.99536" y2="359.33000000000004" stroke="#000000" stroke-width="0.8"/>
  <text x="760.57786" y="376.33000000000004" text-anchor="middle" font-family="'Arial Narrow', Arial, sans-serif" font-size="10" fill="#000000">1250</text>
  <line x1="798.99536" y1="381.33000000000004" x2="798.99536" y2="361.33000000000004" stroke="#000000" stroke-width="0.35"/>
  <line x1="806.37152" y1="381.33000000000004" x2="806.37152" y2="361.33000000000004" stroke="#000000" stroke-width="0.35"/>
  <line x1="798.99536" y1="363.33000000000004" x2="806.37152" y2="363.33000000000004" stroke="#000000" stroke-width="0.5"/>
  <line x1="796.99536" y1="367.33000000000004" x2="800.99536" y2="359.33000000000004" stroke="#000000" stroke-width="0.8"/>
  <line x1="804.37152" y1="367.33000000000004" x2="808.37152" y2="359.33000000000004" stroke="#000000" stroke-width="0.8"/>
  <text x="802.68344" y="376.33000000000004" text-anchor="middle" font-family="'Arial Narrow', Arial, sans-serif" font-size="10" fill="#000000">120</text>
  <line x1="806.37152" y1="381.33000000000004" x2="806.37152" y2="361.33000000000004" stroke="#000000" stroke-width="0.35"/>
  <line x1="875.83036" y1="381.33000000000004" x2="875.83036" y2="361.33000000000004" stroke="#000000" stroke-width="0.35"/>
  <line x1="806.37152" y1="363.33000000000004" x2="875.83036" y2="363.33000000000004" stroke="#000000" stroke-width="0.5"/>
  <line x1="804.37152" y1="367.33000000000004" x2="808.37152" y2="359.33000000000004" stroke="#000000" stroke-width="0.8"/>
  <line x1="873.83036" y1="367.33000000000004" x2="877.83036" y2="359.33000000000004" stroke="#000000" stroke-width="0.8"/>
  <text x="841.10094" y="376.33000000000004" text-anchor="middle" font-family="'Arial Narrow', Arial, sans-serif" font-size="10" fill="#000000">1130</text>
  <line x1="875.83036" y1="381.33000000000004" x2="875.83036" y2="361.33000000000004" stroke="#000000" stroke-width="0.35"/>
  <line x1="1027.65632" y1="381.33000000000004" x2="1027.65632" y2="361.33000000000004" stroke="#000000" stroke-width="0.35"/>
  <line x1="875.83036" y1="363.33000000000004" x2="1027.65632" y2="363.33000000000004" stroke="#000000" stroke-width="0.5"/>
  <line x1="873.83036" y1="367.33000000000004" x2="877.83036" y2="359.33000000000004" stroke="#000000" stroke-width="0.8"/>
  <line x1="1025.65632" y1="367.33000000000004" x2="1029.65632" y2="359.33000000000004" stroke="#000000" stroke-width="0.8"/>
  <text x="951.74334" y="376.33000000000004" text-anchor="middle" font-family="'Arial Narrow', Arial, sans-serif" font-size="10" fill="#000000">2470</text>
  <line x1="1027.65632" y1="381.33000000000004" x2="1027.65632" y2="361.33000000000004" stroke="#000000" stroke-width="0.35"/>
  <line x1="1035.0324799999999" y1="381.33000000000004" x2="1035.0324799999999" y2="361.33000000000004" stroke="#000000" stroke-width="0.35"/>
  <line x1="1027.65632" y1="363.33000000000004" x2="1035.0324799999999" y2="363.33000000000004" stroke="#000000" stroke-width="0.5"/>
  <line x1="1025.65632" y1="367.33000000000004" x2="1029.65632" y2="359.33000000000004" stroke="#000000" stroke-width="0.8"/>
  <line x1="1033.0324799999999" y1="367.33000000000004" x2="1037.0324799999999" y2="359.33000000000004" stroke="#000000" stroke-width="0.8"/>
  <text x="1031.3444" y="376.33000000000004" text-anchor="middle" font-family="'Arial Narrow', Arial, sans-serif" font-size="10" fill="#000000">120</text>
  <line x1="1035.0324799999999" y1="381.33000000000004" x2="1035.0324799999999" y2="361.33000000000004" stroke="#000000" stroke-width="0.35"/>
  <line x1="1157.96848" y1="381.33000000000004" x2="1157.96848" y2="361.33000000000004" stroke="#000000" stroke-width="0.35"/>
  <line x1="1035.0324799999999" y1="363.33000000000004" x2="1157.96848" y2="363.33000000000004" stroke="#000000" stroke-width="0.5"/>
  <line x1="1033.0324799999999" y1="367.33000000000004" x2="1037.0324799999999" y2="359.33000000000004" stroke="#000000" stroke-width="0.8"/>
  <line x1="1155.96848" y1="367.33000000000004" x2="1159.96848" y2="359.33000000000004" stroke="#000000" stroke-width="0.8"/>
  <text x="1096.50048" y="376.33000000000004" text-anchor="middle" font-family="'Arial Narrow', Arial, sans-serif" font-size="10" fill="#000000">2000</text>
  <line x1="1157.96848" y1="381.33000000000004" x2="1157.96848" y2="361.33000000000004" stroke="#000000" stroke-width="0.35"/>
  <line x1="1165.34464" y1="381.33000000000004" x2="1165.34464" y2="361.33000000000004" stroke="#000000" stroke-width="0.35"/>
  <line x1="1157.96848" y1="363.33000000000004" x2="1165.34464" y2="363.33000000000004" stroke="#000000" stroke-width="0.5"/>
  <line x1="1155.96848" y1="367.33000000000004" x2="1159.96848" y2="359.33000000000004" stroke="#000000" stroke-width="0.8"/>
  <line x1="1163.34464" y1="367.33000000000004" x2="1167.34464" y2="359.33000000000004" stroke="#000000" stroke-width="0.8"/>
  <text x="1161.65656" y="376.33000000000004" text-anchor="middle" font-family="'Arial Narrow', Arial, sans-serif" font-size="10" fill="#000000">120</text>
  <line x1="1165.34464" y1="381.33000000000004" x2="1165.34464" y2="361.33000000000004" stroke="#000000" stroke-width="0.35"/>
  <line x1="1430.8863999999999" y1="381.33000000000004" x2="1430.8863999999999" y2="361.33000000000004" stroke="#000000" stroke-width="0.35"/>
  <line x1="1165.34464" y1="363.33000000000004" x2="1430.8863999999999" y2="363.33000000000004" stroke="#000000" stroke-width="0.5"/>
  <line x1="1163.34464" y1="367.33000000000004" x2="1167.34464" y2="359.33000000000004" stroke="#000000" stroke-width="0.8"/>
  <line x1="1428.8863999999999" y1="367.33000000000004" x2="1432.8863999999999" y2="359.33000000000004" stroke="#000000" stroke-width="0.8"/>
  <text x="1298.1155199999998" y="376.33000000000004" text-anchor="middle" font-family="'Arial Narrow', Arial, sans-serif" font-size="10" fill="#000000">4320</text>
  <line x1="1430.8863999999999" y1="381.33000000000004" x2="1430.8863999999999" y2="361.33000000000004" stroke="#000000" stroke-width="0.35"/>
  <line x1="1443.1799999999998" y1="381.33000000000004" x2="1443.1799999999998" y2="361.33000000000004" stroke="#000000" stroke-width="0.35"/>
  <line x1="1430.8863999999999" y1="363.33000000000004" x2="1443.1799999999998" y2="363.33000000000004" stroke="#000000" stroke-width="0.5"/>
  <line x1="1428.8863999999999" y1="367.33000000000004" x2="1432.8863999999999" y2="359.33000000000004" stroke="#000000" stroke-width="0.8"/>
  <line x1="1441.1799999999998" y1="367.33000000000004" x2="1445.1799999999998" y2="359.33000000000004" stroke="#000000" stroke-width="0.8"/>
  <text x="1437.0331999999999" y="376.33000000000004" text-anchor="middle" font-family="'Arial Narrow', Arial, sans-serif" font-size="10" fill="#000000">200</text>
  <line x1="213.82000000000005" y1="381.33000000000004" x2="213.82000000000005" y2="339.33000000000004" stroke="#000000" stroke-width="0.35"/>
  <line x1="226.11360000000005" y1="381.33000000000004" x2="226.11360000000005" y2="339.33000000000004" stroke="#000000" stroke-width="0.35"/>
  <line x1="213.82000000000005" y1="341.33000000000004" x2="226.11360000000005" y2="341.33000000000004" stroke="#000000" stroke-width="0.5"/>
  <line x1="211.82000000000005" y1="345.33000000000004" x2="215.82000000000005" y2="337.33000000000004" stroke="#000000" stroke-width="0.8"/>
  <line x1="224.11360000000005" y1="345.33000000000004" x2="228.11360000000005" y2="337.33000000000004" stroke="#000000" stroke-width="0.8"/>
  <text x="219.96680000000003" y="354.33000000000004" text-anchor="middle" font-family="'Arial Narrow', Arial, sans-serif" font-size="10" fill="#000000">200</text>
  <line x1="226.11360000000005" y1="381.33000000000004" x2="226.11360000000005" y2="339.33000000000004" stroke="#000000" stroke-width="0.35"/>
  <line x1="540.8297600000001" y1="381.33000000000004" x2="540.8297600000001" y2="339.33000000000004" stroke="#000000" stroke-width="0.35"/>
  <line x1="226.11360000000005" y1="341.33000000000004" x2="540.8297600000001" y2="341.33000000000004" stroke="#000000" stroke-width="0.5"/>
  <line x1="224.11360000000005" y1="345.33000000000004" x2="228.11360000000005" y2="337.33000000000004" stroke="#000000" stroke-width="0.8"/>
  <line x1="538.8297600000001" y1="345.33000000000004" x2="542.8297600000001" y2="337.33000000000004" stroke="#000000" stroke-width="0.8"/>
  <text x="383.47168000000005" y="354.33000000000004" text-anchor="middle" font-family="'Arial Narrow', Arial, sans-serif" font-size="10" fill="#000000">5120</text>
  <line x1="540.8297600000001" y1="381.33000000000004" x2="540.8297600000001" y2="339.33000000000004" stroke="#000000" stroke-width="0.35"/>
  <line x1="722.16036" y1="381.33000000000004" x2="722.16036" y2="339.33000000000004" stroke="#000000" stroke-width="0.35"/>
  <line x1="540.8297600000001" y1="341.33000000000004" x2="722.16036" y2="341.33000000000004" stroke="#000000" stroke-width="0.5"/>
  <line x1="538.8297600000001" y1="345.33000000000004" x2="542.8297600000001" y2="337.33000000000004" stroke="#000000" stroke-width="0.8"/>
  <line x1="720.16036" y1="345.33000000000004" x2="724.16036" y2="337.33000000000004" stroke="#000000" stroke-width="0.8"/>
  <text x="631.49506" y="354.33000000000004" text-anchor="middle" font-family="'Arial Narrow', Arial, sans-serif" font-size="10" fill="#000000">2950</text>
  <line x1="722.16036" y1="381.33000000000004" x2="722.16036" y2="339.33000000000004" stroke="#000000" stroke-width="0.35"/>
  <line x1="806.37152" y1="381.33000000000004" x2="806.37152" y2="339.33000000000004" stroke="#000000" stroke-width="0.35"/>
  <line x1="722.16036" y1="341.33000000000004" x2="806.37152" y2="341.33000000000004" stroke="#000000" stroke-width="0.5"/>
  <line x1="720.16036" y1="345.33000000000004" x2="724.16036" y2="337.33000000000004" stroke="#000000" stroke-width="0.8"/>
  <line x1="804.37152" y1="345.33000000000004" x2="808.37152" y2="337.33000000000004" stroke="#000000" stroke-width="0.8"/>
  <text x="764.26594" y="354.33000000000004" text-anchor="middle" font-family="'Arial Narrow', Arial, sans-serif" font-size="10" fill="#000000">1370</text>
  <line x1="806.37152" y1="381.33000000000004" x2="806.37152" y2="339.33000000000004" stroke="#000000" stroke-width="0.35"/>
  <line x1="875.83036" y1="381.33000000000004" x2="875.83036" y2="339.33000000000004" stroke="#000000" stroke-width="0.35"/>
  <line x1="806.37152" y1="341.33000000000004" x2="875.83036" y2="341.33000000000004" stroke="#000000" stroke-width="0.5"/>
  <line x1="804.37152" y1="345.33000000000004" x2="808.37152" y2="337.33000000000004" stroke="#000000" stroke-width="0.8"/>
  <line x1="873.83036" y1="345.33000000000004" x2="877.83036" y2="337.33000000000004" stroke="#000000" stroke-width="0.8"/>
  <text x="841.10094" y="354.33000000000004" text-anchor="middle" font-family="'Arial Narrow', Arial, sans-serif" font-size="10" fill="#000000">1130</text>
  <line x1="875.83036" y1="381.33000000000004" x2="875.83036" y2="339.33000000000004" stroke="#000000" stroke-width="0.35"/>
  <line x1="1035.0324799999999" y1="381.33000000000004" x2="1035.0324799999999" y2="339.33000000000004" stroke="#000000" stroke-width="0.35"/>
  <line x1="875.83036" y1="341.33000000000004" x2="1035.0324799999999" y2="341.33000000000004" stroke="#000000" stroke-width="0.5"/>
  <line x1="873.83036" y1="345.33000000000004" x2="877.83036" y2="337.33000000000004" stroke="#000000" stroke-width="0.8"/>
  <line x1="1033.0324799999999" y1="345.33000000000004" x2="1037.0324799999999" y2="337.33000000000004" stroke="#000000" stroke-width="0.8"/>
  <text x="955.4314199999999" y="354.33000000000004" text-anchor="middle" font-family="'Arial Narrow', Arial, sans-serif" font-size="10" fill="#000000">2590</text>
  <line x1="1035.0324799999999" y1="381.33000000000004" x2="1035.0324799999999" y2="339.33000000000004" stroke="#000000" stroke-width="0.35"/>
  <line x1="1165.34464" y1="381.33000000000004" x2="1165.34464" y2="339.33000000000004" stroke="#000000" stroke-width="0.35"/>
  <line x1="1035.0324799999999" y1="341.33000000000004" x2="1165.34464" y2="341.33000000000004" stroke="#000000" stroke-width="0.5"/>
  <line x1="1033.0324799999999" y1="345.33000000000004" x2="1037.0324799999999" y2="337.33000000000004" stroke="#000000" stroke-width="0.8"/>
  <line x1="1163.34464" y1="345.33000000000004" x2="1167.34464" y2="337.33000000000004" stroke="#000000" stroke-width="0.8"/>
  <text x="1100.18856" y="354.33000000000004" text-anchor="middle" font-family="'Arial Narrow', Arial, sans-serif" font-size="10" fill="#000000">2120</text>
  <line x1="1165.34464" y1="381.33000000000004" x2="1165.34464" y2="339.33000000000004" stroke="#000000" stroke-width="0.35"/>
  <line x1="1443.1799999999998" y1="381.33000000000004" x2="1443.1799999999998" y2="339.33000000000004" stroke="#000000" stroke-width="0.35"/>
  <line x1="1165.34464" y1="341.33000000000004" x2="1443.1799999999998" y2="341.33000000000004" stroke="#000000" stroke-width="0.5"/>
  <line x1="1163.34464" y1="345.33000000000004" x2="1167.34464" y2="337.33000000000004" stroke="#000000" stroke-width="0.8"/>
  <line x1="1441.1799999999998" y1="345.33000000000004" x2="1445.1799999999998" y2="337.33000000000004" stroke="#000000" stroke-width="0.8"/>
  <text x="1304.2623199999998" y="354.33000000000004" text-anchor="middle" font-family="'Arial Narrow', Arial, sans-serif" font-size="10" fill="#000000">4520</text>
  <line x1="213.82000000000005" y1="381.33000000000004" x2="213.82000000000005" y2="317.33000000000004" stroke="#000000" stroke-width="0.35"/>
  <line x1="1443.1799999999998" y1="381.33000000000004" x2="1443.1799999999998" y2="317.33000000000004" stroke="#000000" stroke-width="0.35"/>
  <line x1="213.82000000000005" y1="319.33000000000004" x2="1443.1799999999998" y2="319.33000000000004" stroke="#000000" stroke-width="0.5"/>
  <line x1="211.82000000000005" y1="323.33000000000004" x2="215.82000000000005" y2="315.33000000000004" stroke="#000000" stroke-width="0.8"/>
  <line x1="1441.1799999999998" y1="323.33000000000004" x2="1445.1799999999998" y2="315.33000000000004" stroke="#000000" stroke-width="0.8"/>
  <text x="828.5" y="332.33000000000004" text-anchor="middle" font-family="'Arial Narrow', Arial, sans-serif" font-size="10" fill="#000000">20000</text>
  <line x1="141.82000000000005" y1="537" x2="1515.1799999999998" y2="537" stroke="#000" stroke-width="0.8" stroke-dasharray="12 3 3 3"/>
  <circle cx="141.82000000000005" cy="537" r="10" fill="white" stroke="#000" stroke-width="1"/>
  <text x="141.82000000000005" y="541" text-anchor="middle" font-family="'Arial Narrow', Arial, sans-serif" font-size="10" fill="#000" font-weight="bold">A</text>
  <circle cx="1515.1799999999998" cy="537" r="10" fill="white" stroke="#000" stroke-width="1"/>
  <text x="1515.1799999999998" y="541" text-anchor="middle" font-family="'Arial Narrow', Arial, sans-serif" font-size="10" fill="#000" font-weight="bold">A</text>
  <path d="M 127.82000000000005 534 L 127.82000000000005 540 L 130.82000000000005 537 Z" fill="#000" stroke="none"/>
  <path d="M 1529.1799999999998 534 L 1529.1799999999998 540 L 1526.1799999999998 537 Z" fill="#000" stroke="none"/>
  <text x="828.5" y="1100" text-anchor="middle" font-family="'Arial Narrow', Arial, sans-serif" font-size="18" fill="#000000" font-weight="bold" letter-spacing="2">MẶT BẰNG LẦU 1</text>
  <text x="828.5" y="1116" text-anchor="middle" font-family="'Arial Narrow', Arial, sans-serif" font-size="13" fill="#000000">TL: 1/61 (xoay 90°)</text>
  <text x="8" y="1120" font-family="'Arial Narrow', Arial, sans-serif" font-size="7" fill="#888888">⚠ Tầng 1: Hố thang "Cầu thang" (1.2×2.5m) hơi nhỏ cho thang U-shape — khuyến nghị ≥2.1×3.5m. | Tầng 2: Nên có ít nhất 2 WC cho 3 phòng ngủ (hiện có 1 WC).</text>
</svg>