<?xml version="1.0" encoding="UTF-8"?>
<svg xmlns="http://www.w3.org/2000/svg" width="420mm" height="297mm" viewBox="0 0 1587 1122" preserveAspectRatio="xMidYMid meet">
  <defs>
  <!-- Tường ngoài: gạch chéo đôi (cross-hatch) — chuẩn CAD kiến trúc -->
  <pattern id="hatch-ext" patternUnits="userSpaceOnUse" width="5" height="5">
    <line x1="0" y1="0" x2="5" y2="5" stroke="#000" stroke-width="0.6"/>
    <line x1="5" y1="0" x2="0" y2="5" stroke="#000" stroke-width="0.6"/>
  </pattern>
  <!-- Tường trong: gạch chéo đơn — mảnh hơn -->
  <pattern id="hatch-int" patternUnits="userSpaceOnUse" width="4" height="4">
    <line x1="0" y1="0" x2="4" y2="4" stroke="#555" stroke-width="0.4"/>
  </pattern>
  <!-- Tường tô đặc (cho cột / tường chịu lực) -->
  <pattern id="hatch-solid" patternUnits="userSpaceOnUse" width="3" height="3">
    <rect width="3" height="3" fill="#333"/>
  </pattern>
</defs>
  <rect width="1587" height="1122" fill="white"/>
  <!-- LẦU 1 | 5m×20m | Scale 1/61 | A3 landscape | BMT Decor -->
  <line x1="226.11360000000005" y1="343.33000000000004" x2="226.11360000000005" y2="730.6700000000001" stroke="#999999" stroke-width="0.4" stroke-dasharray="8 4 2 4"/>
  <circle cx="226.11360000000005" cy="730.6700000000001" r="14" fill="white" stroke="#000000" stroke-width="1.2"/>
  <text x="226.11360000000005" y="735.6700000000001" text-anchor="middle" font-family="'Arial Narrow', Arial, sans-serif" font-size="13" fill="#000000" font-weight="bold">1</text>
  <circle cx="226.11360000000005" cy="343.33000000000004" r="14" fill="white" stroke="#000000" stroke-width="1.2"/>
  <text x="226.11360000000005" y="348.33000000000004" text-anchor="middle" font-family="'Arial Narrow', Arial, sans-serif" font-size="13" fill="#000000" font-weight="bold">1</text>
  <line x1="479.36176000000006" y1="343.33000000000004" x2="479.36176000000006" y2="730.6700000000001" stroke="#999999" stroke-width="0.4" stroke-dasharray="8 4 2 4"/>
  <circle cx="479.36176000000006" cy="730.6700000000001" r="14" fill="white" stroke="#000000" stroke-width="1.2"/>
  <text x="479.36176000000006" y="735.6700000000001" text-anchor="middle" font-family="'Arial Narrow', Arial, sans-serif" font-size="13" fill="#000000" font-weight="bold">2</text>
  <circle cx="479.36176000000006" cy="343.33000000000004" r="14" fill="white" stroke="#000000" stroke-width="1.2"/>
  <text x="479.36176000000006" y="348.33000000000004" text-anchor="middle" font-family="'Arial Narrow', Arial, sans-serif" font-size="13" fill="#000000" font-weight="bold">2</text>
  <line x1="708.0227199999999" y1="343.33000000000004" x2="708.0227199999999" y2="730.6700000000001" stroke="#999999" stroke-width="0.4" stroke-dasharray="8 4 2 4"/>
  <circle cx="708.0227199999999" cy="730.6700000000001" r="14" fill="white" stroke="#000000" stroke-width="1.2"/>
  <text x="708.0227199999999" y="735.6700000000001" text-anchor="middle" font-family="'Arial Narrow', Arial, sans-serif" font-size="13" fill="#000000" font-weight="bold">3</text>
  <circle cx="708.0227199999999" cy="343.33000000000004" r="14" fill="white" stroke="#000000" stroke-width="1.2"/>
  <text x="708.0227199999999" y="348.33000000000004" text-anchor="middle" font-family="'Arial Narrow', Arial, sans-serif" font-size="13" fill="#000000" font-weight="bold">3</text>
  <line x1="722.16036" y1="343.33000000000004" x2="722.16036" y2="730.6700000000001" stroke="#999999" stroke-width="0.4" stroke-dasharray="8 4 2 4"/>
  <circle cx="722.16036" cy="730.6700000000001" r="14" fill="white" stroke="#000000" stroke-width="1.2"/>
  <text x="722.16036" y="735.6700000000001" text-anchor="middle" font-family="'Arial Narrow', Arial, sans-serif" font-size="13" fill="#000000" font-weight="bold">4</text>
  <circle cx="722.16036" cy="343.33000000000004" r="14" fill="white" stroke="#000000" stroke-width="1.2"/>
  <text x="722.16036" y="348.33000000000004" text-anchor="middle" font-family="'Arial Narrow', Arial, sans-serif" font-size="13" fill="#000000" font-weight="bold">4</text>
  <line x1="929.3075200000001" y1="343.33000000000004" x2="929.3075200000001" y2="730.6700000000001" stroke="#999999" stroke-width="0.4" stroke-dasharray="8 4 2 4"/>
  <circle cx="929.3075200000001" cy="730.6700000000001" r="14" fill="white" stroke="#000000" stroke-width="1.2"/>
  <text x="929.3075200000001" y="735.6700000000001" text-anchor="middle" font-family="'Arial Narrow', Arial, sans-serif" font-size="13" fill="#000000" font-weight="bold">5</text>
  <circle cx="929.3075200000001" cy="343.33000000000004" r="14" fill="white" stroke="#000000" stroke-width="1.2"/>
  <text x="929.3075200000001" y="348.33000000000004" text-anchor="middle" font-family="'Arial Narrow', Arial, sans-serif" font-size="13" fill="#000000" font-weight="bold">5</text>
  <line x1="1443.1799999999998" y1="343.33000000000004" x2="1443.1799999999998" y2="730.6700000000001" stroke="#999999" stroke-width="0.4" stroke-dasharray="8 4 2 4"/>
  <circle cx="1443.1799999999998" cy="730.6700000000001" r="14" fill="white" stroke="#000000" stroke-width="1.2"/>
  <text x="1443.1799999999998" y="735.6700000000001" text-anchor="middle" font-family="'Arial Narrow', Arial, sans-serif" font-size="13" fill="#000000" font-weight="bold">6</text>
  <circle cx="1443.1799999999998" cy="343.33000000000004" r="14" fill="white" stroke="#000000" stroke-width="1.2"/>
  <text x="1443.1799999999998" y="348.33000000000004" text-anchor="middle" font-family="'Arial Narrow', Arial, sans-serif" font-size="13" fill="#000000" font-weight="bold">6</text>
  <line x1="173.82000000000005" y1="383.33000000000004" x2="1483.1799999999998" y2="383.33000000000004" stroke="#999999" stroke-width="0.4" stroke-dasharray="8 4 2 4"/>
  <circle cx="173.82000000000005" cy="383.33000000000004" r="14" fill="white" stroke="#000000" stroke-width="1.2"/>
  <text x="173.82000000000005" y="388.33000000000004" text-anchor="middle" font-family="'Arial Narrow', Arial, sans-serif" font-size="13" fill="#000000" font-weight="bold">A</text>
  <circle cx="1483.1799999999998" cy="383.33000000000004" r="14" fill="white" stroke="#000000" stroke-width="1.2"/>
  <text x="1483.1799999999998" y="388.33000000000004" text-anchor="middle" font-family="'Arial Narrow', Arial, sans-serif" font-size="13" fill="#000000" font-weight="bold">A</text>
  <line x1="173.82000000000005" y1="690.6700000000001" x2="1483.1799999999998" y2="690.6700000000001" stroke="#999999" stroke-width="0.4" stroke-dasharray="8 4 2 4"/>
  <circle cx="173.82000000000005" cy="690.6700000000001" r="14" fill="white" stroke="#000000" stroke-width="1.2"/>
  <text x="173.82000000000005" y="695.6700000000001" text-anchor="middle" font-family="'Arial Narrow', Arial, sans-serif" font-size="13" fill="#000000" font-weight="bold">B</text>
  <circle cx="1483.1799999999998" cy="690.6700000000001" r="14" fill="white" stroke="#000000" stroke-width="1.2"/>
  <text x="1483.1799999999998" y="695.6700000000001" text-anchor="middle" font-family="'Arial Narrow', Arial, sans-serif" font-size="13" fill="#000000" font-weight="bold">B</text>
  <rect x="219.96680000000003" y="377.18320000000006" width="12.2936" height="12.2936" fill="#000000" stroke="none"/>
  <rect x="219.96680000000003" y="684.5232000000001" width="12.2936" height="12.2936" fill="#000000" stroke="none"/>
  <rect x="473.2149600000001" y="377.18320000000006" width="12.2936" height="12.2936" fill="#000000" stroke="none"/>
  <rect x="473.2149600000001" y="684.5232000000001" width="12.2936" height="12.2936" fill="#000000" stroke="none"/>
  <rect x="701.87592" y="377.18320000000006" width="12.2936" height="12.2936" fill="#000000" stroke="none"/>
  <rect x="701.87592" y="684.5232000000001" width="12.2936" height="12.2936" fill="#000000" stroke="none"/>
  <rect x="716.01356" y="377.18320000000006" width="12.2936" height="12.2936" fill="#000000" stroke="none"/>
  <rect x="716.01356" y="684.5232000000001" width="12.2936" height="12.2936" fill="#000000" stroke="none"/>
  <rect x="923.1607200000001" y="377.18320000000006" width="12.2936" height="12.2936" fill="#000000" stroke="none"/>
  <rect x="923.1607200000001" y="684.5232000000001" width="12.2936" height="12.2936" fill="#000000" stroke="none"/>
  <rect x="1437.0331999999999" y="377.18320000000006" width="12.2936" height="12.2936" fill="#000000" stroke="none"/>
  <rect x="1437.0331999999999" y="684.5232000000001" width="12.2936" height="12.2936" fill="#000000" stroke="none"/>
  <rect x="722.16036" y="395.62360000000007" width="207.14715999999999" height="282.7528" fill="white" stroke="none"/>
  <rect x="722.16036" y="395.62360000000007" width="207.14715999999999" height="282.7528" fill="white" stroke="#000000" stroke-width="1"/>
  <line x1="722.16036" y1="395.62360000000007" x2="929.30752" y2="678.3764000000001" stroke="#000000" stroke-width="0.6"/>
  <line x1="929.30752" y1="395.62360000000007" x2="722.16036" y2="678.3764000000001" stroke="#000000" stroke-width="0.6"/>
  <text x="825.73394" y="541" text-anchor="middle" font-family="'Arial Narrow', Arial, sans-serif" font-size="7" fill="#000000">THÔNG TẦNG</text>
  <text x="825.73394" y="535" text-anchor="middle" font-family="'Arial Narrow', Arial, sans-serif" font-size="9" fill="#000" font-weight="bold">Cầu thang</text>
  <text x="825.73394" y="547" text-anchor="middle" font-family="'Arial Narrow', Arial, sans-serif" font-size="7.5" fill="#333">15.5m²</text>
  <rect x="226.11360000000005" y="395.62360000000007" width="245.87199999999999" height="282.7528" fill="white" stroke="none"/>
  <rect x="294.04960000000005" y="412.8346400000001" width="110" height="95" fill="white" stroke="#000000" stroke-width="0.8"/>
  <rect x="294.04960000000005" y="412.8346400000001" width="110" height="6.65" fill="#c0c0c0" stroke="#000000" stroke-width="0.6"/>
  <rect x="298.44960000000003" y="422.48464000000007" width="39.6" height="17.099999999999998" rx="4" fill="#e8e8e8" stroke="#000000" stroke-width="0.5"/>
  <line x1="318.24960000000004" y1="423.48464000000007" x2="318.24960000000004" y2="438.5846400000001" stroke="#000000" stroke-width="0.25"/>
  <rect x="360.04960000000005" y="422.48464000000007" width="39.6" height="17.099999999999998" rx="4" fill="#e8e8e8" stroke="#000000" stroke-width="0.5"/>
  <line x1="379.84960000000007" y1="423.48464000000007" x2="379.84960000000007" y2="438.5846400000001" stroke="#000000" stroke-width="0.25"/>
  <line x1="296.04960000000005" y1="450.8346400000001" x2="402.04960000000005" y2="450.8346400000001" stroke="#000000" stroke-width="0.4"/>
  <path d="M 298.04960000000005 450.8346400000001 Q 349.04960000000005 456.8346400000001 400.04960000000005 450.8346400000001" fill="none" stroke="#000000" stroke-width="0.3"/>
  <line x1="349.04960000000005" y1="453.8346400000001" x2="349.04960000000005" y2="505.8346400000001" stroke="#000000" stroke-width="0.2" stroke-dasharray="3 3"/>
  <rect x="275.04960000000005" y="412.8346400000001" width="16" height="16" fill="white" stroke="#000000" stroke-width="0.6"/>
  <circle cx="283.04960000000005" cy="420.8346400000001" r="3" fill="none" stroke="#000000" stroke-width="0.35"/>
  <rect x="407.04960000000005" y="412.8346400000001" width="16" height="16" fill="white" stroke="#000000" stroke-width="0.6"/>
  <circle cx="415.04960000000005" cy="420.8346400000001" r="3" fill="none" stroke="#000000" stroke-width="0.35"/>
  <rect x="243.32464000000004" y="639.1653600000001" width="211.44992" height="22" fill="white" stroke="#000000" stroke-width="0.7"/>
  <line x1="244.32464000000004" y1="640.1653600000001" x2="284.61462400000005" y2="660.1653600000001" stroke="#000000" stroke-width="0.3"/>
  <line x1="284.61462400000005" y1="640.1653600000001" x2="244.32464000000004" y2="660.1653600000001" stroke="#000000" stroke-width="0.3"/>
  <circle cx="262.46963200000005" cy="650.1653600000001" r="1" fill="#000000" stroke="none"/>
  <circle cx="266.46963200000005" cy="650.1653600000001" r="1" fill="#000000" stroke="none"/>
  <line x1="285.61462400000005" y1="639.1653600000001" x2="285.61462400000005" y2="661.1653600000001" stroke="#000000" stroke-width="0.5"/>
  <line x1="286.61462400000005" y1="640.1653600000001" x2="326.90460800000005" y2="660.1653600000001" stroke="#000000" stroke-width="0.3"/>
  <line x1="326.90460800000005" y1="640.1653600000001" x2="286.61462400000005" y2="660.1653600000001" stroke="#000000" stroke-width="0.3"/>
  <circle cx="304.75961600000005" cy="650.1653600000001" r="1" fill="#000000" stroke="none"/>
  <circle cx="308.75961600000005" cy="650.1653600000001" r="1" fill="#000000" stroke="none"/>
  <line x1="327.90460800000005" y1="639.1653600000001" x2="327.90460800000005" y2="661.1653600000001" stroke="#000000" stroke-width="0.5"/>
  <line x1="328.90460800000005" y1="640.1653600000001" x2="369.19459200000006" y2="660.1653600000001" stroke="#000000" stroke-width="0.3"/>
  <line x1="369.19459200000006" y1="640.1653600000001" x2="328.90460800000005" y2="660.1653600000001" stroke="#000000" stroke-width="0.3"/>
  <circle cx="347.04960000000005" cy="650.1653600000001" r="1" fill="#000000" stroke="none"/>
  <circle cx="351.04960000000005" cy="650.1653600000001" r="1" fill="#000000" stroke="none"/>
  <line x1="370.19459200000006" y1="639.1653600000001" x2="370.19459200000006" y2="661.1653600000001" stroke="#000000" stroke-width="0.5"/>
  <line x1="371.19459200000006" y1="640.1653600000001" x2="411.48457600000006" y2="660.1653600000001" stroke="#000000" stroke-width="0.3"/>
  <line x1="411.48457600000006" y1="640.1653600000001" x2="371.19459200000006" y2="660.1653600000001" stroke="#000000" stroke-width="0.3"/>
  <circle cx="389.33958400000006" cy="650.1653600000001" r="1" fill="#000000" stroke="none"/>
  <circle cx="393.33958400000006" cy="650.1653600000001" r="1" fill="#000000" stroke="none"/>
  <line x1="412.48457600000006" y1="639.1653600000001" x2="412.48457600000006" y2="661.1653600000001" stroke="#000000" stroke-width="0.5"/>
  <line x1="413.48457600000006" y1="640.1653600000001" x2="453.77456000000006" y2="660.1653600000001" stroke="#000000" stroke-width="0.3"/>
  <line x1="453.77456000000006" y1="640.1653600000001" x2="413.48457600000006" y2="660.1653600000001" stroke="#000000" stroke-width="0.3"/>
  <circle cx="431.62956800000006" cy="650.1653600000001" r="1" fill="#000000" stroke="none"/>
  <circle cx="435.62956800000006" cy="650.1653600000001" r="1" fill="#000000" stroke="none"/>
  <rect x="243.32464000000004" y="615.1653600000001" width="48" height="14" fill="white" stroke="#000000" stroke-width="0.6"/>
  <line x1="245.32464000000004" y1="622.1653600000001" x2="289.32464000000004" y2="622.1653600000001" stroke="#000000" stroke-width="0.25"/>
  <circle cx="267.32464000000004" cy="638.1653600000001" r="6" fill="none" stroke="#000000" stroke-width="0.5"/>
  <path d="M 261.32464000000004 639.1653600000001 A 8 8 0 0 0 273.32464000000004 639.1653600000001" fill="none" stroke="#000000" stroke-width="0.4"/>
  <text x="349.04960000000005" y="535" text-anchor="middle" font-family="'Arial Narrow', Arial, sans-serif" font-size="9" fill="#000" font-weight="bold">Phòng ngủ Master</text>
  <text x="349.04960000000005" y="547" text-anchor="middle" font-family="'Arial Narrow', Arial, sans-serif" font-size="7.5" fill="#333">18.4m²</text>
  <rect x="479.36176000000006" y="395.62360000000007" width="221.2848" height="282.7528" fill="white" stroke="none"/>
  <rect x="550.0041600000001" y="411.11353600000007" width="80" height="95" fill="white" stroke="#000000" stroke-width="0.8"/>
  <rect x="550.0041600000001" y="411.11353600000007" width="80" height="6.65" fill="#c0c0c0" stroke="#000000" stroke-width="0.6"/>
  <rect x="553.2041600000001" y="420.76353600000004" width="28.799999999999997" height="17.099999999999998" rx="4" fill="#e8e8e8" stroke="#000000" stroke-width="0.5"/>
  <line x1="567.6041600000001" y1="421.76353600000004" x2="567.6041600000001" y2="436.86353600000007" stroke="#000000" stroke-width="0.25"/>
  <rect x="598.0041600000001" y="420.76353600000004" width="28.799999999999997" height="17.099999999999998" rx="4" fill="#e8e8e8" stroke="#000000" stroke-width="0.5"/>
  <line x1="612.40416" y1="421.76353600000004" x2="612.40416" y2="436.86353600000007" stroke="#000000" stroke-width="0.25"/>
  <line x1="552.0041600000001" y1="449.11353600000007" x2="628.0041600000001" y2="449.11353600000007" stroke="#000000" stroke-width="0.4"/>
  <path d="M 554.0041600000001 449.11353600000007 Q 590.0041600000001 455.11353600000007 626.0041600000001 449.11353600000007" fill="none" stroke="#000000" stroke-width="0.3"/>
  <line x1="590.0041600000001" y1="452.11353600000007" x2="590.0041600000001" y2="504.11353600000007" stroke="#000000" stroke-width="0.2" stroke-dasharray="3 3"/>
  <rect x="531.0041600000001" y="411.11353600000007" width="16" height="16" fill="white" stroke="#000000" stroke-width="0.6"/>
  <circle cx="539.0041600000001" cy="419.11353600000007" r="3" fill="none" stroke="#000000" stroke-width="0.35"/>
  <rect x="633.0041600000001" y="411.11353600000007" width="16" height="16" fill="white" stroke="#000000" stroke-width="0.6"/>
  <circle cx="641.0041600000001" cy="419.11353600000007" r="3" fill="none" stroke="#000000" stroke-width="0.35"/>
  <rect x="494.85169600000006" y="640.886464" width="190.304928" height="22" fill="white" stroke="#000000" stroke-width="0.7"/>
  <line x1="495.85169600000006" y1="641.886464" x2="531.9126816" y2="661.886464" stroke="#000000" stroke-width="0.3"/>
  <line x1="531.9126816" y1="641.886464" x2="495.85169600000006" y2="661.886464" stroke="#000000" stroke-width="0.3"/>
  <circle cx="511.8821888000001" cy="651.886464" r="1" fill="#000000" stroke="none"/>
  <circle cx="515.8821888000001" cy="651.886464" r="1" fill="#000000" stroke="none"/>
  <line x1="532.9126816" y1="640.886464" x2="532.9126816" y2="662.886464" stroke="#000000" stroke-width="0.5"/>
  <line x1="533.9126816" y1="641.886464" x2="569.9736672" y2="661.886464" stroke="#000000" stroke-width="0.3"/>
  <line x1="569.9736672" y1="641.886464" x2="533.9126816" y2="661.886464" stroke="#000000" stroke-width="0.3"/>
  <circle cx="549.9431744000001" cy="651.886464" r="1" fill="#000000" stroke="none"/>
  <circle cx="553.9431744000001" cy="651.886464" r="1" fill="#000000" stroke="none"/>
  <line x1="570.9736672" y1="640.886464" x2="570.9736672" y2="662.886464" stroke="#000000" stroke-width="0.5"/>
  <line x1="571.9736672" y1="641.886464" x2="608.0346528" y2="661.886464" stroke="#000000" stroke-width="0.3"/>
  <line x1="608.0346528" y1="641.886464" x2="571.9736672" y2="661.886464" stroke="#000000" stroke-width="0.3"/>
  <circle cx="588.0041600000001" cy="651.886464" r="1" fill="#000000" stroke="none"/>
  <circle cx="592.0041600000001" cy="651.886464" r="1" fill="#000000" stroke="none"/>
  <line x1="609.0346528" y1="640.886464" x2="609.0346528" y2="662.886464" stroke="#000000" stroke-width="0.5"/>
  <line x1="610.0346528" y1="641.886464" x2="646.0956384" y2="661.886464" stroke="#000000" stroke-width="0.3"/>
  <line x1="646.0956384" y1="641.886464" x2="610.0346528" y2="661.886464" stroke="#000000" stroke-width="0.3"/>
  <circle cx="626.0651456" cy="651.886464" r="1" fill="#000000" stroke="none"/>
  <circle cx="630.0651456" cy="651.886464" r="1" fill="#000000" stroke="none"/>
  <line x1="647.0956384000001" y1="640.886464" x2="647.0956384000001" y2="662.886464" stroke="#000000" stroke-width="0.5"/>
  <line x1="648.0956384000001" y1="641.886464" x2="684.1566240000001" y2="661.886464" stroke="#000000" stroke-width="0.3"/>
  <line x1="684.1566240000001" y1="641.886464" x2="648.0956384000001" y2="661.886464" stroke="#000000" stroke-width="0.3"/>
  <circle cx="664.1261312000001" cy="651.886464" r="1" fill="#000000" stroke="none"/>
  <circle cx="668.1261312000001" cy="651.886464" r="1" fill="#000000" stroke="none"/>
  <rect x="494.85169600000006" y="616.886464" width="48" height="14" fill="white" stroke="#000000" stroke-width="0.6"/>
  <line x1="496.85169600000006" y1="623.886464" x2="540.8516960000001" y2="623.886464" stroke="#000000" stroke-width="0.25"/>
  <circle cx="518.8516960000001" cy="639.886464" r="6" fill="none" stroke="#000000" stroke-width="0.5"/>
  <path d="M 512.8516960000001 640.886464 A 8 8 0 0 0 524.8516960000001 640.886464" fill="none" stroke="#000000" stroke-width="0.4"/>
  <text x="590.0041600000001" y="535" text-anchor="middle" font-family="'Arial Narrow', Arial, sans-serif" font-size="9" fill="#000" font-weight="bold">Phòng ngủ 1</text>
  <text x="590.0041600000001" y="547" text-anchor="middle" font-family="'Arial Narrow', Arial, sans-serif" font-size="7.5" fill="#333">16.6m²</text>
  <rect x="708.0227199999999" y="395.62360000000007" width="221.2848" height="282.7528" fill="white" stroke="none"/>
  <rect x="778.6651199999999" y="411.11353600000007" width="80" height="95" fill="white" stroke="#000000" stroke-width="0.8"/>
  <rect x="778.6651199999999" y="411.11353600000007" width="80" height="6.65" fill="#c0c0c0" stroke="#000000" stroke-width="0.6"/>
  <rect x="781.8651199999999" y="420.76353600000004" width="28.799999999999997" height="17.099999999999998" rx="4" fill="#e8e8e8" stroke="#000000" stroke-width="0.5"/>
  <line x1="796.2651199999999" y1="421.76353600000004" x2="796.2651199999999" y2="436.86353600000007" stroke="#000000" stroke-width="0.25"/>
  <rect x="826.6651199999999" y="420.76353600000004" width="28.799999999999997" height="17.099999999999998" rx="4" fill="#e8e8e8" stroke="#000000" stroke-width="0.5"/>
  <line x1="841.0651199999999" y1="421.76353600000004" x2="841.0651199999999" y2="436.86353600000007" stroke="#000000" stroke-width="0.25"/>
  <line x1="780.6651199999999" y1="449.11353600000007" x2="856.6651199999999" y2="449.11353600000007" stroke="#000000" stroke-width="0.4"/>
  <path d="M 782.6651199999999 449.11353600000007 Q 818.6651199999999 455.11353600000007 854.6651199999999 449.11353600000007" fill="none" stroke="#000000" stroke-width="0.3"/>
  <line x1="818.6651199999999" y1="452.11353600000007" x2="818.6651199999999" y2="504.11353600000007" stroke="#000000" stroke-width="0.2" stroke-dasharray="3 3"/>
  <rect x="759.6651199999999" y="411.11353600000007" width="16" height="16" fill="white" stroke="#000000" stroke-width="0.6"/>
  <circle cx="767.6651199999999" cy="419.11353600000007" r="3" fill="none" stroke="#000000" stroke-width="0.35"/>
  <rect x="861.6651199999999" y="411.11353600000007" width="16" height="16" fill="white" stroke="#000000" stroke-width="0.6"/>
  <circle cx="869.6651199999999" cy="419.11353600000007" r="3" fill="none" stroke="#000000" stroke-width="0.35"/>
  <rect x="723.5126559999999" y="640.886464" width="190.304928" height="22" fill="white" stroke="#000000" stroke-width="0.7"/>
  <line x1="724.5126559999999" y1="641.886464" x2="760.5736415999999" y2="661.886464" stroke="#000000" stroke-width="0.3"/>
  <line x1="760.5736415999999" y1="641.886464" x2="724.5126559999999" y2="661.886464" stroke="#000000" stroke-width="0.3"/>
  <circle cx="740.5431487999999" cy="651.886464" r="1" fill="#000000" stroke="none"/>
  <circle cx="744.5431487999999" cy="651.886464" r="1" fill="#000000" stroke="none"/>
  <line x1="761.5736415999999" y1="640.886464" x2="761.5736415999999" y2="662.886464" stroke="#000000" stroke-width="0.5"/>
  <line x1="762.5736415999999" y1="641.886464" x2="798.6346271999998" y2="661.886464" stroke="#000000" stroke-width="0.3"/>
  <line x1="798.6346271999998" y1="641.886464" x2="762.5736415999999" y2="661.886464" stroke="#000000" stroke-width="0.3"/>
  <circle cx="778.6041343999999" cy="651.886464" r="1" fill="#000000" stroke="none"/>
  <circle cx="782.6041343999999" cy="651.886464" r="1" fill="#000000" stroke="none"/>
  <line x1="799.6346271999998" y1="640.886464" x2="799.6346271999998" y2="662.886464" stroke="#000000" stroke-width="0.5"/>
  <line x1="800.6346271999998" y1="641.886464" x2="836.6956127999998" y2="661.886464" stroke="#000000" stroke-width="0.3"/>
  <line x1="836.6956127999998" y1="641.886464" x2="800.6346271999998" y2="661.886464" stroke="#000000" stroke-width="0.3"/>
  <circle cx="816.6651199999999" cy="651.886464" r="1" fill="#000000" stroke="none"/>
  <circle cx="820.6651199999999" cy="651.886464" r="1" fill="#000000" stroke="none"/>
  <line x1="837.6956127999998" y1="640.886464" x2="837.6956127999998" y2="662.886464" stroke="#000000" stroke-width="0.5"/>
  <line x1="838.6956127999998" y1="641.886464" x2="874.7565983999998" y2="661.886464" stroke="#000000" stroke-width="0.3"/>
  <line x1="874.7565983999998" y1="641.886464" x2="838.6956127999998" y2="661.886464" stroke="#000000" stroke-width="0.3"/>
  <circle cx="854.7261055999999" cy="651.886464" r="1" fill="#000000" stroke="none"/>
  <circle cx="858.7261055999999" cy="651.886464" r="1" fill="#000000" stroke="none"/>
  <line x1="875.7565983999998" y1="640.886464" x2="875.7565983999998" y2="662.886464" stroke="#000000" stroke-width="0.5"/>
  <line x1="876.7565983999998" y1="641.886464" x2="912.8175839999998" y2="661.886464" stroke="#000000" stroke-width="0.3"/>
  <line x1="912.8175839999998" y1="641.886464" x2="876.7565983999998" y2="661.886464" stroke="#000000" stroke-width="0.3"/>
  <circle cx="892.7870911999998" cy="651.886464" r="1" fill="#000000" stroke="none"/>
  <circle cx="896.7870911999998" cy="651.886464" r="1" fill="#000000" stroke="none"/>
  <rect x="723.5126559999999" y="616.886464" width="48" height="14" fill="white" stroke="#000000" stroke-width="0.6"/>
  <line x1="725.5126559999999" y1="623.886464" x2="769.5126559999999" y2="623.886464" stroke="#000000" stroke-width="0.25"/>
  <circle cx="747.5126559999999" cy="639.886464" r="6" fill="none" stroke="#000000" stroke-width="0.5"/>
  <path d="M 741.5126559999999 640.886464 A 8 8 0 0 0 753.5126559999999 640.886464" fill="none" stroke="#000000" stroke-width="0.4"/>
  <text x="818.6651199999999" y="535" text-anchor="middle" font-family="'Arial Narrow', Arial, sans-serif" font-size="9" fill="#000" font-weight="bold">Phòng ngủ 2</text>
  <text x="818.6651199999999" y="547" text-anchor="middle" font-family="'Arial Narrow', Arial, sans-serif" font-size="7.5" fill="#333">16.6m²</text>
  <rect x="936.68368" y="395.62360000000007" width="494.20271999999994" height="282.7528" fill="white" stroke="none"/>
  <rect x="956.476376" y="415.41629600000005" width="38" height="22" rx="1" fill="white" stroke="#000000" stroke-width="0.7"/>
  <ellipse cx="975.476376" cy="427.51629600000007" rx="12.920000000000002" ry="7.48" fill="none" stroke="#000000" stroke-width="0.5"/>
  <circle cx="975.476376" cy="427.51629600000007" r="1.5" fill="#000000" stroke="none"/>
  <circle cx="975.476376" cy="418.71629600000006" r="2.2" fill="#000000" stroke="none"/>
  <line x1="975.476376" y1="420.91629600000005" x2="975.476376" y2="422.45629600000007" stroke="#000000" stroke-width="0.6"/>
  <rect x="962.176376" y="408.816296" width="26.599999999999998" height="5.5" fill="none" stroke="#000000" stroke-width="0.3" stroke-dasharray="2 1"/>
  <rect x="1384.6937039999998" y="618.583704" width="22.8" height="8.8" rx="2" fill="white" stroke="#000000" stroke-width="0.7"/>
  <circle cx="1393.6937039999998" cy="622.983704" r="1.8" fill="none" stroke="#000000" stroke-width="0.4"/>
  <circle cx="1398.493704" cy="622.983704" r="1.8" fill="none" stroke="#000000" stroke-width="0.4"/>
  <ellipse cx="1396.093704" cy="643.383704" rx="13.8" ry="14.399999999999999" fill="white" stroke="#000000" stroke-width="0.7"/>
  <ellipse cx="1396.093704" cy="642.583704" rx="10.200000000000001" ry="10.8" fill="none" stroke="#000000" stroke-width="0.4"/>
  <line x1="1388.593704" y1="628.383704" x2="1403.593704" y2="628.383704" stroke="#000000" stroke-width="0.4"/>
  <rect x="956.476376" y="442.41629600000005" width="42" height="72" rx="4" fill="white" stroke="#000000" stroke-width="0.8"/>
  <rect x="959.476376" y="445.41629600000005" width="36" height="66" rx="3" fill="none" stroke="#000000" stroke-width="0.4"/>
  <circle cx="977.476376" cy="504.4162960000001" r="2.5" fill="none" stroke="#000000" stroke-width="0.5"/>
  <circle cx="977.476376" cy="504.4162960000001" r="0.8" fill="#000000" stroke="none"/>
  <circle cx="971.176376" cy="450.41629600000005" r="2.5" fill="none" stroke="#000000" stroke-width="0.5"/>
  <circle cx="983.7763759999999" cy="450.41629600000005" r="2.5" fill="none" stroke="#000000" stroke-width="0.5"/>
  <line x1="996.476376" y1="464.01629600000007" x2="996.476376" y2="492.816296" stroke="#000000" stroke-width="0.6"/>
  <rect x="1180.78504" y="570.4751112" width="6" height="6" fill="none" stroke="#000000" stroke-width="0.4"/>
  <line x1="1180.78504" y1="570.4751112" x2="1186.78504" y2="576.4751112" stroke="#000000" stroke-width="0.3"/>
  <line x1="1186.78504" y1="570.4751112" x2="1180.78504" y2="576.4751112" stroke="#000000" stroke-width="0.3"/>
  <text x="1183.78504" y="535" text-anchor="middle" font-family="'Arial Narrow', Arial, sans-serif" font-size="9" fill="#000" font-weight="bold">WC</text>
  <text x="1183.78504" y="547" text-anchor="middle" font-family="'Arial Narrow', Arial, sans-serif" font-size="7.5" fill="#333">37.0m²</text>
  <path d="M 948.68368 664.3764000000001 L 942.68368 670.3764000000001 L 954.68368 670.3764000000001 Z" fill="#000" stroke="none"/>
  <text x="957.68368" y="672.3764000000001" font-family="'Arial Narrow', Arial, sans-serif" font-size="8" fill="#000">+0.050</text>
  <polygon points="207.67,383.33 207.67,690.67 219.97,690.67 219.97,383.33" fill="url(#hatch-ext)" stroke="#000" stroke-width="1.4"/>
  <line x1="207.67320000000004" y1="383.33000000000004" x2="207.67320000000004" y2="690.6700000000001" stroke="#000" stroke-width="1.5" stroke-linecap="square"/>
  <line x1="219.96680000000006" y1="383.33000000000004" x2="219.96680000000006" y2="690.6700000000001" stroke="#000" stroke-width="1.5" stroke-linecap="square"/>
  <polygon points="1437.03,383.33 1437.03,690.67 1449.33,690.67 1449.33,383.33" fill="url(#hatch-ext)" stroke="#000" stroke-width="1.4"/>
  <line x1="1437.0331999999999" y1="383.33000000000004" x2="1437.0331999999999" y2="690.6700000000001" stroke="#000" stroke-width="1.5" stroke-linecap="square"/>
  <line x1="1449.3267999999998" y1="383.33000000000004" x2="1449.3267999999998" y2="690.6700000000001" stroke="#000" stroke-width="1.5" stroke-linecap="square"/>
  <polygon points="213.82,389.48 1443.18,389.48 1443.18,377.18 213.82,377.18" fill="url(#hatch-ext)" stroke="#000" stroke-width="1.4"/>
  <line x1="213.82000000000005" y1="389.4768" x2="1443.1799999999998" y2="389.4768" stroke="#000" stroke-width="1.5" stroke-linecap="square"/>
  <line x1="213.82000000000005" y1="377.18320000000006" x2="1443.1799999999998" y2="377.18320000000006" stroke="#000" stroke-width="1.5" stroke-linecap="square"/>
  <polygon points="213.82,696.82 1443.18,696.82 1443.18,684.52 213.82,684.52" fill="url(#hatch-ext)" stroke="#000" stroke-width="1.4"/>
  <line x1="213.82000000000005" y1="696.8168000000001" x2="1443.1799999999998" y2="696.8168000000001" stroke="#000" stroke-width="1.5" stroke-linecap="square"/>
  <line x1="213.82000000000005" y1="684.5232000000001" x2="1443.1799999999998" y2="684.5232000000001" stroke="#000" stroke-width="1.5" stroke-linecap="square"/>
  <polygon points="925.62,395.62 925.62,678.38 933.00,678.38 933.00,395.62" fill="url(#hatch-int)" stroke="#000" stroke-width="0.7"/>
  <line x1="925.61944" y1="395.62360000000007" x2="925.61944" y2="678.3764" stroke="#000" stroke-width="0.8" stroke-linecap="square"/>
  <line x1="932.9956000000001" y1="395.62360000000007" x2="932.9956000000001" y2="678.3764" stroke="#000" stroke-width="0.8" stroke-linecap="square"/>
  <polygon points="468.30,395.62 468.30,678.38 475.67,678.38 475.67,395.62" fill="url(#hatch-int)" stroke="#000" stroke-width="0.7"/>
  <line x1="468.29752" y1="395.62360000000007" x2="468.29752" y2="678.3764" stroke="#000" stroke-width="0.8" stroke-linecap="square"/>
  <line x1="475.67368000000005" y1="395.62360000000007" x2="475.67368000000005" y2="678.3764" stroke="#000" stroke-width="0.8" stroke-linecap="square"/>
  <polygon points="696.96,395.62 696.96,678.38 704.33,678.38 704.33,395.62" fill="url(#hatch-int)" stroke="#000" stroke-width="0.7"/>
  <line x1="696.95848" y1="395.62360000000007" x2="696.95848" y2="678.3764" stroke="#000" stroke-width="0.8" stroke-linecap="square"/>
  <line x1="704.33464" y1="395.62360000000007" x2="704.33464" y2="678.3764" stroke="#000" stroke-width="0.8" stroke-linecap="square"/>
  <polygon points="925.62,395.62 925.62,678.38 933.00,678.38 933.00,395.62" fill="url(#hatch-int)" stroke="#000" stroke-width="0.7"/>
  <line x1="925.61944" y1="395.62360000000007" x2="925.61944" y2="678.3764" stroke="#000" stroke-width="0.8" stroke-linecap="square"/>
  <line x1="932.9956000000001" y1="395.62360000000007" x2="932.9956000000001" y2="678.3764" stroke="#000" stroke-width="0.8" stroke-linecap="square"/>
  <polygon points="206.17,568.73 206.17,505.27 221.47,505.27 221.47,568.73" fill="white" stroke="none"/>
  <polygon points="466.80,565.66 466.80,508.34 477.17,508.34 477.17,565.66" fill="white" stroke="none"/>
  <polygon points="695.46,565.66 695.46,508.34 705.83,508.34 705.83,565.66" fill="white" stroke="none"/>
  <polygon points="924.12,565.66 924.12,508.34 934.50,508.34 934.50,565.66" fill="white" stroke="none"/>
  <rect x="212.82000000000005" y="483.2522" width="75.76159999999999" height="15.2936" fill="white" stroke="none"/>
  <line x1="213.82000000000005" y1="487.899" x2="287.58160000000004" y2="487.899" stroke="#000000" stroke-width="2"/>
  <line x1="213.82000000000005" y1="493.899" x2="287.58160000000004" y2="493.899" stroke="#000000" stroke-width="2"/>
  <line x1="213.82000000000005" y1="487.899" x2="213.82000000000005" y2="493.899" stroke="#000000" stroke-width="1"/>
  <line x1="287.58160000000004" y1="487.899" x2="287.58160000000004" y2="493.899" stroke="#000000" stroke-width="1"/>
  <line x1="213.82000000000005" y1="487.899" x2="287.58160000000004" y2="493.899" stroke="#000000" stroke-width="0.5"/>
  <line x1="287.58160000000004" y1="487.899" x2="213.82000000000005" y2="493.899" stroke="#000000" stroke-width="0.5"/>
  <rect x="240.70080000000004" y="468.899" width="20" height="12" rx="2" fill="white" stroke="#000" stroke-width="0.5"/>
  <text x="250.70080000000004" y="478.899" text-anchor="middle" font-family="'Arial Narrow', Arial, sans-serif" font-size="7" fill="#000">S1</text>
  <line x1="213.82000000000005" y1="506.266" x2="275.28800000000007" y2="506.266" stroke="#000000" stroke-width="2"/>
  <line x1="213.82000000000005" y1="506.266" x2="213.82000000000005" y2="567.734" stroke="#000000" stroke-width="0.8"/>
  <path d="M 213.82000000000005 567.734 A 61.467999999999996 61.467999999999996 0 0 1 275.28800000000007 506.266" fill="none" stroke="#000000" stroke-width="0.7"/>
  <rect x="234.55400000000006" y="486.266" width="20" height="12" rx="2" fill="white" stroke="#000" stroke-width="0.5"/>
  <text x="244.55400000000006" y="496.266" text-anchor="middle" font-family="'Arial Narrow', Arial, sans-serif" font-size="7" fill="#000">D1</text>
  <line x1="471.98560000000003" y1="509.3394" x2="527.3068000000001" y2="509.3394" stroke="#000000" stroke-width="2"/>
  <line x1="471.98560000000003" y1="509.3394" x2="471.98560000000003" y2="564.6606" stroke="#000000" stroke-width="0.8"/>
  <path d="M 471.98560000000003 564.6606 A 55.3212 55.3212 0 0 1 527.3068000000001 509.3394" fill="none" stroke="#000000" stroke-width="0.7"/>
  <rect x="489.6462" y="489.3394" width="20" height="12" rx="2" fill="white" stroke="#000" stroke-width="0.5"/>
  <text x="499.6462" y="499.3394" text-anchor="middle" font-family="'Arial Narrow', Arial, sans-serif" font-size="7" fill="#000">D2</text>
  <line x1="700.64656" y1="509.3394" x2="755.96776" y2="509.3394" stroke="#000000" stroke-width="2"/>
  <line x1="700.64656" y1="509.3394" x2="700.64656" y2="564.6606" stroke="#000000" stroke-width="0.8"/>
  <path d="M 700.64656 564.6606 A 55.3212 55.3212 0 0 1 755.96776 509.3394" fill="none" stroke="#000000" stroke-width="0.7"/>
  <rect x="718.3071600000001" y="489.3394" width="20" height="12" rx="2" fill="white" stroke="#000" stroke-width="0.5"/>
  <text x="728.3071600000001" y="499.3394" text-anchor="middle" font-family="'Arial Narrow', Arial, sans-serif" font-size="7" fill="#000">D3</text>
  <line x1="929.3075200000001" y1="509.3394" x2="984.62872" y2="509.3394" stroke="#000000" stroke-width="2"/>
  <line x1="984.62872" y1="509.3394" x2="984.62872" y2="564.6606" stroke="#000000" stroke-width="0.8"/>
  <path d="M 984.62872 564.6606 A 55.3212 55.3212 0 0 0 929.3075200000001 509.3394" fill="none" stroke="#000000" stroke-width="0.7"/>
  <rect x="946.9681200000001" y="489.3394" width="20" height="12" rx="2" fill="white" stroke="#000" stroke-width="0.5"/>
  <text x="956.9681200000001" y="499.3394" text-anchor="middle" font-family="'Arial Narrow', Arial, sans-serif" font-size="7" fill="#000">D4</text>
  <circle cx="1473.1799999999998" cy="413.33000000000004" r="16" fill="white" stroke="#000" stroke-width="1"/>
  <path d="M 1473.1799999999998 400.33000000000004 L 1468.1799999999998 413.33000000000004 L 1473.1799999999998 408.33000000000004 L 1478.1799999999998 413.33000000000004 Z" fill="#000" stroke="none"/>
  <path d="M 1473.1799999999998 426.33000000000004 L 1468.1799999999998 413.33000000000004 L 1473.1799999999998 418.33000000000004 L 1478.1799999999998 413.33000000000004 Z" fill="white" stroke="#000" stroke-width="0.6"/>
  <text x="1473.1799999999998" y="393.33000000000004" text-anchor="middle" font-family="'Arial Narrow', Arial, sans-serif" font-size="9" fill="#000" font-weight="bold">N</text>
  <rect x="213.82000000000005" y="383.33000000000004" width="1229.36" height="307.34" fill="none" stroke="#000000" stroke-width="2"/>
  <line x1="213.82000000000005" y1="692.6700000000001" x2="213.82000000000005" y2="712.6700000000001" stroke="#000000" stroke-width="0.35"/>
  <line x1="226.11360000000005" y1="692.6700000000001" x2="226.11360000000005" y2="712.6700000000001" stroke="#000000" stroke-width="0.35"/>
  <line x1="213.82000000000005" y1="710.6700000000001" x2="226.11360000000005" y2="710.6700000000001" stroke="#000000" stroke-width="0.5"/>
  <line x1="211.82000000000005" y1="714.6700000000001" x2="215.82000000000005" y2="706.6700000000001" stroke="#000000" stroke-width="0.8"/>
  <line x1="224.11360000000005" y1="714.6700000000001" x2="228.11360000000005" y2="706.6700000000001" stroke="#000000" stroke-width="0.8"/>
  <text x="219.96680000000003" y="705.6700000000001" text-anchor="middle" font-family="'Arial Narrow', Arial, sans-serif" font-size="10" fill="#000000">200</text>
  <line x1="226.11360000000005" y1="692.6700000000001" x2="226.11360000000005" y2="712.6700000000001" stroke="#000000" stroke-width="0.35"/>
  <line x1="471.98560000000003" y1="692.6700000000001" x2="471.98560000000003" y2="712.6700000000001" stroke="#000000" stroke-width="0.35"/>
  <line x1="226.11360000000005" y1="710.6700000000001" x2="471.98560000000003" y2="710.6700000000001" stroke="#000000" stroke-width="0.5"/>
  <line x1="224.11360000000005" y1="714.6700000000001" x2="228.11360000000005" y2="706.6700000000001" stroke="#000000" stroke-width="0.8"/>
  <line x1="469.98560000000003" y1="714.6700000000001" x2="473.98560000000003" y2="706.6700000000001" stroke="#000000" stroke-width="0.8"/>
  <text x="349.04960000000005" y="705.6700000000001" text-anchor="middle" font-family="'Arial Narrow', Arial, sans-serif" font-size="10" fill="#000000">4000</text>
  <line x1="471.98560000000003" y1="692.6700000000001" x2="471.98560000000003" y2="712.6700000000001" stroke="#000000" stroke-width="0.35"/>
  <line x1="479.36176000000006" y1="692.6700000000001" x2="479.36176000000006" y2="712.6700000000001" stroke="#000000" stroke-width="0.35"/>
  <line x1="471.98560000000003" y1="710.6700000000001" x2="479.36176000000006" y2="710.6700000000001" stroke="#000000" stroke-width="0.5"/>
  <line x1="469.98560000000003" y1="714.6700000000001" x2="473.98560000000003" y2="706.6700000000001" stroke="#000000" stroke-width="0.8"/>
  <line x1="477.36176000000006" y1="714.6700000000001" x2="481.36176000000006" y2="706.6700000000001" stroke="#000000" stroke-width="0.8"/>
  <text x="475.67368000000005" y="705.6700000000001" text-anchor="middle" font-family="'Arial Narrow', Arial, sans-serif" font-size="10" fill="#000000">120</text>
  <line x1="479.36176000000006" y1="692.6700000000001" x2="479.36176000000006" y2="712.6700000000001" stroke="#000000" stroke-width="0.35"/>
  <line x1="700.64656" y1="692.6700000000001" x2="700.64656" y2="712.6700000000001" stroke="#000000" stroke-width="0.35"/>
  <line x1="479.36176000000006" y1="710.6700000000001" x2="700.64656" y2="710.6700000000001" stroke="#000000" stroke-width="0.5"/>
  <line x1="477.36176000000006" y1="714.6700000000001" x2="481.36176000000006" y2="706.6700000000001" stroke="#000000" stroke-width="0.8"/>
  <line x1="698.64656" y1="714.6700000000001" x2="702.64656" y2="706.6700000000001" stroke="#000000" stroke-width="0.8"/>
  <text x="590.0041600000001" y="705.6700000000001" text-anchor="middle" font-family="'Arial Narrow', Arial, sans-serif" font-size="10" fill="#000000">3600</text>
  <line x1="700.64656" y1="692.6700000000001" x2="700.64656" y2="712.6700000000001" stroke="#000000" stroke-width="0.35"/>
  <line x1="708.0227199999999" y1="692.6700000000001" x2="708.0227199999999" y2="712.6700000000001" stroke="#000000" stroke-width="0.35"/>
  <line x1="700.64656" y1="710.6700000000001" x2="708.0227199999999" y2="710.6700000000001" stroke="#000000" stroke-width="0.5"/>
  <line x1="698.64656" y1="714.6700000000001" x2="702.64656" y2="706.6700000000001" stroke="#000000" stroke-width="0.8"/>
  <line x1="706.0227199999999" y1="714.6700000000001" x2="710.0227199999999" y2="706.6700000000001" stroke="#000000" stroke-width="0.8"/>
  <text x="704.33464" y="705.6700000000001" text-anchor="middle" font-family="'Arial Narrow', Arial, sans-serif" font-size="10" fill="#000000">120</text>
  <line x1="708.0227199999999" y1="692.6700000000001" x2="708.0227199999999" y2="712.6700000000001" stroke="#000000" stroke-width="0.35"/>
  <line x1="722.16036" y1="692.6700000000001" x2="722.16036" y2="712.6700000000001" stroke="#000000" stroke-width="0.35"/>
  <line x1="708.0227199999999" y1="710.6700000000001" x2="722.16036" y2="710.6700000000001" stroke="#000000" stroke-width="0.5"/>
  <line x1="706.0227199999999" y1="714.6700000000001" x2="710.0227199999999" y2="706.6700000000001" stroke="#000000" stroke-width="0.8"/>
  <line x1="720.16036" y1="714.6700000000001" x2="724.16036" y2="706.6700000000001" stroke="#000000" stroke-width="0.8"/>
  <text x="715.0915399999999" y="705.6700000000001" text-anchor="middle" font-family="'Arial Narrow', Arial, sans-serif" font-size="10" fill="#000000">230</text>
  <line x1="722.16036" y1="692.6700000000001" x2="722.16036" y2="712.6700000000001" stroke="#000000" stroke-width="0.35"/>
  <line x1="929.3075200000001" y1="692.6700000000001" x2="929.3075200000001" y2="712.6700000000001" stroke="#000000" stroke-width="0.35"/>
  <line x1="722.16036" y1="710.6700000000001" x2="929.3075200000001" y2="710.6700000000001" stroke="#000000" stroke-width="0.5"/>
  <line x1="720.16036" y1="714.6700000000001" x2="724.16036" y2="706.6700000000001" stroke="#000000" stroke-width="0.8"/>
  <line x1="927.3075200000001" y1="714.6700000000001" x2="931.3075200000001" y2="706.6700000000001" stroke="#000000" stroke-width="0.8"/>
  <text x="825.7339400000001" y="705.6700000000001" text-anchor="middle" font-family="'Arial Narrow', Arial, sans-serif" font-size="10" fill="#000000">3370</text>
  <line x1="929.3075200000001" y1="692.6700000000001" x2="929.3075200000001" y2="712.6700000000001" stroke="#000000" stroke-width="0.35"/>
  <line x1="936.68368" y1="692.6700000000001" x2="936.68368" y2="712.6700000000001" stroke="#000000" stroke-width="0.35"/>
  <line x1="929.3075200000001" y1="710.6700000000001" x2="936.68368" y2="710.6700000000001" stroke="#000000" stroke-width="0.5"/>
  <line x1="927.3075200000001" y1="714.6700000000001" x2="931.3075200000001" y2="706.6700000000001" stroke="#000000" stroke-width="0.8"/>
  <line x1="934.68368" y1="714.6700000000001" x2="938.68368" y2="706.6700000000001" stroke="#000000" stroke-width="0.8"/>
  <text x="932.9956" y="705.6700000000001" text-anchor="middle" font-family="'Arial Narrow', Arial, sans-serif" font-size="10" fill="#000000">120</text>
  <line x1="936.68368" y1="692.6700000000001" x2="936.68368" y2="712.6700000000001" stroke="#000000" stroke-width="0.35"/>
  <line x1="1430.8863999999999" y1="692.6700000000001" x2="1430.8863999999999" y2="712.6700000000001" stroke="#000000" stroke-width="0.35"/>
  <line x1="936.68368" y1="710.6700000000001" x2="1430.8863999999999" y2="710.6700000000001" stroke="#000000" stroke-width="0.5"/>
  <line x1="934.68368" y1="714.6700000000001" x2="938.68368" y2="706.6700000000001" stroke="#000000" stroke-width="0.8"/>
  <line x1="1428.8863999999999" y1="714.6700000000001" x2="1432.8863999999999" y2="706.6700000000001" stroke="#000000" stroke-width="0.8"/>
  <text x="1183.78504" y="705.6700000000001" text-anchor="middle" font-family="'Arial Narrow', Arial, sans-serif" font-size="10" fill="#000000">8040</text>
  <line x1="1430.8863999999999" y1="692.6700000000001" x2="1430.8863999999999" y2="712.6700000000001" stroke="#000000" stroke-width="0.35"/>
  <line x1="1443.1799999999998" y1="692.6700000000001" x2="1443.1799999999998" y2="712.6700000000001" stroke="#000000" stroke-width="0.35"/>
  <line x1="1430.8863999999999" y1="710.6700000000001" x2="1443.1799999999998" y2="710.6700000000001" stroke="#000000" stroke-width="0.5"/>
  <line x1="1428.8863999999999" y1="714.6700000000001" x2="1432.8863999999999" y2="706.6700000000001" stroke="#000000" stroke-width="0.8"/>
  <line x1="1441.1799999999998" y1="714.6700000000001" x2="1445.1799999999998" y2="706.6700000000001" stroke="#000000" stroke-width="0.8"/>
  <text x="1437.0331999999999" y="705.6700000000001" text-anchor="middle" font-family="'Arial Narrow', Arial, sans-serif" font-size="10" fill="#000000">200</text>
  <line x1="213.82000000000005" y1="692.6700000000001" x2="213.82000000000005" y2="734.6700000000001" stroke="#000000" stroke-width="0.35"/>
  <line x1="226.11360000000005" y1="692.6700000000001" x2="226.11360000000005" y2="734.6700000000001" stroke="#000000" stroke-width="0.35"/>
  <line x1="213.82000000000005" y1="732.6700000000001" x2="226.11360000000005" y2="732.6700000000001" stroke="#000000" stroke-width="0.5"/>
  <line x1="211.82000000000005" y1="736.6700000000001" x2="215.82000000000005" y2="728.6700000000001" stroke="#000000" stroke-width="0.8"/>
  <line x1="224.11360000000005" y1="736.6700000000001" x2="228.11360000000005" y2="728.6700000000001" stroke="#000000" stroke-width="0.8"/>
  <text x="219.96680000000003" y="727.6700000000001" text-anchor="middle" font-family="'Arial Narrow', Arial, sans-serif" font-size="10" fill="#000000">200</text>
  <line x1="226.11360000000005" y1="692.6700000000001" x2="226.11360000000005" y2="734.6700000000001" stroke="#000000" stroke-width="0.35"/>
  <line x1="479.36176000000006" y1="692.6700000000001" x2="479.36176000000006" y2="734.6700000000001" stroke="#000000" stroke-width="0.35"/>
  <line x1="226.11360000000005" y1="732.6700000000001" x2="479.36176000000006" y2="732.6700000000001" stroke="#000000" stroke-width="0.5"/>
  <line x1="224.11360000000005" y1="736.6700000000001" x2="228.11360000000005" y2="728.6700000000001" stroke="#000000" stroke-width="0.8"/>
  <line x1="477.36176000000006" y1="736.6700000000001" x2="481.36176000000006" y2="728.6700000000001" stroke="#000000" stroke-width="0.8"/>
  <text x="352.73768000000007" y="727.6700000000001" text-anchor="middle" font-family="'Arial Narrow', Arial, sans-serif" font-size="10" fill="#000000">4120</text>
  <line x1="479.36176000000006" y1="692.6700000000001" x2="479.36176000000006" y2="734.6700000000001" stroke="#000000" stroke-width="0.35"/>
  <line x1="708.0227199999999" y1="692.6700000000001" x2="708.0227199999999" y2="734.6700000000001" stroke="#000000" stroke-width="0.35"/>
  <line x1="479.36176000000006" y1="732.6700000000001" x2="708.0227199999999" y2="732.6700000000001" stroke="#000000" stroke-width="0.5"/>
  <line x1="477.36176000000006" y1="736.6700000000001" x2="481.36176000000006" y2="728.6700000000001" stroke="#000000" stroke-width="0.8"/>
  <line x1="706.0227199999999" y1="736.6700000000001" x2="710.0227199999999" y2="728.6700000000001" stroke="#000000" stroke-width="0.8"/>
  <text x="593.69224" y="727.6700000000001" text-anchor="middle" font-family="'Arial Narrow', Arial, sans-serif" font-size="10" fill="#000000">3720</text>
  <line x1="708.0227199999999" y1="692.6700000000001" x2="708.0227199999999" y2="734.6700000000001" stroke="#000000" stroke-width="0.35"/>
  <line x1="722.16036" y1="692.6700000000001" x2="722.16036" y2="734.6700000000001" stroke="#000000" stroke-width="0.35"/>
  <line x1="708.0227199999999" y1="732.6700000000001" x2="722.16036" y2="732.6700000000001" stroke="#000000" stroke-width="0.5"/>
  <line x1="706.0227199999999" y1="736.6700000000001" x2="710.0227199999999" y2="728.6700000000001" stroke="#000000" stroke-width="0.8"/>
  <line x1="720.16036" y1="736.6700000000001" x2="724.16036" y2="728.6700000000001" stroke="#000000" stroke-width="0.8"/>
  <text x="715.0915399999999" y="727.6700000000001" text-anchor="middle" font-family="'Arial Narrow', Arial, sans-serif" font-size="10" fill="#000000">230</text>
  <line x1="722.16036" y1="692.6700000000001" x2="722.16036" y2="734.6700000000001" stroke="#000000" stroke-width="0.35"/>
  <line x1="929.3075200000001" y1="692.6700000000001" x2="929.3075200000001" y2="734.6700000000001" stroke="#000000" stroke-width="0.35"/>
  <line x1="722.16036" y1="732.6700000000001" x2="929.3075200000001" y2="732.6700000000001" stroke="#000000" stroke-width="0.5"/>
  <line x1="720.16036" y1="736.6700000000001" x2="724.16036" y2="728.6700000000001" stroke="#000000" stroke-width="0.8"/>
  <line x1="927.3075200000001" y1="736.6700000000001" x2="931.3075200000001" y2="728.6700000000001" stroke="#000000" stroke-width="0.8"/>
  <text x="825.7339400000001" y="727.6700000000001" text-anchor="middle" font-family="'Arial Narrow', Arial, sans-serif" font-size="10" fill="#000000">3370</text>
  <line x1="929.3075200000001" y1="692.6700000000001" x2="929.3075200000001" y2="734.6700000000001" stroke="#000000" stroke-width="0.35"/>
  <line x1="1443.1799999999998" y1="692.6700000000001" x2="1443.1799999999998" y2="734.6700000000001" stroke="#000000" stroke-width="0.35"/>
  <line x1="929.3075200000001" y1="732.6700000000001" x2="1443.1799999999998" y2="732.6700000000001" stroke="#000000" stroke-width="0.5"/>
  <line x1="927.3075200000001" y1="736.6700000000001" x2="931.3075200000001" y2="728.6700000000001" stroke="#000000" stroke-width="0.8"/>
  <line x1="1441.1799999999998" y1="736.6700000000001" x2="1445.1799999999998" y2="728.6700000000001" stroke="#000000" stroke-width="0.8"/>
  <text x="1186.2437599999998" y="727.6700000000001" text-anchor="middle" font-family="'Arial Narrow', Arial, sans-serif" font-size="10" fill="#000000">8360</text>
  <line x1="213.82000000000005" y1="692.6700000000001" x2="213.82000000000005" y2="756.6700000000001" stroke="#000000" stroke-width="0.35"/>
  <line x1="1443.1799999999998" y1="692.6700000000001" x2="1443.1799999999998" y2="756.6700000000001" stroke="#000000" stroke-width="0.35"/>
  <line x1="213.82000000000005" y1="754.6700000000001" x2="1443.1799999999998" y2="754.6700000000001" stroke="#000000" stroke-width="0.5"/>
  <line x1="211.82000000000005" y1="758.6700000000001" x2="215.82000000000005" y2="750.6700000000001" stroke="#000000" stroke-width="0.8"/>
  <line x1="1441.1799999999998" y1="758.6700000000001" x2="1445.1799999999998" y2="750.6700000000001" stroke="#000000" stroke-width="0.8"/>
  <text x="828.5" y="749.6700000000001" text-anchor="middle" font-family="'Arial Narrow', Arial, sans-serif" font-size="10" fill="#000000">20000</text>
  <line x1="211.82000000000005" y1="383.33000000000004" x2="191.82000000000005" y2="383.33000000000004" stroke="#000000" stroke-width="0.35"/>
  <line x1="211.82000000000005" y1="395.62360000000007" x2="191.82000000000005" y2="395.62360000000007" stroke="#000000" stroke-width="0.35"/>
  <line x1="193.82000000000005" y1="383.33000000000004" x2="193.82000000000005" y2="395.62360000000007" stroke="#000000" stroke-width="0.5"/>
  <line x1="189.82000000000005" y1="385.33000000000004" x2="197.82000000000005" y2="381.33000000000004" stroke="#000000" stroke-width="0.8"/>
  <line x1="189.82000000000005" y1="397.62360000000007" x2="197.82000000000005" y2="393.62360000000007" stroke="#000000" stroke-width="0.8"/>
  <text x="185.82000000000005" y="389.4768" text-anchor="middle" font-family="'Arial Narrow', Arial, sans-serif" font-size="7.5" fill="#000000" transform="rotate(-90, 185.82000000000005, 389.4768)">200</text>
  <line x1="211.82000000000005" y1="395.62360000000007" x2="191.82000000000005" y2="395.62360000000007" stroke="#000000" stroke-width="0.35"/>
  <line x1="211.82000000000005" y1="678.3764" x2="191.82000000000005" y2="678.3764" stroke="#000000" stroke-width="0.35"/>
  <line x1="193.82000000000005" y1="395.62360000000007" x2="193.82000000000005" y2="678.3764" stroke="#000000" stroke-width="0.5"/>
  <line x1="189.82000000000005" y1="397.62360000000007" x2="197.82000000000005" y2="393.62360000000007" stroke="#000000" stroke-width="0.8"/>
  <line x1="189.82000000000005" y1="680.3764" x2="197.82000000000005" y2="676.3764" stroke="#000000" stroke-width="0.8"/>
  <text x="185.82000000000005" y="537" text-anchor="middle" font-family="'Arial Narrow', Arial, sans-serif" font-size="7.5" fill="#000000" transform="rotate(-90, 185.82000000000005, 537)">4600</text>
  <line x1="211.82000000000005" y1="678.3764" x2="191.82000000000005" y2="678.3764" stroke="#000000" stroke-width="0.35"/>
  <line x1="211.82000000000005" y1="690.6700000000001" x2="191.82000000000005" y2="690.6700000000001" stroke="#000000" stroke-width="0.35"/>
  <line x1="193.82000000000005" y1="678.3764" x2="193.82000000000005" y2="690.6700000000001" stroke="#000000" stroke-width="0.5"/>
  <line x1="189.82000000000005" y1="680.3764" x2="197.82000000000005" y2="676.3764" stroke="#000000" stroke-width="0.8"/>
  <line x1="189.82000000000005" y1="692.6700000000001" x2="197.82000000000005" y2="688.6700000000001" stroke="#000000" stroke-width="0.8"/>
  <text x="185.82000000000005" y="684.5232000000001" text-anchor="middle" font-family="'Arial Narrow', Arial, sans-serif" font-size="7.5" fill="#000000" transform="rotate(-90, 185.82000000000005, 684.5232000000001)">200</text>
  <line x1="211.82000000000005" y1="383.33000000000004" x2="169.82000000000005" y2="383.33000000000004" stroke="#000000" stroke-width="0.35"/>
  <line x1="211.82000000000005" y1="690.6700000000001" x2="169.82000000000005" y2="690.6700000000001" stroke="#000000" stroke-width="0.35"/>
  <line x1="171.82000000000005" y1="383.33000000000004" x2="171.82000000000005" y2="690.6700000000001" stroke="#000000" stroke-width="0.5"/>
  <line x1="167.82000000000005" y1="385.33000000000004" x2="175.82000000000005" y2="381.33000000000004" stroke="#000000" stroke-width="0.8"/>
  <line x1="167.82000000000005" y1="692.6700000000001" x2="175.82000000000005" y2="688.6700000000001" stroke="#000000" stroke-width="0.8"/>
  <text x="163.82000000000005" y="537" text-anchor="middle" font-family="'Arial Narrow', Arial, sans-serif" font-size="7.5" fill="#000000" transform="rotate(-90, 163.82000000000005, 537)">5000</text>
  <line x1="211.82000000000005" y1="383.33000000000004" x2="147.82000000000005" y2="383.33000000000004" stroke="#000000" stroke-width="0.35"/>
  <line x1="211.82000000000005" y1="690.6700000000001" x2="147.82000000000005" y2="690.6700000000001" stroke="#000000" stroke-width="0.35"/>
  <line x1="149.82000000000005" y1="383.33000000000004" x2="149.82000000000005" y2="690.6700000000001" stroke="#000000" stroke-width="0.5"/>
  <line x1="145.82000000000005" y1="385.33000000000004" x2="153.82000000000005" y2="381.33000000000004" stroke="#000000" stroke-width="0.8"/>
  <line x1="145.82000000000005" y1="692.6700000000001" x2="153.82000000000005" y2="688.6700000000001" stroke="#000000" stroke-width="0.8"/>
  <text x="141.82000000000005" y="537" text-anchor="middle" font-family="'Arial Narrow', Arial, sans-serif" font-size="7.5" fill="#000000" transform="rotate(-90, 141.82000000000005, 537)">5000</text>
  <line x1="213.82000000000005" y1="381.33000000000004" x2="213.82000000000005" y2="361.33000000000004" stroke="#000000" stroke-width="0.35"/>
  <line x1="226.11360000000005" y1="381.33000000000004" x2="226.11360000000005" y2="361.33000000000004" stroke="#000000" stroke-width="0.35"/>
  <line x1="213.82000000000005" y1="363.33000000000004" x2="226.11360000000005" y2="363.33000000000004" stroke="#000000" stroke-width="0.5"/>
  <line x1="211.82000000000005" y1="367.33000000000004" x2="215.82000000000005" y2="359.33000000000004" stroke="#000000" stroke-width="0.8"/>
  <line x1="224.11360000000005" y1="367.33000000000004" x2="228.11360000000005" y2="359.33000000000004" stroke="#000000" stroke-width="0.8"/>
  <text x="219.96680000000003" y="376.33000000000004" text-anchor="middle" font-family="'Arial Narrow', Arial, sans-serif" font-size="10" fill="#000000">200</text>
  <line x1="226.11360000000005" y1="381.33000000000004" x2="226.11360000000005" y2="361.33000000000004" stroke="#000000" stroke-width="0.35"/>
  <line x1="471.98560000000003" y1="381.33000000000004" x2="471.98560000000003" y2="361.33000000000004" stroke="#000000" stroke-width="0.35"/>
  <line x1="226.11360000000005" y1="363.33000000000004" x2="471.98560000000003" y2="363.33000000000004" stroke="#000000" stroke-width="0.5"/>
  <line x1="224.11360000000005" y1="367.33000000000004" x2="228.11360000000005" y2="359.33000000000004" stroke="#000000" stroke-width="0.8"/>
  <line x1="469.98560000000003" y1="367.33000000000004" x2="473.98560000000003" y2="359.33000000000004" stroke="#000000" stroke-width="0.8"/>
  <text x="349.04960000000005" y="376.33000000000004" text-anchor="middle" font-family="'Arial Narrow', Arial, sans-serif" font-size="10" fill="#000000">4000</text>
  <line x1="471.98560000000003" y1="381.33000000000004" x2="471.98560000000003" y2="361.33000000000004" stroke="#000000" stroke-width="0.35"/>
  <line x1="479.36176000000006" y1="381.33000000000004" x2="479.36176000000006" y2="361.33000000000004" stroke="#000000" stroke-width="0.35"/>
  <line x1="471.98560000000003" y1="363.33000000000004" x2="479.36176000000006" y2="363.33000000000004" stroke="#000000" stroke-width="0.5"/>
  <line x1="469.98560000000003" y1="367.33000000000004" x2="473.98560000000003" y2="359.33000000000004" stroke="#000000" stroke-width="0.8"/>
  <line x1="477.36176000000006" y1="367.33000000000004" x2="481.36176000000006" y2="359.33000000000004" stroke="#000000" stroke-width="0.8"/>
  <text x="475.67368000000005" y="376.33000000000004" text-anchor="middle" font-family="'Arial Narrow', Arial, sans-serif" font-size="10" fill="#000000">120</text>
  <line x1="479.36176000000006" y1="381.33000000000004" x2="479.36176000000006" y2="361.33000000000004" stroke="#000000" stroke-width="0.35"/>
  <line x1="700.64656" y1="381.33000000000004" x2="700.64656" y2="361.33000000000004" stroke="#000000" stroke-width="0.35"/>
  <line x1="479.36176000000006" y1="363.33000000000004" x2="700.64656" y2="363.33000000000004" stroke="#000000" stroke-width="0.5"/>
  <line x1="477.36176000000006" y1="367.33000000000004" x2="481.36176000000006" y2="359.33000000000004" stroke="#000000" stroke-width="0.8"/>
  <line x1="698.64656" y1="367.33000000000004" x2="702.64656" y2="359.33000000000004" stroke="#000000" stroke-width="0.8"/>
  <text x="590.0041600000001" y="376.33000000000004" text-anchor="middle" font-family="'Arial Narrow', Arial, sans-serif" font-size="10" fill="#000000">3600</text>
  <line x1="700.64656" y1="381.33000000000004" x2="700.64656" y2="361.33000000000004" stroke="#000000" stroke-width="0.35"/>
  <line x1="708.0227199999999" y1="381.33000000000004" x2="708.0227199999999" y2="361.33000000000004" stroke="#000000" stroke-width="0.35"/>
  <line x1="700.64656" y1="363.33000000000004" x2="708.0227199999999" y2="363.33000000000004" stroke="#000000" stroke-width="0.5"/>
  <line x1="698.64656" y1="367.33000000000004" x2="702.64656" y2="359.33000000000004" stroke="#000000" stroke-width="0.8"/>
  <line x1="706.0227199999999" y1="367.33000000000004" x2="710.0227199999999" y2="359.33000000000004" stroke="#000000" stroke-width="0.8"/>
  <text x="704.33464" y="376.33000000000004" text-anchor="middle" font-family="'Arial Narrow', Arial, sans-serif" font-size="10" fill="#000000">120</text>
  <line x1="708.0227199999999" y1="381.33000000000004" x2="708.0227199999999" y2="361.33000000000004" stroke="#000000" stroke-width="0.35"/>
  <line x1="722.16036" y1="381.33000000000004" x2="722.16036" y2="361.33000000000004" stroke="#000000" stroke-width="0.35"/>
  <line x1="708.0227199999999" y1="363.33000000000004" x2="722.16036" y2="363.33000000000004" stroke="#000000" stroke-width="0.5"/>
  <line x1="706.0227199999999" y1="367.33000000000004" x2="710.0227199999999" y2="359.33000000000004" stroke="#000000" stroke-width="0.8"/>
  <line x1="720.16036" y1="367.33000000000004" x2="724.16036" y2="359.33000000000004" stroke="#000000" stroke-width="0.8"/>
  <text x="715.0915399999999" y="376.33000000000004" text-anchor="middle" font-family="'Arial Narrow', Arial, sans-serif" font-size="10" fill="#000000">230</text>
  <line x1="722.16036" y1="381.33000000000004" x2="722.16036" y2="361.33000000000004" stroke="#000000" stroke-width="0.35"/>
  <line x1="929.3075200000001" y1="381.33000000000004" x2="929.3075200000001" y2="361.33000000000004" stroke="#000000" stroke-width="0.35"/>
  <line x1="722.16036" y1="363.33000000000004" x2="929.3075200000001" y2="363.33000000000004" stroke="#000000" stroke-width="0.5"/>
  <line x1="720.16036" y1="367.33000000000004" x2="724.16036" y2="359.33000000000004" stroke="#000000" stroke-width="0.8"/>
  <line x1="927.3075200000001" y1="367.33000000000004" x2="931.3075200000001" y2="359.33000000000004" stroke="#000000" stroke-width="0.8"/>
  <text x="825.7339400000001" y="376.33000000000004" text-anchor="middle" font-family="'Arial Narrow', Arial, sans-serif" font-size="10" fill="#000000">3370</text>
  <line x1="929.3075200000001" y1="381.33000000000004" x2="929.3075200000001" y2="361.33000000000004" stroke="#000000" stroke-width="0.35"/>
  <line x1="936.68368" y1="381.33000000000004" x2="936.68368" y2="361.33000000000004" stroke="#000000" stroke-width="0.35"/>
  <line x1="929.3075200000001" y1="363.33000000000004" x2="936.68368" y2="363.33000000000004" stroke="#000000" stroke-width="0.5"/>
  <line x1="927.3075200000001" y1="367.33000000000004" x2="931.3075200000001" y2="359.33000000000004" stroke="#000000" stroke-width="0.8"/>
  <line x1="934.68368" y1="367.33000000000004" x2="938.68368" y2="359.33000000000004" stroke="#000000" stroke-width="0.8"/>
  <text x="932.9956" y="376.33000000000004" text-anchor="middle" font-family="'Arial Narrow', Arial, sans-serif" font-size="10" fill="#000000">120</text>
  <line x1="936.68368" y1="381.33000000000004" x2="936.68368" y2="361.33000000000004" stroke="#000000" stroke-width="0.35"/>
  <line x1="1430.8863999999999" y1="381.33000000000004" x2="1430.8863999999999" y2="361.33000000000004" stroke="#000000" stroke-width="0.35"/>
  <line x1="936.68368" y1="363.33000000000004" x2="1430.8863999999999" y2="363.33000000000004" stroke="#000000" stroke-width="0.5"/>
  <line x1="934.68368" y1="367.33000000000004" x2="938.68368" y2="359.33000000000004" stroke="#000000" stroke-width="0.8"/>
  <line x1="1428.8863999999999" y1="367.33000000000004" x2="1432.8863999999999" y2="359.33000000000004" stroke="#000000" stroke-width="0.8"/>
  <text x="1183.78504" y="376.33000000000004" text-anchor="middle" font-family="'Arial Narrow', Arial, sans-serif" font-size="10" fill="#000000">8040</text>
  <line x1="1430.8863999999999" y1="381.33000000000004" x2="1430.8863999999999" y2="361.33000000000004" stroke="#000000" stroke-width="0.35"/>
  <line x1="1443.1799999999998" y1="381.33000000000004" x2="1443.1799999999998" y2="361.33000000000004" stroke="#000000" stroke-width="0.35"/>
  <line x1="1430.8863999999999" y1="363.33000000000004" x2="1443.1799999999998" y2="363.33000000000004" stroke="#000000" stroke-width="0.5"/>
  <line x1="1428.8863999999999" y1="367.33000000000004" x2="1432.8863999999999" y2="359.33000000000004" stroke="#000000" stroke-width="0.8"/>
  <line x1="1441.1799999999998" y1="367.33000000000004" x2="1445.1799999999998" y2="359.33000000000004" stroke="#000000" stroke-width="0.8"/>
  <text x="1437.0331999999999" y="376.33000000000004" text-anchor="middle" font-family="'Arial Narrow', Arial, sans-serif" font-size="10" fill="#000000">200</text>
  <line x1="213.82000000000005" y1="381.33000000000004" x2="213.82000000000005" y2="339.33000000000004" stroke="#000000" stroke-width="0.35"/>
  <line x1="226.11360000000005" y1="381.33000000000004" x2="226.11360000000005" y2="339.33000000000004" stroke="#000000" stroke-width="0.35"/>
  <line x1="213.82000000000005" y1="341.33000000000004" x2="226.11360000000005" y2="341.33000000000004" stroke="#000000" stroke-width="0.5"/>
  <line x1="211.82000000000005" y1="345.33000000000004" x2="215.82000000000005" y2="337.33000000000004" stroke="#000000" stroke-width="0.8"/>
  <line x1="224.11360000000005" y1="345.33000000000004" x2="228.11360000000005" y2="337.33000000000004" stroke="#000000" stroke-width="0.8"/>
  <text x="219.96680000000003" y="354.33000000000004" text-anchor="middle" font-family="'Arial Narrow', Arial, sans-serif" font-size="10" fill="#000000">200</text>
  <line x1="226.11360000000005" y1="381.33000000000004" x2="226.11360000000005" y2="339.33000000000004" stroke="#000000" stroke-width="0.35"/>
  <line x1="479.36176000000006" y1="381.33000000000004" x2="479.36176000000006" y2="339.33000000000004" stroke="#000000" stroke-width="0.35"/>
  <line x1="226.11360000000005" y1="341.33000000000004" x2="479.36176000000006" y2="341.33000000000004" stroke="#000000" stroke-width="0.5"/>
  <line x1="224.11360000000005" y1="345.33000000000004" x2="228.11360000000005" y2="337.33000000000004" stroke="#000000" stroke-width="0.8"/>
  <line x1="477.36176000000006" y1="345.33000000000004" x2="481.36176000000006" y2="337.33000000000004" stroke="#000000" stroke-width="0.8"/>
  <text x="352.73768000000007" y="354.33000000000004" text-anchor="middle" font-family="'Arial Narrow', Arial, sans-serif" font-size="10" fill="#000000">4120</text>
  <line x1="479.36176000000006" y1="381.33000000000004" x2="479.36176000000006" y2="339.33000000000004" stroke="#000000" stroke-width="0.35"/>
  <line x1="708.0227199999999" y1="381.33000000000004" x2="708.0227199999999" y2="339.33000000000004" stroke="#000000" stroke-width="0.35"/>
  <line x1="479.36176000000006" y1="341.33000000000004" x2="708.0227199999999" y2="341.33000000000004" stroke="#000000" stroke-width="0.5"/>
  <line x1="477.36176000000006" y1="345.33000000000004" x2="481.36176000000006" y2="337.33000000000004" stroke="#000000" stroke-width="0.8"/>
  <line x1="706.0227199999999" y1="345.33000000000004" x2="710.0227199999999" y2="337.33000000000004" stroke="#000000" stroke-width="0.8"/>
  <text x="593.69224" y="354.33000000000004" text-anchor="middle" font-family="'Arial Narrow', Arial, sans-serif" font-size="10" fill="#000000">3720</text>
  <line x1="708.0227199999999" y1="381.33000000000004" x2="708.0227199999999" y2="339.33000000000004" stroke="#000000" stroke-width="0.35"/>
  <line x1="722.16036" y1="381.33000000000004" x2="722.16036" y2="339.33000000000004" stroke="#000000" stroke-width="0.35"/>
  <line x1="708.0227199999999" y1="341.33000000000004" x2="722.16036" y2="341.33000000000004" stroke="#000000" stroke-width="0.5"/>
  <line x1="706.0227199999999" y1="345.33000000000004" x2="710.0227199999999" y2="337.33000000000004" stroke="#000000" stroke-width="0.8"/>
  <line x1="720.16036" y1="345.33000000000004" x2="724.16036" y2="337.33000000000004" stroke="#000000" stroke-width="0.8"/>
  <text x="715.0915399999999" y="354.33000000000004" text-anchor="middle" font-family="'Arial Narrow', Arial, sans-serif" font-size="10" fill="#000000">230</text>
  <line x1="722.16036" y1="381.33000000000004" x2="722.16036" y2="339.33000000000004" stroke="#000000" stroke-width="0.35"/>
  <line x1="929.3075200000001" y1="381.33000000000004" x2="929.3075200000001" y2="339.33000000000004" stroke="#000000" stroke-width="0.35"/>
  <line x1="722.16036" y1="341.33000000000004" x2="929.3075200000001" y2="341.33000000000004" stroke="#000000" stroke-width="0.5"/>
  <line x1="720.16036" y1="345.33000000000004" x2="724.16036" y2="337.33000000000004" stroke="#000000" stroke-width="0.8"/>
  <line x1="927.3075200000001" y1="345.33000000000004" x2="931.3075200000001" y2="337.33000000000004" stroke="#000000" stroke-width="0.8"/>
  <text x="825.7339400000001" y="354.33000000000004" text-anchor="middle" font-family="'Arial Narrow', Arial, sans-serif" font-size="10" fill="#000000">3370</text>
  <line x1="929.3075200000001" y1="381.33000000000004" x2="929.3075200000001" y2="339.33000000000004" stroke="#000000" stroke-width="0.35"/>
  <line x1="1443.1799999999998" y1="381.33000000000004" x2="1443.1799999999998" y2="339.33000000000004" stroke="#000000" stroke-width="0.35"/>
  <line x1="929.3075200000001" y1="341.33000000000004" x2="1443.1799999999998" y2="341.33000000000004" stroke="#000000" stroke-width="0.5"/>
  <line x1="927.3075200000001" y1="345.33000000000004" x2="931.3075200000001" y2="337.33000000000004" stroke="#000000" stroke-width="0.8"/>
  <line x1="1441.1799999999998" y1="345.33000000000004" x2="1445.1799999999998" y2="337.33000000000004" stroke="#000000" stroke-width="0.8"/>
  <text x="1186.2437599999998" y="354.33000000000004" text-anchor="middle" font-family="'Arial Narrow', Arial, sans-serif" font-size="10" fill="#000000">8360</text>
  <line x1="213.82000000000005" y1="381.33000000000004" x2="213.82000000000005" y2="317.33000000000004" stroke="#000000" stroke-width="0.35"/>
  <line x1="1443.1799999999998" y1="381.33000000000004" x2="1443.1799999999998" y2="317.33000000000004" stroke="#000000" stroke-width="0.35"/>
  <line x1="213.82000000000005" y1="319.33000000000004" x2="1443.1799999999998" y2="319.33000000000004" stroke="#000000" stroke-width="0.5"/>
  <line x1="211.82000000000005" y1="323.33000000000004" x2="215.82000000000005" y2="315.33000000000004" stroke="#000000" stroke-width="0.8"/>
  <line x1="1441.1799999999998" y1="323.33000000000004" x2="1445.1799999999998" y2="315.33000000000004" stroke="#000000" stroke-width="0.8"/>
  <text x="828.5" y="332.33000000000004" text-anchor="middle" font-family="'Arial Narrow', Arial, sans-serif" font-size="10" fill="#000000">20000</text>
  <line x1="141.82000000000005" y1="537" x2="1515.1799999999998" y2="537" stroke="#000" stroke-width="0.8" stroke-dasharray="12 3 3 3"/>
  <circle cx="141.82000000000005" cy="537" r="10" fill="white" stroke="#000" stroke-width="1"/>
  <text x="141.82000000000005" y="541" text-anchor="middle" font-family="'Arial Narrow', Arial, sans-serif" font-size="10" fill="#000" font-weight="bold">A</text>
  <circle cx="1515.1799999999998" cy="537" r="10" fill="white" stroke="#000" stroke-width="1"/>
  <text x="1515.1799999999998" y="541" text-anchor="middle" font-family="'Arial Narrow', Arial, sans-serif" font-size="10" fill="#000" font-weight="bold">A</text>
  <path d="M 127.82000000000005 534 L 127.82000000000005 540 L 130.82000000000005 537 Z" fill="#000" stroke="none"/>
  <path d="M 1529.1799999999998 534 L 1529.1799999999998 540 L 1526.1799999999998 537 Z" fill="#000" stroke="none"/>
  <text x="828.5" y="1100" text-anchor="middle" font-family="'Arial Narrow', Arial, sans-serif" font-size="18" fill="#000000" font-weight="bold" letter-spacing="2">MẶT BẰNG LẦU 1</text>
  <text x="828.5" y="1116" text-anchor="middle" font-family="'Arial Narrow', Arial, sans-serif" font-size="13" fill="#000000">TL: 1/61 (xoay 90°)</text>
  <text x="8" y="1120" font-family="'Arial Narrow', Arial, sans-serif" font-size="7" fill="#888888">⚠ Tầng 1: Hố thang "Cầu thang" (1.2×2.5m) hơi nhỏ cho thang U-shape — khuyến nghị ≥2.1×3.5m. | Tầng 2: Nên có ít nhất 2 WC cho 3 phòng ngủ (hiện có 1 WC).</text>
</svg>