<?xml version="1.0" encoding="UTF-8"?>
<svg xmlns="http://www.w3.org/2000/svg" width="420mm" height="297mm" viewBox="0 0 1587 1122" preserveAspectRatio="xMidYMid meet">
  <defs>
  <!-- Tường ngoài: gạch chéo đôi (cross-hatch) — chuẩn CAD kiến trúc -->
  <pattern id="hatch-ext" patternUnits="userSpaceOnUse" width="5" height="5">
    <line x1="0" y1="0" x2="5" y2="5" stroke="#000" stroke-width="0.6"/>
    <line x1="5" y1="0" x2="0" y2="5" stroke="#000" stroke-width="0.6"/>
  </pattern>
  <!-- Tường trong: gạch chéo đơn — mảnh hơn -->
  <pattern id="hatch-int" patternUnits="userSpaceOnUse" width="4" height="4">
    <line x1="0" y1="0" x2="4" y2="4" stroke="#555" stroke-width="0.4"/>
  </pattern>
  <!-- Tường tô đặc (cho cột / tường chịu lực) -->
  <pattern id="hatch-solid" patternUnits="userSpaceOnUse" width="3" height="3">
    <rect width="3" height="3" fill="#333"/>
  </pattern>
</defs>
  <rect width="1587" height="1122" fill="white"/>
  <!-- LẦU 1 | 5m×15m | Scale 1/46 | A3 landscape | BMT Decor -->
  <line x1="230.2114666666666" y1="292.1066666666667" x2="230.2114666666666" y2="781.8933333333334" stroke="#999999" stroke-width="0.4" stroke-dasharray="8 4 2 4"/>
  <circle cx="230.2114666666666" cy="781.8933333333334" r="14" fill="white" stroke="#000000" stroke-width="1.2"/>
  <text x="230.2114666666666" y="786.8933333333334" text-anchor="middle" font-family="'Arial Narrow', Arial, sans-serif" font-size="13" fill="#000000" font-weight="bold">1</text>
  <circle cx="230.2114666666666" cy="292.1066666666667" r="14" fill="white" stroke="#000000" stroke-width="1.2"/>
  <text x="230.2114666666666" y="297.1066666666667" text-anchor="middle" font-family="'Arial Narrow', Arial, sans-serif" font-size="13" fill="#000000" font-weight="bold">1</text>
  <line x1="608.8543466666666" y1="292.1066666666667" x2="608.8543466666666" y2="781.8933333333334" stroke="#999999" stroke-width="0.4" stroke-dasharray="8 4 2 4"/>
  <circle cx="608.8543466666666" cy="781.8933333333334" r="14" fill="white" stroke="#000000" stroke-width="1.2"/>
  <text x="608.8543466666666" y="786.8933333333334" text-anchor="middle" font-family="'Arial Narrow', Arial, sans-serif" font-size="13" fill="#000000" font-weight="bold">2</text>
  <circle cx="608.8543466666666" cy="292.1066666666667" r="14" fill="white" stroke="#000000" stroke-width="1.2"/>
  <text x="608.8543466666666" y="297.1066666666667" text-anchor="middle" font-family="'Arial Narrow', Arial, sans-serif" font-size="13" fill="#000000" font-weight="bold">2</text>
  <line x1="735.8882133333333" y1="292.1066666666667" x2="735.8882133333333" y2="781.8933333333334" stroke="#999999" stroke-width="0.4" stroke-dasharray="8 4 2 4"/>
  <circle cx="735.8882133333333" cy="781.8933333333334" r="14" fill="white" stroke="#000000" stroke-width="1.2"/>
  <text x="735.8882133333333" y="786.8933333333334" text-anchor="middle" font-family="'Arial Narrow', Arial, sans-serif" font-size="13" fill="#000000" font-weight="bold">3</text>
  <circle cx="735.8882133333333" cy="292.1066666666667" r="14" fill="white" stroke="#000000" stroke-width="1.2"/>
  <text x="735.8882133333333" y="297.1066666666667" text-anchor="middle" font-family="'Arial Narrow', Arial, sans-serif" font-size="13" fill="#000000" font-weight="bold">3</text>
  <line x1="913.7356266666666" y1="292.1066666666667" x2="913.7356266666666" y2="781.8933333333334" stroke="#999999" stroke-width="0.4" stroke-dasharray="8 4 2 4"/>
  <circle cx="913.7356266666666" cy="781.8933333333334" r="14" fill="white" stroke="#000000" stroke-width="1.2"/>
  <text x="913.7356266666666" y="786.8933333333334" text-anchor="middle" font-family="'Arial Narrow', Arial, sans-serif" font-size="13" fill="#000000" font-weight="bold">4</text>
  <circle cx="913.7356266666666" cy="292.1066666666667" r="14" fill="white" stroke="#000000" stroke-width="1.2"/>
  <text x="913.7356266666666" y="297.1066666666667" text-anchor="middle" font-family="'Arial Narrow', Arial, sans-serif" font-size="13" fill="#000000" font-weight="bold">4</text>
  <line x1="940.7815466666667" y1="292.1066666666667" x2="940.7815466666667" y2="781.8933333333334" stroke="#999999" stroke-width="0.4" stroke-dasharray="8 4 2 4"/>
  <circle cx="940.7815466666667" cy="781.8933333333334" r="14" fill="white" stroke="#000000" stroke-width="1.2"/>
  <text x="940.7815466666667" y="786.8933333333334" text-anchor="middle" font-family="'Arial Narrow', Arial, sans-serif" font-size="13" fill="#000000" font-weight="bold">5</text>
  <circle cx="940.7815466666667" cy="292.1066666666667" r="14" fill="white" stroke="#000000" stroke-width="1.2"/>
  <text x="940.7815466666667" y="297.1066666666667" text-anchor="middle" font-family="'Arial Narrow', Arial, sans-serif" font-size="13" fill="#000000" font-weight="bold">5</text>
  <line x1="1218.6169066666666" y1="292.1066666666667" x2="1218.6169066666666" y2="781.8933333333334" stroke="#999999" stroke-width="0.4" stroke-dasharray="8 4 2 4"/>
  <circle cx="1218.6169066666666" cy="781.8933333333334" r="14" fill="white" stroke="#000000" stroke-width="1.2"/>
  <text x="1218.6169066666666" y="786.8933333333334" text-anchor="middle" font-family="'Arial Narrow', Arial, sans-serif" font-size="13" fill="#000000" font-weight="bold">6</text>
  <circle cx="1218.6169066666666" cy="292.1066666666667" r="14" fill="white" stroke="#000000" stroke-width="1.2"/>
  <text x="1218.6169066666666" y="297.1066666666667" text-anchor="middle" font-family="'Arial Narrow', Arial, sans-serif" font-size="13" fill="#000000" font-weight="bold">6</text>
  <line x1="1443.18" y1="292.1066666666667" x2="1443.18" y2="781.8933333333334" stroke="#999999" stroke-width="0.4" stroke-dasharray="8 4 2 4"/>
  <circle cx="1443.18" cy="781.8933333333334" r="14" fill="white" stroke="#000000" stroke-width="1.2"/>
  <text x="1443.18" y="786.8933333333334" text-anchor="middle" font-family="'Arial Narrow', Arial, sans-serif" font-size="13" fill="#000000" font-weight="bold">7</text>
  <circle cx="1443.18" cy="292.1066666666667" r="14" fill="white" stroke="#000000" stroke-width="1.2"/>
  <text x="1443.18" y="297.1066666666667" text-anchor="middle" font-family="'Arial Narrow', Arial, sans-serif" font-size="13" fill="#000000" font-weight="bold">7</text>
  <line x1="173.81999999999994" y1="332.1066666666667" x2="1483.18" y2="332.1066666666667" stroke="#999999" stroke-width="0.4" stroke-dasharray="8 4 2 4"/>
  <circle cx="173.81999999999994" cy="332.1066666666667" r="14" fill="white" stroke="#000000" stroke-width="1.2"/>
  <text x="173.81999999999994" y="337.1066666666667" text-anchor="middle" font-family="'Arial Narrow', Arial, sans-serif" font-size="13" fill="#000000" font-weight="bold">A</text>
  <circle cx="1483.18" cy="332.1066666666667" r="14" fill="white" stroke="#000000" stroke-width="1.2"/>
  <text x="1483.18" y="337.1066666666667" text-anchor="middle" font-family="'Arial Narrow', Arial, sans-serif" font-size="13" fill="#000000" font-weight="bold">A</text>
  <line x1="173.81999999999994" y1="741.8933333333334" x2="1483.18" y2="741.8933333333334" stroke="#999999" stroke-width="0.4" stroke-dasharray="8 4 2 4"/>
  <circle cx="173.81999999999994" cy="741.8933333333334" r="14" fill="white" stroke="#000000" stroke-width="1.2"/>
  <text x="173.81999999999994" y="746.8933333333334" text-anchor="middle" font-family="'Arial Narrow', Arial, sans-serif" font-size="13" fill="#000000" font-weight="bold">B</text>
  <circle cx="1483.18" cy="741.8933333333334" r="14" fill="white" stroke="#000000" stroke-width="1.2"/>
  <text x="1483.18" y="746.8933333333334" text-anchor="middle" font-family="'Arial Narrow', Arial, sans-serif" font-size="13" fill="#000000" font-weight="bold">B</text>
  <rect x="222.0157333333333" y="323.91093333333333" width="16.39146666666667" height="16.39146666666667" fill="#000000" stroke="none"/>
  <rect x="222.0157333333333" y="733.6976000000001" width="16.39146666666667" height="16.39146666666667" fill="#000000" stroke="none"/>
  <rect x="600.6586133333333" y="323.91093333333333" width="16.39146666666667" height="16.39146666666667" fill="#000000" stroke="none"/>
  <rect x="600.6586133333333" y="733.6976000000001" width="16.39146666666667" height="16.39146666666667" fill="#000000" stroke="none"/>
  <rect x="727.6924799999999" y="323.91093333333333" width="16.39146666666667" height="16.39146666666667" fill="#000000" stroke="none"/>
  <rect x="727.6924799999999" y="733.6976000000001" width="16.39146666666667" height="16.39146666666667" fill="#000000" stroke="none"/>
  <rect x="905.5398933333332" y="323.91093333333333" width="16.39146666666667" height="16.39146666666667" fill="#000000" stroke="none"/>
  <rect x="905.5398933333332" y="733.6976000000001" width="16.39146666666667" height="16.39146666666667" fill="#000000" stroke="none"/>
  <rect x="932.5858133333334" y="323.91093333333333" width="16.39146666666667" height="16.39146666666667" fill="#000000" stroke="none"/>
  <rect x="932.5858133333334" y="733.6976000000001" width="16.39146666666667" height="16.39146666666667" fill="#000000" stroke="none"/>
  <rect x="1210.4211733333334" y="323.91093333333333" width="16.39146666666667" height="16.39146666666667" fill="#000000" stroke="none"/>
  <rect x="1210.4211733333334" y="733.6976000000001" width="16.39146666666667" height="16.39146666666667" fill="#000000" stroke="none"/>
  <rect x="1434.9842666666668" y="323.91093333333333" width="16.39146666666667" height="16.39146666666667" fill="#000000" stroke="none"/>
  <rect x="1434.9842666666668" y="733.6976000000001" width="16.39146666666667" height="16.39146666666667" fill="#000000" stroke="none"/>
  <rect x="735.8882133333333" y="348.4981333333333" width="204.89333333333335" height="377.00373333333334" fill="white" stroke="none"/>
  <rect x="735.8882133333333" y="348.4981333333333" width="204.89333333333335" height="377.00373333333334" fill="white" stroke="#000000" stroke-width="1"/>
  <line x1="735.8882133333333" y1="348.4981333333333" x2="940.7815466666666" y2="725.5018666666667" stroke="#000000" stroke-width="0.6"/>
  <line x1="940.7815466666666" y1="348.4981333333333" x2="735.8882133333333" y2="725.5018666666667" stroke="#000000" stroke-width="0.6"/>
  <text x="838.33488" y="541" text-anchor="middle" font-family="'Arial Narrow', Arial, sans-serif" font-size="7" fill="#000000">THÔNG TẦNG</text>
  <text x="838.33488" y="535" text-anchor="middle" font-family="'Arial Narrow', Arial, sans-serif" font-size="9" fill="#000" font-weight="bold">Cầu thang</text>
  <text x="838.33488" y="547" text-anchor="middle" font-family="'Arial Narrow', Arial, sans-serif" font-size="7.5" fill="#333">11.5m²</text>
  <rect x="230.2114666666666" y="348.4981333333333" width="368.808" height="377.00373333333334" fill="white" stroke="none"/>
  <rect x="359.61546666666663" y="374.3146933333333" width="110" height="95" fill="white" stroke="#000000" stroke-width="0.8"/>
  <rect x="359.61546666666663" y="374.3146933333333" width="110" height="6.65" fill="#c0c0c0" stroke="#000000" stroke-width="0.6"/>
  <rect x="364.0154666666666" y="383.9646933333333" width="39.6" height="17.099999999999998" rx="4" fill="#e8e8e8" stroke="#000000" stroke-width="0.5"/>
  <line x1="383.8154666666666" y1="384.9646933333333" x2="383.8154666666666" y2="400.0646933333333" stroke="#000000" stroke-width="0.25"/>
  <rect x="425.61546666666663" y="383.9646933333333" width="39.6" height="17.099999999999998" rx="4" fill="#e8e8e8" stroke="#000000" stroke-width="0.5"/>
  <line x1="445.41546666666665" y1="384.9646933333333" x2="445.41546666666665" y2="400.0646933333333" stroke="#000000" stroke-width="0.25"/>
  <line x1="361.61546666666663" y1="412.3146933333333" x2="467.61546666666663" y2="412.3146933333333" stroke="#000000" stroke-width="0.4"/>
  <path d="M 363.61546666666663 412.3146933333333 Q 414.61546666666663 418.3146933333333 465.61546666666663 412.3146933333333" fill="none" stroke="#000000" stroke-width="0.3"/>
  <line x1="414.61546666666663" y1="415.3146933333333" x2="414.61546666666663" y2="467.3146933333333" stroke="#000000" stroke-width="0.2" stroke-dasharray="3 3"/>
  <rect x="340.61546666666663" y="374.3146933333333" width="16" height="16" fill="white" stroke="#000000" stroke-width="0.6"/>
  <circle cx="348.61546666666663" cy="382.3146933333333" r="3" fill="none" stroke="#000000" stroke-width="0.35"/>
  <rect x="472.61546666666663" y="374.3146933333333" width="16" height="16" fill="white" stroke="#000000" stroke-width="0.6"/>
  <circle cx="480.61546666666663" cy="382.3146933333333" r="3" fill="none" stroke="#000000" stroke-width="0.35"/>
  <rect x="256.0280266666666" y="677.6853066666666" width="317.17488" height="22" fill="white" stroke="#000000" stroke-width="0.7"/>
  <line x1="257.0280266666666" y1="678.6853066666666" x2="318.4630026666666" y2="698.6853066666666" stroke="#000000" stroke-width="0.3"/>
  <line x1="318.4630026666666" y1="678.6853066666666" x2="257.0280266666666" y2="698.6853066666666" stroke="#000000" stroke-width="0.3"/>
  <circle cx="285.7455146666666" cy="688.6853066666666" r="1" fill="#000000" stroke="none"/>
  <circle cx="289.7455146666666" cy="688.6853066666666" r="1" fill="#000000" stroke="none"/>
  <line x1="319.4630026666666" y1="677.6853066666666" x2="319.4630026666666" y2="699.6853066666666" stroke="#000000" stroke-width="0.5"/>
  <line x1="320.4630026666666" y1="678.6853066666666" x2="381.89797866666663" y2="698.6853066666666" stroke="#000000" stroke-width="0.3"/>
  <line x1="381.89797866666663" y1="678.6853066666666" x2="320.4630026666666" y2="698.6853066666666" stroke="#000000" stroke-width="0.3"/>
  <circle cx="349.1804906666666" cy="688.6853066666666" r="1" fill="#000000" stroke="none"/>
  <circle cx="353.1804906666666" cy="688.6853066666666" r="1" fill="#000000" stroke="none"/>
  <line x1="382.89797866666663" y1="677.6853066666666" x2="382.89797866666663" y2="699.6853066666666" stroke="#000000" stroke-width="0.5"/>
  <line x1="383.89797866666663" y1="678.6853066666666" x2="445.33295466666664" y2="698.6853066666666" stroke="#000000" stroke-width="0.3"/>
  <line x1="445.33295466666664" y1="678.6853066666666" x2="383.89797866666663" y2="698.6853066666666" stroke="#000000" stroke-width="0.3"/>
  <circle cx="412.61546666666663" cy="688.6853066666666" r="1" fill="#000000" stroke="none"/>
  <circle cx="416.61546666666663" cy="688.6853066666666" r="1" fill="#000000" stroke="none"/>
  <line x1="446.3329546666666" y1="677.6853066666666" x2="446.3329546666666" y2="699.6853066666666" stroke="#000000" stroke-width="0.5"/>
  <line x1="447.3329546666666" y1="678.6853066666666" x2="508.7679306666666" y2="698.6853066666666" stroke="#000000" stroke-width="0.3"/>
  <line x1="508.7679306666666" y1="678.6853066666666" x2="447.3329546666666" y2="698.6853066666666" stroke="#000000" stroke-width="0.3"/>
  <circle cx="476.0504426666666" cy="688.6853066666666" r="1" fill="#000000" stroke="none"/>
  <circle cx="480.0504426666666" cy="688.6853066666666" r="1" fill="#000000" stroke="none"/>
  <line x1="509.7679306666666" y1="677.6853066666666" x2="509.7679306666666" y2="699.6853066666666" stroke="#000000" stroke-width="0.5"/>
  <line x1="510.7679306666666" y1="678.6853066666666" x2="572.2029066666665" y2="698.6853066666666" stroke="#000000" stroke-width="0.3"/>
  <line x1="572.2029066666665" y1="678.6853066666666" x2="510.7679306666666" y2="698.6853066666666" stroke="#000000" stroke-width="0.3"/>
  <circle cx="539.4854186666665" cy="688.6853066666666" r="1" fill="#000000" stroke="none"/>
  <circle cx="543.4854186666665" cy="688.6853066666666" r="1" fill="#000000" stroke="none"/>
  <rect x="256.0280266666666" y="653.6853066666666" width="48" height="14" fill="white" stroke="#000000" stroke-width="0.6"/>
  <line x1="258.0280266666666" y1="660.6853066666666" x2="302.0280266666666" y2="660.6853066666666" stroke="#000000" stroke-width="0.25"/>
  <circle cx="280.0280266666666" cy="676.6853066666666" r="6" fill="none" stroke="#000000" stroke-width="0.5"/>
  <path d="M 274.0280266666666 677.6853066666666 A 8 8 0 0 0 286.0280266666666 677.6853066666666" fill="none" stroke="#000000" stroke-width="0.4"/>
  <text x="414.61546666666663" y="535" text-anchor="middle" font-family="'Arial Narrow', Arial, sans-serif" font-size="9" fill="#000" font-weight="bold">Phòng ngủ Master</text>
  <text x="414.61546666666663" y="547" text-anchor="middle" font-family="'Arial Narrow', Arial, sans-serif" font-size="7.5" fill="#333">20.7m²</text>
  <rect x="608.8543466666666" y="348.4981333333333" width="295.0464" height="377.00373333333334" fill="white" stroke="none"/>
  <rect x="716.3775466666666" y="369.15138133333335" width="80" height="95" fill="white" stroke="#000000" stroke-width="0.8"/>
  <rect x="716.3775466666666" y="369.15138133333335" width="80" height="6.65" fill="#c0c0c0" stroke="#000000" stroke-width="0.6"/>
  <rect x="719.5775466666666" y="378.8013813333333" width="28.799999999999997" height="17.099999999999998" rx="4" fill="#e8e8e8" stroke="#000000" stroke-width="0.5"/>
  <line x1="733.9775466666666" y1="379.8013813333333" x2="733.9775466666666" y2="394.90138133333335" stroke="#000000" stroke-width="0.25"/>
  <rect x="764.3775466666666" y="378.8013813333333" width="28.799999999999997" height="17.099999999999998" rx="4" fill="#e8e8e8" stroke="#000000" stroke-width="0.5"/>
  <line x1="778.7775466666666" y1="379.8013813333333" x2="778.7775466666666" y2="394.90138133333335" stroke="#000000" stroke-width="0.25"/>
  <line x1="718.3775466666666" y1="407.15138133333335" x2="794.3775466666666" y2="407.15138133333335" stroke="#000000" stroke-width="0.4"/>
  <path d="M 720.3775466666666 407.15138133333335 Q 756.3775466666666 413.15138133333335 792.3775466666666 407.15138133333335" fill="none" stroke="#000000" stroke-width="0.3"/>
  <line x1="756.3775466666666" y1="410.15138133333335" x2="756.3775466666666" y2="462.15138133333335" stroke="#000000" stroke-width="0.2" stroke-dasharray="3 3"/>
  <rect x="697.3775466666666" y="369.15138133333335" width="16" height="16" fill="white" stroke="#000000" stroke-width="0.6"/>
  <circle cx="705.3775466666666" cy="377.15138133333335" r="3" fill="none" stroke="#000000" stroke-width="0.35"/>
  <rect x="799.3775466666666" y="369.15138133333335" width="16" height="16" fill="white" stroke="#000000" stroke-width="0.6"/>
  <circle cx="807.3775466666666" cy="377.15138133333335" r="3" fill="none" stroke="#000000" stroke-width="0.35"/>
  <rect x="629.5075946666666" y="682.8486186666667" width="253.739904" height="22" fill="white" stroke="#000000" stroke-width="0.7"/>
  <line x1="630.5075946666666" y1="683.8486186666667" x2="679.2555754666666" y2="703.8486186666667" stroke="#000000" stroke-width="0.3"/>
  <line x1="679.2555754666666" y1="683.8486186666667" x2="630.5075946666666" y2="703.8486186666667" stroke="#000000" stroke-width="0.3"/>
  <circle cx="652.8815850666666" cy="693.8486186666667" r="1" fill="#000000" stroke="none"/>
  <circle cx="656.8815850666666" cy="693.8486186666667" r="1" fill="#000000" stroke="none"/>
  <line x1="680.2555754666666" y1="682.8486186666667" x2="680.2555754666666" y2="704.8486186666667" stroke="#000000" stroke-width="0.5"/>
  <line x1="681.2555754666666" y1="683.8486186666667" x2="730.0035562666667" y2="703.8486186666667" stroke="#000000" stroke-width="0.3"/>
  <line x1="730.0035562666667" y1="683.8486186666667" x2="681.2555754666666" y2="703.8486186666667" stroke="#000000" stroke-width="0.3"/>
  <circle cx="703.6295658666667" cy="693.8486186666667" r="1" fill="#000000" stroke="none"/>
  <circle cx="707.6295658666667" cy="693.8486186666667" r="1" fill="#000000" stroke="none"/>
  <line x1="731.0035562666666" y1="682.8486186666667" x2="731.0035562666666" y2="704.8486186666667" stroke="#000000" stroke-width="0.5"/>
  <line x1="732.0035562666666" y1="683.8486186666667" x2="780.7515370666666" y2="703.8486186666667" stroke="#000000" stroke-width="0.3"/>
  <line x1="780.7515370666666" y1="683.8486186666667" x2="732.0035562666666" y2="703.8486186666667" stroke="#000000" stroke-width="0.3"/>
  <circle cx="754.3775466666666" cy="693.8486186666667" r="1" fill="#000000" stroke="none"/>
  <circle cx="758.3775466666666" cy="693.8486186666667" r="1" fill="#000000" stroke="none"/>
  <line x1="781.7515370666666" y1="682.8486186666667" x2="781.7515370666666" y2="704.8486186666667" stroke="#000000" stroke-width="0.5"/>
  <line x1="782.7515370666666" y1="683.8486186666667" x2="831.4995178666667" y2="703.8486186666667" stroke="#000000" stroke-width="0.3"/>
  <line x1="831.4995178666667" y1="683.8486186666667" x2="782.7515370666666" y2="703.8486186666667" stroke="#000000" stroke-width="0.3"/>
  <circle cx="805.1255274666667" cy="693.8486186666667" r="1" fill="#000000" stroke="none"/>
  <circle cx="809.1255274666667" cy="693.8486186666667" r="1" fill="#000000" stroke="none"/>
  <line x1="832.4995178666666" y1="682.8486186666667" x2="832.4995178666666" y2="704.8486186666667" stroke="#000000" stroke-width="0.5"/>
  <line x1="833.4995178666666" y1="683.8486186666667" x2="882.2474986666666" y2="703.8486186666667" stroke="#000000" stroke-width="0.3"/>
  <line x1="882.2474986666666" y1="683.8486186666667" x2="833.4995178666666" y2="703.8486186666667" stroke="#000000" stroke-width="0.3"/>
  <circle cx="855.8735082666666" cy="693.8486186666667" r="1" fill="#000000" stroke="none"/>
  <circle cx="859.8735082666666" cy="693.8486186666667" r="1" fill="#000000" stroke="none"/>
  <rect x="629.5075946666666" y="658.8486186666667" width="48" height="14" fill="white" stroke="#000000" stroke-width="0.6"/>
  <line x1="631.5075946666666" y1="665.8486186666667" x2="675.5075946666666" y2="665.8486186666667" stroke="#000000" stroke-width="0.25"/>
  <circle cx="653.5075946666666" cy="681.8486186666667" r="6" fill="none" stroke="#000000" stroke-width="0.5"/>
  <path d="M 647.5075946666666 682.8486186666667 A 8 8 0 0 0 659.5075946666666 682.8486186666667" fill="none" stroke="#000000" stroke-width="0.4"/>
  <text x="756.3775466666666" y="535" text-anchor="middle" font-family="'Arial Narrow', Arial, sans-serif" font-size="9" fill="#000" font-weight="bold">Phòng ngủ nhỏ 1</text>
  <text x="756.3775466666666" y="547" text-anchor="middle" font-family="'Arial Narrow', Arial, sans-serif" font-size="7.5" fill="#333">16.6m²</text>
  <rect x="913.7356266666666" y="348.4981333333333" width="295.0464" height="377.00373333333334" fill="white" stroke="none"/>
  <rect x="1021.2588266666667" y="369.15138133333335" width="80" height="95" fill="white" stroke="#000000" stroke-width="0.8"/>
  <rect x="1021.2588266666667" y="369.15138133333335" width="80" height="6.65" fill="#c0c0c0" stroke="#000000" stroke-width="0.6"/>
  <rect x="1024.4588266666667" y="378.8013813333333" width="28.799999999999997" height="17.099999999999998" rx="4" fill="#e8e8e8" stroke="#000000" stroke-width="0.5"/>
  <line x1="1038.8588266666668" y1="379.8013813333333" x2="1038.8588266666668" y2="394.90138133333335" stroke="#000000" stroke-width="0.25"/>
  <rect x="1069.2588266666667" y="378.8013813333333" width="28.799999999999997" height="17.099999999999998" rx="4" fill="#e8e8e8" stroke="#000000" stroke-width="0.5"/>
  <line x1="1083.6588266666665" y1="379.8013813333333" x2="1083.6588266666665" y2="394.90138133333335" stroke="#000000" stroke-width="0.25"/>
  <line x1="1023.2588266666667" y1="407.15138133333335" x2="1099.2588266666667" y2="407.15138133333335" stroke="#000000" stroke-width="0.4"/>
  <path d="M 1025.2588266666667 407.15138133333335 Q 1061.2588266666667 413.15138133333335 1097.2588266666667 407.15138133333335" fill="none" stroke="#000000" stroke-width="0.3"/>
  <line x1="1061.2588266666667" y1="410.15138133333335" x2="1061.2588266666667" y2="462.15138133333335" stroke="#000000" stroke-width="0.2" stroke-dasharray="3 3"/>
  <rect x="1002.2588266666667" y="369.15138133333335" width="16" height="16" fill="white" stroke="#000000" stroke-width="0.6"/>
  <circle cx="1010.2588266666667" cy="377.15138133333335" r="3" fill="none" stroke="#000000" stroke-width="0.35"/>
  <rect x="1104.2588266666667" y="369.15138133333335" width="16" height="16" fill="white" stroke="#000000" stroke-width="0.6"/>
  <circle cx="1112.2588266666667" cy="377.15138133333335" r="3" fill="none" stroke="#000000" stroke-width="0.35"/>
  <rect x="934.3888746666665" y="682.8486186666667" width="253.739904" height="22" fill="white" stroke="#000000" stroke-width="0.7"/>
  <line x1="935.3888746666665" y1="683.8486186666667" x2="984.1368554666666" y2="703.8486186666667" stroke="#000000" stroke-width="0.3"/>
  <line x1="984.1368554666666" y1="683.8486186666667" x2="935.3888746666665" y2="703.8486186666667" stroke="#000000" stroke-width="0.3"/>
  <circle cx="957.7628650666666" cy="693.8486186666667" r="1" fill="#000000" stroke="none"/>
  <circle cx="961.7628650666666" cy="693.8486186666667" r="1" fill="#000000" stroke="none"/>
  <line x1="985.1368554666666" y1="682.8486186666667" x2="985.1368554666666" y2="704.8486186666667" stroke="#000000" stroke-width="0.5"/>
  <line x1="986.1368554666666" y1="683.8486186666667" x2="1034.8848362666665" y2="703.8486186666667" stroke="#000000" stroke-width="0.3"/>
  <line x1="1034.8848362666665" y1="683.8486186666667" x2="986.1368554666666" y2="703.8486186666667" stroke="#000000" stroke-width="0.3"/>
  <circle cx="1008.5108458666666" cy="693.8486186666667" r="1" fill="#000000" stroke="none"/>
  <circle cx="1012.5108458666666" cy="693.8486186666667" r="1" fill="#000000" stroke="none"/>
  <line x1="1035.8848362666665" y1="682.8486186666667" x2="1035.8848362666665" y2="704.8486186666667" stroke="#000000" stroke-width="0.5"/>
  <line x1="1036.8848362666665" y1="683.8486186666667" x2="1085.6328170666666" y2="703.8486186666667" stroke="#000000" stroke-width="0.3"/>
  <line x1="1085.6328170666666" y1="683.8486186666667" x2="1036.8848362666665" y2="703.8486186666667" stroke="#000000" stroke-width="0.3"/>
  <circle cx="1059.2588266666664" cy="693.8486186666667" r="1" fill="#000000" stroke="none"/>
  <circle cx="1063.2588266666664" cy="693.8486186666667" r="1" fill="#000000" stroke="none"/>
  <line x1="1086.6328170666666" y1="682.8486186666667" x2="1086.6328170666666" y2="704.8486186666667" stroke="#000000" stroke-width="0.5"/>
  <line x1="1087.6328170666666" y1="683.8486186666667" x2="1136.3807978666666" y2="703.8486186666667" stroke="#000000" stroke-width="0.3"/>
  <line x1="1136.3807978666666" y1="683.8486186666667" x2="1087.6328170666666" y2="703.8486186666667" stroke="#000000" stroke-width="0.3"/>
  <circle cx="1110.0068074666665" cy="693.8486186666667" r="1" fill="#000000" stroke="none"/>
  <circle cx="1114.0068074666665" cy="693.8486186666667" r="1" fill="#000000" stroke="none"/>
  <line x1="1137.3807978666666" y1="682.8486186666667" x2="1137.3807978666666" y2="704.8486186666667" stroke="#000000" stroke-width="0.5"/>
  <line x1="1138.3807978666666" y1="683.8486186666667" x2="1187.1287786666667" y2="703.8486186666667" stroke="#000000" stroke-width="0.3"/>
  <line x1="1187.1287786666667" y1="683.8486186666667" x2="1138.3807978666666" y2="703.8486186666667" stroke="#000000" stroke-width="0.3"/>
  <circle cx="1160.7547882666665" cy="693.8486186666667" r="1" fill="#000000" stroke="none"/>
  <circle cx="1164.7547882666665" cy="693.8486186666667" r="1" fill="#000000" stroke="none"/>
  <rect x="934.3888746666665" y="658.8486186666667" width="48" height="14" fill="white" stroke="#000000" stroke-width="0.6"/>
  <line x1="936.3888746666665" y1="665.8486186666667" x2="980.3888746666665" y2="665.8486186666667" stroke="#000000" stroke-width="0.25"/>
  <circle cx="958.3888746666665" cy="681.8486186666667" r="6" fill="none" stroke="#000000" stroke-width="0.5"/>
  <path d="M 952.3888746666665 682.8486186666667 A 8 8 0 0 0 964.3888746666665 682.8486186666667" fill="none" stroke="#000000" stroke-width="0.4"/>
  <text x="1061.2588266666667" y="535" text-anchor="middle" font-family="'Arial Narrow', Arial, sans-serif" font-size="9" fill="#000" font-weight="bold">Phòng ngủ nhỏ 2</text>
  <text x="1061.2588266666667" y="547" text-anchor="middle" font-family="'Arial Narrow', Arial, sans-serif" font-size="7.5" fill="#333">16.6m²</text>
  <rect x="1218.6169066666666" y="348.4981333333333" width="208.17162666666667" height="377.00373333333334" fill="white" stroke="none"/>
  <rect x="1233.1889205333332" y="363.0701472" width="38" height="22" rx="1" fill="white" stroke="#000000" stroke-width="0.7"/>
  <ellipse cx="1252.1889205333332" cy="375.17014720000003" rx="12.920000000000002" ry="7.48" fill="none" stroke="#000000" stroke-width="0.5"/>
  <circle cx="1252.1889205333332" cy="375.17014720000003" r="1.5" fill="#000000" stroke="none"/>
  <circle cx="1252.1889205333332" cy="366.3701472" r="2.2" fill="#000000" stroke="none"/>
  <line x1="1252.1889205333332" y1="368.5701472" x2="1252.1889205333332" y2="370.11014720000003" stroke="#000000" stroke-width="0.6"/>
  <rect x="1238.8889205333332" y="356.4701472" width="26.599999999999998" height="5.5" fill="none" stroke="#000000" stroke-width="0.3" stroke-dasharray="2 1"/>
  <rect x="1385.8165194666665" y="670.9298527999999" width="22.8" height="8.8" rx="2" fill="white" stroke="#000000" stroke-width="0.7"/>
  <circle cx="1394.8165194666665" cy="675.3298527999999" r="1.8" fill="none" stroke="#000000" stroke-width="0.4"/>
  <circle cx="1399.6165194666667" cy="675.3298527999999" r="1.8" fill="none" stroke="#000000" stroke-width="0.4"/>
  <ellipse cx="1397.2165194666666" cy="695.7298527999999" rx="13.8" ry="14.399999999999999" fill="white" stroke="#000000" stroke-width="0.7"/>
  <ellipse cx="1397.2165194666666" cy="694.9298527999999" rx="10.200000000000001" ry="10.8" fill="none" stroke="#000000" stroke-width="0.4"/>
  <line x1="1389.7165194666666" y1="680.7298527999999" x2="1404.7165194666666" y2="680.7298527999999" stroke="#000000" stroke-width="0.4"/>
  <rect x="1233.1889205333332" y="390.0701472" width="42" height="72" rx="4" fill="white" stroke="#000000" stroke-width="0.8"/>
  <rect x="1236.1889205333332" y="393.0701472" width="36" height="66" rx="3" fill="none" stroke="#000000" stroke-width="0.4"/>
  <circle cx="1254.1889205333332" cy="452.0701472" r="2.5" fill="none" stroke="#000000" stroke-width="0.5"/>
  <circle cx="1254.1889205333332" cy="452.0701472" r="0.8" fill="#000000" stroke="none"/>
  <circle cx="1247.8889205333332" cy="398.0701472" r="2.5" fill="none" stroke="#000000" stroke-width="0.5"/>
  <circle cx="1260.4889205333332" cy="398.0701472" r="2.5" fill="none" stroke="#000000" stroke-width="0.5"/>
  <line x1="1273.1889205333332" y1="411.67014720000003" x2="1273.1889205333332" y2="440.4701472" stroke="#000000" stroke-width="0.6"/>
  <rect x="1319.70272" y="586.17895584" width="6" height="6" fill="none" stroke="#000000" stroke-width="0.4"/>
  <line x1="1319.70272" y1="586.17895584" x2="1325.70272" y2="592.17895584" stroke="#000000" stroke-width="0.3"/>
  <line x1="1325.70272" y1="586.17895584" x2="1319.70272" y2="592.17895584" stroke="#000000" stroke-width="0.3"/>
  <text x="1322.70272" y="535" text-anchor="middle" font-family="'Arial Narrow', Arial, sans-serif" font-size="9" fill="#000" font-weight="bold">WC</text>
  <text x="1322.70272" y="547" text-anchor="middle" font-family="'Arial Narrow', Arial, sans-serif" font-size="7.5" fill="#333">11.7m²</text>
  <path d="M 1230.6169066666666 711.5018666666667 L 1224.6169066666666 717.5018666666667 L 1236.6169066666666 717.5018666666667 Z" fill="#000" stroke="none"/>
  <text x="1239.6169066666666" y="719.5018666666667" font-family="'Arial Narrow', Arial, sans-serif" font-size="8" fill="#000">+0.050</text>
  <polygon points="205.62,332.11 205.62,741.89 222.02,741.89 222.02,332.11" fill="url(#hatch-ext)" stroke="#000" stroke-width="1.4"/>
  <line x1="205.6242666666666" y1="332.1066666666667" x2="205.6242666666666" y2="741.8933333333334" stroke="#000" stroke-width="1.5" stroke-linecap="square"/>
  <line x1="222.01573333333326" y1="332.1066666666667" x2="222.01573333333326" y2="741.8933333333334" stroke="#000" stroke-width="1.5" stroke-linecap="square"/>
  <polygon points="1434.98,332.11 1434.98,741.89 1451.38,741.89 1451.38,332.11" fill="url(#hatch-ext)" stroke="#000" stroke-width="1.4"/>
  <line x1="1434.9842666666668" y1="332.1066666666667" x2="1434.9842666666668" y2="741.8933333333334" stroke="#000" stroke-width="1.5" stroke-linecap="square"/>
  <line x1="1451.3757333333333" y1="332.1066666666667" x2="1451.3757333333333" y2="741.8933333333334" stroke="#000" stroke-width="1.5" stroke-linecap="square"/>
  <polygon points="213.82,340.30 1443.18,340.30 1443.18,323.91 213.82,323.91" fill="url(#hatch-ext)" stroke="#000" stroke-width="1.4"/>
  <line x1="213.81999999999994" y1="340.30240000000003" x2="1443.18" y2="340.30240000000003" stroke="#000" stroke-width="1.5" stroke-linecap="square"/>
  <line x1="213.81999999999994" y1="323.91093333333333" x2="1443.18" y2="323.91093333333333" stroke="#000" stroke-width="1.5" stroke-linecap="square"/>
  <polygon points="213.82,750.09 1443.18,750.09 1443.18,733.70 213.82,733.70" fill="url(#hatch-ext)" stroke="#000" stroke-width="1.4"/>
  <line x1="213.81999999999994" y1="750.0890666666668" x2="1443.18" y2="750.0890666666668" stroke="#000" stroke-width="1.5" stroke-linecap="square"/>
  <line x1="213.81999999999994" y1="733.6976000000001" x2="1443.18" y2="733.6976000000001" stroke="#000" stroke-width="1.5" stroke-linecap="square"/>
  <polygon points="594.10,348.50 594.10,725.50 603.94,725.50 603.94,348.50" fill="url(#hatch-int)" stroke="#000" stroke-width="0.7"/>
  <line x1="594.1020266666666" y1="348.4981333333333" x2="594.1020266666666" y2="725.5018666666667" stroke="#000" stroke-width="0.8" stroke-linecap="square"/>
  <line x1="603.9369066666667" y1="348.4981333333333" x2="603.9369066666667" y2="725.5018666666667" stroke="#000" stroke-width="0.8" stroke-linecap="square"/>
  <polygon points="898.98,348.50 898.98,725.50 908.82,725.50 908.82,348.50" fill="url(#hatch-int)" stroke="#000" stroke-width="0.7"/>
  <line x1="898.9833066666666" y1="348.4981333333333" x2="898.9833066666666" y2="725.5018666666667" stroke="#000" stroke-width="0.8" stroke-linecap="square"/>
  <line x1="908.8181866666667" y1="348.4981333333333" x2="908.8181866666667" y2="725.5018666666667" stroke="#000" stroke-width="0.8" stroke-linecap="square"/>
  <polygon points="1203.86,348.50 1203.86,725.50 1213.70,725.50 1213.70,348.50" fill="url(#hatch-int)" stroke="#000" stroke-width="0.7"/>
  <line x1="1203.8645866666668" y1="348.4981333333333" x2="1203.8645866666668" y2="725.5018666666667" stroke="#000" stroke-width="0.8" stroke-linecap="square"/>
  <line x1="1213.6994666666667" y1="348.4981333333333" x2="1213.6994666666667" y2="725.5018666666667" stroke="#000" stroke-width="0.8" stroke-linecap="square"/>
  <polygon points="204.12,578.98 204.12,495.02 223.52,495.02 223.52,578.98" fill="white" stroke="none"/>
  <polygon points="592.60,574.88 592.60,499.12 605.44,499.12 605.44,574.88" fill="white" stroke="none"/>
  <polygon points="897.48,574.88 897.48,499.12 910.32,499.12 910.32,574.88" fill="white" stroke="none"/>
  <polygon points="1202.36,574.88 1202.36,499.12 1215.20,499.12 1215.20,574.88" fill="white" stroke="none"/>
  <rect x="212.81999999999994" y="465.8362666666667" width="100.3488" height="19.39146666666667" fill="white" stroke="none"/>
  <line x1="213.81999999999994" y1="472.53200000000004" x2="312.1687999999999" y2="472.53200000000004" stroke="#000000" stroke-width="2"/>
  <line x1="213.81999999999994" y1="478.53200000000004" x2="312.1687999999999" y2="478.53200000000004" stroke="#000000" stroke-width="2"/>
  <line x1="213.81999999999994" y1="472.53200000000004" x2="213.81999999999994" y2="478.53200000000004" stroke="#000000" stroke-width="1"/>
  <line x1="312.1687999999999" y1="472.53200000000004" x2="312.1687999999999" y2="478.53200000000004" stroke="#000000" stroke-width="1"/>
  <line x1="213.81999999999994" y1="472.53200000000004" x2="312.1687999999999" y2="478.53200000000004" stroke="#000000" stroke-width="0.5"/>
  <line x1="312.1687999999999" y1="472.53200000000004" x2="213.81999999999994" y2="478.53200000000004" stroke="#000000" stroke-width="0.5"/>
  <rect x="252.99439999999993" y="453.53200000000004" width="20" height="12" rx="2" fill="white" stroke="#000" stroke-width="0.5"/>
  <text x="262.9943999999999" y="463.53200000000004" text-anchor="middle" font-family="'Arial Narrow', Arial, sans-serif" font-size="7" fill="#000">S1</text>
  <line x1="213.81999999999994" y1="496.02133333333336" x2="295.7773333333333" y2="496.02133333333336" stroke="#000000" stroke-width="2"/>
  <line x1="213.81999999999994" y1="496.02133333333336" x2="213.81999999999994" y2="577.9786666666666" stroke="#000000" stroke-width="0.8"/>
  <path d="M 213.81999999999994 577.9786666666666 A 81.95733333333334 81.95733333333334 0 0 1 295.7773333333333 496.02133333333336" fill="none" stroke="#000000" stroke-width="0.7"/>
  <rect x="244.7986666666666" y="476.02133333333336" width="20" height="12" rx="2" fill="white" stroke="#000" stroke-width="0.5"/>
  <text x="254.7986666666666" y="486.02133333333336" text-anchor="middle" font-family="'Arial Narrow', Arial, sans-serif" font-size="7" fill="#000">D1</text>
  <line x1="599.0194666666666" y1="500.1192" x2="672.7810666666667" y2="500.1192" stroke="#000000" stroke-width="2"/>
  <line x1="599.0194666666666" y1="500.1192" x2="599.0194666666666" y2="573.8808" stroke="#000000" stroke-width="0.8"/>
  <path d="M 599.0194666666666 573.8808 A 73.7616 73.7616 0 0 1 672.7810666666667 500.1192" fill="none" stroke="#000000" stroke-width="0.7"/>
  <rect x="625.9002666666667" y="480.1192" width="20" height="12" rx="2" fill="white" stroke="#000" stroke-width="0.5"/>
  <text x="635.9002666666667" y="490.1192" text-anchor="middle" font-family="'Arial Narrow', Arial, sans-serif" font-size="7" fill="#000">D2</text>
  <line x1="903.9007466666667" y1="500.1192" x2="977.6623466666667" y2="500.1192" stroke="#000000" stroke-width="2"/>
  <line x1="903.9007466666667" y1="500.1192" x2="903.9007466666667" y2="573.8808" stroke="#000000" stroke-width="0.8"/>
  <path d="M 903.9007466666667 573.8808 A 73.7616 73.7616 0 0 1 977.6623466666667 500.1192" fill="none" stroke="#000000" stroke-width="0.7"/>
  <rect x="930.7815466666667" y="480.1192" width="20" height="12" rx="2" fill="white" stroke="#000" stroke-width="0.5"/>
  <text x="940.7815466666667" y="490.1192" text-anchor="middle" font-family="'Arial Narrow', Arial, sans-serif" font-size="7" fill="#000">D3</text>
  <line x1="1208.7820266666668" y1="500.1192" x2="1282.5436266666668" y2="500.1192" stroke="#000000" stroke-width="2"/>
  <line x1="1208.7820266666668" y1="500.1192" x2="1208.7820266666668" y2="573.8808" stroke="#000000" stroke-width="0.8"/>
  <path d="M 1208.7820266666668 573.8808 A 73.7616 73.7616 0 0 1 1282.5436266666668 500.1192" fill="none" stroke="#000000" stroke-width="0.7"/>
  <rect x="1235.6628266666667" y="480.1192" width="20" height="12" rx="2" fill="white" stroke="#000" stroke-width="0.5"/>
  <text x="1245.6628266666667" y="490.1192" text-anchor="middle" font-family="'Arial Narrow', Arial, sans-serif" font-size="7" fill="#000">D4</text>
  <circle cx="1473.18" cy="362.1066666666667" r="16" fill="white" stroke="#000" stroke-width="1"/>
  <path d="M 1473.18 349.1066666666667 L 1468.18 362.1066666666667 L 1473.18 357.1066666666667 L 1478.18 362.1066666666667 Z" fill="#000" stroke="none"/>
  <path d="M 1473.18 375.1066666666667 L 1468.18 362.1066666666667 L 1473.18 367.1066666666667 L 1478.18 362.1066666666667 Z" fill="white" stroke="#000" stroke-width="0.6"/>
  <text x="1473.18" y="342.1066666666667" text-anchor="middle" font-family="'Arial Narrow', Arial, sans-serif" font-size="9" fill="#000" font-weight="bold">N</text>
  <rect x="213.81999999999994" y="332.1066666666667" width="1229.3600000000001" height="409.7866666666667" fill="none" stroke="#000000" stroke-width="2"/>
  <line x1="213.81999999999994" y1="743.8933333333334" x2="213.81999999999994" y2="763.8933333333334" stroke="#000000" stroke-width="0.35"/>
  <line x1="230.2114666666666" y1="743.8933333333334" x2="230.2114666666666" y2="763.8933333333334" stroke="#000000" stroke-width="0.35"/>
  <line x1="213.81999999999994" y1="761.8933333333334" x2="230.2114666666666" y2="761.8933333333334" stroke="#000000" stroke-width="0.5"/>
  <line x1="211.81999999999994" y1="765.8933333333334" x2="215.81999999999994" y2="757.8933333333334" stroke="#000000" stroke-width="0.8"/>
  <line x1="228.2114666666666" y1="765.8933333333334" x2="232.2114666666666" y2="757.8933333333334" stroke="#000000" stroke-width="0.8"/>
  <text x="222.0157333333333" y="756.8933333333334" text-anchor="middle" font-family="'Arial Narrow', Arial, sans-serif" font-size="10" fill="#000000">200</text>
  <line x1="230.2114666666666" y1="743.8933333333334" x2="230.2114666666666" y2="763.8933333333334" stroke="#000000" stroke-width="0.35"/>
  <line x1="599.0194666666666" y1="743.8933333333334" x2="599.0194666666666" y2="763.8933333333334" stroke="#000000" stroke-width="0.35"/>
  <line x1="230.2114666666666" y1="761.8933333333334" x2="599.0194666666666" y2="761.8933333333334" stroke="#000000" stroke-width="0.5"/>
  <line x1="228.2114666666666" y1="765.8933333333334" x2="232.2114666666666" y2="757.8933333333334" stroke="#000000" stroke-width="0.8"/>
  <line x1="597.0194666666666" y1="765.8933333333334" x2="601.0194666666666" y2="757.8933333333334" stroke="#000000" stroke-width="0.8"/>
  <text x="414.61546666666663" y="756.8933333333334" text-anchor="middle" font-family="'Arial Narrow', Arial, sans-serif" font-size="10" fill="#000000">4500</text>
  <line x1="599.0194666666666" y1="743.8933333333334" x2="599.0194666666666" y2="763.8933333333334" stroke="#000000" stroke-width="0.35"/>
  <line x1="608.8543466666666" y1="743.8933333333334" x2="608.8543466666666" y2="763.8933333333334" stroke="#000000" stroke-width="0.35"/>
  <line x1="599.0194666666666" y1="761.8933333333334" x2="608.8543466666666" y2="761.8933333333334" stroke="#000000" stroke-width="0.5"/>
  <line x1="597.0194666666666" y1="765.8933333333334" x2="601.0194666666666" y2="757.8933333333334" stroke="#000000" stroke-width="0.8"/>
  <line x1="606.8543466666666" y1="765.8933333333334" x2="610.8543466666666" y2="757.8933333333334" stroke="#000000" stroke-width="0.8"/>
  <text x="603.9369066666666" y="756.8933333333334" text-anchor="middle" font-family="'Arial Narrow', Arial, sans-serif" font-size="10" fill="#000000">120</text>
  <line x1="608.8543466666666" y1="743.8933333333334" x2="608.8543466666666" y2="763.8933333333334" stroke="#000000" stroke-width="0.35"/>
  <line x1="735.8882133333333" y1="743.8933333333334" x2="735.8882133333333" y2="763.8933333333334" stroke="#000000" stroke-width="0.35"/>
  <line x1="608.8543466666666" y1="761.8933333333334" x2="735.8882133333333" y2="761.8933333333334" stroke="#000000" stroke-width="0.5"/>
  <line x1="606.8543466666666" y1="765.8933333333334" x2="610.8543466666666" y2="757.8933333333334" stroke="#000000" stroke-width="0.8"/>
  <line x1="733.8882133333333" y1="765.8933333333334" x2="737.8882133333333" y2="757.8933333333334" stroke="#000000" stroke-width="0.8"/>
  <text x="672.37128" y="756.8933333333334" text-anchor="middle" font-family="'Arial Narrow', Arial, sans-serif" font-size="10" fill="#000000">1550</text>
  <line x1="735.8882133333333" y1="743.8933333333334" x2="735.8882133333333" y2="763.8933333333334" stroke="#000000" stroke-width="0.35"/>
  <line x1="903.9007466666667" y1="743.8933333333334" x2="903.9007466666667" y2="763.8933333333334" stroke="#000000" stroke-width="0.35"/>
  <line x1="735.8882133333333" y1="761.8933333333334" x2="903.9007466666667" y2="761.8933333333334" stroke="#000000" stroke-width="0.5"/>
  <line x1="733.8882133333333" y1="765.8933333333334" x2="737.8882133333333" y2="757.8933333333334" stroke="#000000" stroke-width="0.8"/>
  <line x1="901.9007466666667" y1="765.8933333333334" x2="905.9007466666667" y2="757.8933333333334" stroke="#000000" stroke-width="0.8"/>
  <text x="819.8944799999999" y="756.8933333333334" text-anchor="middle" font-family="'Arial Narrow', Arial, sans-serif" font-size="10" fill="#000000">2050</text>
  <line x1="903.9007466666667" y1="743.8933333333334" x2="903.9007466666667" y2="763.8933333333334" stroke="#000000" stroke-width="0.35"/>
  <line x1="913.7356266666666" y1="743.8933333333334" x2="913.7356266666666" y2="763.8933333333334" stroke="#000000" stroke-width="0.35"/>
  <line x1="903.9007466666667" y1="761.8933333333334" x2="913.7356266666666" y2="761.8933333333334" stroke="#000000" stroke-width="0.5"/>
  <line x1="901.9007466666667" y1="765.8933333333334" x2="905.9007466666667" y2="757.8933333333334" stroke="#000000" stroke-width="0.8"/>
  <line x1="911.7356266666666" y1="765.8933333333334" x2="915.7356266666666" y2="757.8933333333334" stroke="#000000" stroke-width="0.8"/>
  <text x="908.8181866666666" y="756.8933333333334" text-anchor="middle" font-family="'Arial Narrow', Arial, sans-serif" font-size="10" fill="#000000">120</text>
  <line x1="913.7356266666666" y1="743.8933333333334" x2="913.7356266666666" y2="763.8933333333334" stroke="#000000" stroke-width="0.35"/>
  <line x1="940.7815466666666" y1="743.8933333333334" x2="940.7815466666666" y2="763.8933333333334" stroke="#000000" stroke-width="0.35"/>
  <line x1="913.7356266666666" y1="761.8933333333334" x2="940.7815466666666" y2="761.8933333333334" stroke="#000000" stroke-width="0.5"/>
  <line x1="911.7356266666666" y1="765.8933333333334" x2="915.7356266666666" y2="757.8933333333334" stroke="#000000" stroke-width="0.8"/>
  <line x1="938.7815466666666" y1="765.8933333333334" x2="942.7815466666666" y2="757.8933333333334" stroke="#000000" stroke-width="0.8"/>
  <text x="927.2585866666666" y="756.8933333333334" text-anchor="middle" font-family="'Arial Narrow', Arial, sans-serif" font-size="10" fill="#000000">330</text>
  <line x1="940.7815466666666" y1="743.8933333333334" x2="940.7815466666666" y2="763.8933333333334" stroke="#000000" stroke-width="0.35"/>
  <line x1="1208.7820266666668" y1="743.8933333333334" x2="1208.7820266666668" y2="763.8933333333334" stroke="#000000" stroke-width="0.35"/>
  <line x1="940.7815466666666" y1="761.8933333333334" x2="1208.7820266666668" y2="761.8933333333334" stroke="#000000" stroke-width="0.5"/>
  <line x1="938.7815466666666" y1="765.8933333333334" x2="942.7815466666666" y2="757.8933333333334" stroke="#000000" stroke-width="0.8"/>
  <line x1="1206.7820266666668" y1="765.8933333333334" x2="1210.7820266666668" y2="757.8933333333334" stroke="#000000" stroke-width="0.8"/>
  <text x="1074.7817866666667" y="756.8933333333334" text-anchor="middle" font-family="'Arial Narrow', Arial, sans-serif" font-size="10" fill="#000000">3270</text>
  <line x1="1208.7820266666668" y1="743.8933333333334" x2="1208.7820266666668" y2="763.8933333333334" stroke="#000000" stroke-width="0.35"/>
  <line x1="1218.6169066666666" y1="743.8933333333334" x2="1218.6169066666666" y2="763.8933333333334" stroke="#000000" stroke-width="0.35"/>
  <line x1="1208.7820266666668" y1="761.8933333333334" x2="1218.6169066666666" y2="761.8933333333334" stroke="#000000" stroke-width="0.5"/>
  <line x1="1206.7820266666668" y1="765.8933333333334" x2="1210.7820266666668" y2="757.8933333333334" stroke="#000000" stroke-width="0.8"/>
  <line x1="1216.6169066666666" y1="765.8933333333334" x2="1220.6169066666666" y2="757.8933333333334" stroke="#000000" stroke-width="0.8"/>
  <text x="1213.6994666666667" y="756.8933333333334" text-anchor="middle" font-family="'Arial Narrow', Arial, sans-serif" font-size="10" fill="#000000">120</text>
  <line x1="1218.6169066666666" y1="743.8933333333334" x2="1218.6169066666666" y2="763.8933333333334" stroke="#000000" stroke-width="0.35"/>
  <line x1="1426.7885333333334" y1="743.8933333333334" x2="1426.7885333333334" y2="763.8933333333334" stroke="#000000" stroke-width="0.35"/>
  <line x1="1218.6169066666666" y1="761.8933333333334" x2="1426.7885333333334" y2="761.8933333333334" stroke="#000000" stroke-width="0.5"/>
  <line x1="1216.6169066666666" y1="765.8933333333334" x2="1220.6169066666666" y2="757.8933333333334" stroke="#000000" stroke-width="0.8"/>
  <line x1="1424.7885333333334" y1="765.8933333333334" x2="1428.7885333333334" y2="757.8933333333334" stroke="#000000" stroke-width="0.8"/>
  <text x="1322.70272" y="756.8933333333334" text-anchor="middle" font-family="'Arial Narrow', Arial, sans-serif" font-size="10" fill="#000000">2540</text>
  <line x1="1426.7885333333334" y1="743.8933333333334" x2="1426.7885333333334" y2="763.8933333333334" stroke="#000000" stroke-width="0.35"/>
  <line x1="1443.18" y1="743.8933333333334" x2="1443.18" y2="763.8933333333334" stroke="#000000" stroke-width="0.35"/>
  <line x1="1426.7885333333334" y1="761.8933333333334" x2="1443.18" y2="761.8933333333334" stroke="#000000" stroke-width="0.5"/>
  <line x1="1424.7885333333334" y1="765.8933333333334" x2="1428.7885333333334" y2="757.8933333333334" stroke="#000000" stroke-width="0.8"/>
  <line x1="1441.18" y1="765.8933333333334" x2="1445.18" y2="757.8933333333334" stroke="#000000" stroke-width="0.8"/>
  <text x="1434.9842666666668" y="756.8933333333334" text-anchor="middle" font-family="'Arial Narrow', Arial, sans-serif" font-size="10" fill="#000000">200</text>
  <line x1="213.81999999999994" y1="743.8933333333334" x2="213.81999999999994" y2="785.8933333333334" stroke="#000000" stroke-width="0.35"/>
  <line x1="230.2114666666666" y1="743.8933333333334" x2="230.2114666666666" y2="785.8933333333334" stroke="#000000" stroke-width="0.35"/>
  <line x1="213.81999999999994" y1="783.8933333333334" x2="230.2114666666666" y2="783.8933333333334" stroke="#000000" stroke-width="0.5"/>
  <line x1="211.81999999999994" y1="787.8933333333334" x2="215.81999999999994" y2="779.8933333333334" stroke="#000000" stroke-width="0.8"/>
  <line x1="228.2114666666666" y1="787.8933333333334" x2="232.2114666666666" y2="779.8933333333334" stroke="#000000" stroke-width="0.8"/>
  <text x="222.0157333333333" y="778.8933333333334" text-anchor="middle" font-family="'Arial Narrow', Arial, sans-serif" font-size="10" fill="#000000">200</text>
  <line x1="230.2114666666666" y1="743.8933333333334" x2="230.2114666666666" y2="785.8933333333334" stroke="#000000" stroke-width="0.35"/>
  <line x1="608.8543466666666" y1="743.8933333333334" x2="608.8543466666666" y2="785.8933333333334" stroke="#000000" stroke-width="0.35"/>
  <line x1="230.2114666666666" y1="783.8933333333334" x2="608.8543466666666" y2="783.8933333333334" stroke="#000000" stroke-width="0.5"/>
  <line x1="228.2114666666666" y1="787.8933333333334" x2="232.2114666666666" y2="779.8933333333334" stroke="#000000" stroke-width="0.8"/>
  <line x1="606.8543466666666" y1="787.8933333333334" x2="610.8543466666666" y2="779.8933333333334" stroke="#000000" stroke-width="0.8"/>
  <text x="419.53290666666663" y="778.8933333333334" text-anchor="middle" font-family="'Arial Narrow', Arial, sans-serif" font-size="10" fill="#000000">4620</text>
  <line x1="608.8543466666666" y1="743.8933333333334" x2="608.8543466666666" y2="785.8933333333334" stroke="#000000" stroke-width="0.35"/>
  <line x1="735.8882133333333" y1="743.8933333333334" x2="735.8882133333333" y2="785.8933333333334" stroke="#000000" stroke-width="0.35"/>
  <line x1="608.8543466666666" y1="783.8933333333334" x2="735.8882133333333" y2="783.8933333333334" stroke="#000000" stroke-width="0.5"/>
  <line x1="606.8543466666666" y1="787.8933333333334" x2="610.8543466666666" y2="779.8933333333334" stroke="#000000" stroke-width="0.8"/>
  <line x1="733.8882133333333" y1="787.8933333333334" x2="737.8882133333333" y2="779.8933333333334" stroke="#000000" stroke-width="0.8"/>
  <text x="672.37128" y="778.8933333333334" text-anchor="middle" font-family="'Arial Narrow', Arial, sans-serif" font-size="10" fill="#000000">1550</text>
  <line x1="735.8882133333333" y1="743.8933333333334" x2="735.8882133333333" y2="785.8933333333334" stroke="#000000" stroke-width="0.35"/>
  <line x1="913.7356266666666" y1="743.8933333333334" x2="913.7356266666666" y2="785.8933333333334" stroke="#000000" stroke-width="0.35"/>
  <line x1="735.8882133333333" y1="783.8933333333334" x2="913.7356266666666" y2="783.8933333333334" stroke="#000000" stroke-width="0.5"/>
  <line x1="733.8882133333333" y1="787.8933333333334" x2="737.8882133333333" y2="779.8933333333334" stroke="#000000" stroke-width="0.8"/>
  <line x1="911.7356266666666" y1="787.8933333333334" x2="915.7356266666666" y2="779.8933333333334" stroke="#000000" stroke-width="0.8"/>
  <text x="824.8119199999999" y="778.8933333333334" text-anchor="middle" font-family="'Arial Narrow', Arial, sans-serif" font-size="10" fill="#000000">2170</text>
  <line x1="913.7356266666666" y1="743.8933333333334" x2="913.7356266666666" y2="785.8933333333334" stroke="#000000" stroke-width="0.35"/>
  <line x1="940.7815466666667" y1="743.8933333333334" x2="940.7815466666667" y2="785.8933333333334" stroke="#000000" stroke-width="0.35"/>
  <line x1="913.7356266666666" y1="783.8933333333334" x2="940.7815466666667" y2="783.8933333333334" stroke="#000000" stroke-width="0.5"/>
  <line x1="911.7356266666666" y1="787.8933333333334" x2="915.7356266666666" y2="779.8933333333334" stroke="#000000" stroke-width="0.8"/>
  <line x1="938.7815466666667" y1="787.8933333333334" x2="942.7815466666667" y2="779.8933333333334" stroke="#000000" stroke-width="0.8"/>
  <text x="927.2585866666666" y="778.8933333333334" text-anchor="middle" font-family="'Arial Narrow', Arial, sans-serif" font-size="10" fill="#000000">330</text>
  <line x1="940.7815466666667" y1="743.8933333333334" x2="940.7815466666667" y2="785.8933333333334" stroke="#000000" stroke-width="0.35"/>
  <line x1="1218.6169066666666" y1="743.8933333333334" x2="1218.6169066666666" y2="785.8933333333334" stroke="#000000" stroke-width="0.35"/>
  <line x1="940.7815466666667" y1="783.8933333333334" x2="1218.6169066666666" y2="783.8933333333334" stroke="#000000" stroke-width="0.5"/>
  <line x1="938.7815466666667" y1="787.8933333333334" x2="942.7815466666667" y2="779.8933333333334" stroke="#000000" stroke-width="0.8"/>
  <line x1="1216.6169066666666" y1="787.8933333333334" x2="1220.6169066666666" y2="779.8933333333334" stroke="#000000" stroke-width="0.8"/>
  <text x="1079.6992266666666" y="778.8933333333334" text-anchor="middle" font-family="'Arial Narrow', Arial, sans-serif" font-size="10" fill="#000000">3390</text>
  <line x1="1218.6169066666666" y1="743.8933333333334" x2="1218.6169066666666" y2="785.8933333333334" stroke="#000000" stroke-width="0.35"/>
  <line x1="1443.18" y1="743.8933333333334" x2="1443.18" y2="785.8933333333334" stroke="#000000" stroke-width="0.35"/>
  <line x1="1218.6169066666666" y1="783.8933333333334" x2="1443.18" y2="783.8933333333334" stroke="#000000" stroke-width="0.5"/>
  <line x1="1216.6169066666666" y1="787.8933333333334" x2="1220.6169066666666" y2="779.8933333333334" stroke="#000000" stroke-width="0.8"/>
  <line x1="1441.18" y1="787.8933333333334" x2="1445.18" y2="779.8933333333334" stroke="#000000" stroke-width="0.8"/>
  <text x="1330.8984533333332" y="778.8933333333334" text-anchor="middle" font-family="'Arial Narrow', Arial, sans-serif" font-size="10" fill="#000000">2740</text>
  <line x1="213.81999999999994" y1="743.8933333333334" x2="213.81999999999994" y2="807.8933333333334" stroke="#000000" stroke-width="0.35"/>
  <line x1="1443.18" y1="743.8933333333334" x2="1443.18" y2="807.8933333333334" stroke="#000000" stroke-width="0.35"/>
  <line x1="213.81999999999994" y1="805.8933333333334" x2="1443.18" y2="805.8933333333334" stroke="#000000" stroke-width="0.5"/>
  <line x1="211.81999999999994" y1="809.8933333333334" x2="215.81999999999994" y2="801.8933333333334" stroke="#000000" stroke-width="0.8"/>
  <line x1="1441.18" y1="809.8933333333334" x2="1445.18" y2="801.8933333333334" stroke="#000000" stroke-width="0.8"/>
  <text x="828.5" y="800.8933333333334" text-anchor="middle" font-family="'Arial Narrow', Arial, sans-serif" font-size="10" fill="#000000">15000</text>
  <line x1="211.81999999999994" y1="332.1066666666667" x2="191.81999999999994" y2="332.1066666666667" stroke="#000000" stroke-width="0.35"/>
  <line x1="211.81999999999994" y1="348.4981333333333" x2="191.81999999999994" y2="348.4981333333333" stroke="#000000" stroke-width="0.35"/>
  <line x1="193.81999999999994" y1="332.1066666666667" x2="193.81999999999994" y2="348.4981333333333" stroke="#000000" stroke-width="0.5"/>
  <line x1="189.81999999999994" y1="334.1066666666667" x2="197.81999999999994" y2="330.1066666666667" stroke="#000000" stroke-width="0.8"/>
  <line x1="189.81999999999994" y1="350.4981333333333" x2="197.81999999999994" y2="346.4981333333333" stroke="#000000" stroke-width="0.8"/>
  <text x="185.81999999999994" y="340.30240000000003" text-anchor="middle" font-family="'Arial Narrow', Arial, sans-serif" font-size="7.5" fill="#000000" transform="rotate(-90, 185.81999999999994, 340.30240000000003)">200</text>
  <line x1="211.81999999999994" y1="348.4981333333333" x2="191.81999999999994" y2="348.4981333333333" stroke="#000000" stroke-width="0.35"/>
  <line x1="211.81999999999994" y1="725.5018666666667" x2="191.81999999999994" y2="725.5018666666667" stroke="#000000" stroke-width="0.35"/>
  <line x1="193.81999999999994" y1="348.4981333333333" x2="193.81999999999994" y2="725.5018666666667" stroke="#000000" stroke-width="0.5"/>
  <line x1="189.81999999999994" y1="350.4981333333333" x2="197.81999999999994" y2="346.4981333333333" stroke="#000000" stroke-width="0.8"/>
  <line x1="189.81999999999994" y1="727.5018666666667" x2="197.81999999999994" y2="723.5018666666667" stroke="#000000" stroke-width="0.8"/>
  <text x="185.81999999999994" y="537" text-anchor="middle" font-family="'Arial Narrow', Arial, sans-serif" font-size="7.5" fill="#000000" transform="rotate(-90, 185.81999999999994, 537)">4600</text>
  <line x1="211.81999999999994" y1="725.5018666666667" x2="191.81999999999994" y2="725.5018666666667" stroke="#000000" stroke-width="0.35"/>
  <line x1="211.81999999999994" y1="741.8933333333334" x2="191.81999999999994" y2="741.8933333333334" stroke="#000000" stroke-width="0.35"/>
  <line x1="193.81999999999994" y1="725.5018666666667" x2="193.81999999999994" y2="741.8933333333334" stroke="#000000" stroke-width="0.5"/>
  <line x1="189.81999999999994" y1="727.5018666666667" x2="197.81999999999994" y2="723.5018666666667" stroke="#000000" stroke-width="0.8"/>
  <line x1="189.81999999999994" y1="743.8933333333334" x2="197.81999999999994" y2="739.8933333333334" stroke="#000000" stroke-width="0.8"/>
  <text x="185.81999999999994" y="733.6976000000001" text-anchor="middle" font-family="'Arial Narrow', Arial, sans-serif" font-size="7.5" fill="#000000" transform="rotate(-90, 185.81999999999994, 733.6976000000001)">200</text>
  <line x1="211.81999999999994" y1="332.1066666666667" x2="169.81999999999994" y2="332.1066666666667" stroke="#000000" stroke-width="0.35"/>
  <line x1="211.81999999999994" y1="741.8933333333334" x2="169.81999999999994" y2="741.8933333333334" stroke="#000000" stroke-width="0.35"/>
  <line x1="171.81999999999994" y1="332.1066666666667" x2="171.81999999999994" y2="741.8933333333334" stroke="#000000" stroke-width="0.5"/>
  <line x1="167.81999999999994" y1="334.1066666666667" x2="175.81999999999994" y2="330.1066666666667" stroke="#000000" stroke-width="0.8"/>
  <line x1="167.81999999999994" y1="743.8933333333334" x2="175.81999999999994" y2="739.8933333333334" stroke="#000000" stroke-width="0.8"/>
  <text x="163.81999999999994" y="537" text-anchor="middle" font-family="'Arial Narrow', Arial, sans-serif" font-size="7.5" fill="#000000" transform="rotate(-90, 163.81999999999994, 537)">5000</text>
  <line x1="211.81999999999994" y1="332.1066666666667" x2="147.81999999999994" y2="332.1066666666667" stroke="#000000" stroke-width="0.35"/>
  <line x1="211.81999999999994" y1="741.8933333333334" x2="147.81999999999994" y2="741.8933333333334" stroke="#000000" stroke-width="0.35"/>
  <line x1="149.81999999999994" y1="332.1066666666667" x2="149.81999999999994" y2="741.8933333333334" stroke="#000000" stroke-width="0.5"/>
  <line x1="145.81999999999994" y1="334.1066666666667" x2="153.81999999999994" y2="330.1066666666667" stroke="#000000" stroke-width="0.8"/>
  <line x1="145.81999999999994" y1="743.8933333333334" x2="153.81999999999994" y2="739.8933333333334" stroke="#000000" stroke-width="0.8"/>
  <text x="141.81999999999994" y="537" text-anchor="middle" font-family="'Arial Narrow', Arial, sans-serif" font-size="7.5" fill="#000000" transform="rotate(-90, 141.81999999999994, 537)">5000</text>
  <line x1="213.81999999999994" y1="330.1066666666667" x2="213.81999999999994" y2="310.1066666666667" stroke="#000000" stroke-width="0.35"/>
  <line x1="230.2114666666666" y1="330.1066666666667" x2="230.2114666666666" y2="310.1066666666667" stroke="#000000" stroke-width="0.35"/>
  <line x1="213.81999999999994" y1="312.1066666666667" x2="230.2114666666666" y2="312.1066666666667" stroke="#000000" stroke-width="0.5"/>
  <line x1="211.81999999999994" y1="316.1066666666667" x2="215.81999999999994" y2="308.1066666666667" stroke="#000000" stroke-width="0.8"/>
  <line x1="228.2114666666666" y1="316.1066666666667" x2="232.2114666666666" y2="308.1066666666667" stroke="#000000" stroke-width="0.8"/>
  <text x="222.0157333333333" y="325.1066666666667" text-anchor="middle" font-family="'Arial Narrow', Arial, sans-serif" font-size="10" fill="#000000">200</text>
  <line x1="230.2114666666666" y1="330.1066666666667" x2="230.2114666666666" y2="310.1066666666667" stroke="#000000" stroke-width="0.35"/>
  <line x1="599.0194666666666" y1="330.1066666666667" x2="599.0194666666666" y2="310.1066666666667" stroke="#000000" stroke-width="0.35"/>
  <line x1="230.2114666666666" y1="312.1066666666667" x2="599.0194666666666" y2="312.1066666666667" stroke="#000000" stroke-width="0.5"/>
  <line x1="228.2114666666666" y1="316.1066666666667" x2="232.2114666666666" y2="308.1066666666667" stroke="#000000" stroke-width="0.8"/>
  <line x1="597.0194666666666" y1="316.1066666666667" x2="601.0194666666666" y2="308.1066666666667" stroke="#000000" stroke-width="0.8"/>
  <text x="414.61546666666663" y="325.1066666666667" text-anchor="middle" font-family="'Arial Narrow', Arial, sans-serif" font-size="10" fill="#000000">4500</text>
  <line x1="599.0194666666666" y1="330.1066666666667" x2="599.0194666666666" y2="310.1066666666667" stroke="#000000" stroke-width="0.35"/>
  <line x1="608.8543466666666" y1="330.1066666666667" x2="608.8543466666666" y2="310.1066666666667" stroke="#000000" stroke-width="0.35"/>
  <line x1="599.0194666666666" y1="312.1066666666667" x2="608.8543466666666" y2="312.1066666666667" stroke="#000000" stroke-width="0.5"/>
  <line x1="597.0194666666666" y1="316.1066666666667" x2="601.0194666666666" y2="308.1066666666667" stroke="#000000" stroke-width="0.8"/>
  <line x1="606.8543466666666" y1="316.1066666666667" x2="610.8543466666666" y2="308.1066666666667" stroke="#000000" stroke-width="0.8"/>
  <text x="603.9369066666666" y="325.1066666666667" text-anchor="middle" font-family="'Arial Narrow', Arial, sans-serif" font-size="10" fill="#000000">120</text>
  <line x1="608.8543466666666" y1="330.1066666666667" x2="608.8543466666666" y2="310.1066666666667" stroke="#000000" stroke-width="0.35"/>
  <line x1="735.8882133333333" y1="330.1066666666667" x2="735.8882133333333" y2="310.1066666666667" stroke="#000000" stroke-width="0.35"/>
  <line x1="608.8543466666666" y1="312.1066666666667" x2="735.8882133333333" y2="312.1066666666667" stroke="#000000" stroke-width="0.5"/>
  <line x1="606.8543466666666" y1="316.1066666666667" x2="610.8543466666666" y2="308.1066666666667" stroke="#000000" stroke-width="0.8"/>
  <line x1="733.8882133333333" y1="316.1066666666667" x2="737.8882133333333" y2="308.1066666666667" stroke="#000000" stroke-width="0.8"/>
  <text x="672.37128" y="325.1066666666667" text-anchor="middle" font-family="'Arial Narrow', Arial, sans-serif" font-size="10" fill="#000000">1550</text>
  <line x1="735.8882133333333" y1="330.1066666666667" x2="735.8882133333333" y2="310.1066666666667" stroke="#000000" stroke-width="0.35"/>
  <line x1="903.9007466666667" y1="330.1066666666667" x2="903.9007466666667" y2="310.1066666666667" stroke="#000000" stroke-width="0.35"/>
  <line x1="735.8882133333333" y1="312.1066666666667" x2="903.9007466666667" y2="312.1066666666667" stroke="#000000" stroke-width="0.5"/>
  <line x1="733.8882133333333" y1="316.1066666666667" x2="737.8882133333333" y2="308.1066666666667" stroke="#000000" stroke-width="0.8"/>
  <line x1="901.9007466666667" y1="316.1066666666667" x2="905.9007466666667" y2="308.1066666666667" stroke="#000000" stroke-width="0.8"/>
  <text x="819.8944799999999" y="325.1066666666667" text-anchor="middle" font-family="'Arial Narrow', Arial, sans-serif" font-size="10" fill="#000000">2050</text>
  <line x1="903.9007466666667" y1="330.1066666666667" x2="903.9007466666667" y2="310.1066666666667" stroke="#000000" stroke-width="0.35"/>
  <line x1="913.7356266666666" y1="330.1066666666667" x2="913.7356266666666" y2="310.1066666666667" stroke="#000000" stroke-width="0.35"/>
  <line x1="903.9007466666667" y1="312.1066666666667" x2="913.7356266666666" y2="312.1066666666667" stroke="#000000" stroke-width="0.5"/>
  <line x1="901.9007466666667" y1="316.1066666666667" x2="905.9007466666667" y2="308.1066666666667" stroke="#000000" stroke-width="0.8"/>
  <line x1="911.7356266666666" y1="316.1066666666667" x2="915.7356266666666" y2="308.1066666666667" stroke="#000000" stroke-width="0.8"/>
  <text x="908.8181866666666" y="325.1066666666667" text-anchor="middle" font-family="'Arial Narrow', Arial, sans-serif" font-size="10" fill="#000000">120</text>
  <line x1="913.7356266666666" y1="330.1066666666667" x2="913.7356266666666" y2="310.1066666666667" stroke="#000000" stroke-width="0.35"/>
  <line x1="940.7815466666666" y1="330.1066666666667" x2="940.7815466666666" y2="310.1066666666667" stroke="#000000" stroke-width="0.35"/>
  <line x1="913.7356266666666" y1="312.1066666666667" x2="940.7815466666666" y2="312.1066666666667" stroke="#000000" stroke-width="0.5"/>
  <line x1="911.7356266666666" y1="316.1066666666667" x2="915.7356266666666" y2="308.1066666666667" stroke="#000000" stroke-width="0.8"/>
  <line x1="938.7815466666666" y1="316.1066666666667" x2="942.7815466666666" y2="308.1066666666667" stroke="#000000" stroke-width="0.8"/>
  <text x="927.2585866666666" y="325.1066666666667" text-anchor="middle" font-family="'Arial Narrow', Arial, sans-serif" font-size="10" fill="#000000">330</text>
  <line x1="940.7815466666666" y1="330.1066666666667" x2="940.7815466666666" y2="310.1066666666667" stroke="#000000" stroke-width="0.35"/>
  <line x1="1208.7820266666668" y1="330.1066666666667" x2="1208.7820266666668" y2="310.1066666666667" stroke="#000000" stroke-width="0.35"/>
  <line x1="940.7815466666666" y1="312.1066666666667" x2="1208.7820266666668" y2="312.1066666666667" stroke="#000000" stroke-width="0.5"/>
  <line x1="938.7815466666666" y1="316.1066666666667" x2="942.7815466666666" y2="308.1066666666667" stroke="#000000" stroke-width="0.8"/>
  <line x1="1206.7820266666668" y1="316.1066666666667" x2="1210.7820266666668" y2="308.1066666666667" stroke="#000000" stroke-width="0.8"/>
  <text x="1074.7817866666667" y="325.1066666666667" text-anchor="middle" font-family="'Arial Narrow', Arial, sans-serif" font-size="10" fill="#000000">3270</text>
  <line x1="1208.7820266666668" y1="330.1066666666667" x2="1208.7820266666668" y2="310.1066666666667" stroke="#000000" stroke-width="0.35"/>
  <line x1="1218.6169066666666" y1="330.1066666666667" x2="1218.6169066666666" y2="310.1066666666667" stroke="#000000" stroke-width="0.35"/>
  <line x1="1208.7820266666668" y1="312.1066666666667" x2="1218.6169066666666" y2="312.1066666666667" stroke="#000000" stroke-width="0.5"/>
  <line x1="1206.7820266666668" y1="316.1066666666667" x2="1210.7820266666668" y2="308.1066666666667" stroke="#000000" stroke-width="0.8"/>
  <line x1="1216.6169066666666" y1="316.1066666666667" x2="1220.6169066666666" y2="308.1066666666667" stroke="#000000" stroke-width="0.8"/>
  <text x="1213.6994666666667" y="325.1066666666667" text-anchor="middle" font-family="'Arial Narrow', Arial, sans-serif" font-size="10" fill="#000000">120</text>
  <line x1="1218.6169066666666" y1="330.1066666666667" x2="1218.6169066666666" y2="310.1066666666667" stroke="#000000" stroke-width="0.35"/>
  <line x1="1426.7885333333334" y1="330.1066666666667" x2="1426.7885333333334" y2="310.1066666666667" stroke="#000000" stroke-width="0.35"/>
  <line x1="1218.6169066666666" y1="312.1066666666667" x2="1426.7885333333334" y2="312.1066666666667" stroke="#000000" stroke-width="0.5"/>
  <line x1="1216.6169066666666" y1="316.1066666666667" x2="1220.6169066666666" y2="308.1066666666667" stroke="#000000" stroke-width="0.8"/>
  <line x1="1424.7885333333334" y1="316.1066666666667" x2="1428.7885333333334" y2="308.1066666666667" stroke="#000000" stroke-width="0.8"/>
  <text x="1322.70272" y="325.1066666666667" text-anchor="middle" font-family="'Arial Narrow', Arial, sans-serif" font-size="10" fill="#000000">2540</text>
  <line x1="1426.7885333333334" y1="330.1066666666667" x2="1426.7885333333334" y2="310.1066666666667" stroke="#000000" stroke-width="0.35"/>
  <line x1="1443.18" y1="330.1066666666667" x2="1443.18" y2="310.1066666666667" stroke="#000000" stroke-width="0.35"/>
  <line x1="1426.7885333333334" y1="312.1066666666667" x2="1443.18" y2="312.1066666666667" stroke="#000000" stroke-width="0.5"/>
  <line x1="1424.7885333333334" y1="316.1066666666667" x2="1428.7885333333334" y2="308.1066666666667" stroke="#000000" stroke-width="0.8"/>
  <line x1="1441.18" y1="316.1066666666667" x2="1445.18" y2="308.1066666666667" stroke="#000000" stroke-width="0.8"/>
  <text x="1434.9842666666668" y="325.1066666666667" text-anchor="middle" font-family="'Arial Narrow', Arial, sans-serif" font-size="10" fill="#000000">200</text>
  <line x1="213.81999999999994" y1="330.1066666666667" x2="213.81999999999994" y2="288.1066666666667" stroke="#000000" stroke-width="0.35"/>
  <line x1="230.2114666666666" y1="330.1066666666667" x2="230.2114666666666" y2="288.1066666666667" stroke="#000000" stroke-width="0.35"/>
  <line x1="213.81999999999994" y1="290.1066666666667" x2="230.2114666666666" y2="290.1066666666667" stroke="#000000" stroke-width="0.5"/>
  <line x1="211.81999999999994" y1="294.1066666666667" x2="215.81999999999994" y2="286.1066666666667" stroke="#000000" stroke-width="0.8"/>
  <line x1="228.2114666666666" y1="294.1066666666667" x2="232.2114666666666" y2="286.1066666666667" stroke="#000000" stroke-width="0.8"/>
  <text x="222.0157333333333" y="303.1066666666667" text-anchor="middle" font-family="'Arial Narrow', Arial, sans-serif" font-size="10" fill="#000000">200</text>
  <line x1="230.2114666666666" y1="330.1066666666667" x2="230.2114666666666" y2="288.1066666666667" stroke="#000000" stroke-width="0.35"/>
  <line x1="608.8543466666666" y1="330.1066666666667" x2="608.8543466666666" y2="288.1066666666667" stroke="#000000" stroke-width="0.35"/>
  <line x1="230.2114666666666" y1="290.1066666666667" x2="608.8543466666666" y2="290.1066666666667" stroke="#000000" stroke-width="0.5"/>
  <line x1="228.2114666666666" y1="294.1066666666667" x2="232.2114666666666" y2="286.1066666666667" stroke="#000000" stroke-width="0.8"/>
  <line x1="606.8543466666666" y1="294.1066666666667" x2="610.8543466666666" y2="286.1066666666667" stroke="#000000" stroke-width="0.8"/>
  <text x="419.53290666666663" y="303.1066666666667" text-anchor="middle" font-family="'Arial Narrow', Arial, sans-serif" font-size="10" fill="#000000">4620</text>
  <line x1="608.8543466666666" y1="330.1066666666667" x2="608.8543466666666" y2="288.1066666666667" stroke="#000000" stroke-width="0.35"/>
  <line x1="735.8882133333333" y1="330.1066666666667" x2="735.8882133333333" y2="288.1066666666667" stroke="#000000" stroke-width="0.35"/>
  <line x1="608.8543466666666" y1="290.1066666666667" x2="735.8882133333333" y2="290.1066666666667" stroke="#000000" stroke-width="0.5"/>
  <line x1="606.8543466666666" y1="294.1066666666667" x2="610.8543466666666" y2="286.1066666666667" stroke="#000000" stroke-width="0.8"/>
  <line x1="733.8882133333333" y1="294.1066666666667" x2="737.8882133333333" y2="286.1066666666667" stroke="#000000" stroke-width="0.8"/>
  <text x="672.37128" y="303.1066666666667" text-anchor="middle" font-family="'Arial Narrow', Arial, sans-serif" font-size="10" fill="#000000">1550</text>
  <line x1="735.8882133333333" y1="330.1066666666667" x2="735.8882133333333" y2="288.1066666666667" stroke="#000000" stroke-width="0.35"/>
  <line x1="913.7356266666666" y1="330.1066666666667" x2="913.7356266666666" y2="288.1066666666667" stroke="#000000" stroke-width="0.35"/>
  <line x1="735.8882133333333" y1="290.1066666666667" x2="913.7356266666666" y2="290.1066666666667" stroke="#000000" stroke-width="0.5"/>
  <line x1="733.8882133333333" y1="294.1066666666667" x2="737.8882133333333" y2="286.1066666666667" stroke="#000000" stroke-width="0.8"/>
  <line x1="911.7356266666666" y1="294.1066666666667" x2="915.7356266666666" y2="286.1066666666667" stroke="#000000" stroke-width="0.8"/>
  <text x="824.8119199999999" y="303.1066666666667" text-anchor="middle" font-family="'Arial Narrow', Arial, sans-serif" font-size="10" fill="#000000">2170</text>
  <line x1="913.7356266666666" y1="330.1066666666667" x2="913.7356266666666" y2="288.1066666666667" stroke="#000000" stroke-width="0.35"/>
  <line x1="940.7815466666667" y1="330.1066666666667" x2="940.7815466666667" y2="288.1066666666667" stroke="#000000" stroke-width="0.35"/>
  <line x1="913.7356266666666" y1="290.1066666666667" x2="940.7815466666667" y2="290.1066666666667" stroke="#000000" stroke-width="0.5"/>
  <line x1="911.7356266666666" y1="294.1066666666667" x2="915.7356266666666" y2="286.1066666666667" stroke="#000000" stroke-width="0.8"/>
  <line x1="938.7815466666667" y1="294.1066666666667" x2="942.7815466666667" y2="286.1066666666667" stroke="#000000" stroke-width="0.8"/>
  <text x="927.2585866666666" y="303.1066666666667" text-anchor="middle" font-family="'Arial Narrow', Arial, sans-serif" font-size="10" fill="#000000">330</text>
  <line x1="940.7815466666667" y1="330.1066666666667" x2="940.7815466666667" y2="288.1066666666667" stroke="#000000" stroke-width="0.35"/>
  <line x1="1218.6169066666666" y1="330.1066666666667" x2="1218.6169066666666" y2="288.1066666666667" stroke="#000000" stroke-width="0.35"/>
  <line x1="940.7815466666667" y1="290.1066666666667" x2="1218.6169066666666" y2="290.1066666666667" stroke="#000000" stroke-width="0.5"/>
  <line x1="938.7815466666667" y1="294.1066666666667" x2="942.7815466666667" y2="286.1066666666667" stroke="#000000" stroke-width="0.8"/>
  <line x1="1216.6169066666666" y1="294.1066666666667" x2="1220.6169066666666" y2="286.1066666666667" stroke="#000000" stroke-width="0.8"/>
  <text x="1079.6992266666666" y="303.1066666666667" text-anchor="middle" font-family="'Arial Narrow', Arial, sans-serif" font-size="10" fill="#000000">3390</text>
  <line x1="1218.6169066666666" y1="330.1066666666667" x2="1218.6169066666666" y2="288.1066666666667" stroke="#000000" stroke-width="0.35"/>
  <line x1="1443.18" y1="330.1066666666667" x2="1443.18" y2="288.1066666666667" stroke="#000000" stroke-width="0.35"/>
  <line x1="1218.6169066666666" y1="290.1066666666667" x2="1443.18" y2="290.1066666666667" stroke="#000000" stroke-width="0.5"/>
  <line x1="1216.6169066666666" y1="294.1066666666667" x2="1220.6169066666666" y2="286.1066666666667" stroke="#000000" stroke-width="0.8"/>
  <line x1="1441.18" y1="294.1066666666667" x2="1445.18" y2="286.1066666666667" stroke="#000000" stroke-width="0.8"/>
  <text x="1330.8984533333332" y="303.1066666666667" text-anchor="middle" font-family="'Arial Narrow', Arial, sans-serif" font-size="10" fill="#000000">2740</text>
  <line x1="213.81999999999994" y1="330.1066666666667" x2="213.81999999999994" y2="266.1066666666667" stroke="#000000" stroke-width="0.35"/>
  <line x1="1443.18" y1="330.1066666666667" x2="1443.18" y2="266.1066666666667" stroke="#000000" stroke-width="0.35"/>
  <line x1="213.81999999999994" y1="268.1066666666667" x2="1443.18" y2="268.1066666666667" stroke="#000000" stroke-width="0.5"/>
  <line x1="211.81999999999994" y1="272.1066666666667" x2="215.81999999999994" y2="264.1066666666667" stroke="#000000" stroke-width="0.8"/>
  <line x1="1441.18" y1="272.1066666666667" x2="1445.18" y2="264.1066666666667" stroke="#000000" stroke-width="0.8"/>
  <text x="828.5" y="281.1066666666667" text-anchor="middle" font-family="'Arial Narrow', Arial, sans-serif" font-size="10" fill="#000000">15000</text>
  <line x1="141.81999999999994" y1="537" x2="1515.18" y2="537" stroke="#000" stroke-width="0.8" stroke-dasharray="12 3 3 3"/>
  <circle cx="141.81999999999994" cy="537" r="10" fill="white" stroke="#000" stroke-width="1"/>
  <text x="141.81999999999994" y="541" text-anchor="middle" font-family="'Arial Narrow', Arial, sans-serif" font-size="10" fill="#000" font-weight="bold">A</text>
  <circle cx="1515.18" cy="537" r="10" fill="white" stroke="#000" stroke-width="1"/>
  <text x="1515.18" y="541" text-anchor="middle" font-family="'Arial Narrow', Arial, sans-serif" font-size="10" fill="#000" font-weight="bold">A</text>
  <path d="M 127.81999999999994 534 L 127.81999999999994 540 L 130.81999999999994 537 Z" fill="#000" stroke="none"/>
  <path d="M 1529.18 534 L 1529.18 540 L 1526.18 537 Z" fill="#000" stroke="none"/>
  <text x="828.5" y="1100" text-anchor="middle" font-family="'Arial Narrow', Arial, sans-serif" font-size="18" fill="#000000" font-weight="bold" letter-spacing="2">MẶT BẰNG LẦU 1</text>
  <text x="828.5" y="1116" text-anchor="middle" font-family="'Arial Narrow', Arial, sans-serif" font-size="13" fill="#000000">TL: 1/46 (xoay 90°)</text>
  <text x="8" y="1120" font-family="'Arial Narrow', Arial, sans-serif" font-size="7" fill="#888888">⚠ Tầng 1: Hố thang "Cầu thang" (1.2×2.5m) hơi nhỏ cho thang U-shape — khuyến nghị ≥2.1×3.5m. | Tầng 2: Nên có ít nhất 2 WC cho 3 phòng ngủ (hiện có 1 WC).</text>
</svg>