<?xml version="1.0" encoding="UTF-8"?>
<svg xmlns="http://www.w3.org/2000/svg" width="420mm" height="297mm" viewBox="0 0 1587 1122" preserveAspectRatio="xMidYMid meet">
  <defs>
  <!-- Tường ngoài: gạch chéo đôi (cross-hatch) — chuẩn CAD kiến trúc -->
  <pattern id="hatch-ext" patternUnits="userSpaceOnUse" width="5" height="5">
    <line x1="0" y1="0" x2="5" y2="5" stroke="#000" stroke-width="0.6"/>
    <line x1="5" y1="0" x2="0" y2="5" stroke="#000" stroke-width="0.6"/>
  </pattern>
  <!-- Tường trong: gạch chéo đơn — mảnh hơn -->
  <pattern id="hatch-int" patternUnits="userSpaceOnUse" width="4" height="4">
    <line x1="0" y1="0" x2="4" y2="4" stroke="#555" stroke-width="0.4"/>
  </pattern>
  <!-- Tường tô đặc (cho cột / tường chịu lực) -->
  <pattern id="hatch-solid" patternUnits="userSpaceOnUse" width="3" height="3">
    <rect width="3" height="3" fill="#333"/>
  </pattern>
</defs>
  <rect width="1587" height="1122" fill="white"/>
  <!-- LẦU 1 | 5m×20m | Scale 1/61 | A3 landscape | BMT Decor -->
  <line x1="226.11360000000005" y1="343.33000000000004" x2="226.11360000000005" y2="730.6700000000001" stroke="#999999" stroke-width="0.4" stroke-dasharray="8 4 2 4"/>
  <circle cx="226.11360000000005" cy="730.6700000000001" r="14" fill="white" stroke="#000000" stroke-width="1.2"/>
  <text x="226.11360000000005" y="735.6700000000001" text-anchor="middle" font-family="'Arial Narrow', Arial, sans-serif" font-size="13" fill="#000000" font-weight="bold">1</text>
  <circle cx="226.11360000000005" cy="343.33000000000004" r="14" fill="white" stroke="#000000" stroke-width="1.2"/>
  <text x="226.11360000000005" y="348.33000000000004" text-anchor="middle" font-family="'Arial Narrow', Arial, sans-serif" font-size="13" fill="#000000" font-weight="bold">1</text>
  <line x1="448.62776" y1="343.33000000000004" x2="448.62776" y2="730.6700000000001" stroke="#999999" stroke-width="0.4" stroke-dasharray="8 4 2 4"/>
  <circle cx="448.62776" cy="730.6700000000001" r="14" fill="white" stroke="#000000" stroke-width="1.2"/>
  <text x="448.62776" y="735.6700000000001" text-anchor="middle" font-family="'Arial Narrow', Arial, sans-serif" font-size="13" fill="#000000" font-weight="bold">2</text>
  <circle cx="448.62776" cy="343.33000000000004" r="14" fill="white" stroke="#000000" stroke-width="1.2"/>
  <text x="448.62776" y="348.33000000000004" text-anchor="middle" font-family="'Arial Narrow', Arial, sans-serif" font-size="13" fill="#000000" font-weight="bold">2</text>
  <line x1="701.8759200000001" y1="343.33000000000004" x2="701.8759200000001" y2="730.6700000000001" stroke="#999999" stroke-width="0.4" stroke-dasharray="8 4 2 4"/>
  <circle cx="701.8759200000001" cy="730.6700000000001" r="14" fill="white" stroke="#000000" stroke-width="1.2"/>
  <text x="701.8759200000001" y="735.6700000000001" text-anchor="middle" font-family="'Arial Narrow', Arial, sans-serif" font-size="13" fill="#000000" font-weight="bold">3</text>
  <circle cx="701.8759200000001" cy="343.33000000000004" r="14" fill="white" stroke="#000000" stroke-width="1.2"/>
  <text x="701.8759200000001" y="348.33000000000004" text-anchor="middle" font-family="'Arial Narrow', Arial, sans-serif" font-size="13" fill="#000000" font-weight="bold">3</text>
  <line x1="722.16036" y1="343.33000000000004" x2="722.16036" y2="730.6700000000001" stroke="#999999" stroke-width="0.4" stroke-dasharray="8 4 2 4"/>
  <circle cx="722.16036" cy="730.6700000000001" r="14" fill="white" stroke="#000000" stroke-width="1.2"/>
  <text x="722.16036" y="735.6700000000001" text-anchor="middle" font-family="'Arial Narrow', Arial, sans-serif" font-size="13" fill="#000000" font-weight="bold">4</text>
  <circle cx="722.16036" cy="343.33000000000004" r="14" fill="white" stroke="#000000" stroke-width="1.2"/>
  <text x="722.16036" y="348.33000000000004" text-anchor="middle" font-family="'Arial Narrow', Arial, sans-serif" font-size="13" fill="#000000" font-weight="bold">4</text>
  <line x1="923.1607200000001" y1="343.33000000000004" x2="923.1607200000001" y2="730.6700000000001" stroke="#999999" stroke-width="0.4" stroke-dasharray="8 4 2 4"/>
  <circle cx="923.1607200000001" cy="730.6700000000001" r="14" fill="white" stroke="#000000" stroke-width="1.2"/>
  <text x="923.1607200000001" y="735.6700000000001" text-anchor="middle" font-family="'Arial Narrow', Arial, sans-serif" font-size="13" fill="#000000" font-weight="bold">5</text>
  <circle cx="923.1607200000001" cy="343.33000000000004" r="14" fill="white" stroke="#000000" stroke-width="1.2"/>
  <text x="923.1607200000001" y="348.33000000000004" text-anchor="middle" font-family="'Arial Narrow', Arial, sans-serif" font-size="13" fill="#000000" font-weight="bold">5</text>
  <line x1="1060.84904" y1="343.33000000000004" x2="1060.84904" y2="730.6700000000001" stroke="#999999" stroke-width="0.4" stroke-dasharray="8 4 2 4"/>
  <circle cx="1060.84904" cy="730.6700000000001" r="14" fill="white" stroke="#000000" stroke-width="1.2"/>
  <text x="1060.84904" y="735.6700000000001" text-anchor="middle" font-family="'Arial Narrow', Arial, sans-serif" font-size="13" fill="#000000" font-weight="bold">6</text>
  <circle cx="1060.84904" cy="343.33000000000004" r="14" fill="white" stroke="#000000" stroke-width="1.2"/>
  <text x="1060.84904" y="348.33000000000004" text-anchor="middle" font-family="'Arial Narrow', Arial, sans-serif" font-size="13" fill="#000000" font-weight="bold">6</text>
  <line x1="1443.1799999999998" y1="343.33000000000004" x2="1443.1799999999998" y2="730.6700000000001" stroke="#999999" stroke-width="0.4" stroke-dasharray="8 4 2 4"/>
  <circle cx="1443.1799999999998" cy="730.6700000000001" r="14" fill="white" stroke="#000000" stroke-width="1.2"/>
  <text x="1443.1799999999998" y="735.6700000000001" text-anchor="middle" font-family="'Arial Narrow', Arial, sans-serif" font-size="13" fill="#000000" font-weight="bold">7</text>
  <circle cx="1443.1799999999998" cy="343.33000000000004" r="14" fill="white" stroke="#000000" stroke-width="1.2"/>
  <text x="1443.1799999999998" y="348.33000000000004" text-anchor="middle" font-family="'Arial Narrow', Arial, sans-serif" font-size="13" fill="#000000" font-weight="bold">7</text>
  <line x1="173.82000000000005" y1="383.33000000000004" x2="1483.1799999999998" y2="383.33000000000004" stroke="#999999" stroke-width="0.4" stroke-dasharray="8 4 2 4"/>
  <circle cx="173.82000000000005" cy="383.33000000000004" r="14" fill="white" stroke="#000000" stroke-width="1.2"/>
  <text x="173.82000000000005" y="388.33000000000004" text-anchor="middle" font-family="'Arial Narrow', Arial, sans-serif" font-size="13" fill="#000000" font-weight="bold">A</text>
  <circle cx="1483.1799999999998" cy="383.33000000000004" r="14" fill="white" stroke="#000000" stroke-width="1.2"/>
  <text x="1483.1799999999998" y="388.33000000000004" text-anchor="middle" font-family="'Arial Narrow', Arial, sans-serif" font-size="13" fill="#000000" font-weight="bold">A</text>
  <line x1="173.82000000000005" y1="690.6700000000001" x2="1483.1799999999998" y2="690.6700000000001" stroke="#999999" stroke-width="0.4" stroke-dasharray="8 4 2 4"/>
  <circle cx="173.82000000000005" cy="690.6700000000001" r="14" fill="white" stroke="#000000" stroke-width="1.2"/>
  <text x="173.82000000000005" y="695.6700000000001" text-anchor="middle" font-family="'Arial Narrow', Arial, sans-serif" font-size="13" fill="#000000" font-weight="bold">B</text>
  <circle cx="1483.1799999999998" cy="690.6700000000001" r="14" fill="white" stroke="#000000" stroke-width="1.2"/>
  <text x="1483.1799999999998" y="695.6700000000001" text-anchor="middle" font-family="'Arial Narrow', Arial, sans-serif" font-size="13" fill="#000000" font-weight="bold">B</text>
  <rect x="219.96680000000003" y="377.18320000000006" width="12.2936" height="12.2936" fill="#000000" stroke="none"/>
  <rect x="219.96680000000003" y="684.5232000000001" width="12.2936" height="12.2936" fill="#000000" stroke="none"/>
  <rect x="442.48096000000004" y="377.18320000000006" width="12.2936" height="12.2936" fill="#000000" stroke="none"/>
  <rect x="442.48096000000004" y="684.5232000000001" width="12.2936" height="12.2936" fill="#000000" stroke="none"/>
  <rect x="695.7291200000001" y="377.18320000000006" width="12.2936" height="12.2936" fill="#000000" stroke="none"/>
  <rect x="695.7291200000001" y="684.5232000000001" width="12.2936" height="12.2936" fill="#000000" stroke="none"/>
  <rect x="716.01356" y="377.18320000000006" width="12.2936" height="12.2936" fill="#000000" stroke="none"/>
  <rect x="716.01356" y="684.5232000000001" width="12.2936" height="12.2936" fill="#000000" stroke="none"/>
  <rect x="917.0139200000001" y="377.18320000000006" width="12.2936" height="12.2936" fill="#000000" stroke="none"/>
  <rect x="917.0139200000001" y="684.5232000000001" width="12.2936" height="12.2936" fill="#000000" stroke="none"/>
  <rect x="1054.70224" y="377.18320000000006" width="12.2936" height="12.2936" fill="#000000" stroke="none"/>
  <rect x="1054.70224" y="684.5232000000001" width="12.2936" height="12.2936" fill="#000000" stroke="none"/>
  <rect x="1437.0331999999999" y="377.18320000000006" width="12.2936" height="12.2936" fill="#000000" stroke="none"/>
  <rect x="1437.0331999999999" y="684.5232000000001" width="12.2936" height="12.2936" fill="#000000" stroke="none"/>
  <rect x="226.11360000000005" y="395.62360000000007" width="215.13799999999998" height="282.7528" fill="white" stroke="none"/>
  <rect x="293.68260000000004" y="410.6832600000001" width="80" height="95" fill="white" stroke="#000000" stroke-width="0.8"/>
  <rect x="293.68260000000004" y="410.6832600000001" width="80" height="6.65" fill="#c0c0c0" stroke="#000000" stroke-width="0.6"/>
  <rect x="296.8826" y="420.33326000000005" width="28.799999999999997" height="17.099999999999998" rx="4" fill="#e8e8e8" stroke="#000000" stroke-width="0.5"/>
  <line x1="311.2826" y1="421.33326000000005" x2="311.2826" y2="436.4332600000001" stroke="#000000" stroke-width="0.25"/>
  <rect x="341.68260000000004" y="420.33326000000005" width="28.799999999999997" height="17.099999999999998" rx="4" fill="#e8e8e8" stroke="#000000" stroke-width="0.5"/>
  <line x1="356.08260000000007" y1="421.33326000000005" x2="356.08260000000007" y2="436.4332600000001" stroke="#000000" stroke-width="0.25"/>
  <line x1="295.68260000000004" y1="448.6832600000001" x2="371.68260000000004" y2="448.6832600000001" stroke="#000000" stroke-width="0.4"/>
  <path d="M 297.68260000000004 448.6832600000001 Q 333.68260000000004 454.6832600000001 369.68260000000004 448.6832600000001" fill="none" stroke="#000000" stroke-width="0.3"/>
  <line x1="333.68260000000004" y1="451.6832600000001" x2="333.68260000000004" y2="503.6832600000001" stroke="#000000" stroke-width="0.2" stroke-dasharray="3 3"/>
  <rect x="274.68260000000004" y="410.6832600000001" width="16" height="16" fill="white" stroke="#000000" stroke-width="0.6"/>
  <circle cx="282.68260000000004" cy="418.6832600000001" r="3" fill="none" stroke="#000000" stroke-width="0.35"/>
  <rect x="376.68260000000004" y="410.6832600000001" width="16" height="16" fill="white" stroke="#000000" stroke-width="0.6"/>
  <circle cx="384.68260000000004" cy="418.6832600000001" r="3" fill="none" stroke="#000000" stroke-width="0.35"/>
  <rect x="241.17326000000006" y="641.3167400000001" width="185.01868" height="22" fill="white" stroke="#000000" stroke-width="0.7"/>
  <line x1="242.17326000000006" y1="642.3167400000001" x2="277.17699600000003" y2="662.3167400000001" stroke="#000000" stroke-width="0.3"/>
  <line x1="277.17699600000003" y1="642.3167400000001" x2="242.17326000000006" y2="662.3167400000001" stroke="#000000" stroke-width="0.3"/>
  <circle cx="257.67512800000003" cy="652.3167400000001" r="1" fill="#000000" stroke="none"/>
  <circle cx="261.67512800000003" cy="652.3167400000001" r="1" fill="#000000" stroke="none"/>
  <line x1="278.17699600000003" y1="641.3167400000001" x2="278.17699600000003" y2="663.3167400000001" stroke="#000000" stroke-width="0.5"/>
  <line x1="279.17699600000003" y1="642.3167400000001" x2="314.18073200000003" y2="662.3167400000001" stroke="#000000" stroke-width="0.3"/>
  <line x1="314.18073200000003" y1="642.3167400000001" x2="279.17699600000003" y2="662.3167400000001" stroke="#000000" stroke-width="0.3"/>
  <circle cx="294.67886400000003" cy="652.3167400000001" r="1" fill="#000000" stroke="none"/>
  <circle cx="298.67886400000003" cy="652.3167400000001" r="1" fill="#000000" stroke="none"/>
  <line x1="315.18073200000003" y1="641.3167400000001" x2="315.18073200000003" y2="663.3167400000001" stroke="#000000" stroke-width="0.5"/>
  <line x1="316.18073200000003" y1="642.3167400000001" x2="351.18446800000004" y2="662.3167400000001" stroke="#000000" stroke-width="0.3"/>
  <line x1="351.18446800000004" y1="642.3167400000001" x2="316.18073200000003" y2="662.3167400000001" stroke="#000000" stroke-width="0.3"/>
  <circle cx="331.68260000000004" cy="652.3167400000001" r="1" fill="#000000" stroke="none"/>
  <circle cx="335.68260000000004" cy="652.3167400000001" r="1" fill="#000000" stroke="none"/>
  <line x1="352.18446800000004" y1="641.3167400000001" x2="352.18446800000004" y2="663.3167400000001" stroke="#000000" stroke-width="0.5"/>
  <line x1="353.18446800000004" y1="642.3167400000001" x2="388.18820400000004" y2="662.3167400000001" stroke="#000000" stroke-width="0.3"/>
  <line x1="388.18820400000004" y1="642.3167400000001" x2="353.18446800000004" y2="662.3167400000001" stroke="#000000" stroke-width="0.3"/>
  <circle cx="368.68633600000004" cy="652.3167400000001" r="1" fill="#000000" stroke="none"/>
  <circle cx="372.68633600000004" cy="652.3167400000001" r="1" fill="#000000" stroke="none"/>
  <line x1="389.18820400000004" y1="641.3167400000001" x2="389.18820400000004" y2="663.3167400000001" stroke="#000000" stroke-width="0.5"/>
  <line x1="390.18820400000004" y1="642.3167400000001" x2="425.19194000000005" y2="662.3167400000001" stroke="#000000" stroke-width="0.3"/>
  <line x1="425.19194000000005" y1="642.3167400000001" x2="390.18820400000004" y2="662.3167400000001" stroke="#000000" stroke-width="0.3"/>
  <circle cx="405.69007200000004" cy="652.3167400000001" r="1" fill="#000000" stroke="none"/>
  <circle cx="409.69007200000004" cy="652.3167400000001" r="1" fill="#000000" stroke="none"/>
  <rect x="241.17326000000006" y="617.3167400000001" width="48" height="14" fill="white" stroke="#000000" stroke-width="0.6"/>
  <line x1="243.17326000000006" y1="624.3167400000001" x2="287.17326" y2="624.3167400000001" stroke="#000000" stroke-width="0.25"/>
  <circle cx="265.17326" cy="640.3167400000001" r="6" fill="none" stroke="#000000" stroke-width="0.5"/>
  <path d="M 259.17326 641.3167400000001 A 8 8 0 0 0 271.17326 641.3167400000001" fill="none" stroke="#000000" stroke-width="0.4"/>
  <text x="333.68260000000004" y="535" text-anchor="middle" font-family="'Arial Narrow', Arial, sans-serif" font-size="9" fill="#000" font-weight="bold">Phòng ngủ 1</text>
  <text x="333.68260000000004" y="547" text-anchor="middle" font-family="'Arial Narrow', Arial, sans-serif" font-size="7.5" fill="#333">16.1m²</text>
  <rect x="448.62776" y="395.62360000000007" width="245.87199999999999" height="282.7528" fill="white" stroke="none"/>
  <rect x="531.56376" y="412.8346400000001" width="80" height="95" fill="white" stroke="#000000" stroke-width="0.8"/>
  <rect x="531.56376" y="412.8346400000001" width="80" height="6.65" fill="#c0c0c0" stroke="#000000" stroke-width="0.6"/>
  <rect x="534.76376" y="422.48464000000007" width="28.799999999999997" height="17.099999999999998" rx="4" fill="#e8e8e8" stroke="#000000" stroke-width="0.5"/>
  <line x1="549.16376" y1="423.48464000000007" x2="549.16376" y2="438.5846400000001" stroke="#000000" stroke-width="0.25"/>
  <rect x="579.56376" y="422.48464000000007" width="28.799999999999997" height="17.099999999999998" rx="4" fill="#e8e8e8" stroke="#000000" stroke-width="0.5"/>
  <line x1="593.96376" y1="423.48464000000007" x2="593.96376" y2="438.5846400000001" stroke="#000000" stroke-width="0.25"/>
  <line x1="533.56376" y1="450.8346400000001" x2="609.56376" y2="450.8346400000001" stroke="#000000" stroke-width="0.4"/>
  <path d="M 535.56376 450.8346400000001 Q 571.56376 456.8346400000001 607.56376 450.8346400000001" fill="none" stroke="#000000" stroke-width="0.3"/>
  <line x1="571.56376" y1="453.8346400000001" x2="571.56376" y2="505.8346400000001" stroke="#000000" stroke-width="0.2" stroke-dasharray="3 3"/>
  <rect x="512.56376" y="412.8346400000001" width="16" height="16" fill="white" stroke="#000000" stroke-width="0.6"/>
  <circle cx="520.56376" cy="420.8346400000001" r="3" fill="none" stroke="#000000" stroke-width="0.35"/>
  <rect x="614.56376" y="412.8346400000001" width="16" height="16" fill="white" stroke="#000000" stroke-width="0.6"/>
  <circle cx="622.56376" cy="420.8346400000001" r="3" fill="none" stroke="#000000" stroke-width="0.35"/>
  <rect x="465.83880000000005" y="639.1653600000001" width="211.44992" height="22" fill="white" stroke="#000000" stroke-width="0.7"/>
  <line x1="466.83880000000005" y1="640.1653600000001" x2="507.12878400000005" y2="660.1653600000001" stroke="#000000" stroke-width="0.3"/>
  <line x1="507.12878400000005" y1="640.1653600000001" x2="466.83880000000005" y2="660.1653600000001" stroke="#000000" stroke-width="0.3"/>
  <circle cx="484.98379200000005" cy="650.1653600000001" r="1" fill="#000000" stroke="none"/>
  <circle cx="488.98379200000005" cy="650.1653600000001" r="1" fill="#000000" stroke="none"/>
  <line x1="508.12878400000005" y1="639.1653600000001" x2="508.12878400000005" y2="661.1653600000001" stroke="#000000" stroke-width="0.5"/>
  <line x1="509.12878400000005" y1="640.1653600000001" x2="549.418768" y2="660.1653600000001" stroke="#000000" stroke-width="0.3"/>
  <line x1="549.418768" y1="640.1653600000001" x2="509.12878400000005" y2="660.1653600000001" stroke="#000000" stroke-width="0.3"/>
  <circle cx="527.273776" cy="650.1653600000001" r="1" fill="#000000" stroke="none"/>
  <circle cx="531.273776" cy="650.1653600000001" r="1" fill="#000000" stroke="none"/>
  <line x1="550.418768" y1="639.1653600000001" x2="550.418768" y2="661.1653600000001" stroke="#000000" stroke-width="0.5"/>
  <line x1="551.418768" y1="640.1653600000001" x2="591.708752" y2="660.1653600000001" stroke="#000000" stroke-width="0.3"/>
  <line x1="591.708752" y1="640.1653600000001" x2="551.418768" y2="660.1653600000001" stroke="#000000" stroke-width="0.3"/>
  <circle cx="569.56376" cy="650.1653600000001" r="1" fill="#000000" stroke="none"/>
  <circle cx="573.56376" cy="650.1653600000001" r="1" fill="#000000" stroke="none"/>
  <line x1="592.708752" y1="639.1653600000001" x2="592.708752" y2="661.1653600000001" stroke="#000000" stroke-width="0.5"/>
  <line x1="593.708752" y1="640.1653600000001" x2="633.998736" y2="660.1653600000001" stroke="#000000" stroke-width="0.3"/>
  <line x1="633.998736" y1="640.1653600000001" x2="593.708752" y2="660.1653600000001" stroke="#000000" stroke-width="0.3"/>
  <circle cx="611.853744" cy="650.1653600000001" r="1" fill="#000000" stroke="none"/>
  <circle cx="615.853744" cy="650.1653600000001" r="1" fill="#000000" stroke="none"/>
  <line x1="634.998736" y1="639.1653600000001" x2="634.998736" y2="661.1653600000001" stroke="#000000" stroke-width="0.5"/>
  <line x1="635.998736" y1="640.1653600000001" x2="676.28872" y2="660.1653600000001" stroke="#000000" stroke-width="0.3"/>
  <line x1="676.28872" y1="640.1653600000001" x2="635.998736" y2="660.1653600000001" stroke="#000000" stroke-width="0.3"/>
  <circle cx="654.143728" cy="650.1653600000001" r="1" fill="#000000" stroke="none"/>
  <circle cx="658.143728" cy="650.1653600000001" r="1" fill="#000000" stroke="none"/>
  <rect x="465.83880000000005" y="615.1653600000001" width="48" height="14" fill="white" stroke="#000000" stroke-width="0.6"/>
  <line x1="467.83880000000005" y1="622.1653600000001" x2="511.8388" y2="622.1653600000001" stroke="#000000" stroke-width="0.25"/>
  <circle cx="489.83880000000005" cy="638.1653600000001" r="6" fill="none" stroke="#000000" stroke-width="0.5"/>
  <path d="M 483.83880000000005 639.1653600000001 A 8 8 0 0 0 495.83880000000005 639.1653600000001" fill="none" stroke="#000000" stroke-width="0.4"/>
  <text x="571.56376" y="535" text-anchor="middle" font-family="'Arial Narrow', Arial, sans-serif" font-size="9" fill="#000" font-weight="bold">Phòng ngủ 2</text>
  <text x="571.56376" y="547" text-anchor="middle" font-family="'Arial Narrow', Arial, sans-serif" font-size="7.5" fill="#333">18.4m²</text>
  <rect x="701.8759200000001" y="395.62360000000007" width="221.2848" height="282.7528" fill="white" stroke="none"/>
  <rect x="772.51832" y="411.11353600000007" width="80" height="95" fill="white" stroke="#000000" stroke-width="0.8"/>
  <rect x="772.51832" y="411.11353600000007" width="80" height="6.65" fill="#c0c0c0" stroke="#000000" stroke-width="0.6"/>
  <rect x="775.7183200000001" y="420.76353600000004" width="28.799999999999997" height="17.099999999999998" rx="4" fill="#e8e8e8" stroke="#000000" stroke-width="0.5"/>
  <line x1="790.11832" y1="421.76353600000004" x2="790.11832" y2="436.86353600000007" stroke="#000000" stroke-width="0.25"/>
  <rect x="820.51832" y="420.76353600000004" width="28.799999999999997" height="17.099999999999998" rx="4" fill="#e8e8e8" stroke="#000000" stroke-width="0.5"/>
  <line x1="834.91832" y1="421.76353600000004" x2="834.91832" y2="436.86353600000007" stroke="#000000" stroke-width="0.25"/>
  <line x1="774.51832" y1="449.11353600000007" x2="850.51832" y2="449.11353600000007" stroke="#000000" stroke-width="0.4"/>
  <path d="M 776.51832 449.11353600000007 Q 812.51832 455.11353600000007 848.51832 449.11353600000007" fill="none" stroke="#000000" stroke-width="0.3"/>
  <line x1="812.51832" y1="452.11353600000007" x2="812.51832" y2="504.11353600000007" stroke="#000000" stroke-width="0.2" stroke-dasharray="3 3"/>
  <rect x="753.51832" y="411.11353600000007" width="16" height="16" fill="white" stroke="#000000" stroke-width="0.6"/>
  <circle cx="761.51832" cy="419.11353600000007" r="3" fill="none" stroke="#000000" stroke-width="0.35"/>
  <rect x="855.51832" y="411.11353600000007" width="16" height="16" fill="white" stroke="#000000" stroke-width="0.6"/>
  <circle cx="863.51832" cy="419.11353600000007" r="3" fill="none" stroke="#000000" stroke-width="0.35"/>
  <rect x="717.3658560000001" y="640.886464" width="190.304928" height="22" fill="white" stroke="#000000" stroke-width="0.7"/>
  <line x1="718.3658560000001" y1="641.886464" x2="754.4268416000001" y2="661.886464" stroke="#000000" stroke-width="0.3"/>
  <line x1="754.4268416000001" y1="641.886464" x2="718.3658560000001" y2="661.886464" stroke="#000000" stroke-width="0.3"/>
  <circle cx="734.3963488000002" cy="651.886464" r="1" fill="#000000" stroke="none"/>
  <circle cx="738.3963488000002" cy="651.886464" r="1" fill="#000000" stroke="none"/>
  <line x1="755.4268416000001" y1="640.886464" x2="755.4268416000001" y2="662.886464" stroke="#000000" stroke-width="0.5"/>
  <line x1="756.4268416000001" y1="641.886464" x2="792.4878272000001" y2="661.886464" stroke="#000000" stroke-width="0.3"/>
  <line x1="792.4878272000001" y1="641.886464" x2="756.4268416000001" y2="661.886464" stroke="#000000" stroke-width="0.3"/>
  <circle cx="772.4573344000001" cy="651.886464" r="1" fill="#000000" stroke="none"/>
  <circle cx="776.4573344000001" cy="651.886464" r="1" fill="#000000" stroke="none"/>
  <line x1="793.4878272000001" y1="640.886464" x2="793.4878272000001" y2="662.886464" stroke="#000000" stroke-width="0.5"/>
  <line x1="794.4878272000001" y1="641.886464" x2="830.5488128000001" y2="661.886464" stroke="#000000" stroke-width="0.3"/>
  <line x1="830.5488128000001" y1="641.886464" x2="794.4878272000001" y2="661.886464" stroke="#000000" stroke-width="0.3"/>
  <circle cx="810.5183200000001" cy="651.886464" r="1" fill="#000000" stroke="none"/>
  <circle cx="814.5183200000001" cy="651.886464" r="1" fill="#000000" stroke="none"/>
  <line x1="831.5488128000001" y1="640.886464" x2="831.5488128000001" y2="662.886464" stroke="#000000" stroke-width="0.5"/>
  <line x1="832.5488128000001" y1="641.886464" x2="868.6097984" y2="661.886464" stroke="#000000" stroke-width="0.3"/>
  <line x1="868.6097984" y1="641.886464" x2="832.5488128000001" y2="661.886464" stroke="#000000" stroke-width="0.3"/>
  <circle cx="848.5793056000001" cy="651.886464" r="1" fill="#000000" stroke="none"/>
  <circle cx="852.5793056000001" cy="651.886464" r="1" fill="#000000" stroke="none"/>
  <line x1="869.6097984" y1="640.886464" x2="869.6097984" y2="662.886464" stroke="#000000" stroke-width="0.5"/>
  <line x1="870.6097984" y1="641.886464" x2="906.670784" y2="661.886464" stroke="#000000" stroke-width="0.3"/>
  <line x1="906.670784" y1="641.886464" x2="870.6097984" y2="661.886464" stroke="#000000" stroke-width="0.3"/>
  <circle cx="886.6402912000001" cy="651.886464" r="1" fill="#000000" stroke="none"/>
  <circle cx="890.6402912000001" cy="651.886464" r="1" fill="#000000" stroke="none"/>
  <rect x="717.3658560000001" y="616.886464" width="48" height="14" fill="white" stroke="#000000" stroke-width="0.6"/>
  <line x1="719.3658560000001" y1="623.886464" x2="763.3658560000001" y2="623.886464" stroke="#000000" stroke-width="0.25"/>
  <circle cx="741.3658560000001" cy="639.886464" r="6" fill="none" stroke="#000000" stroke-width="0.5"/>
  <path d="M 735.3658560000001 640.886464 A 8 8 0 0 0 747.3658560000001 640.886464" fill="none" stroke="#000000" stroke-width="0.4"/>
  <text x="812.51832" y="535" text-anchor="middle" font-family="'Arial Narrow', Arial, sans-serif" font-size="9" fill="#000" font-weight="bold">Phòng ngủ 3</text>
  <text x="812.51832" y="547" text-anchor="middle" font-family="'Arial Narrow', Arial, sans-serif" font-size="7.5" fill="#333">16.6m²</text>
  <rect x="930.53688" y="395.62360000000007" width="122.93599999999999" height="282.7528" fill="white" stroke="none"/>
  <rect x="939.1424" y="404.2291200000001" width="38" height="22" rx="1" fill="white" stroke="#000000" stroke-width="0.7"/>
  <ellipse cx="958.1424" cy="416.3291200000001" rx="12.920000000000002" ry="7.48" fill="none" stroke="#000000" stroke-width="0.5"/>
  <circle cx="958.1424" cy="416.3291200000001" r="1.5" fill="#000000" stroke="none"/>
  <circle cx="958.1424" cy="407.5291200000001" r="2.2" fill="#000000" stroke="none"/>
  <line x1="958.1424" y1="409.7291200000001" x2="958.1424" y2="411.2691200000001" stroke="#000000" stroke-width="0.6"/>
  <rect x="944.8424" y="397.62912000000006" width="26.599999999999998" height="5.5" fill="none" stroke="#000000" stroke-width="0.3" stroke-dasharray="2 1"/>
  <rect x="1018.46736" y="629.77088" width="22.8" height="8.8" rx="2" fill="white" stroke="#000000" stroke-width="0.7"/>
  <circle cx="1027.4673599999999" cy="634.17088" r="1.8" fill="none" stroke="#000000" stroke-width="0.4"/>
  <circle cx="1032.26736" cy="634.17088" r="1.8" fill="none" stroke="#000000" stroke-width="0.4"/>
  <ellipse cx="1029.86736" cy="654.57088" rx="13.8" ry="14.399999999999999" fill="white" stroke="#000000" stroke-width="0.7"/>
  <ellipse cx="1029.86736" cy="653.77088" rx="10.200000000000001" ry="10.8" fill="none" stroke="#000000" stroke-width="0.4"/>
  <line x1="1022.36736" y1="639.57088" x2="1037.36736" y2="639.57088" stroke="#000000" stroke-width="0.4"/>
  <rect x="939.1424" y="431.2291200000001" width="40.1754848" height="72" rx="4" fill="white" stroke="#000000" stroke-width="0.8"/>
  <rect x="942.1424" y="434.2291200000001" width="34.1754848" height="66" rx="3" fill="none" stroke="#000000" stroke-width="0.4"/>
  <circle cx="959.2301424" cy="493.2291200000001" r="2.5" fill="none" stroke="#000000" stroke-width="0.5"/>
  <circle cx="959.2301424" cy="493.2291200000001" r="0.8" fill="#000000" stroke="none"/>
  <circle cx="953.2038196799999" cy="439.2291200000001" r="2.5" fill="none" stroke="#000000" stroke-width="0.5"/>
  <circle cx="965.2564651199999" cy="439.2291200000001" r="2.5" fill="none" stroke="#000000" stroke-width="0.5"/>
  <line x1="977.3178848" y1="452.8291200000001" x2="977.3178848" y2="481.62912000000006" stroke="#000000" stroke-width="0.6"/>
  <rect x="989.00488" y="573.831264" width="6" height="6" fill="none" stroke="#000000" stroke-width="0.4"/>
  <line x1="989.00488" y1="573.831264" x2="995.00488" y2="579.831264" stroke="#000000" stroke-width="0.3"/>
  <line x1="995.00488" y1="573.831264" x2="989.00488" y2="579.831264" stroke="#000000" stroke-width="0.3"/>
  <text x="992.00488" y="535" text-anchor="middle" font-family="'Arial Narrow', Arial, sans-serif" font-size="9" fill="#000" font-weight="bold">WC 1</text>
  <text x="992.00488" y="547" text-anchor="middle" font-family="'Arial Narrow', Arial, sans-serif" font-size="7.5" fill="#333">9.2m²</text>
  <path d="M 942.53688 664.3764000000001 L 936.53688 670.3764000000001 L 948.53688 670.3764000000001 Z" fill="#000" stroke="none"/>
  <text x="951.53688" y="672.3764000000001" font-family="'Arial Narrow', Arial, sans-serif" font-size="8" fill="#000">+0.050</text>
  <rect x="1060.84904" y="395.62360000000007" width="370.03736" height="282.7528" fill="white" stroke="none"/>
  <rect x="1080.641736" y="415.41629600000005" width="38" height="22" rx="1" fill="white" stroke="#000000" stroke-width="0.7"/>
  <ellipse cx="1099.641736" cy="427.51629600000007" rx="12.920000000000002" ry="7.48" fill="none" stroke="#000000" stroke-width="0.5"/>
  <circle cx="1099.641736" cy="427.51629600000007" r="1.5" fill="#000000" stroke="none"/>
  <circle cx="1099.641736" cy="418.71629600000006" r="2.2" fill="#000000" stroke="none"/>
  <line x1="1099.641736" y1="420.91629600000005" x2="1099.641736" y2="422.45629600000007" stroke="#000000" stroke-width="0.6"/>
  <rect x="1086.341736" y="408.816296" width="26.599999999999998" height="5.5" fill="none" stroke="#000000" stroke-width="0.3" stroke-dasharray="2 1"/>
  <rect x="1384.6937039999998" y="618.583704" width="22.8" height="8.8" rx="2" fill="white" stroke="#000000" stroke-width="0.7"/>
  <circle cx="1393.6937039999998" cy="622.983704" r="1.8" fill="none" stroke="#000000" stroke-width="0.4"/>
  <circle cx="1398.493704" cy="622.983704" r="1.8" fill="none" stroke="#000000" stroke-width="0.4"/>
  <ellipse cx="1396.093704" cy="643.383704" rx="13.8" ry="14.399999999999999" fill="white" stroke="#000000" stroke-width="0.7"/>
  <ellipse cx="1396.093704" cy="642.583704" rx="10.200000000000001" ry="10.8" fill="none" stroke="#000000" stroke-width="0.4"/>
  <line x1="1388.593704" y1="628.383704" x2="1403.593704" y2="628.383704" stroke="#000000" stroke-width="0.4"/>
  <rect x="1080.641736" y="442.41629600000005" width="42" height="72" rx="4" fill="white" stroke="#000000" stroke-width="0.8"/>
  <rect x="1083.641736" y="445.41629600000005" width="36" height="66" rx="3" fill="none" stroke="#000000" stroke-width="0.4"/>
  <circle cx="1101.641736" cy="504.4162960000001" r="2.5" fill="none" stroke="#000000" stroke-width="0.5"/>
  <circle cx="1101.641736" cy="504.4162960000001" r="0.8" fill="#000000" stroke="none"/>
  <circle cx="1095.341736" cy="450.41629600000005" r="2.5" fill="none" stroke="#000000" stroke-width="0.5"/>
  <circle cx="1107.941736" cy="450.41629600000005" r="2.5" fill="none" stroke="#000000" stroke-width="0.5"/>
  <line x1="1120.641736" y1="464.01629600000007" x2="1120.641736" y2="492.816296" stroke="#000000" stroke-width="0.6"/>
  <rect x="1242.86772" y="570.4751112" width="6" height="6" fill="none" stroke="#000000" stroke-width="0.4"/>
  <line x1="1242.86772" y1="570.4751112" x2="1248.86772" y2="576.4751112" stroke="#000000" stroke-width="0.3"/>
  <line x1="1248.86772" y1="570.4751112" x2="1242.86772" y2="576.4751112" stroke="#000000" stroke-width="0.3"/>
  <text x="1245.86772" y="535" text-anchor="middle" font-family="'Arial Narrow', Arial, sans-serif" font-size="9" fill="#000" font-weight="bold">WC 5</text>
  <text x="1245.86772" y="547" text-anchor="middle" font-family="'Arial Narrow', Arial, sans-serif" font-size="7.5" fill="#333">27.7m²</text>
  <path d="M 1072.84904 664.3764000000001 L 1066.84904 670.3764000000001 L 1078.84904 670.3764000000001 Z" fill="#000" stroke="none"/>
  <text x="1081.84904" y="672.3764000000001" font-family="'Arial Narrow', Arial, sans-serif" font-size="8" fill="#000">+0.050</text>
  <rect x="722.16036" y="395.62360000000007" width="201.00036" height="282.7528" fill="white" stroke="none"/>
  <rect x="722.16036" y="395.62360000000007" width="201.00036" height="282.7528" fill="white" stroke="#000000" stroke-width="1"/>
  <line x1="722.16036" y1="395.62360000000007" x2="923.16072" y2="678.3764000000001" stroke="#000000" stroke-width="0.6"/>
  <line x1="923.16072" y1="395.62360000000007" x2="722.16036" y2="678.3764000000001" stroke="#000000" stroke-width="0.6"/>
  <text x="822.66054" y="541" text-anchor="middle" font-family="'Arial Narrow', Arial, sans-serif" font-size="7" fill="#000000">THÔNG TẦNG</text>
  <text x="822.66054" y="535" text-anchor="middle" font-family="'Arial Narrow', Arial, sans-serif" font-size="9" fill="#000" font-weight="bold">Cầu thang</text>
  <text x="822.66054" y="547" text-anchor="middle" font-family="'Arial Narrow', Arial, sans-serif" font-size="7.5" fill="#333">15.0m²</text>
  <polygon points="207.67,383.33 207.67,690.67 219.97,690.67 219.97,383.33" fill="url(#hatch-ext)" stroke="#000" stroke-width="1.4"/>
  <line x1="207.67320000000004" y1="383.33000000000004" x2="207.67320000000004" y2="690.6700000000001" stroke="#000" stroke-width="1.5" stroke-linecap="square"/>
  <line x1="219.96680000000006" y1="383.33000000000004" x2="219.96680000000006" y2="690.6700000000001" stroke="#000" stroke-width="1.5" stroke-linecap="square"/>
  <polygon points="1437.03,383.33 1437.03,690.67 1449.33,690.67 1449.33,383.33" fill="url(#hatch-ext)" stroke="#000" stroke-width="1.4"/>
  <line x1="1437.0331999999999" y1="383.33000000000004" x2="1437.0331999999999" y2="690.6700000000001" stroke="#000" stroke-width="1.5" stroke-linecap="square"/>
  <line x1="1449.3267999999998" y1="383.33000000000004" x2="1449.3267999999998" y2="690.6700000000001" stroke="#000" stroke-width="1.5" stroke-linecap="square"/>
  <polygon points="213.82,389.48 1443.18,389.48 1443.18,377.18 213.82,377.18" fill="url(#hatch-ext)" stroke="#000" stroke-width="1.4"/>
  <line x1="213.82000000000005" y1="389.4768" x2="1443.1799999999998" y2="389.4768" stroke="#000" stroke-width="1.5" stroke-linecap="square"/>
  <line x1="213.82000000000005" y1="377.18320000000006" x2="1443.1799999999998" y2="377.18320000000006" stroke="#000" stroke-width="1.5" stroke-linecap="square"/>
  <polygon points="213.82,696.82 1443.18,696.82 1443.18,684.52 213.82,684.52" fill="url(#hatch-ext)" stroke="#000" stroke-width="1.4"/>
  <line x1="213.82000000000005" y1="696.8168000000001" x2="1443.1799999999998" y2="696.8168000000001" stroke="#000" stroke-width="1.5" stroke-linecap="square"/>
  <line x1="213.82000000000005" y1="684.5232000000001" x2="1443.1799999999998" y2="684.5232000000001" stroke="#000" stroke-width="1.5" stroke-linecap="square"/>
  <polygon points="437.56,395.62 437.56,678.38 444.94,678.38 444.94,395.62" fill="url(#hatch-int)" stroke="#000" stroke-width="0.7"/>
  <line x1="437.56352000000004" y1="395.62360000000007" x2="437.56352000000004" y2="678.3764" stroke="#000" stroke-width="0.8" stroke-linecap="square"/>
  <line x1="444.93968000000007" y1="395.62360000000007" x2="444.93968000000007" y2="678.3764" stroke="#000" stroke-width="0.8" stroke-linecap="square"/>
  <polygon points="690.81,395.62 690.81,678.38 698.19,678.38 698.19,395.62" fill="url(#hatch-int)" stroke="#000" stroke-width="0.7"/>
  <line x1="690.81168" y1="395.62360000000007" x2="690.81168" y2="678.3764" stroke="#000" stroke-width="0.8" stroke-linecap="square"/>
  <line x1="698.18784" y1="395.62360000000007" x2="698.18784" y2="678.3764" stroke="#000" stroke-width="0.8" stroke-linecap="square"/>
  <polygon points="919.47,395.62 919.47,678.38 926.85,678.38 926.85,395.62" fill="url(#hatch-int)" stroke="#000" stroke-width="0.7"/>
  <line x1="919.47264" y1="395.62360000000007" x2="919.47264" y2="678.3764" stroke="#000" stroke-width="0.8" stroke-linecap="square"/>
  <line x1="926.8488" y1="395.62360000000007" x2="926.8488" y2="678.3764" stroke="#000" stroke-width="0.8" stroke-linecap="square"/>
  <polygon points="1049.78,395.62 1049.78,678.38 1057.16,678.38 1057.16,395.62" fill="url(#hatch-int)" stroke="#000" stroke-width="0.7"/>
  <line x1="1049.7848000000001" y1="395.62360000000007" x2="1049.7848000000001" y2="678.3764" stroke="#000" stroke-width="0.8" stroke-linecap="square"/>
  <line x1="1057.16096" y1="395.62360000000007" x2="1057.16096" y2="678.3764" stroke="#000" stroke-width="0.8" stroke-linecap="square"/>
  <polygon points="919.47,395.62 919.47,678.38 926.85,678.38 926.85,395.62" fill="url(#hatch-int)" stroke="#000" stroke-width="0.7"/>
  <line x1="919.47264" y1="395.62360000000007" x2="919.47264" y2="678.3764" stroke="#000" stroke-width="0.8" stroke-linecap="square"/>
  <line x1="926.8488" y1="395.62360000000007" x2="926.8488" y2="678.3764" stroke="#000" stroke-width="0.8" stroke-linecap="square"/>
  <polygon points="206.17,568.73 206.17,505.27 221.47,505.27 221.47,568.73" fill="white" stroke="none"/>
  <polygon points="436.06,565.66 436.06,508.34 446.44,508.34 446.44,565.66" fill="white" stroke="none"/>
  <polygon points="689.31,565.66 689.31,508.34 699.69,508.34 699.69,565.66" fill="white" stroke="none"/>
  <polygon points="917.97,565.66 917.97,508.34 928.35,508.34 928.35,565.66" fill="white" stroke="none"/>
  <rect x="212.82000000000005" y="483.2522" width="75.76159999999999" height="15.2936" fill="white" stroke="none"/>
  <line x1="213.82000000000005" y1="487.899" x2="287.58160000000004" y2="487.899" stroke="#000000" stroke-width="2"/>
  <line x1="213.82000000000005" y1="493.899" x2="287.58160000000004" y2="493.899" stroke="#000000" stroke-width="2"/>
  <line x1="213.82000000000005" y1="487.899" x2="213.82000000000005" y2="493.899" stroke="#000000" stroke-width="1"/>
  <line x1="287.58160000000004" y1="487.899" x2="287.58160000000004" y2="493.899" stroke="#000000" stroke-width="1"/>
  <line x1="213.82000000000005" y1="487.899" x2="287.58160000000004" y2="493.899" stroke="#000000" stroke-width="0.5"/>
  <line x1="287.58160000000004" y1="487.899" x2="213.82000000000005" y2="493.899" stroke="#000000" stroke-width="0.5"/>
  <rect x="240.70080000000004" y="468.899" width="20" height="12" rx="2" fill="white" stroke="#000" stroke-width="0.5"/>
  <text x="250.70080000000004" y="478.899" text-anchor="middle" font-family="'Arial Narrow', Arial, sans-serif" font-size="7" fill="#000">S1</text>
  <line x1="213.82000000000005" y1="506.266" x2="275.28800000000007" y2="506.266" stroke="#000000" stroke-width="2"/>
  <line x1="213.82000000000005" y1="506.266" x2="213.82000000000005" y2="567.734" stroke="#000000" stroke-width="0.8"/>
  <path d="M 213.82000000000005 567.734 A 61.467999999999996 61.467999999999996 0 0 1 275.28800000000007 506.266" fill="none" stroke="#000000" stroke-width="0.7"/>
  <rect x="234.55400000000006" y="486.266" width="20" height="12" rx="2" fill="white" stroke="#000" stroke-width="0.5"/>
  <text x="244.55400000000006" y="496.266" text-anchor="middle" font-family="'Arial Narrow', Arial, sans-serif" font-size="7" fill="#000">D1</text>
  <line x1="441.25160000000005" y1="509.3394" x2="496.57280000000003" y2="509.3394" stroke="#000000" stroke-width="2"/>
  <line x1="496.57280000000003" y1="509.3394" x2="496.57280000000003" y2="564.6606" stroke="#000000" stroke-width="0.8"/>
  <path d="M 496.57280000000003 564.6606 A 55.3212 55.3212 0 0 0 441.25160000000005 509.3394" fill="none" stroke="#000000" stroke-width="0.7"/>
  <rect x="458.91220000000004" y="489.3394" width="20" height="12" rx="2" fill="white" stroke="#000" stroke-width="0.5"/>
  <text x="468.91220000000004" y="499.3394" text-anchor="middle" font-family="'Arial Narrow', Arial, sans-serif" font-size="7" fill="#000">D2</text>
  <line x1="694.49976" y1="509.3394" x2="749.82096" y2="509.3394" stroke="#000000" stroke-width="2"/>
  <line x1="694.49976" y1="509.3394" x2="694.49976" y2="564.6606" stroke="#000000" stroke-width="0.8"/>
  <path d="M 694.49976 564.6606 A 55.3212 55.3212 0 0 1 749.82096 509.3394" fill="none" stroke="#000000" stroke-width="0.7"/>
  <rect x="712.1603600000001" y="489.3394" width="20" height="12" rx="2" fill="white" stroke="#000" stroke-width="0.5"/>
  <text x="722.1603600000001" y="499.3394" text-anchor="middle" font-family="'Arial Narrow', Arial, sans-serif" font-size="7" fill="#000">D3</text>
  <line x1="923.16072" y1="509.3394" x2="978.48192" y2="509.3394" stroke="#000000" stroke-width="2"/>
  <line x1="923.16072" y1="509.3394" x2="923.16072" y2="564.6606" stroke="#000000" stroke-width="0.8"/>
  <path d="M 923.16072 564.6606 A 55.3212 55.3212 0 0 1 978.48192 509.3394" fill="none" stroke="#000000" stroke-width="0.7"/>
  <rect x="940.82132" y="489.3394" width="20" height="12" rx="2" fill="white" stroke="#000" stroke-width="0.5"/>
  <text x="950.82132" y="499.3394" text-anchor="middle" font-family="'Arial Narrow', Arial, sans-serif" font-size="7" fill="#000">D4</text>
  <circle cx="1473.1799999999998" cy="413.33000000000004" r="16" fill="white" stroke="#000" stroke-width="1"/>
  <path d="M 1473.1799999999998 400.33000000000004 L 1468.1799999999998 413.33000000000004 L 1473.1799999999998 408.33000000000004 L 1478.1799999999998 413.33000000000004 Z" fill="#000" stroke="none"/>
  <path d="M 1473.1799999999998 426.33000000000004 L 1468.1799999999998 413.33000000000004 L 1473.1799999999998 418.33000000000004 L 1478.1799999999998 413.33000000000004 Z" fill="white" stroke="#000" stroke-width="0.6"/>
  <text x="1473.1799999999998" y="393.33000000000004" text-anchor="middle" font-family="'Arial Narrow', Arial, sans-serif" font-size="9" fill="#000" font-weight="bold">N</text>
  <rect x="213.82000000000005" y="383.33000000000004" width="1229.36" height="307.34" fill="none" stroke="#000000" stroke-width="2"/>
  <line x1="213.82000000000005" y1="692.6700000000001" x2="213.82000000000005" y2="712.6700000000001" stroke="#000000" stroke-width="0.35"/>
  <line x1="226.11360000000005" y1="692.6700000000001" x2="226.11360000000005" y2="712.6700000000001" stroke="#000000" stroke-width="0.35"/>
  <line x1="213.82000000000005" y1="710.6700000000001" x2="226.11360000000005" y2="710.6700000000001" stroke="#000000" stroke-width="0.5"/>
  <line x1="211.82000000000005" y1="714.6700000000001" x2="215.82000000000005" y2="706.6700000000001" stroke="#000000" stroke-width="0.8"/>
  <line x1="224.11360000000005" y1="714.6700000000001" x2="228.11360000000005" y2="706.6700000000001" stroke="#000000" stroke-width="0.8"/>
  <text x="219.96680000000003" y="705.6700000000001" text-anchor="middle" font-family="'Arial Narrow', Arial, sans-serif" font-size="10" fill="#000000">200</text>
  <line x1="226.11360000000005" y1="692.6700000000001" x2="226.11360000000005" y2="712.6700000000001" stroke="#000000" stroke-width="0.35"/>
  <line x1="441.25160000000005" y1="692.6700000000001" x2="441.25160000000005" y2="712.6700000000001" stroke="#000000" stroke-width="0.35"/>
  <line x1="226.11360000000005" y1="710.6700000000001" x2="441.25160000000005" y2="710.6700000000001" stroke="#000000" stroke-width="0.5"/>
  <line x1="224.11360000000005" y1="714.6700000000001" x2="228.11360000000005" y2="706.6700000000001" stroke="#000000" stroke-width="0.8"/>
  <line x1="439.25160000000005" y1="714.6700000000001" x2="443.25160000000005" y2="706.6700000000001" stroke="#000000" stroke-width="0.8"/>
  <text x="333.68260000000004" y="705.6700000000001" text-anchor="middle" font-family="'Arial Narrow', Arial, sans-serif" font-size="10" fill="#000000">3500</text>
  <line x1="441.25160000000005" y1="692.6700000000001" x2="441.25160000000005" y2="712.6700000000001" stroke="#000000" stroke-width="0.35"/>
  <line x1="448.62776" y1="692.6700000000001" x2="448.62776" y2="712.6700000000001" stroke="#000000" stroke-width="0.35"/>
  <line x1="441.25160000000005" y1="710.6700000000001" x2="448.62776" y2="710.6700000000001" stroke="#000000" stroke-width="0.5"/>
  <line x1="439.25160000000005" y1="714.6700000000001" x2="443.25160000000005" y2="706.6700000000001" stroke="#000000" stroke-width="0.8"/>
  <line x1="446.62776" y1="714.6700000000001" x2="450.62776" y2="706.6700000000001" stroke="#000000" stroke-width="0.8"/>
  <text x="444.93968000000007" y="705.6700000000001" text-anchor="middle" font-family="'Arial Narrow', Arial, sans-serif" font-size="10" fill="#000000">120</text>
  <line x1="448.62776" y1="692.6700000000001" x2="448.62776" y2="712.6700000000001" stroke="#000000" stroke-width="0.35"/>
  <line x1="694.49976" y1="692.6700000000001" x2="694.49976" y2="712.6700000000001" stroke="#000000" stroke-width="0.35"/>
  <line x1="448.62776" y1="710.6700000000001" x2="694.49976" y2="710.6700000000001" stroke="#000000" stroke-width="0.5"/>
  <line x1="446.62776" y1="714.6700000000001" x2="450.62776" y2="706.6700000000001" stroke="#000000" stroke-width="0.8"/>
  <line x1="692.49976" y1="714.6700000000001" x2="696.49976" y2="706.6700000000001" stroke="#000000" stroke-width="0.8"/>
  <text x="571.56376" y="705.6700000000001" text-anchor="middle" font-family="'Arial Narrow', Arial, sans-serif" font-size="10" fill="#000000">4000</text>
  <line x1="694.49976" y1="692.6700000000001" x2="694.49976" y2="712.6700000000001" stroke="#000000" stroke-width="0.35"/>
  <line x1="701.8759200000001" y1="692.6700000000001" x2="701.8759200000001" y2="712.6700000000001" stroke="#000000" stroke-width="0.35"/>
  <line x1="694.49976" y1="710.6700000000001" x2="701.8759200000001" y2="710.6700000000001" stroke="#000000" stroke-width="0.5"/>
  <line x1="692.49976" y1="714.6700000000001" x2="696.49976" y2="706.6700000000001" stroke="#000000" stroke-width="0.8"/>
  <line x1="699.8759200000001" y1="714.6700000000001" x2="703.8759200000001" y2="706.6700000000001" stroke="#000000" stroke-width="0.8"/>
  <text x="698.18784" y="705.6700000000001" text-anchor="middle" font-family="'Arial Narrow', Arial, sans-serif" font-size="10" fill="#000000">120</text>
  <line x1="701.8759200000001" y1="692.6700000000001" x2="701.8759200000001" y2="712.6700000000001" stroke="#000000" stroke-width="0.35"/>
  <line x1="722.16036" y1="692.6700000000001" x2="722.16036" y2="712.6700000000001" stroke="#000000" stroke-width="0.35"/>
  <line x1="701.8759200000001" y1="710.6700000000001" x2="722.16036" y2="710.6700000000001" stroke="#000000" stroke-width="0.5"/>
  <line x1="699.8759200000001" y1="714.6700000000001" x2="703.8759200000001" y2="706.6700000000001" stroke="#000000" stroke-width="0.8"/>
  <line x1="720.16036" y1="714.6700000000001" x2="724.16036" y2="706.6700000000001" stroke="#000000" stroke-width="0.8"/>
  <text x="712.01814" y="705.6700000000001" text-anchor="middle" font-family="'Arial Narrow', Arial, sans-serif" font-size="10" fill="#000000">330</text>
  <line x1="722.16036" y1="692.6700000000001" x2="722.16036" y2="712.6700000000001" stroke="#000000" stroke-width="0.35"/>
  <line x1="923.16072" y1="692.6700000000001" x2="923.16072" y2="712.6700000000001" stroke="#000000" stroke-width="0.35"/>
  <line x1="722.16036" y1="710.6700000000001" x2="923.16072" y2="710.6700000000001" stroke="#000000" stroke-width="0.5"/>
  <line x1="720.16036" y1="714.6700000000001" x2="724.16036" y2="706.6700000000001" stroke="#000000" stroke-width="0.8"/>
  <line x1="921.16072" y1="714.6700000000001" x2="925.16072" y2="706.6700000000001" stroke="#000000" stroke-width="0.8"/>
  <text x="822.66054" y="705.6700000000001" text-anchor="middle" font-family="'Arial Narrow', Arial, sans-serif" font-size="10" fill="#000000">3270</text>
  <line x1="923.16072" y1="692.6700000000001" x2="923.16072" y2="712.6700000000001" stroke="#000000" stroke-width="0.35"/>
  <line x1="930.53688" y1="692.6700000000001" x2="930.53688" y2="712.6700000000001" stroke="#000000" stroke-width="0.35"/>
  <line x1="923.16072" y1="710.6700000000001" x2="930.53688" y2="710.6700000000001" stroke="#000000" stroke-width="0.5"/>
  <line x1="921.16072" y1="714.6700000000001" x2="925.16072" y2="706.6700000000001" stroke="#000000" stroke-width="0.8"/>
  <line x1="928.53688" y1="714.6700000000001" x2="932.53688" y2="706.6700000000001" stroke="#000000" stroke-width="0.8"/>
  <text x="926.8488" y="705.6700000000001" text-anchor="middle" font-family="'Arial Narrow', Arial, sans-serif" font-size="10" fill="#000000">120</text>
  <line x1="930.53688" y1="692.6700000000001" x2="930.53688" y2="712.6700000000001" stroke="#000000" stroke-width="0.35"/>
  <line x1="1053.47288" y1="692.6700000000001" x2="1053.47288" y2="712.6700000000001" stroke="#000000" stroke-width="0.35"/>
  <line x1="930.53688" y1="710.6700000000001" x2="1053.47288" y2="710.6700000000001" stroke="#000000" stroke-width="0.5"/>
  <line x1="928.53688" y1="714.6700000000001" x2="932.53688" y2="706.6700000000001" stroke="#000000" stroke-width="0.8"/>
  <line x1="1051.47288" y1="714.6700000000001" x2="1055.47288" y2="706.6700000000001" stroke="#000000" stroke-width="0.8"/>
  <text x="992.00488" y="705.6700000000001" text-anchor="middle" font-family="'Arial Narrow', Arial, sans-serif" font-size="10" fill="#000000">2000</text>
  <line x1="1053.47288" y1="692.6700000000001" x2="1053.47288" y2="712.6700000000001" stroke="#000000" stroke-width="0.35"/>
  <line x1="1060.84904" y1="692.6700000000001" x2="1060.84904" y2="712.6700000000001" stroke="#000000" stroke-width="0.35"/>
  <line x1="1053.47288" y1="710.6700000000001" x2="1060.84904" y2="710.6700000000001" stroke="#000000" stroke-width="0.5"/>
  <line x1="1051.47288" y1="714.6700000000001" x2="1055.47288" y2="706.6700000000001" stroke="#000000" stroke-width="0.8"/>
  <line x1="1058.84904" y1="714.6700000000001" x2="1062.84904" y2="706.6700000000001" stroke="#000000" stroke-width="0.8"/>
  <text x="1057.1609600000002" y="705.6700000000001" text-anchor="middle" font-family="'Arial Narrow', Arial, sans-serif" font-size="10" fill="#000000">120</text>
  <line x1="1060.84904" y1="692.6700000000001" x2="1060.84904" y2="712.6700000000001" stroke="#000000" stroke-width="0.35"/>
  <line x1="1430.8863999999999" y1="692.6700000000001" x2="1430.8863999999999" y2="712.6700000000001" stroke="#000000" stroke-width="0.35"/>
  <line x1="1060.84904" y1="710.6700000000001" x2="1430.8863999999999" y2="710.6700000000001" stroke="#000000" stroke-width="0.5"/>
  <line x1="1058.84904" y1="714.6700000000001" x2="1062.84904" y2="706.6700000000001" stroke="#000000" stroke-width="0.8"/>
  <line x1="1428.8863999999999" y1="714.6700000000001" x2="1432.8863999999999" y2="706.6700000000001" stroke="#000000" stroke-width="0.8"/>
  <text x="1245.86772" y="705.6700000000001" text-anchor="middle" font-family="'Arial Narrow', Arial, sans-serif" font-size="10" fill="#000000">6020</text>
  <line x1="1430.8863999999999" y1="692.6700000000001" x2="1430.8863999999999" y2="712.6700000000001" stroke="#000000" stroke-width="0.35"/>
  <line x1="1443.1799999999998" y1="692.6700000000001" x2="1443.1799999999998" y2="712.6700000000001" stroke="#000000" stroke-width="0.35"/>
  <line x1="1430.8863999999999" y1="710.6700000000001" x2="1443.1799999999998" y2="710.6700000000001" stroke="#000000" stroke-width="0.5"/>
  <line x1="1428.8863999999999" y1="714.6700000000001" x2="1432.8863999999999" y2="706.6700000000001" stroke="#000000" stroke-width="0.8"/>
  <line x1="1441.1799999999998" y1="714.6700000000001" x2="1445.1799999999998" y2="706.6700000000001" stroke="#000000" stroke-width="0.8"/>
  <text x="1437.0331999999999" y="705.6700000000001" text-anchor="middle" font-family="'Arial Narrow', Arial, sans-serif" font-size="10" fill="#000000">200</text>
  <line x1="213.82000000000005" y1="692.6700000000001" x2="213.82000000000005" y2="734.6700000000001" stroke="#000000" stroke-width="0.35"/>
  <line x1="226.11360000000005" y1="692.6700000000001" x2="226.11360000000005" y2="734.6700000000001" stroke="#000000" stroke-width="0.35"/>
  <line x1="213.82000000000005" y1="732.6700000000001" x2="226.11360000000005" y2="732.6700000000001" stroke="#000000" stroke-width="0.5"/>
  <line x1="211.82000000000005" y1="736.6700000000001" x2="215.82000000000005" y2="728.6700000000001" stroke="#000000" stroke-width="0.8"/>
  <line x1="224.11360000000005" y1="736.6700000000001" x2="228.11360000000005" y2="728.6700000000001" stroke="#000000" stroke-width="0.8"/>
  <text x="219.96680000000003" y="727.6700000000001" text-anchor="middle" font-family="'Arial Narrow', Arial, sans-serif" font-size="10" fill="#000000">200</text>
  <line x1="226.11360000000005" y1="692.6700000000001" x2="226.11360000000005" y2="734.6700000000001" stroke="#000000" stroke-width="0.35"/>
  <line x1="448.62776" y1="692.6700000000001" x2="448.62776" y2="734.6700000000001" stroke="#000000" stroke-width="0.35"/>
  <line x1="226.11360000000005" y1="732.6700000000001" x2="448.62776" y2="732.6700000000001" stroke="#000000" stroke-width="0.5"/>
  <line x1="224.11360000000005" y1="736.6700000000001" x2="228.11360000000005" y2="728.6700000000001" stroke="#000000" stroke-width="0.8"/>
  <line x1="446.62776" y1="736.6700000000001" x2="450.62776" y2="728.6700000000001" stroke="#000000" stroke-width="0.8"/>
  <text x="337.37068000000005" y="727.6700000000001" text-anchor="middle" font-family="'Arial Narrow', Arial, sans-serif" font-size="10" fill="#000000">3620</text>
  <line x1="448.62776" y1="692.6700000000001" x2="448.62776" y2="734.6700000000001" stroke="#000000" stroke-width="0.35"/>
  <line x1="701.8759200000001" y1="692.6700000000001" x2="701.8759200000001" y2="734.6700000000001" stroke="#000000" stroke-width="0.35"/>
  <line x1="448.62776" y1="732.6700000000001" x2="701.8759200000001" y2="732.6700000000001" stroke="#000000" stroke-width="0.5"/>
  <line x1="446.62776" y1="736.6700000000001" x2="450.62776" y2="728.6700000000001" stroke="#000000" stroke-width="0.8"/>
  <line x1="699.8759200000001" y1="736.6700000000001" x2="703.8759200000001" y2="728.6700000000001" stroke="#000000" stroke-width="0.8"/>
  <text x="575.25184" y="727.6700000000001" text-anchor="middle" font-family="'Arial Narrow', Arial, sans-serif" font-size="10" fill="#000000">4120</text>
  <line x1="701.8759200000001" y1="692.6700000000001" x2="701.8759200000001" y2="734.6700000000001" stroke="#000000" stroke-width="0.35"/>
  <line x1="722.16036" y1="692.6700000000001" x2="722.16036" y2="734.6700000000001" stroke="#000000" stroke-width="0.35"/>
  <line x1="701.8759200000001" y1="732.6700000000001" x2="722.16036" y2="732.6700000000001" stroke="#000000" stroke-width="0.5"/>
  <line x1="699.8759200000001" y1="736.6700000000001" x2="703.8759200000001" y2="728.6700000000001" stroke="#000000" stroke-width="0.8"/>
  <line x1="720.16036" y1="736.6700000000001" x2="724.16036" y2="728.6700000000001" stroke="#000000" stroke-width="0.8"/>
  <text x="712.01814" y="727.6700000000001" text-anchor="middle" font-family="'Arial Narrow', Arial, sans-serif" font-size="10" fill="#000000">330</text>
  <line x1="722.16036" y1="692.6700000000001" x2="722.16036" y2="734.6700000000001" stroke="#000000" stroke-width="0.35"/>
  <line x1="923.1607200000001" y1="692.6700000000001" x2="923.1607200000001" y2="734.6700000000001" stroke="#000000" stroke-width="0.35"/>
  <line x1="722.16036" y1="732.6700000000001" x2="923.1607200000001" y2="732.6700000000001" stroke="#000000" stroke-width="0.5"/>
  <line x1="720.16036" y1="736.6700000000001" x2="724.16036" y2="728.6700000000001" stroke="#000000" stroke-width="0.8"/>
  <line x1="921.1607200000001" y1="736.6700000000001" x2="925.1607200000001" y2="728.6700000000001" stroke="#000000" stroke-width="0.8"/>
  <text x="822.6605400000001" y="727.6700000000001" text-anchor="middle" font-family="'Arial Narrow', Arial, sans-serif" font-size="10" fill="#000000">3270</text>
  <line x1="923.1607200000001" y1="692.6700000000001" x2="923.1607200000001" y2="734.6700000000001" stroke="#000000" stroke-width="0.35"/>
  <line x1="1060.84904" y1="692.6700000000001" x2="1060.84904" y2="734.6700000000001" stroke="#000000" stroke-width="0.35"/>
  <line x1="923.1607200000001" y1="732.6700000000001" x2="1060.84904" y2="732.6700000000001" stroke="#000000" stroke-width="0.5"/>
  <line x1="921.1607200000001" y1="736.6700000000001" x2="925.1607200000001" y2="728.6700000000001" stroke="#000000" stroke-width="0.8"/>
  <line x1="1058.84904" y1="736.6700000000001" x2="1062.84904" y2="728.6700000000001" stroke="#000000" stroke-width="0.8"/>
  <text x="992.0048800000001" y="727.6700000000001" text-anchor="middle" font-family="'Arial Narrow', Arial, sans-serif" font-size="10" fill="#000000">2240</text>
  <line x1="1060.84904" y1="692.6700000000001" x2="1060.84904" y2="734.6700000000001" stroke="#000000" stroke-width="0.35"/>
  <line x1="1443.1799999999998" y1="692.6700000000001" x2="1443.1799999999998" y2="734.6700000000001" stroke="#000000" stroke-width="0.35"/>
  <line x1="1060.84904" y1="732.6700000000001" x2="1443.1799999999998" y2="732.6700000000001" stroke="#000000" stroke-width="0.5"/>
  <line x1="1058.84904" y1="736.6700000000001" x2="1062.84904" y2="728.6700000000001" stroke="#000000" stroke-width="0.8"/>
  <line x1="1441.1799999999998" y1="736.6700000000001" x2="1445.1799999999998" y2="728.6700000000001" stroke="#000000" stroke-width="0.8"/>
  <text x="1252.01452" y="727.6700000000001" text-anchor="middle" font-family="'Arial Narrow', Arial, sans-serif" font-size="10" fill="#000000">6220</text>
  <line x1="213.82000000000005" y1="692.6700000000001" x2="213.82000000000005" y2="756.6700000000001" stroke="#000000" stroke-width="0.35"/>
  <line x1="1443.1799999999998" y1="692.6700000000001" x2="1443.1799999999998" y2="756.6700000000001" stroke="#000000" stroke-width="0.35"/>
  <line x1="213.82000000000005" y1="754.6700000000001" x2="1443.1799999999998" y2="754.6700000000001" stroke="#000000" stroke-width="0.5"/>
  <line x1="211.82000000000005" y1="758.6700000000001" x2="215.82000000000005" y2="750.6700000000001" stroke="#000000" stroke-width="0.8"/>
  <line x1="1441.1799999999998" y1="758.6700000000001" x2="1445.1799999999998" y2="750.6700000000001" stroke="#000000" stroke-width="0.8"/>
  <text x="828.5" y="749.6700000000001" text-anchor="middle" font-family="'Arial Narrow', Arial, sans-serif" font-size="10" fill="#000000">20000</text>
  <line x1="211.82000000000005" y1="383.33000000000004" x2="191.82000000000005" y2="383.33000000000004" stroke="#000000" stroke-width="0.35"/>
  <line x1="211.82000000000005" y1="395.62360000000007" x2="191.82000000000005" y2="395.62360000000007" stroke="#000000" stroke-width="0.35"/>
  <line x1="193.82000000000005" y1="383.33000000000004" x2="193.82000000000005" y2="395.62360000000007" stroke="#000000" stroke-width="0.5"/>
  <line x1="189.82000000000005" y1="385.33000000000004" x2="197.82000000000005" y2="381.33000000000004" stroke="#000000" stroke-width="0.8"/>
  <line x1="189.82000000000005" y1="397.62360000000007" x2="197.82000000000005" y2="393.62360000000007" stroke="#000000" stroke-width="0.8"/>
  <text x="185.82000000000005" y="389.4768" text-anchor="middle" font-family="'Arial Narrow', Arial, sans-serif" font-size="7.5" fill="#000000" transform="rotate(-90, 185.82000000000005, 389.4768)">200</text>
  <line x1="211.82000000000005" y1="395.62360000000007" x2="191.82000000000005" y2="395.62360000000007" stroke="#000000" stroke-width="0.35"/>
  <line x1="211.82000000000005" y1="678.3764" x2="191.82000000000005" y2="678.3764" stroke="#000000" stroke-width="0.35"/>
  <line x1="193.82000000000005" y1="395.62360000000007" x2="193.82000000000005" y2="678.3764" stroke="#000000" stroke-width="0.5"/>
  <line x1="189.82000000000005" y1="397.62360000000007" x2="197.82000000000005" y2="393.62360000000007" stroke="#000000" stroke-width="0.8"/>
  <line x1="189.82000000000005" y1="680.3764" x2="197.82000000000005" y2="676.3764" stroke="#000000" stroke-width="0.8"/>
  <text x="185.82000000000005" y="537" text-anchor="middle" font-family="'Arial Narrow', Arial, sans-serif" font-size="7.5" fill="#000000" transform="rotate(-90, 185.82000000000005, 537)">4600</text>
  <line x1="211.82000000000005" y1="678.3764" x2="191.82000000000005" y2="678.3764" stroke="#000000" stroke-width="0.35"/>
  <line x1="211.82000000000005" y1="690.6700000000001" x2="191.82000000000005" y2="690.6700000000001" stroke="#000000" stroke-width="0.35"/>
  <line x1="193.82000000000005" y1="678.3764" x2="193.82000000000005" y2="690.6700000000001" stroke="#000000" stroke-width="0.5"/>
  <line x1="189.82000000000005" y1="680.3764" x2="197.82000000000005" y2="676.3764" stroke="#000000" stroke-width="0.8"/>
  <line x1="189.82000000000005" y1="692.6700000000001" x2="197.82000000000005" y2="688.6700000000001" stroke="#000000" stroke-width="0.8"/>
  <text x="185.82000000000005" y="684.5232000000001" text-anchor="middle" font-family="'Arial Narrow', Arial, sans-serif" font-size="7.5" fill="#000000" transform="rotate(-90, 185.82000000000005, 684.5232000000001)">200</text>
  <line x1="211.82000000000005" y1="383.33000000000004" x2="169.82000000000005" y2="383.33000000000004" stroke="#000000" stroke-width="0.35"/>
  <line x1="211.82000000000005" y1="690.6700000000001" x2="169.82000000000005" y2="690.6700000000001" stroke="#000000" stroke-width="0.35"/>
  <line x1="171.82000000000005" y1="383.33000000000004" x2="171.82000000000005" y2="690.6700000000001" stroke="#000000" stroke-width="0.5"/>
  <line x1="167.82000000000005" y1="385.33000000000004" x2="175.82000000000005" y2="381.33000000000004" stroke="#000000" stroke-width="0.8"/>
  <line x1="167.82000000000005" y1="692.6700000000001" x2="175.82000000000005" y2="688.6700000000001" stroke="#000000" stroke-width="0.8"/>
  <text x="163.82000000000005" y="537" text-anchor="middle" font-family="'Arial Narrow', Arial, sans-serif" font-size="7.5" fill="#000000" transform="rotate(-90, 163.82000000000005, 537)">5000</text>
  <line x1="211.82000000000005" y1="383.33000000000004" x2="147.82000000000005" y2="383.33000000000004" stroke="#000000" stroke-width="0.35"/>
  <line x1="211.82000000000005" y1="690.6700000000001" x2="147.82000000000005" y2="690.6700000000001" stroke="#000000" stroke-width="0.35"/>
  <line x1="149.82000000000005" y1="383.33000000000004" x2="149.82000000000005" y2="690.6700000000001" stroke="#000000" stroke-width="0.5"/>
  <line x1="145.82000000000005" y1="385.33000000000004" x2="153.82000000000005" y2="381.33000000000004" stroke="#000000" stroke-width="0.8"/>
  <line x1="145.82000000000005" y1="692.6700000000001" x2="153.82000000000005" y2="688.6700000000001" stroke="#000000" stroke-width="0.8"/>
  <text x="141.82000000000005" y="537" text-anchor="middle" font-family="'Arial Narrow', Arial, sans-serif" font-size="7.5" fill="#000000" transform="rotate(-90, 141.82000000000005, 537)">5000</text>
  <line x1="213.82000000000005" y1="381.33000000000004" x2="213.82000000000005" y2="361.33000000000004" stroke="#000000" stroke-width="0.35"/>
  <line x1="226.11360000000005" y1="381.33000000000004" x2="226.11360000000005" y2="361.33000000000004" stroke="#000000" stroke-width="0.35"/>
  <line x1="213.82000000000005" y1="363.33000000000004" x2="226.11360000000005" y2="363.33000000000004" stroke="#000000" stroke-width="0.5"/>
  <line x1="211.82000000000005" y1="367.33000000000004" x2="215.82000000000005" y2="359.33000000000004" stroke="#000000" stroke-width="0.8"/>
  <line x1="224.11360000000005" y1="367.33000000000004" x2="228.11360000000005" y2="359.33000000000004" stroke="#000000" stroke-width="0.8"/>
  <text x="219.96680000000003" y="376.33000000000004" text-anchor="middle" font-family="'Arial Narrow', Arial, sans-serif" font-size="10" fill="#000000">200</text>
  <line x1="226.11360000000005" y1="381.33000000000004" x2="226.11360000000005" y2="361.33000000000004" stroke="#000000" stroke-width="0.35"/>
  <line x1="441.25160000000005" y1="381.33000000000004" x2="441.25160000000005" y2="361.33000000000004" stroke="#000000" stroke-width="0.35"/>
  <line x1="226.11360000000005" y1="363.33000000000004" x2="441.25160000000005" y2="363.33000000000004" stroke="#000000" stroke-width="0.5"/>
  <line x1="224.11360000000005" y1="367.33000000000004" x2="228.11360000000005" y2="359.33000000000004" stroke="#000000" stroke-width="0.8"/>
  <line x1="439.25160000000005" y1="367.33000000000004" x2="443.25160000000005" y2="359.33000000000004" stroke="#000000" stroke-width="0.8"/>
  <text x="333.68260000000004" y="376.33000000000004" text-anchor="middle" font-family="'Arial Narrow', Arial, sans-serif" font-size="10" fill="#000000">3500</text>
  <line x1="441.25160000000005" y1="381.33000000000004" x2="441.25160000000005" y2="361.33000000000004" stroke="#000000" stroke-width="0.35"/>
  <line x1="448.62776" y1="381.33000000000004" x2="448.62776" y2="361.33000000000004" stroke="#000000" stroke-width="0.35"/>
  <line x1="441.25160000000005" y1="363.33000000000004" x2="448.62776" y2="363.33000000000004" stroke="#000000" stroke-width="0.5"/>
  <line x1="439.25160000000005" y1="367.33000000000004" x2="443.25160000000005" y2="359.33000000000004" stroke="#000000" stroke-width="0.8"/>
  <line x1="446.62776" y1="367.33000000000004" x2="450.62776" y2="359.33000000000004" stroke="#000000" stroke-width="0.8"/>
  <text x="444.93968000000007" y="376.33000000000004" text-anchor="middle" font-family="'Arial Narrow', Arial, sans-serif" font-size="10" fill="#000000">120</text>
  <line x1="448.62776" y1="381.33000000000004" x2="448.62776" y2="361.33000000000004" stroke="#000000" stroke-width="0.35"/>
  <line x1="694.49976" y1="381.33000000000004" x2="694.49976" y2="361.33000000000004" stroke="#000000" stroke-width="0.35"/>
  <line x1="448.62776" y1="363.33000000000004" x2="694.49976" y2="363.33000000000004" stroke="#000000" stroke-width="0.5"/>
  <line x1="446.62776" y1="367.33000000000004" x2="450.62776" y2="359.33000000000004" stroke="#000000" stroke-width="0.8"/>
  <line x1="692.49976" y1="367.33000000000004" x2="696.49976" y2="359.33000000000004" stroke="#000000" stroke-width="0.8"/>
  <text x="571.56376" y="376.33000000000004" text-anchor="middle" font-family="'Arial Narrow', Arial, sans-serif" font-size="10" fill="#000000">4000</text>
  <line x1="694.49976" y1="381.33000000000004" x2="694.49976" y2="361.33000000000004" stroke="#000000" stroke-width="0.35"/>
  <line x1="701.8759200000001" y1="381.33000000000004" x2="701.8759200000001" y2="361.33000000000004" stroke="#000000" stroke-width="0.35"/>
  <line x1="694.49976" y1="363.33000000000004" x2="701.8759200000001" y2="363.33000000000004" stroke="#000000" stroke-width="0.5"/>
  <line x1="692.49976" y1="367.33000000000004" x2="696.49976" y2="359.33000000000004" stroke="#000000" stroke-width="0.8"/>
  <line x1="699.8759200000001" y1="367.33000000000004" x2="703.8759200000001" y2="359.33000000000004" stroke="#000000" stroke-width="0.8"/>
  <text x="698.18784" y="376.33000000000004" text-anchor="middle" font-family="'Arial Narrow', Arial, sans-serif" font-size="10" fill="#000000">120</text>
  <line x1="701.8759200000001" y1="381.33000000000004" x2="701.8759200000001" y2="361.33000000000004" stroke="#000000" stroke-width="0.35"/>
  <line x1="722.16036" y1="381.33000000000004" x2="722.16036" y2="361.33000000000004" stroke="#000000" stroke-width="0.35"/>
  <line x1="701.8759200000001" y1="363.33000000000004" x2="722.16036" y2="363.33000000000004" stroke="#000000" stroke-width="0.5"/>
  <line x1="699.8759200000001" y1="367.33000000000004" x2="703.8759200000001" y2="359.33000000000004" stroke="#000000" stroke-width="0.8"/>
  <line x1="720.16036" y1="367.33000000000004" x2="724.16036" y2="359.33000000000004" stroke="#000000" stroke-width="0.8"/>
  <text x="712.01814" y="376.33000000000004" text-anchor="middle" font-family="'Arial Narrow', Arial, sans-serif" font-size="10" fill="#000000">330</text>
  <line x1="722.16036" y1="381.33000000000004" x2="722.16036" y2="361.33000000000004" stroke="#000000" stroke-width="0.35"/>
  <line x1="923.16072" y1="381.33000000000004" x2="923.16072" y2="361.33000000000004" stroke="#000000" stroke-width="0.35"/>
  <line x1="722.16036" y1="363.33000000000004" x2="923.16072" y2="363.33000000000004" stroke="#000000" stroke-width="0.5"/>
  <line x1="720.16036" y1="367.33000000000004" x2="724.16036" y2="359.33000000000004" stroke="#000000" stroke-width="0.8"/>
  <line x1="921.16072" y1="367.33000000000004" x2="925.16072" y2="359.33000000000004" stroke="#000000" stroke-width="0.8"/>
  <text x="822.66054" y="376.33000000000004" text-anchor="middle" font-family="'Arial Narrow', Arial, sans-serif" font-size="10" fill="#000000">3270</text>
  <line x1="923.16072" y1="381.33000000000004" x2="923.16072" y2="361.33000000000004" stroke="#000000" stroke-width="0.35"/>
  <line x1="930.53688" y1="381.33000000000004" x2="930.53688" y2="361.33000000000004" stroke="#000000" stroke-width="0.35"/>
  <line x1="923.16072" y1="363.33000000000004" x2="930.53688" y2="363.33000000000004" stroke="#000000" stroke-width="0.5"/>
  <line x1="921.16072" y1="367.33000000000004" x2="925.16072" y2="359.33000000000004" stroke="#000000" stroke-width="0.8"/>
  <line x1="928.53688" y1="367.33000000000004" x2="932.53688" y2="359.33000000000004" stroke="#000000" stroke-width="0.8"/>
  <text x="926.8488" y="376.33000000000004" text-anchor="middle" font-family="'Arial Narrow', Arial, sans-serif" font-size="10" fill="#000000">120</text>
  <line x1="930.53688" y1="381.33000000000004" x2="930.53688" y2="361.33000000000004" stroke="#000000" stroke-width="0.35"/>
  <line x1="1053.47288" y1="381.33000000000004" x2="1053.47288" y2="361.33000000000004" stroke="#000000" stroke-width="0.35"/>
  <line x1="930.53688" y1="363.33000000000004" x2="1053.47288" y2="363.33000000000004" stroke="#000000" stroke-width="0.5"/>
  <line x1="928.53688" y1="367.33000000000004" x2="932.53688" y2="359.33000000000004" stroke="#000000" stroke-width="0.8"/>
  <line x1="1051.47288" y1="367.33000000000004" x2="1055.47288" y2="359.33000000000004" stroke="#000000" stroke-width="0.8"/>
  <text x="992.00488" y="376.33000000000004" text-anchor="middle" font-family="'Arial Narrow', Arial, sans-serif" font-size="10" fill="#000000">2000</text>
  <line x1="1053.47288" y1="381.33000000000004" x2="1053.47288" y2="361.33000000000004" stroke="#000000" stroke-width="0.35"/>
  <line x1="1060.84904" y1="381.33000000000004" x2="1060.84904" y2="361.33000000000004" stroke="#000000" stroke-width="0.35"/>
  <line x1="1053.47288" y1="363.33000000000004" x2="1060.84904" y2="363.33000000000004" stroke="#000000" stroke-width="0.5"/>
  <line x1="1051.47288" y1="367.33000000000004" x2="1055.47288" y2="359.33000000000004" stroke="#000000" stroke-width="0.8"/>
  <line x1="1058.84904" y1="367.33000000000004" x2="1062.84904" y2="359.33000000000004" stroke="#000000" stroke-width="0.8"/>
  <text x="1057.1609600000002" y="376.33000000000004" text-anchor="middle" font-family="'Arial Narrow', Arial, sans-serif" font-size="10" fill="#000000">120</text>
  <line x1="1060.84904" y1="381.33000000000004" x2="1060.84904" y2="361.33000000000004" stroke="#000000" stroke-width="0.35"/>
  <line x1="1430.8863999999999" y1="381.33000000000004" x2="1430.8863999999999" y2="361.33000000000004" stroke="#000000" stroke-width="0.35"/>
  <line x1="1060.84904" y1="363.33000000000004" x2="1430.8863999999999" y2="363.33000000000004" stroke="#000000" stroke-width="0.5"/>
  <line x1="1058.84904" y1="367.33000000000004" x2="1062.84904" y2="359.33000000000004" stroke="#000000" stroke-width="0.8"/>
  <line x1="1428.8863999999999" y1="367.33000000000004" x2="1432.8863999999999" y2="359.33000000000004" stroke="#000000" stroke-width="0.8"/>
  <text x="1245.86772" y="376.33000000000004" text-anchor="middle" font-family="'Arial Narrow', Arial, sans-serif" font-size="10" fill="#000000">6020</text>
  <line x1="1430.8863999999999" y1="381.33000000000004" x2="1430.8863999999999" y2="361.33000000000004" stroke="#000000" stroke-width="0.35"/>
  <line x1="1443.1799999999998" y1="381.33000000000004" x2="1443.1799999999998" y2="361.33000000000004" stroke="#000000" stroke-width="0.35"/>
  <line x1="1430.8863999999999" y1="363.33000000000004" x2="1443.1799999999998" y2="363.33000000000004" stroke="#000000" stroke-width="0.5"/>
  <line x1="1428.8863999999999" y1="367.33000000000004" x2="1432.8863999999999" y2="359.33000000000004" stroke="#000000" stroke-width="0.8"/>
  <line x1="1441.1799999999998" y1="367.33000000000004" x2="1445.1799999999998" y2="359.33000000000004" stroke="#000000" stroke-width="0.8"/>
  <text x="1437.0331999999999" y="376.33000000000004" text-anchor="middle" font-family="'Arial Narrow', Arial, sans-serif" font-size="10" fill="#000000">200</text>
  <line x1="213.82000000000005" y1="381.33000000000004" x2="213.82000000000005" y2="339.33000000000004" stroke="#000000" stroke-width="0.35"/>
  <line x1="226.11360000000005" y1="381.33000000000004" x2="226.11360000000005" y2="339.33000000000004" stroke="#000000" stroke-width="0.35"/>
  <line x1="213.82000000000005" y1="341.33000000000004" x2="226.11360000000005" y2="341.33000000000004" stroke="#000000" stroke-width="0.5"/>
  <line x1="211.82000000000005" y1="345.33000000000004" x2="215.82000000000005" y2="337.33000000000004" stroke="#000000" stroke-width="0.8"/>
  <line x1="224.11360000000005" y1="345.33000000000004" x2="228.11360000000005" y2="337.33000000000004" stroke="#000000" stroke-width="0.8"/>
  <text x="219.96680000000003" y="354.33000000000004" text-anchor="middle" font-family="'Arial Narrow', Arial, sans-serif" font-size="10" fill="#000000">200</text>
  <line x1="226.11360000000005" y1="381.33000000000004" x2="226.11360000000005" y2="339.33000000000004" stroke="#000000" stroke-width="0.35"/>
  <line x1="448.62776" y1="381.33000000000004" x2="448.62776" y2="339.33000000000004" stroke="#000000" stroke-width="0.35"/>
  <line x1="226.11360000000005" y1="341.33000000000004" x2="448.62776" y2="341.33000000000004" stroke="#000000" stroke-width="0.5"/>
  <line x1="224.11360000000005" y1="345.33000000000004" x2="228.11360000000005" y2="337.33000000000004" stroke="#000000" stroke-width="0.8"/>
  <line x1="446.62776" y1="345.33000000000004" x2="450.62776" y2="337.33000000000004" stroke="#000000" stroke-width="0.8"/>
  <text x="337.37068000000005" y="354.33000000000004" text-anchor="middle" font-family="'Arial Narrow', Arial, sans-serif" font-size="10" fill="#000000">3620</text>
  <line x1="448.62776" y1="381.33000000000004" x2="448.62776" y2="339.33000000000004" stroke="#000000" stroke-width="0.35"/>
  <line x1="701.8759200000001" y1="381.33000000000004" x2="701.8759200000001" y2="339.33000000000004" stroke="#000000" stroke-width="0.35"/>
  <line x1="448.62776" y1="341.33000000000004" x2="701.8759200000001" y2="341.33000000000004" stroke="#000000" stroke-width="0.5"/>
  <line x1="446.62776" y1="345.33000000000004" x2="450.62776" y2="337.33000000000004" stroke="#000000" stroke-width="0.8"/>
  <line x1="699.8759200000001" y1="345.33000000000004" x2="703.8759200000001" y2="337.33000000000004" stroke="#000000" stroke-width="0.8"/>
  <text x="575.25184" y="354.33000000000004" text-anchor="middle" font-family="'Arial Narrow', Arial, sans-serif" font-size="10" fill="#000000">4120</text>
  <line x1="701.8759200000001" y1="381.33000000000004" x2="701.8759200000001" y2="339.33000000000004" stroke="#000000" stroke-width="0.35"/>
  <line x1="722.16036" y1="381.33000000000004" x2="722.16036" y2="339.33000000000004" stroke="#000000" stroke-width="0.35"/>
  <line x1="701.8759200000001" y1="341.33000000000004" x2="722.16036" y2="341.33000000000004" stroke="#000000" stroke-width="0.5"/>
  <line x1="699.8759200000001" y1="345.33000000000004" x2="703.8759200000001" y2="337.33000000000004" stroke="#000000" stroke-width="0.8"/>
  <line x1="720.16036" y1="345.33000000000004" x2="724.16036" y2="337.33000000000004" stroke="#000000" stroke-width="0.8"/>
  <text x="712.01814" y="354.33000000000004" text-anchor="middle" font-family="'Arial Narrow', Arial, sans-serif" font-size="10" fill="#000000">330</text>
  <line x1="722.16036" y1="381.33000000000004" x2="722.16036" y2="339.33000000000004" stroke="#000000" stroke-width="0.35"/>
  <line x1="923.1607200000001" y1="381.33000000000004" x2="923.1607200000001" y2="339.33000000000004" stroke="#000000" stroke-width="0.35"/>
  <line x1="722.16036" y1="341.33000000000004" x2="923.1607200000001" y2="341.33000000000004" stroke="#000000" stroke-width="0.5"/>
  <line x1="720.16036" y1="345.33000000000004" x2="724.16036" y2="337.33000000000004" stroke="#000000" stroke-width="0.8"/>
  <line x1="921.1607200000001" y1="345.33000000000004" x2="925.1607200000001" y2="337.33000000000004" stroke="#000000" stroke-width="0.8"/>
  <text x="822.6605400000001" y="354.33000000000004" text-anchor="middle" font-family="'Arial Narrow', Arial, sans-serif" font-size="10" fill="#000000">3270</text>
  <line x1="923.1607200000001" y1="381.33000000000004" x2="923.1607200000001" y2="339.33000000000004" stroke="#000000" stroke-width="0.35"/>
  <line x1="1060.84904" y1="381.33000000000004" x2="1060.84904" y2="339.33000000000004" stroke="#000000" stroke-width="0.35"/>
  <line x1="923.1607200000001" y1="341.33000000000004" x2="1060.84904" y2="341.33000000000004" stroke="#000000" stroke-width="0.5"/>
  <line x1="921.1607200000001" y1="345.33000000000004" x2="925.1607200000001" y2="337.33000000000004" stroke="#000000" stroke-width="0.8"/>
  <line x1="1058.84904" y1="345.33000000000004" x2="1062.84904" y2="337.33000000000004" stroke="#000000" stroke-width="0.8"/>
  <text x="992.0048800000001" y="354.33000000000004" text-anchor="middle" font-family="'Arial Narrow', Arial, sans-serif" font-size="10" fill="#000000">2240</text>
  <line x1="1060.84904" y1="381.33000000000004" x2="1060.84904" y2="339.33000000000004" stroke="#000000" stroke-width="0.35"/>
  <line x1="1443.1799999999998" y1="381.33000000000004" x2="1443.1799999999998" y2="339.33000000000004" stroke="#000000" stroke-width="0.35"/>
  <line x1="1060.84904" y1="341.33000000000004" x2="1443.1799999999998" y2="341.33000000000004" stroke="#000000" stroke-width="0.5"/>
  <line x1="1058.84904" y1="345.33000000000004" x2="1062.84904" y2="337.33000000000004" stroke="#000000" stroke-width="0.8"/>
  <line x1="1441.1799999999998" y1="345.33000000000004" x2="1445.1799999999998" y2="337.33000000000004" stroke="#000000" stroke-width="0.8"/>
  <text x="1252.01452" y="354.33000000000004" text-anchor="middle" font-family="'Arial Narrow', Arial, sans-serif" font-size="10" fill="#000000">6220</text>
  <line x1="213.82000000000005" y1="381.33000000000004" x2="213.82000000000005" y2="317.33000000000004" stroke="#000000" stroke-width="0.35"/>
  <line x1="1443.1799999999998" y1="381.33000000000004" x2="1443.1799999999998" y2="317.33000000000004" stroke="#000000" stroke-width="0.35"/>
  <line x1="213.82000000000005" y1="319.33000000000004" x2="1443.1799999999998" y2="319.33000000000004" stroke="#000000" stroke-width="0.5"/>
  <line x1="211.82000000000005" y1="323.33000000000004" x2="215.82000000000005" y2="315.33000000000004" stroke="#000000" stroke-width="0.8"/>
  <line x1="1441.1799999999998" y1="323.33000000000004" x2="1445.1799999999998" y2="315.33000000000004" stroke="#000000" stroke-width="0.8"/>
  <text x="828.5" y="332.33000000000004" text-anchor="middle" font-family="'Arial Narrow', Arial, sans-serif" font-size="10" fill="#000000">20000</text>
  <line x1="141.82000000000005" y1="537" x2="1515.1799999999998" y2="537" stroke="#000" stroke-width="0.8" stroke-dasharray="12 3 3 3"/>
  <circle cx="141.82000000000005" cy="537" r="10" fill="white" stroke="#000" stroke-width="1"/>
  <text x="141.82000000000005" y="541" text-anchor="middle" font-family="'Arial Narrow', Arial, sans-serif" font-size="10" fill="#000" font-weight="bold">A</text>
  <circle cx="1515.1799999999998" cy="537" r="10" fill="white" stroke="#000" stroke-width="1"/>
  <text x="1515.1799999999998" y="541" text-anchor="middle" font-family="'Arial Narrow', Arial, sans-serif" font-size="10" fill="#000" font-weight="bold">A</text>
  <path d="M 127.82000000000005 534 L 127.82000000000005 540 L 130.82000000000005 537 Z" fill="#000" stroke="none"/>
  <path d="M 1529.1799999999998 534 L 1529.1799999999998 540 L 1526.1799999999998 537 Z" fill="#000" stroke="none"/>
  <text x="828.5" y="1100" text-anchor="middle" font-family="'Arial Narrow', Arial, sans-serif" font-size="18" fill="#000000" font-weight="bold" letter-spacing="2">MẶT BẰNG LẦU 1</text>
  <text x="828.5" y="1116" text-anchor="middle" font-family="'Arial Narrow', Arial, sans-serif" font-size="13" fill="#000000">TL: 1/61 (xoay 90°)</text>
  <text x="8" y="1120" font-family="'Arial Narrow', Arial, sans-serif" font-size="7" fill="#888888">⚠ Tầng 1: Bếp/Ăn "Phòng ăn" diện tích 6m² — tiêu chuẩn ≥12m² (3×4m). | Tầng 1: Hố thang "Cầu thang" (1.2×2.5m) hơi nhỏ cho thang U-shape — khuyến nghị ≥2.1×3.5m.</text>
</svg>