<?xml version="1.0" encoding="UTF-8"?>
<svg xmlns="http://www.w3.org/2000/svg" width="420mm" height="297mm" viewBox="0 0 1587 1122" preserveAspectRatio="xMidYMid meet">
  <defs>
  <!-- Tường ngoài: gạch chéo đôi (cross-hatch) — chuẩn CAD kiến trúc -->
  <pattern id="hatch-ext" patternUnits="userSpaceOnUse" width="5" height="5">
    <line x1="0" y1="0" x2="5" y2="5" stroke="#000" stroke-width="0.6"/>
    <line x1="5" y1="0" x2="0" y2="5" stroke="#000" stroke-width="0.6"/>
  </pattern>
  <!-- Tường trong: gạch chéo đơn — mảnh hơn -->
  <pattern id="hatch-int" patternUnits="userSpaceOnUse" width="4" height="4">
    <line x1="0" y1="0" x2="4" y2="4" stroke="#555" stroke-width="0.4"/>
  </pattern>
  <!-- Tường tô đặc (cho cột / tường chịu lực) -->
  <pattern id="hatch-solid" patternUnits="userSpaceOnUse" width="3" height="3">
    <rect width="3" height="3" fill="#333"/>
  </pattern>
</defs>
  <rect width="1587" height="1122" fill="white"/>
  <!-- TẦNG TRỆT | 5m×15m | Scale 1/46 | A3 landscape | BMT Decor -->
  <line x1="213.81999999999994" y1="292.1066666666667" x2="213.81999999999994" y2="781.8933333333334" stroke="#999999" stroke-width="0.4" stroke-dasharray="8 4 2 4"/>
  <circle cx="213.81999999999994" cy="781.8933333333334" r="14" fill="white" stroke="#000000" stroke-width="1.2"/>
  <text x="213.81999999999994" y="786.8933333333334" text-anchor="middle" font-family="'Arial Narrow', Arial, sans-serif" font-size="13" fill="#000000" font-weight="bold">1</text>
  <circle cx="213.81999999999994" cy="292.1066666666667" r="14" fill="white" stroke="#000000" stroke-width="1.2"/>
  <text x="213.81999999999994" y="297.1066666666667" text-anchor="middle" font-family="'Arial Narrow', Arial, sans-serif" font-size="13" fill="#000000" font-weight="bold">1</text>
  <line x1="312.1687999999999" y1="292.1066666666667" x2="312.1687999999999" y2="781.8933333333334" stroke="#999999" stroke-width="0.4" stroke-dasharray="8 4 2 4"/>
  <circle cx="312.1687999999999" cy="781.8933333333334" r="14" fill="white" stroke="#000000" stroke-width="1.2"/>
  <text x="312.1687999999999" y="786.8933333333334" text-anchor="middle" font-family="'Arial Narrow', Arial, sans-serif" font-size="13" fill="#000000" font-weight="bold">2</text>
  <circle cx="312.1687999999999" cy="292.1066666666667" r="14" fill="white" stroke="#000000" stroke-width="1.2"/>
  <text x="312.1687999999999" y="297.1066666666667" text-anchor="middle" font-family="'Arial Narrow', Arial, sans-serif" font-size="13" fill="#000000" font-weight="bold">2</text>
  <line x1="731.7903466666667" y1="292.1066666666667" x2="731.7903466666667" y2="781.8933333333334" stroke="#999999" stroke-width="0.4" stroke-dasharray="8 4 2 4"/>
  <circle cx="731.7903466666667" cy="781.8933333333334" r="14" fill="white" stroke="#000000" stroke-width="1.2"/>
  <text x="731.7903466666667" y="786.8933333333334" text-anchor="middle" font-family="'Arial Narrow', Arial, sans-serif" font-size="13" fill="#000000" font-weight="bold">3</text>
  <circle cx="731.7903466666667" cy="292.1066666666667" r="14" fill="white" stroke="#000000" stroke-width="1.2"/>
  <text x="731.7903466666667" y="297.1066666666667" text-anchor="middle" font-family="'Arial Narrow', Arial, sans-serif" font-size="13" fill="#000000" font-weight="bold">3</text>
  <line x1="1069.45456" y1="292.1066666666667" x2="1069.45456" y2="781.8933333333334" stroke="#999999" stroke-width="0.4" stroke-dasharray="8 4 2 4"/>
  <circle cx="1069.45456" cy="781.8933333333334" r="14" fill="white" stroke="#000000" stroke-width="1.2"/>
  <text x="1069.45456" y="786.8933333333334" text-anchor="middle" font-family="'Arial Narrow', Arial, sans-serif" font-size="13" fill="#000000" font-weight="bold">4</text>
  <circle cx="1069.45456" cy="292.1066666666667" r="14" fill="white" stroke="#000000" stroke-width="1.2"/>
  <text x="1069.45456" y="297.1066666666667" text-anchor="middle" font-family="'Arial Narrow', Arial, sans-serif" font-size="13" fill="#000000" font-weight="bold">4</text>
  <line x1="1238.2866666666666" y1="292.1066666666667" x2="1238.2866666666666" y2="781.8933333333334" stroke="#999999" stroke-width="0.4" stroke-dasharray="8 4 2 4"/>
  <circle cx="1238.2866666666666" cy="781.8933333333334" r="14" fill="white" stroke="#000000" stroke-width="1.2"/>
  <text x="1238.2866666666666" y="786.8933333333334" text-anchor="middle" font-family="'Arial Narrow', Arial, sans-serif" font-size="13" fill="#000000" font-weight="bold">5</text>
  <circle cx="1238.2866666666666" cy="292.1066666666667" r="14" fill="white" stroke="#000000" stroke-width="1.2"/>
  <text x="1238.2866666666666" y="297.1066666666667" text-anchor="middle" font-family="'Arial Narrow', Arial, sans-serif" font-size="13" fill="#000000" font-weight="bold">5</text>
  <line x1="1407.1187733333334" y1="292.1066666666667" x2="1407.1187733333334" y2="781.8933333333334" stroke="#999999" stroke-width="0.4" stroke-dasharray="8 4 2 4"/>
  <circle cx="1407.1187733333334" cy="781.8933333333334" r="14" fill="white" stroke="#000000" stroke-width="1.2"/>
  <text x="1407.1187733333334" y="786.8933333333334" text-anchor="middle" font-family="'Arial Narrow', Arial, sans-serif" font-size="13" fill="#000000" font-weight="bold">6</text>
  <circle cx="1407.1187733333334" cy="292.1066666666667" r="14" fill="white" stroke="#000000" stroke-width="1.2"/>
  <text x="1407.1187733333334" y="297.1066666666667" text-anchor="middle" font-family="'Arial Narrow', Arial, sans-serif" font-size="13" fill="#000000" font-weight="bold">6</text>
  <line x1="1443.18" y1="292.1066666666667" x2="1443.18" y2="781.8933333333334" stroke="#999999" stroke-width="0.4" stroke-dasharray="8 4 2 4"/>
  <circle cx="1443.18" cy="781.8933333333334" r="14" fill="white" stroke="#000000" stroke-width="1.2"/>
  <text x="1443.18" y="786.8933333333334" text-anchor="middle" font-family="'Arial Narrow', Arial, sans-serif" font-size="13" fill="#000000" font-weight="bold">7</text>
  <circle cx="1443.18" cy="292.1066666666667" r="14" fill="white" stroke="#000000" stroke-width="1.2"/>
  <text x="1443.18" y="297.1066666666667" text-anchor="middle" font-family="'Arial Narrow', Arial, sans-serif" font-size="13" fill="#000000" font-weight="bold">7</text>
  <line x1="173.81999999999994" y1="332.1066666666667" x2="1483.18" y2="332.1066666666667" stroke="#999999" stroke-width="0.4" stroke-dasharray="8 4 2 4"/>
  <circle cx="173.81999999999994" cy="332.1066666666667" r="14" fill="white" stroke="#000000" stroke-width="1.2"/>
  <text x="173.81999999999994" y="337.1066666666667" text-anchor="middle" font-family="'Arial Narrow', Arial, sans-serif" font-size="13" fill="#000000" font-weight="bold">A</text>
  <circle cx="1483.18" cy="332.1066666666667" r="14" fill="white" stroke="#000000" stroke-width="1.2"/>
  <text x="1483.18" y="337.1066666666667" text-anchor="middle" font-family="'Arial Narrow', Arial, sans-serif" font-size="13" fill="#000000" font-weight="bold">A</text>
  <line x1="173.81999999999994" y1="741.8933333333334" x2="1483.18" y2="741.8933333333334" stroke="#999999" stroke-width="0.4" stroke-dasharray="8 4 2 4"/>
  <circle cx="173.81999999999994" cy="741.8933333333334" r="14" fill="white" stroke="#000000" stroke-width="1.2"/>
  <text x="173.81999999999994" y="746.8933333333334" text-anchor="middle" font-family="'Arial Narrow', Arial, sans-serif" font-size="13" fill="#000000" font-weight="bold">B</text>
  <circle cx="1483.18" cy="741.8933333333334" r="14" fill="white" stroke="#000000" stroke-width="1.2"/>
  <text x="1483.18" y="746.8933333333334" text-anchor="middle" font-family="'Arial Narrow', Arial, sans-serif" font-size="13" fill="#000000" font-weight="bold">B</text>
  <rect x="205.6242666666666" y="323.91093333333333" width="16.39146666666667" height="16.39146666666667" fill="#000000" stroke="none"/>
  <rect x="205.6242666666666" y="733.6976000000001" width="16.39146666666667" height="16.39146666666667" fill="#000000" stroke="none"/>
  <rect x="303.97306666666657" y="323.91093333333333" width="16.39146666666667" height="16.39146666666667" fill="#000000" stroke="none"/>
  <rect x="303.97306666666657" y="733.6976000000001" width="16.39146666666667" height="16.39146666666667" fill="#000000" stroke="none"/>
  <rect x="723.5946133333333" y="323.91093333333333" width="16.39146666666667" height="16.39146666666667" fill="#000000" stroke="none"/>
  <rect x="723.5946133333333" y="733.6976000000001" width="16.39146666666667" height="16.39146666666667" fill="#000000" stroke="none"/>
  <rect x="1061.2588266666667" y="323.91093333333333" width="16.39146666666667" height="16.39146666666667" fill="#000000" stroke="none"/>
  <rect x="1061.2588266666667" y="733.6976000000001" width="16.39146666666667" height="16.39146666666667" fill="#000000" stroke="none"/>
  <rect x="1230.0909333333334" y="323.91093333333333" width="16.39146666666667" height="16.39146666666667" fill="#000000" stroke="none"/>
  <rect x="1230.0909333333334" y="733.6976000000001" width="16.39146666666667" height="16.39146666666667" fill="#000000" stroke="none"/>
  <rect x="1398.9230400000001" y="323.91093333333333" width="16.39146666666667" height="16.39146666666667" fill="#000000" stroke="none"/>
  <rect x="1398.9230400000001" y="733.6976000000001" width="16.39146666666667" height="16.39146666666667" fill="#000000" stroke="none"/>
  <rect x="1434.9842666666668" y="323.91093333333333" width="16.39146666666667" height="16.39146666666667" fill="#000000" stroke="none"/>
  <rect x="1434.9842666666668" y="733.6976000000001" width="16.39146666666667" height="16.39146666666667" fill="#000000" stroke="none"/>
  <rect x="735.8882133333333" y="348.4981333333333" width="323.7314666666667" height="377.00373333333334" fill="white" stroke="none"/>
  <rect x="748.8374719999999" y="348.4981333333333" width="297.8329493333333" height="377.00373333333334" fill="white" stroke="#000000" stroke-width="1"/>
  <line x1="885.8406286933332" y1="348.4981333333333" x2="885.8406286933332" y2="725.5018666666667" stroke="#000000" stroke-width="0.5"/>
  <line x1="909.66726464" y1="348.4981333333333" x2="909.66726464" y2="725.5018666666667" stroke="#000000" stroke-width="0.5"/>
  <line x1="748.8374719999999" y1="725.5018666666667" x2="885.8406286933332" y2="725.5018666666667" stroke="#000000" stroke-width="0.5"/>
  <line x1="748.8374719999999" y1="695.341568" x2="885.8406286933332" y2="695.341568" stroke="#000000" stroke-width="0.5"/>
  <text x="817.3390503466666" y="711.9297322666667" text-anchor="middle" font-family="'Arial Narrow', Arial, sans-serif" font-size="5.5" fill="#777">1</text>
  <line x1="748.8374719999999" y1="665.1812693333334" x2="885.8406286933332" y2="665.1812693333334" stroke="#000000" stroke-width="0.5"/>
  <text x="817.3390503466666" y="681.7694336000001" text-anchor="middle" font-family="'Arial Narrow', Arial, sans-serif" font-size="5.5" fill="#777">2</text>
  <line x1="748.8374719999999" y1="635.0209706666667" x2="885.8406286933332" y2="635.0209706666667" stroke="#000000" stroke-width="0.5"/>
  <text x="817.3390503466666" y="651.6091349333334" text-anchor="middle" font-family="'Arial Narrow', Arial, sans-serif" font-size="5.5" fill="#777">3</text>
  <line x1="748.8374719999999" y1="604.860672" x2="885.8406286933332" y2="604.860672" stroke="#000000" stroke-width="0.5"/>
  <text x="817.3390503466666" y="621.4488362666667" text-anchor="middle" font-family="'Arial Narrow', Arial, sans-serif" font-size="5.5" fill="#777">4</text>
  <line x1="748.8374719999999" y1="574.7003733333333" x2="885.8406286933332" y2="574.7003733333333" stroke="#000000" stroke-width="0.5"/>
  <text x="817.3390503466666" y="591.2885376" text-anchor="middle" font-family="'Arial Narrow', Arial, sans-serif" font-size="5.5" fill="#777">5</text>
  <line x1="748.8374719999999" y1="544.5400746666667" x2="885.8406286933332" y2="544.5400746666667" stroke="#000000" stroke-width="0.5"/>
  <text x="817.3390503466666" y="561.1282389333334" text-anchor="middle" font-family="'Arial Narrow', Arial, sans-serif" font-size="5.5" fill="#777">6</text>
  <line x1="748.8374719999999" y1="514.3797760000001" x2="885.8406286933332" y2="514.3797760000001" stroke="#000000" stroke-width="0.5"/>
  <text x="817.3390503466666" y="530.9679402666668" text-anchor="middle" font-family="'Arial Narrow', Arial, sans-serif" font-size="5.5" fill="#777">7</text>
  <line x1="748.8374719999999" y1="484.21947733333343" x2="885.8406286933332" y2="484.21947733333343" stroke="#000000" stroke-width="0.5"/>
  <text x="817.3390503466666" y="500.8076416000001" text-anchor="middle" font-family="'Arial Narrow', Arial, sans-serif" font-size="5.5" fill="#777">8</text>
  <line x1="748.8374719999999" y1="454.05917866666675" x2="885.8406286933332" y2="454.05917866666675" stroke="#000000" stroke-width="0.5"/>
  <text x="817.3390503466666" y="470.64734293333345" text-anchor="middle" font-family="'Arial Narrow', Arial, sans-serif" font-size="5.5" fill="#777">9</text>
  <line x1="748.8374719999999" y1="423.8988800000001" x2="885.8406286933332" y2="423.8988800000001" stroke="#000000" stroke-width="0.5"/>
  <text x="817.3390503466666" y="440.48704426666677" text-anchor="middle" font-family="'Arial Narrow', Arial, sans-serif" font-size="5.5" fill="#777">10</text>
  <line x1="748.8374719999999" y1="393.7385813333334" x2="885.8406286933332" y2="393.7385813333334" stroke="#000000" stroke-width="0.5"/>
  <text x="817.3390503466666" y="410.3267456000001" text-anchor="middle" font-family="'Arial Narrow', Arial, sans-serif" font-size="5.5" fill="#777">11</text>
  <line x1="909.66726464" y1="348.4981333333333" x2="1046.6704213333333" y2="348.4981333333333" stroke="#000000" stroke-width="0.5"/>
  <line x1="909.66726464" y1="381.67446186666666" x2="1046.6704213333333" y2="381.67446186666666" stroke="#000000" stroke-width="0.5"/>
  <text x="978.1688429866666" y="373.3803797333333" text-anchor="middle" font-family="'Arial Narrow', Arial, sans-serif" font-size="5.5" fill="#777">12</text>
  <line x1="909.66726464" y1="414.8507904" x2="1046.6704213333333" y2="414.8507904" stroke="#000000" stroke-width="0.5"/>
  <text x="978.1688429866666" y="406.55670826666665" text-anchor="middle" font-family="'Arial Narrow', Arial, sans-serif" font-size="5.5" fill="#777">13</text>
  <line x1="909.66726464" y1="448.0271189333333" x2="1046.6704213333333" y2="448.0271189333333" stroke="#000000" stroke-width="0.5"/>
  <text x="978.1688429866666" y="439.7330368" text-anchor="middle" font-family="'Arial Narrow', Arial, sans-serif" font-size="5.5" fill="#777">14</text>
  <line x1="909.66726464" y1="481.20344746666666" x2="1046.6704213333333" y2="481.20344746666666" stroke="#000000" stroke-width="0.5"/>
  <text x="978.1688429866666" y="472.9093653333333" text-anchor="middle" font-family="'Arial Narrow', Arial, sans-serif" font-size="5.5" fill="#777">15</text>
  <line x1="909.66726464" y1="514.379776" x2="1046.6704213333333" y2="514.379776" stroke="#000000" stroke-width="0.5"/>
  <text x="978.1688429866666" y="506.08569386666665" text-anchor="middle" font-family="'Arial Narrow', Arial, sans-serif" font-size="5.5" fill="#777">16</text>
  <line x1="909.66726464" y1="547.5561045333334" x2="1046.6704213333333" y2="547.5561045333334" stroke="#000000" stroke-width="0.5"/>
  <text x="978.1688429866666" y="539.2620224000001" text-anchor="middle" font-family="'Arial Narrow', Arial, sans-serif" font-size="5.5" fill="#777">17</text>
  <line x1="909.66726464" y1="580.7324330666667" x2="1046.6704213333333" y2="580.7324330666667" stroke="#000000" stroke-width="0.5"/>
  <text x="978.1688429866666" y="572.4383509333334" text-anchor="middle" font-family="'Arial Narrow', Arial, sans-serif" font-size="5.5" fill="#777">18</text>
  <line x1="909.66726464" y1="613.9087615999999" x2="1046.6704213333333" y2="613.9087615999999" stroke="#000000" stroke-width="0.5"/>
  <text x="978.1688429866666" y="605.6146794666666" text-anchor="middle" font-family="'Arial Narrow', Arial, sans-serif" font-size="5.5" fill="#777">19</text>
  <line x1="909.66726464" y1="647.0850901333333" x2="1046.6704213333333" y2="647.0850901333333" stroke="#000000" stroke-width="0.5"/>
  <text x="978.1688429866666" y="638.791008" text-anchor="middle" font-family="'Arial Narrow', Arial, sans-serif" font-size="5.5" fill="#777">20</text>
  <line x1="909.66726464" y1="680.2614186666667" x2="1046.6704213333333" y2="680.2614186666667" stroke="#000000" stroke-width="0.5"/>
  <text x="978.1688429866666" y="671.9673365333334" text-anchor="middle" font-family="'Arial Narrow', Arial, sans-serif" font-size="5.5" fill="#777">21</text>
  <rect x="748.8374719999999" y="348.4981333333333" width="297.8329493333333" height="22.620224" fill="none" stroke="#000000" stroke-width="0.6"/>
  <line x1="817.3390503466666" y1="657.6411946666667" x2="817.3390503466666" y2="423.89888" stroke="#000000" stroke-width="1.2"/>
  <path d="M 812.3390503466666 433.89888 L 817.3390503466666 423.89888 L 822.3390503466666 433.89888" fill="#000000" stroke="none"/>
  <text x="897.7539466666666" y="710.4217173333334" text-anchor="middle" font-family="'Arial Narrow', Arial, sans-serif" font-size="9" fill="#000000" font-weight="bold">LÊN</text>
  <path d="M 748.8374719999999 518.1498133333333 L 760.2544017244444 503.069664 L 783.0882611733333 533.2299626666667 L 805.9221206222221 503.069664 L 828.755980071111 533.2299626666667 L 851.5898395199999 503.069664 L 874.4236989688889 533.2299626666667 L 885.8406286933332 518.1498133333333" fill="none" stroke="#000000" stroke-width="1.2"/>
  <text x="897.7539466666666" y="535" text-anchor="middle" font-family="'Arial Narrow', Arial, sans-serif" font-size="9" fill="#000" font-weight="bold">Cầu thang</text>
  <text x="897.7539466666666" y="547" text-anchor="middle" font-family="'Arial Narrow', Arial, sans-serif" font-size="7.5" fill="#333">18.2m²</text>
  <rect x="312.1687999999999" y="348.4981333333333" width="409.7866666666667" height="377.00373333333334" fill="white" stroke="none"/>
  <rect x="442.06213333333324" y="374.88839466666667" width="150" height="9.6" fill="#e0e0e0" stroke="#000000" stroke-width="0.5"/>
  <rect x="442.06213333333324" y="384.4883946666667" width="150" height="22.4" fill="white" stroke="#000000" stroke-width="0.7"/>
  <rect x="429.9021333333332" y="374.88839466666667" width="12.16" height="32" rx="2" fill="white" stroke="#000000" stroke-width="0.6"/>
  <rect x="592.0621333333332" y="374.88839466666667" width="12.16" height="32" rx="2" fill="white" stroke="#000000" stroke-width="0.6"/>
  <rect x="482.06213333333324" y="519" width="70" height="36" rx="3" fill="none" stroke="#000000" stroke-width="0.7"/>
  <rect x="451.06213333333324" y="523" width="28" height="28" rx="2" fill="white" stroke="#000000" stroke-width="0.6"/>
  <rect x="555.0621333333332" y="523" width="28" height="28" rx="2" fill="white" stroke="#000000" stroke-width="0.6"/>
  <text x="517.0621333333332" y="535" text-anchor="middle" font-family="'Arial Narrow', Arial, sans-serif" font-size="9" fill="#000" font-weight="bold">Phòng khách</text>
  <text x="517.0621333333332" y="547" text-anchor="middle" font-family="'Arial Narrow', Arial, sans-serif" font-size="7.5" fill="#333">23.0m²</text>
  <path d="M 324.1687999999999 711.5018666666667 L 318.1687999999999 717.5018666666667 L 330.1687999999999 717.5018666666667 Z" fill="#000" stroke="none"/>
  <text x="333.1687999999999" y="719.5018666666667" font-family="'Arial Narrow', Arial, sans-serif" font-size="8" fill="#000">+0.000</text>
  <rect x="731.7903466666667" y="348.4981333333333" width="327.82933333333335" height="377.00373333333334" fill="white" stroke="none"/>
  <rect x="754.7384" y="371.4461866666667" width="281.93322666666666" height="28" fill="white" stroke="#000000" stroke-width="0.7"/>
  <circle cx="833.6797034666666" cy="385.4461866666667" r="8.96" fill="none" stroke="#000000" stroke-width="0.6"/>
  <circle cx="901.3436778666667" cy="385.4461866666667" r="8.96" fill="none" stroke="#000000" stroke-width="0.6"/>
  <rect x="952.0916586666666" y="374.8061866666667" width="62.02530986666667" height="21.28" rx="2" fill="none" stroke="#000000" stroke-width="0.5"/>
  <ellipse cx="895.7050133333333" cy="596.5993728000001" rx="40" ry="25" fill="none" stroke="#000000" stroke-width="0.7"/>
  <rect x="862.5383466666667" y="556.5993728000001" width="13" height="13" rx="1" fill="white" stroke="#000000" stroke-width="0.5"/>
  <rect x="862.5383466666667" y="623.5993728000001" width="13" height="13" rx="1" fill="white" stroke="#000000" stroke-width="0.5"/>
  <rect x="889.2050133333333" y="556.5993728000001" width="13" height="13" rx="1" fill="white" stroke="#000000" stroke-width="0.5"/>
  <rect x="889.2050133333333" y="623.5993728000001" width="13" height="13" rx="1" fill="white" stroke="#000000" stroke-width="0.5"/>
  <text x="895.7050133333333" y="535" text-anchor="middle" font-family="'Arial Narrow', Arial, sans-serif" font-size="9" fill="#000" font-weight="bold">Bếp</text>
  <text x="895.7050133333333" y="547" text-anchor="middle" font-family="'Arial Narrow', Arial, sans-serif" font-size="7.5" fill="#333">18.4m²</text>
  <rect x="1069.45456" y="348.4981333333333" width="163.91466666666668" height="377.00373333333334" fill="white" stroke="none"/>
  <rect x="1080.9285866666667" y="359.97216" width="38" height="22" rx="1" fill="white" stroke="#000000" stroke-width="0.7"/>
  <ellipse cx="1099.9285866666667" cy="372.07216" rx="12.920000000000002" ry="7.48" fill="none" stroke="#000000" stroke-width="0.5"/>
  <circle cx="1099.9285866666667" cy="372.07216" r="1.5" fill="#000000" stroke="none"/>
  <circle cx="1099.9285866666667" cy="363.27216" r="2.2" fill="#000000" stroke="none"/>
  <line x1="1099.9285866666667" y1="365.47216" x2="1099.9285866666667" y2="367.01216" stroke="#000000" stroke-width="0.6"/>
  <rect x="1086.6285866666667" y="353.37215999999995" width="26.599999999999998" height="5.5" fill="none" stroke="#000000" stroke-width="0.3" stroke-dasharray="2 1"/>
  <rect x="1195.4951999999998" y="674.02784" width="22.8" height="8.8" rx="2" fill="white" stroke="#000000" stroke-width="0.7"/>
  <circle cx="1204.4951999999998" cy="678.42784" r="1.8" fill="none" stroke="#000000" stroke-width="0.4"/>
  <circle cx="1209.2952" cy="678.42784" r="1.8" fill="none" stroke="#000000" stroke-width="0.4"/>
  <ellipse cx="1206.8952" cy="698.8278399999999" rx="13.8" ry="14.399999999999999" fill="white" stroke="#000000" stroke-width="0.7"/>
  <ellipse cx="1206.8952" cy="698.02784" rx="10.200000000000001" ry="10.8" fill="none" stroke="#000000" stroke-width="0.4"/>
  <line x1="1199.3952" y1="683.8278399999999" x2="1214.3952" y2="683.8278399999999" stroke="#000000" stroke-width="0.4"/>
  <rect x="1080.9285866666667" y="386.97216" width="42" height="72" rx="4" fill="white" stroke="#000000" stroke-width="0.8"/>
  <rect x="1083.9285866666667" y="389.97216" width="36" height="66" rx="3" fill="none" stroke="#000000" stroke-width="0.4"/>
  <circle cx="1101.9285866666667" cy="448.97216" r="2.5" fill="none" stroke="#000000" stroke-width="0.5"/>
  <circle cx="1101.9285866666667" cy="448.97216" r="0.8" fill="#000000" stroke="none"/>
  <circle cx="1095.6285866666667" cy="394.97216" r="2.5" fill="none" stroke="#000000" stroke-width="0.5"/>
  <circle cx="1108.2285866666666" cy="394.97216" r="2.5" fill="none" stroke="#000000" stroke-width="0.5"/>
  <line x1="1120.9285866666667" y1="408.57216" x2="1120.9285866666667" y2="437.37215999999995" stroke="#000000" stroke-width="0.6"/>
  <rect x="1148.4118933333332" y="587.108352" width="6" height="6" fill="none" stroke="#000000" stroke-width="0.4"/>
  <line x1="1148.4118933333332" y1="587.108352" x2="1154.4118933333332" y2="593.108352" stroke="#000000" stroke-width="0.3"/>
  <line x1="1154.4118933333332" y1="587.108352" x2="1148.4118933333332" y2="593.108352" stroke="#000000" stroke-width="0.3"/>
  <text x="1151.4118933333332" y="535" text-anchor="middle" font-family="'Arial Narrow', Arial, sans-serif" font-size="9" fill="#000" font-weight="bold">WC</text>
  <text x="1151.4118933333332" y="547" text-anchor="middle" font-family="'Arial Narrow', Arial, sans-serif" font-size="7.5" fill="#333">9.2m²</text>
  <path d="M 1081.45456 711.5018666666667 L 1075.45456 717.5018666666667 L 1087.45456 717.5018666666667 Z" fill="#000" stroke="none"/>
  <text x="1090.45456" y="719.5018666666667" font-family="'Arial Narrow', Arial, sans-serif" font-size="8" fill="#000">+0.050</text>
  <rect x="1238.2866666666666" y="348.4981333333333" width="204.89333333333335" height="262.2634666666667" fill="white" stroke="none"/>
  <rect x="1285.7333333333333" y="362.84066666666666" width="110" height="50" fill="white" stroke="#000000" stroke-width="0.8"/>
  <line x1="1340.7333333333333" y1="362.84066666666666" x2="1340.7333333333333" y2="412.84066666666666" stroke="#000000" stroke-width="0.4"/>
  <line x1="1285.7333333333333" y1="387.84066666666666" x2="1395.7333333333333" y2="387.84066666666666" stroke="#000000" stroke-width="0.4"/>
  <rect x="1323.2333333333333" y="422.84066666666666" width="35" height="22" rx="2" fill="white" stroke="#000000" stroke-width="0.6"/>
  <text x="1340.7333333333333" y="477.62986666666666" text-anchor="middle" font-family="'Arial Narrow', Arial, sans-serif" font-size="9" fill="#000" font-weight="bold">Phòng thờ</text>
  <text x="1340.7333333333333" y="489.62986666666666" text-anchor="middle" font-family="'Arial Narrow', Arial, sans-serif" font-size="7.5" fill="#333">8.0m²</text>
  <rect x="1243.2041066666668" y="620.59648" width="163.91466666666668" height="104.90538666666667" fill="white" stroke="none"/>
  <text x="1325.16144" y="671.0491733333333" text-anchor="middle" font-family="'Arial Narrow', Arial, sans-serif" font-size="9" fill="#000" font-weight="bold">Giếng trời</text>
  <text x="1325.16144" y="683.0491733333333" text-anchor="middle" font-family="'Arial Narrow', Arial, sans-serif" font-size="7.5" fill="#333">2.6m²</text>
  <polygon points="205.62,332.11 205.62,741.89 222.02,741.89 222.02,332.11" fill="url(#hatch-ext)" stroke="#000" stroke-width="1.4"/>
  <line x1="205.6242666666666" y1="332.1066666666667" x2="205.6242666666666" y2="741.8933333333334" stroke="#000" stroke-width="1.5" stroke-linecap="square"/>
  <line x1="222.01573333333326" y1="332.1066666666667" x2="222.01573333333326" y2="741.8933333333334" stroke="#000" stroke-width="1.5" stroke-linecap="square"/>
  <polygon points="1434.98,332.11 1434.98,741.89 1451.38,741.89 1451.38,332.11" fill="url(#hatch-ext)" stroke="#000" stroke-width="1.4"/>
  <line x1="1434.9842666666668" y1="332.1066666666667" x2="1434.9842666666668" y2="741.8933333333334" stroke="#000" stroke-width="1.5" stroke-linecap="square"/>
  <line x1="1451.3757333333333" y1="332.1066666666667" x2="1451.3757333333333" y2="741.8933333333334" stroke="#000" stroke-width="1.5" stroke-linecap="square"/>
  <polygon points="213.82,340.30 1443.18,340.30 1443.18,323.91 213.82,323.91" fill="url(#hatch-ext)" stroke="#000" stroke-width="1.4"/>
  <line x1="213.81999999999994" y1="340.30240000000003" x2="1443.18" y2="340.30240000000003" stroke="#000" stroke-width="1.5" stroke-linecap="square"/>
  <line x1="213.81999999999994" y1="323.91093333333333" x2="1443.18" y2="323.91093333333333" stroke="#000" stroke-width="1.5" stroke-linecap="square"/>
  <polygon points="213.82,750.09 1443.18,750.09 1443.18,733.70 213.82,733.70" fill="url(#hatch-ext)" stroke="#000" stroke-width="1.4"/>
  <line x1="213.81999999999994" y1="750.0890666666668" x2="1443.18" y2="750.0890666666668" stroke="#000" stroke-width="1.5" stroke-linecap="square"/>
  <line x1="213.81999999999994" y1="733.6976000000001" x2="1443.18" y2="733.6976000000001" stroke="#000" stroke-width="1.5" stroke-linecap="square"/>
  <polygon points="717.04,348.50 717.04,725.50 726.87,725.50 726.87,348.50" fill="url(#hatch-int)" stroke="#000" stroke-width="0.7"/>
  <line x1="717.0380266666666" y1="348.4981333333333" x2="717.0380266666666" y2="725.5018666666667" stroke="#000" stroke-width="0.8" stroke-linecap="square"/>
  <line x1="726.8729066666667" y1="348.4981333333333" x2="726.8729066666667" y2="725.5018666666667" stroke="#000" stroke-width="0.8" stroke-linecap="square"/>
  <polygon points="1054.70,348.50 1054.70,725.50 1064.54,725.50 1064.54,348.50" fill="url(#hatch-int)" stroke="#000" stroke-width="0.7"/>
  <line x1="1054.70224" y1="348.4981333333333" x2="1054.70224" y2="725.5018666666667" stroke="#000" stroke-width="0.8" stroke-linecap="square"/>
  <line x1="1064.53712" y1="348.4981333333333" x2="1064.53712" y2="725.5018666666667" stroke="#000" stroke-width="0.8" stroke-linecap="square"/>
  <polygon points="717.04,348.50 717.04,725.50 726.87,725.50 726.87,348.50" fill="url(#hatch-int)" stroke="#000" stroke-width="0.7"/>
  <line x1="717.0380266666666" y1="348.4981333333333" x2="717.0380266666666" y2="725.5018666666667" stroke="#000" stroke-width="0.8" stroke-linecap="square"/>
  <line x1="726.8729066666667" y1="348.4981333333333" x2="726.8729066666667" y2="725.5018666666667" stroke="#000" stroke-width="0.8" stroke-linecap="square"/>
  <polygon points="1054.70,348.50 1054.70,725.50 1064.54,725.50 1064.54,348.50" fill="url(#hatch-int)" stroke="#000" stroke-width="0.7"/>
  <line x1="1054.70224" y1="348.4981333333333" x2="1054.70224" y2="725.5018666666667" stroke="#000" stroke-width="0.8" stroke-linecap="square"/>
  <line x1="1064.53712" y1="348.4981333333333" x2="1064.53712" y2="725.5018666666667" stroke="#000" stroke-width="0.8" stroke-linecap="square"/>
  <polygon points="1228.45,348.50 1228.45,610.76 1238.29,610.76 1238.29,348.50" fill="url(#hatch-int)" stroke="#000" stroke-width="0.7"/>
  <line x1="1228.4517866666667" y1="348.4981333333333" x2="1228.4517866666667" y2="610.7616" stroke="#000" stroke-width="0.8" stroke-linecap="square"/>
  <line x1="1238.2866666666666" y1="348.4981333333333" x2="1238.2866666666666" y2="610.7616" stroke="#000" stroke-width="0.8" stroke-linecap="square"/>
  <polygon points="1228.45,620.60 1228.45,725.50 1238.29,725.50 1238.29,620.60" fill="url(#hatch-int)" stroke="#000" stroke-width="0.7"/>
  <line x1="1228.4517866666667" y1="620.59648" x2="1228.4517866666667" y2="725.5018666666667" stroke="#000" stroke-width="0.8" stroke-linecap="square"/>
  <line x1="1238.2866666666666" y1="620.59648" x2="1238.2866666666666" y2="725.5018666666667" stroke="#000" stroke-width="0.8" stroke-linecap="square"/>
  <polygon points="1243.20,615.68 1407.12,615.68 1407.12,605.84 1243.20,605.84" fill="url(#hatch-int)" stroke="#000" stroke-width="0.7"/>
  <line x1="1243.2041066666668" y1="615.6790400000001" x2="1407.1187733333334" y2="615.6790400000001" stroke="#000" stroke-width="0.8" stroke-linecap="square"/>
  <line x1="1243.2041066666668" y1="605.84416" x2="1407.1187733333334" y2="605.84416" stroke="#000" stroke-width="0.8" stroke-linecap="square"/>
  <polygon points="204.12,578.98 204.12,495.02 223.52,495.02 223.52,578.98" fill="white" stroke="none"/>
  <polygon points="715.54,570.78 715.54,503.22 728.37,503.22 728.37,570.78" fill="white" stroke="none"/>
  <polygon points="1053.20,570.78 1053.20,503.22 1066.04,503.22 1066.04,570.78" fill="white" stroke="none"/>
  <polygon points="1358.94,617.18 1291.38,617.18 1291.38,604.34 1358.94,604.34" fill="white" stroke="none"/>
  <rect x="1442.18" y="420.7597333333333" width="83.95733333333334" height="19.39146666666667" fill="white" stroke="none"/>
  <line x1="1443.18" y1="427.45546666666667" x2="1525.1373333333333" y2="427.45546666666667" stroke="#000000" stroke-width="2"/>
  <line x1="1443.18" y1="433.45546666666667" x2="1525.1373333333333" y2="433.45546666666667" stroke="#000000" stroke-width="2"/>
  <line x1="1443.18" y1="427.45546666666667" x2="1443.18" y2="433.45546666666667" stroke="#000000" stroke-width="1"/>
  <line x1="1525.1373333333333" y1="427.45546666666667" x2="1525.1373333333333" y2="433.45546666666667" stroke="#000000" stroke-width="1"/>
  <line x1="1443.18" y1="427.45546666666667" x2="1525.1373333333333" y2="433.45546666666667" stroke="#000000" stroke-width="0.5"/>
  <line x1="1525.1373333333333" y1="427.45546666666667" x2="1443.18" y2="433.45546666666667" stroke="#000000" stroke-width="0.5"/>
  <rect x="1474.1586666666667" y="408.45546666666667" width="20" height="12" rx="2" fill="white" stroke="#000" stroke-width="0.5"/>
  <text x="1484.1586666666667" y="418.45546666666667" text-anchor="middle" font-family="'Arial Narrow', Arial, sans-serif" font-size="7" fill="#000">S1</text>
  <line x1="213.81999999999994" y1="496.02133333333336" x2="295.7773333333333" y2="496.02133333333336" stroke="#000000" stroke-width="2"/>
  <line x1="213.81999999999994" y1="496.02133333333336" x2="213.81999999999994" y2="577.9786666666666" stroke="#000000" stroke-width="0.8"/>
  <path d="M 213.81999999999994 577.9786666666666 A 81.95733333333334 81.95733333333334 0 0 1 295.7773333333333 496.02133333333336" fill="none" stroke="#000000" stroke-width="0.7"/>
  <rect x="244.7986666666666" y="476.02133333333336" width="20" height="12" rx="2" fill="white" stroke="#000" stroke-width="0.5"/>
  <text x="254.7986666666666" y="486.02133333333336" text-anchor="middle" font-family="'Arial Narrow', Arial, sans-serif" font-size="7" fill="#000">D1</text>
  <line x1="721.9554666666667" y1="504.2170666666667" x2="787.5213333333334" y2="504.2170666666667" stroke="#000000" stroke-width="2"/>
  <line x1="721.9554666666667" y1="504.2170666666667" x2="721.9554666666667" y2="569.7829333333334" stroke="#000000" stroke-width="0.8"/>
  <path d="M 721.9554666666667 569.7829333333334 A 65.56586666666668 65.56586666666668 0 0 1 787.5213333333334 504.2170666666667" fill="none" stroke="#000000" stroke-width="0.7"/>
  <rect x="744.7384" y="484.2170666666667" width="20" height="12" rx="2" fill="white" stroke="#000" stroke-width="0.5"/>
  <text x="754.7384" y="494.2170666666667" text-anchor="middle" font-family="'Arial Narrow', Arial, sans-serif" font-size="7" fill="#000">D2</text>
  <line x1="1059.61968" y1="504.2170666666667" x2="1125.1855466666666" y2="504.2170666666667" stroke="#000000" stroke-width="2"/>
  <line x1="1059.61968" y1="504.2170666666667" x2="1059.61968" y2="569.7829333333334" stroke="#000000" stroke-width="0.8"/>
  <path d="M 1059.61968 569.7829333333334 A 65.56586666666668 65.56586666666668 0 0 1 1125.1855466666666 504.2170666666667" fill="none" stroke="#000000" stroke-width="0.7"/>
  <rect x="1082.4026133333334" y="484.2170666666667" width="20" height="12" rx="2" fill="white" stroke="#000" stroke-width="0.5"/>
  <text x="1092.4026133333334" y="494.2170666666667" text-anchor="middle" font-family="'Arial Narrow', Arial, sans-serif" font-size="7" fill="#000">D3</text>
  <line x1="1292.3785066666667" y1="610.7616" x2="1357.9443733333333" y2="610.7616" stroke="#000000" stroke-width="2"/>
  <line x1="1292.3785066666667" y1="610.7616" x2="1292.3785066666667" y2="676.3274666666667" stroke="#000000" stroke-width="0.8"/>
  <path d="M 1292.3785066666667 676.3274666666667 A 65.56586666666668 65.56586666666668 0 0 1 1357.9443733333333 610.7616" fill="none" stroke="#000000" stroke-width="0.7"/>
  <rect x="1315.16144" y="590.7616" width="20" height="12" rx="2" fill="white" stroke="#000" stroke-width="0.5"/>
  <text x="1325.16144" y="600.7616" text-anchor="middle" font-family="'Arial Narrow', Arial, sans-serif" font-size="7" fill="#000">D4</text>
  <circle cx="1473.18" cy="362.1066666666667" r="16" fill="white" stroke="#000" stroke-width="1"/>
  <path d="M 1473.18 349.1066666666667 L 1468.18 362.1066666666667 L 1473.18 357.1066666666667 L 1478.18 362.1066666666667 Z" fill="#000" stroke="none"/>
  <path d="M 1473.18 375.1066666666667 L 1468.18 362.1066666666667 L 1473.18 367.1066666666667 L 1478.18 362.1066666666667 Z" fill="white" stroke="#000" stroke-width="0.6"/>
  <text x="1473.18" y="342.1066666666667" text-anchor="middle" font-family="'Arial Narrow', Arial, sans-serif" font-size="9" fill="#000" font-weight="bold">N</text>
  <rect x="213.81999999999994" y="332.1066666666667" width="1229.3600000000001" height="409.7866666666667" fill="none" stroke="#000000" stroke-width="2"/>
  <line x1="213.81999999999994" y1="743.8933333333334" x2="213.81999999999994" y2="763.8933333333334" stroke="#000000" stroke-width="0.35"/>
  <line x1="312.1687999999999" y1="743.8933333333334" x2="312.1687999999999" y2="763.8933333333334" stroke="#000000" stroke-width="0.35"/>
  <line x1="213.81999999999994" y1="761.8933333333334" x2="312.1687999999999" y2="761.8933333333334" stroke="#000000" stroke-width="0.5"/>
  <line x1="211.81999999999994" y1="765.8933333333334" x2="215.81999999999994" y2="757.8933333333334" stroke="#000000" stroke-width="0.8"/>
  <line x1="310.1687999999999" y1="765.8933333333334" x2="314.1687999999999" y2="757.8933333333334" stroke="#000000" stroke-width="0.8"/>
  <text x="262.9943999999999" y="756.8933333333334" text-anchor="middle" font-family="'Arial Narrow', Arial, sans-serif" font-size="10" fill="#000000">1200</text>
  <line x1="312.1687999999999" y1="743.8933333333334" x2="312.1687999999999" y2="763.8933333333334" stroke="#000000" stroke-width="0.35"/>
  <line x1="721.9554666666667" y1="743.8933333333334" x2="721.9554666666667" y2="763.8933333333334" stroke="#000000" stroke-width="0.35"/>
  <line x1="312.1687999999999" y1="761.8933333333334" x2="721.9554666666667" y2="761.8933333333334" stroke="#000000" stroke-width="0.5"/>
  <line x1="310.1687999999999" y1="765.8933333333334" x2="314.1687999999999" y2="757.8933333333334" stroke="#000000" stroke-width="0.8"/>
  <line x1="719.9554666666667" y1="765.8933333333334" x2="723.9554666666667" y2="757.8933333333334" stroke="#000000" stroke-width="0.8"/>
  <text x="517.0621333333333" y="756.8933333333334" text-anchor="middle" font-family="'Arial Narrow', Arial, sans-serif" font-size="10" fill="#000000">5000</text>
  <line x1="721.9554666666667" y1="743.8933333333334" x2="721.9554666666667" y2="763.8933333333334" stroke="#000000" stroke-width="0.35"/>
  <line x1="731.7903466666667" y1="743.8933333333334" x2="731.7903466666667" y2="763.8933333333334" stroke="#000000" stroke-width="0.35"/>
  <line x1="721.9554666666667" y1="761.8933333333334" x2="731.7903466666667" y2="761.8933333333334" stroke="#000000" stroke-width="0.5"/>
  <line x1="719.9554666666667" y1="765.8933333333334" x2="723.9554666666667" y2="757.8933333333334" stroke="#000000" stroke-width="0.8"/>
  <line x1="729.7903466666667" y1="765.8933333333334" x2="733.7903466666667" y2="757.8933333333334" stroke="#000000" stroke-width="0.8"/>
  <text x="726.8729066666667" y="756.8933333333334" text-anchor="middle" font-family="'Arial Narrow', Arial, sans-serif" font-size="10" fill="#000000">120</text>
  <line x1="735.8882133333333" y1="743.8933333333334" x2="735.8882133333333" y2="763.8933333333334" stroke="#000000" stroke-width="0.35"/>
  <line x1="1059.61968" y1="743.8933333333334" x2="1059.61968" y2="763.8933333333334" stroke="#000000" stroke-width="0.35"/>
  <line x1="735.8882133333333" y1="761.8933333333334" x2="1059.61968" y2="761.8933333333334" stroke="#000000" stroke-width="0.5"/>
  <line x1="733.8882133333333" y1="765.8933333333334" x2="737.8882133333333" y2="757.8933333333334" stroke="#000000" stroke-width="0.8"/>
  <line x1="1057.61968" y1="765.8933333333334" x2="1061.61968" y2="757.8933333333334" stroke="#000000" stroke-width="0.8"/>
  <text x="897.7539466666667" y="756.8933333333334" text-anchor="middle" font-family="'Arial Narrow', Arial, sans-serif" font-size="10" fill="#000000">3950</text>
  <line x1="1059.61968" y1="743.8933333333334" x2="1059.61968" y2="763.8933333333334" stroke="#000000" stroke-width="0.35"/>
  <line x1="1069.45456" y1="743.8933333333334" x2="1069.45456" y2="763.8933333333334" stroke="#000000" stroke-width="0.35"/>
  <line x1="1059.61968" y1="761.8933333333334" x2="1069.45456" y2="761.8933333333334" stroke="#000000" stroke-width="0.5"/>
  <line x1="1057.61968" y1="765.8933333333334" x2="1061.61968" y2="757.8933333333334" stroke="#000000" stroke-width="0.8"/>
  <line x1="1067.45456" y1="765.8933333333334" x2="1071.45456" y2="757.8933333333334" stroke="#000000" stroke-width="0.8"/>
  <text x="1064.53712" y="756.8933333333334" text-anchor="middle" font-family="'Arial Narrow', Arial, sans-serif" font-size="10" fill="#000000">120</text>
  <line x1="1069.45456" y1="743.8933333333334" x2="1069.45456" y2="763.8933333333334" stroke="#000000" stroke-width="0.35"/>
  <line x1="1233.3692266666667" y1="743.8933333333334" x2="1233.3692266666667" y2="763.8933333333334" stroke="#000000" stroke-width="0.35"/>
  <line x1="1069.45456" y1="761.8933333333334" x2="1233.3692266666667" y2="761.8933333333334" stroke="#000000" stroke-width="0.5"/>
  <line x1="1067.45456" y1="765.8933333333334" x2="1071.45456" y2="757.8933333333334" stroke="#000000" stroke-width="0.8"/>
  <line x1="1231.3692266666667" y1="765.8933333333334" x2="1235.3692266666667" y2="757.8933333333334" stroke="#000000" stroke-width="0.8"/>
  <text x="1151.4118933333334" y="756.8933333333334" text-anchor="middle" font-family="'Arial Narrow', Arial, sans-serif" font-size="10" fill="#000000">2000</text>
  <line x1="1233.3692266666667" y1="743.8933333333334" x2="1233.3692266666667" y2="763.8933333333334" stroke="#000000" stroke-width="0.35"/>
  <line x1="1238.2866666666666" y1="743.8933333333334" x2="1238.2866666666666" y2="763.8933333333334" stroke="#000000" stroke-width="0.35"/>
  <line x1="1233.3692266666667" y1="761.8933333333334" x2="1238.2866666666666" y2="761.8933333333334" stroke="#000000" stroke-width="0.5"/>
  <line x1="1231.3692266666667" y1="765.8933333333334" x2="1235.3692266666667" y2="757.8933333333334" stroke="#000000" stroke-width="0.8"/>
  <line x1="1236.2866666666666" y1="765.8933333333334" x2="1240.2866666666666" y2="757.8933333333334" stroke="#000000" stroke-width="0.8"/>
  <text x="1235.8279466666668" y="756.8933333333334" text-anchor="middle" font-family="'Arial Narrow', Arial, sans-serif" font-size="10" fill="#000000">60</text>
  <line x1="1238.2866666666666" y1="743.8933333333334" x2="1238.2866666666666" y2="763.8933333333334" stroke="#000000" stroke-width="0.35"/>
  <line x1="1243.2041066666668" y1="743.8933333333334" x2="1243.2041066666668" y2="763.8933333333334" stroke="#000000" stroke-width="0.35"/>
  <line x1="1238.2866666666666" y1="761.8933333333334" x2="1243.2041066666668" y2="761.8933333333334" stroke="#000000" stroke-width="0.5"/>
  <line x1="1236.2866666666666" y1="765.8933333333334" x2="1240.2866666666666" y2="757.8933333333334" stroke="#000000" stroke-width="0.8"/>
  <line x1="1241.2041066666668" y1="765.8933333333334" x2="1245.2041066666668" y2="757.8933333333334" stroke="#000000" stroke-width="0.8"/>
  <text x="1240.7453866666667" y="756.8933333333334" text-anchor="middle" font-family="'Arial Narrow', Arial, sans-serif" font-size="10" fill="#000000">60</text>
  <line x1="1243.2041066666668" y1="743.8933333333334" x2="1243.2041066666668" y2="763.8933333333334" stroke="#000000" stroke-width="0.35"/>
  <line x1="1407.1187733333334" y1="743.8933333333334" x2="1407.1187733333334" y2="763.8933333333334" stroke="#000000" stroke-width="0.35"/>
  <line x1="1243.2041066666668" y1="761.8933333333334" x2="1407.1187733333334" y2="761.8933333333334" stroke="#000000" stroke-width="0.5"/>
  <line x1="1241.2041066666668" y1="765.8933333333334" x2="1245.2041066666668" y2="757.8933333333334" stroke="#000000" stroke-width="0.8"/>
  <line x1="1405.1187733333334" y1="765.8933333333334" x2="1409.1187733333334" y2="757.8933333333334" stroke="#000000" stroke-width="0.8"/>
  <text x="1325.16144" y="756.8933333333334" text-anchor="middle" font-family="'Arial Narrow', Arial, sans-serif" font-size="10" fill="#000000">2000</text>
  <line x1="1407.1187733333334" y1="743.8933333333334" x2="1407.1187733333334" y2="763.8933333333334" stroke="#000000" stroke-width="0.35"/>
  <line x1="1443.18" y1="743.8933333333334" x2="1443.18" y2="763.8933333333334" stroke="#000000" stroke-width="0.35"/>
  <line x1="1407.1187733333334" y1="761.8933333333334" x2="1443.18" y2="761.8933333333334" stroke="#000000" stroke-width="0.5"/>
  <line x1="1405.1187733333334" y1="765.8933333333334" x2="1409.1187733333334" y2="757.8933333333334" stroke="#000000" stroke-width="0.8"/>
  <line x1="1441.18" y1="765.8933333333334" x2="1445.18" y2="757.8933333333334" stroke="#000000" stroke-width="0.8"/>
  <text x="1425.1493866666667" y="756.8933333333334" text-anchor="middle" font-family="'Arial Narrow', Arial, sans-serif" font-size="10" fill="#000000">440</text>
  <line x1="213.81999999999994" y1="743.8933333333334" x2="213.81999999999994" y2="785.8933333333334" stroke="#000000" stroke-width="0.35"/>
  <line x1="312.1687999999999" y1="743.8933333333334" x2="312.1687999999999" y2="785.8933333333334" stroke="#000000" stroke-width="0.35"/>
  <line x1="213.81999999999994" y1="783.8933333333334" x2="312.1687999999999" y2="783.8933333333334" stroke="#000000" stroke-width="0.5"/>
  <line x1="211.81999999999994" y1="787.8933333333334" x2="215.81999999999994" y2="779.8933333333334" stroke="#000000" stroke-width="0.8"/>
  <line x1="310.1687999999999" y1="787.8933333333334" x2="314.1687999999999" y2="779.8933333333334" stroke="#000000" stroke-width="0.8"/>
  <text x="262.9943999999999" y="778.8933333333334" text-anchor="middle" font-family="'Arial Narrow', Arial, sans-serif" font-size="10" fill="#000000">1200</text>
  <line x1="312.1687999999999" y1="743.8933333333334" x2="312.1687999999999" y2="785.8933333333334" stroke="#000000" stroke-width="0.35"/>
  <line x1="731.7903466666667" y1="743.8933333333334" x2="731.7903466666667" y2="785.8933333333334" stroke="#000000" stroke-width="0.35"/>
  <line x1="312.1687999999999" y1="783.8933333333334" x2="731.7903466666667" y2="783.8933333333334" stroke="#000000" stroke-width="0.5"/>
  <line x1="310.1687999999999" y1="787.8933333333334" x2="314.1687999999999" y2="779.8933333333334" stroke="#000000" stroke-width="0.8"/>
  <line x1="729.7903466666667" y1="787.8933333333334" x2="733.7903466666667" y2="779.8933333333334" stroke="#000000" stroke-width="0.8"/>
  <text x="521.9795733333333" y="778.8933333333334" text-anchor="middle" font-family="'Arial Narrow', Arial, sans-serif" font-size="10" fill="#000000">5120</text>
  <line x1="731.7903466666667" y1="743.8933333333334" x2="731.7903466666667" y2="785.8933333333334" stroke="#000000" stroke-width="0.35"/>
  <line x1="1069.45456" y1="743.8933333333334" x2="1069.45456" y2="785.8933333333334" stroke="#000000" stroke-width="0.35"/>
  <line x1="731.7903466666667" y1="783.8933333333334" x2="1069.45456" y2="783.8933333333334" stroke="#000000" stroke-width="0.5"/>
  <line x1="729.7903466666667" y1="787.8933333333334" x2="733.7903466666667" y2="779.8933333333334" stroke="#000000" stroke-width="0.8"/>
  <line x1="1067.45456" y1="787.8933333333334" x2="1071.45456" y2="779.8933333333334" stroke="#000000" stroke-width="0.8"/>
  <text x="900.6224533333333" y="778.8933333333334" text-anchor="middle" font-family="'Arial Narrow', Arial, sans-serif" font-size="10" fill="#000000">4120</text>
  <line x1="1069.45456" y1="743.8933333333334" x2="1069.45456" y2="785.8933333333334" stroke="#000000" stroke-width="0.35"/>
  <line x1="1238.2866666666666" y1="743.8933333333334" x2="1238.2866666666666" y2="785.8933333333334" stroke="#000000" stroke-width="0.35"/>
  <line x1="1069.45456" y1="783.8933333333334" x2="1238.2866666666666" y2="783.8933333333334" stroke="#000000" stroke-width="0.5"/>
  <line x1="1067.45456" y1="787.8933333333334" x2="1071.45456" y2="779.8933333333334" stroke="#000000" stroke-width="0.8"/>
  <line x1="1236.2866666666666" y1="787.8933333333334" x2="1240.2866666666666" y2="779.8933333333334" stroke="#000000" stroke-width="0.8"/>
  <text x="1153.8706133333333" y="778.8933333333334" text-anchor="middle" font-family="'Arial Narrow', Arial, sans-serif" font-size="10" fill="#000000">2060</text>
  <line x1="1238.2866666666666" y1="743.8933333333334" x2="1238.2866666666666" y2="785.8933333333334" stroke="#000000" stroke-width="0.35"/>
  <line x1="1407.1187733333334" y1="743.8933333333334" x2="1407.1187733333334" y2="785.8933333333334" stroke="#000000" stroke-width="0.35"/>
  <line x1="1238.2866666666666" y1="783.8933333333334" x2="1407.1187733333334" y2="783.8933333333334" stroke="#000000" stroke-width="0.5"/>
  <line x1="1236.2866666666666" y1="787.8933333333334" x2="1240.2866666666666" y2="779.8933333333334" stroke="#000000" stroke-width="0.8"/>
  <line x1="1405.1187733333334" y1="787.8933333333334" x2="1409.1187733333334" y2="779.8933333333334" stroke="#000000" stroke-width="0.8"/>
  <text x="1322.70272" y="778.8933333333334" text-anchor="middle" font-family="'Arial Narrow', Arial, sans-serif" font-size="10" fill="#000000">2060</text>
  <line x1="1407.1187733333334" y1="743.8933333333334" x2="1407.1187733333334" y2="785.8933333333334" stroke="#000000" stroke-width="0.35"/>
  <line x1="1443.18" y1="743.8933333333334" x2="1443.18" y2="785.8933333333334" stroke="#000000" stroke-width="0.35"/>
  <line x1="1407.1187733333334" y1="783.8933333333334" x2="1443.18" y2="783.8933333333334" stroke="#000000" stroke-width="0.5"/>
  <line x1="1405.1187733333334" y1="787.8933333333334" x2="1409.1187733333334" y2="779.8933333333334" stroke="#000000" stroke-width="0.8"/>
  <line x1="1441.18" y1="787.8933333333334" x2="1445.18" y2="779.8933333333334" stroke="#000000" stroke-width="0.8"/>
  <text x="1425.1493866666667" y="778.8933333333334" text-anchor="middle" font-family="'Arial Narrow', Arial, sans-serif" font-size="10" fill="#000000">440</text>
  <line x1="213.81999999999994" y1="743.8933333333334" x2="213.81999999999994" y2="807.8933333333334" stroke="#000000" stroke-width="0.35"/>
  <line x1="1443.18" y1="743.8933333333334" x2="1443.18" y2="807.8933333333334" stroke="#000000" stroke-width="0.35"/>
  <line x1="213.81999999999994" y1="805.8933333333334" x2="1443.18" y2="805.8933333333334" stroke="#000000" stroke-width="0.5"/>
  <line x1="211.81999999999994" y1="809.8933333333334" x2="215.81999999999994" y2="801.8933333333334" stroke="#000000" stroke-width="0.8"/>
  <line x1="1441.18" y1="809.8933333333334" x2="1445.18" y2="801.8933333333334" stroke="#000000" stroke-width="0.8"/>
  <text x="828.5" y="800.8933333333334" text-anchor="middle" font-family="'Arial Narrow', Arial, sans-serif" font-size="10" fill="#000000">15000</text>
  <line x1="211.81999999999994" y1="332.1066666666667" x2="191.81999999999994" y2="332.1066666666667" stroke="#000000" stroke-width="0.35"/>
  <line x1="211.81999999999994" y1="348.4981333333333" x2="191.81999999999994" y2="348.4981333333333" stroke="#000000" stroke-width="0.35"/>
  <line x1="193.81999999999994" y1="332.1066666666667" x2="193.81999999999994" y2="348.4981333333333" stroke="#000000" stroke-width="0.5"/>
  <line x1="189.81999999999994" y1="334.1066666666667" x2="197.81999999999994" y2="330.1066666666667" stroke="#000000" stroke-width="0.8"/>
  <line x1="189.81999999999994" y1="350.4981333333333" x2="197.81999999999994" y2="346.4981333333333" stroke="#000000" stroke-width="0.8"/>
  <text x="185.81999999999994" y="340.30240000000003" text-anchor="middle" font-family="'Arial Narrow', Arial, sans-serif" font-size="7.5" fill="#000000" transform="rotate(-90, 185.81999999999994, 340.30240000000003)">200</text>
  <line x1="211.81999999999994" y1="348.4981333333333" x2="191.81999999999994" y2="348.4981333333333" stroke="#000000" stroke-width="0.35"/>
  <line x1="211.81999999999994" y1="610.7616" x2="191.81999999999994" y2="610.7616" stroke="#000000" stroke-width="0.35"/>
  <line x1="193.81999999999994" y1="348.4981333333333" x2="193.81999999999994" y2="610.7616" stroke="#000000" stroke-width="0.5"/>
  <line x1="189.81999999999994" y1="350.4981333333333" x2="197.81999999999994" y2="346.4981333333333" stroke="#000000" stroke-width="0.8"/>
  <line x1="189.81999999999994" y1="612.7616" x2="197.81999999999994" y2="608.7616" stroke="#000000" stroke-width="0.8"/>
  <text x="185.81999999999994" y="479.62986666666666" text-anchor="middle" font-family="'Arial Narrow', Arial, sans-serif" font-size="7.5" fill="#000000" transform="rotate(-90, 185.81999999999994, 479.62986666666666)">3200</text>
  <line x1="211.81999999999994" y1="610.7616" x2="191.81999999999994" y2="610.7616" stroke="#000000" stroke-width="0.35"/>
  <line x1="211.81999999999994" y1="620.59648" x2="191.81999999999994" y2="620.59648" stroke="#000000" stroke-width="0.35"/>
  <line x1="193.81999999999994" y1="610.7616" x2="193.81999999999994" y2="620.59648" stroke="#000000" stroke-width="0.5"/>
  <line x1="189.81999999999994" y1="612.7616" x2="197.81999999999994" y2="608.7616" stroke="#000000" stroke-width="0.8"/>
  <line x1="189.81999999999994" y1="622.59648" x2="197.81999999999994" y2="618.59648" stroke="#000000" stroke-width="0.8"/>
  <text x="185.81999999999994" y="615.67904" text-anchor="middle" font-family="'Arial Narrow', Arial, sans-serif" font-size="7.5" fill="#000000" transform="rotate(-90, 185.81999999999994, 615.67904)">120</text>
  <line x1="211.81999999999994" y1="620.59648" x2="191.81999999999994" y2="620.59648" stroke="#000000" stroke-width="0.35"/>
  <line x1="211.81999999999994" y1="725.5018666666667" x2="191.81999999999994" y2="725.5018666666667" stroke="#000000" stroke-width="0.35"/>
  <line x1="193.81999999999994" y1="620.59648" x2="193.81999999999994" y2="725.5018666666667" stroke="#000000" stroke-width="0.5"/>
  <line x1="189.81999999999994" y1="622.59648" x2="197.81999999999994" y2="618.59648" stroke="#000000" stroke-width="0.8"/>
  <line x1="189.81999999999994" y1="727.5018666666667" x2="197.81999999999994" y2="723.5018666666667" stroke="#000000" stroke-width="0.8"/>
  <text x="185.81999999999994" y="673.0491733333333" text-anchor="middle" font-family="'Arial Narrow', Arial, sans-serif" font-size="7.5" fill="#000000" transform="rotate(-90, 185.81999999999994, 673.0491733333333)">1280</text>
  <line x1="211.81999999999994" y1="725.5018666666667" x2="191.81999999999994" y2="725.5018666666667" stroke="#000000" stroke-width="0.35"/>
  <line x1="211.81999999999994" y1="741.8933333333334" x2="191.81999999999994" y2="741.8933333333334" stroke="#000000" stroke-width="0.35"/>
  <line x1="193.81999999999994" y1="725.5018666666667" x2="193.81999999999994" y2="741.8933333333334" stroke="#000000" stroke-width="0.5"/>
  <line x1="189.81999999999994" y1="727.5018666666667" x2="197.81999999999994" y2="723.5018666666667" stroke="#000000" stroke-width="0.8"/>
  <line x1="189.81999999999994" y1="743.8933333333334" x2="197.81999999999994" y2="739.8933333333334" stroke="#000000" stroke-width="0.8"/>
  <text x="185.81999999999994" y="733.6976000000001" text-anchor="middle" font-family="'Arial Narrow', Arial, sans-serif" font-size="7.5" fill="#000000" transform="rotate(-90, 185.81999999999994, 733.6976000000001)">200</text>
  <line x1="211.81999999999994" y1="332.1066666666667" x2="169.81999999999994" y2="332.1066666666667" stroke="#000000" stroke-width="0.35"/>
  <line x1="211.81999999999994" y1="741.8933333333334" x2="169.81999999999994" y2="741.8933333333334" stroke="#000000" stroke-width="0.35"/>
  <line x1="171.81999999999994" y1="332.1066666666667" x2="171.81999999999994" y2="741.8933333333334" stroke="#000000" stroke-width="0.5"/>
  <line x1="167.81999999999994" y1="334.1066666666667" x2="175.81999999999994" y2="330.1066666666667" stroke="#000000" stroke-width="0.8"/>
  <line x1="167.81999999999994" y1="743.8933333333334" x2="175.81999999999994" y2="739.8933333333334" stroke="#000000" stroke-width="0.8"/>
  <text x="163.81999999999994" y="537" text-anchor="middle" font-family="'Arial Narrow', Arial, sans-serif" font-size="7.5" fill="#000000" transform="rotate(-90, 163.81999999999994, 537)">5000</text>
  <line x1="211.81999999999994" y1="332.1066666666667" x2="147.81999999999994" y2="332.1066666666667" stroke="#000000" stroke-width="0.35"/>
  <line x1="211.81999999999994" y1="741.8933333333334" x2="147.81999999999994" y2="741.8933333333334" stroke="#000000" stroke-width="0.35"/>
  <line x1="149.81999999999994" y1="332.1066666666667" x2="149.81999999999994" y2="741.8933333333334" stroke="#000000" stroke-width="0.5"/>
  <line x1="145.81999999999994" y1="334.1066666666667" x2="153.81999999999994" y2="330.1066666666667" stroke="#000000" stroke-width="0.8"/>
  <line x1="145.81999999999994" y1="743.8933333333334" x2="153.81999999999994" y2="739.8933333333334" stroke="#000000" stroke-width="0.8"/>
  <text x="141.81999999999994" y="537" text-anchor="middle" font-family="'Arial Narrow', Arial, sans-serif" font-size="7.5" fill="#000000" transform="rotate(-90, 141.81999999999994, 537)">5000</text>
  <line x1="213.81999999999994" y1="330.1066666666667" x2="213.81999999999994" y2="310.1066666666667" stroke="#000000" stroke-width="0.35"/>
  <line x1="312.1687999999999" y1="330.1066666666667" x2="312.1687999999999" y2="310.1066666666667" stroke="#000000" stroke-width="0.35"/>
  <line x1="213.81999999999994" y1="312.1066666666667" x2="312.1687999999999" y2="312.1066666666667" stroke="#000000" stroke-width="0.5"/>
  <line x1="211.81999999999994" y1="316.1066666666667" x2="215.81999999999994" y2="308.1066666666667" stroke="#000000" stroke-width="0.8"/>
  <line x1="310.1687999999999" y1="316.1066666666667" x2="314.1687999999999" y2="308.1066666666667" stroke="#000000" stroke-width="0.8"/>
  <text x="262.9943999999999" y="325.1066666666667" text-anchor="middle" font-family="'Arial Narrow', Arial, sans-serif" font-size="10" fill="#000000">1200</text>
  <line x1="312.1687999999999" y1="330.1066666666667" x2="312.1687999999999" y2="310.1066666666667" stroke="#000000" stroke-width="0.35"/>
  <line x1="721.9554666666667" y1="330.1066666666667" x2="721.9554666666667" y2="310.1066666666667" stroke="#000000" stroke-width="0.35"/>
  <line x1="312.1687999999999" y1="312.1066666666667" x2="721.9554666666667" y2="312.1066666666667" stroke="#000000" stroke-width="0.5"/>
  <line x1="310.1687999999999" y1="316.1066666666667" x2="314.1687999999999" y2="308.1066666666667" stroke="#000000" stroke-width="0.8"/>
  <line x1="719.9554666666667" y1="316.1066666666667" x2="723.9554666666667" y2="308.1066666666667" stroke="#000000" stroke-width="0.8"/>
  <text x="517.0621333333333" y="325.1066666666667" text-anchor="middle" font-family="'Arial Narrow', Arial, sans-serif" font-size="10" fill="#000000">5000</text>
  <line x1="721.9554666666667" y1="330.1066666666667" x2="721.9554666666667" y2="310.1066666666667" stroke="#000000" stroke-width="0.35"/>
  <line x1="731.7903466666667" y1="330.1066666666667" x2="731.7903466666667" y2="310.1066666666667" stroke="#000000" stroke-width="0.35"/>
  <line x1="721.9554666666667" y1="312.1066666666667" x2="731.7903466666667" y2="312.1066666666667" stroke="#000000" stroke-width="0.5"/>
  <line x1="719.9554666666667" y1="316.1066666666667" x2="723.9554666666667" y2="308.1066666666667" stroke="#000000" stroke-width="0.8"/>
  <line x1="729.7903466666667" y1="316.1066666666667" x2="733.7903466666667" y2="308.1066666666667" stroke="#000000" stroke-width="0.8"/>
  <text x="726.8729066666667" y="325.1066666666667" text-anchor="middle" font-family="'Arial Narrow', Arial, sans-serif" font-size="10" fill="#000000">120</text>
  <line x1="735.8882133333333" y1="330.1066666666667" x2="735.8882133333333" y2="310.1066666666667" stroke="#000000" stroke-width="0.35"/>
  <line x1="1059.61968" y1="330.1066666666667" x2="1059.61968" y2="310.1066666666667" stroke="#000000" stroke-width="0.35"/>
  <line x1="735.8882133333333" y1="312.1066666666667" x2="1059.61968" y2="312.1066666666667" stroke="#000000" stroke-width="0.5"/>
  <line x1="733.8882133333333" y1="316.1066666666667" x2="737.8882133333333" y2="308.1066666666667" stroke="#000000" stroke-width="0.8"/>
  <line x1="1057.61968" y1="316.1066666666667" x2="1061.61968" y2="308.1066666666667" stroke="#000000" stroke-width="0.8"/>
  <text x="897.7539466666667" y="325.1066666666667" text-anchor="middle" font-family="'Arial Narrow', Arial, sans-serif" font-size="10" fill="#000000">3950</text>
  <line x1="1059.61968" y1="330.1066666666667" x2="1059.61968" y2="310.1066666666667" stroke="#000000" stroke-width="0.35"/>
  <line x1="1069.45456" y1="330.1066666666667" x2="1069.45456" y2="310.1066666666667" stroke="#000000" stroke-width="0.35"/>
  <line x1="1059.61968" y1="312.1066666666667" x2="1069.45456" y2="312.1066666666667" stroke="#000000" stroke-width="0.5"/>
  <line x1="1057.61968" y1="316.1066666666667" x2="1061.61968" y2="308.1066666666667" stroke="#000000" stroke-width="0.8"/>
  <line x1="1067.45456" y1="316.1066666666667" x2="1071.45456" y2="308.1066666666667" stroke="#000000" stroke-width="0.8"/>
  <text x="1064.53712" y="325.1066666666667" text-anchor="middle" font-family="'Arial Narrow', Arial, sans-serif" font-size="10" fill="#000000">120</text>
  <line x1="1069.45456" y1="330.1066666666667" x2="1069.45456" y2="310.1066666666667" stroke="#000000" stroke-width="0.35"/>
  <line x1="1233.3692266666667" y1="330.1066666666667" x2="1233.3692266666667" y2="310.1066666666667" stroke="#000000" stroke-width="0.35"/>
  <line x1="1069.45456" y1="312.1066666666667" x2="1233.3692266666667" y2="312.1066666666667" stroke="#000000" stroke-width="0.5"/>
  <line x1="1067.45456" y1="316.1066666666667" x2="1071.45456" y2="308.1066666666667" stroke="#000000" stroke-width="0.8"/>
  <line x1="1231.3692266666667" y1="316.1066666666667" x2="1235.3692266666667" y2="308.1066666666667" stroke="#000000" stroke-width="0.8"/>
  <text x="1151.4118933333334" y="325.1066666666667" text-anchor="middle" font-family="'Arial Narrow', Arial, sans-serif" font-size="10" fill="#000000">2000</text>
  <line x1="1233.3692266666667" y1="330.1066666666667" x2="1233.3692266666667" y2="310.1066666666667" stroke="#000000" stroke-width="0.35"/>
  <line x1="1238.2866666666666" y1="330.1066666666667" x2="1238.2866666666666" y2="310.1066666666667" stroke="#000000" stroke-width="0.35"/>
  <line x1="1233.3692266666667" y1="312.1066666666667" x2="1238.2866666666666" y2="312.1066666666667" stroke="#000000" stroke-width="0.5"/>
  <line x1="1231.3692266666667" y1="316.1066666666667" x2="1235.3692266666667" y2="308.1066666666667" stroke="#000000" stroke-width="0.8"/>
  <line x1="1236.2866666666666" y1="316.1066666666667" x2="1240.2866666666666" y2="308.1066666666667" stroke="#000000" stroke-width="0.8"/>
  <text x="1235.8279466666668" y="325.1066666666667" text-anchor="middle" font-family="'Arial Narrow', Arial, sans-serif" font-size="10" fill="#000000">60</text>
  <line x1="1238.2866666666666" y1="330.1066666666667" x2="1238.2866666666666" y2="310.1066666666667" stroke="#000000" stroke-width="0.35"/>
  <line x1="1243.2041066666668" y1="330.1066666666667" x2="1243.2041066666668" y2="310.1066666666667" stroke="#000000" stroke-width="0.35"/>
  <line x1="1238.2866666666666" y1="312.1066666666667" x2="1243.2041066666668" y2="312.1066666666667" stroke="#000000" stroke-width="0.5"/>
  <line x1="1236.2866666666666" y1="316.1066666666667" x2="1240.2866666666666" y2="308.1066666666667" stroke="#000000" stroke-width="0.8"/>
  <line x1="1241.2041066666668" y1="316.1066666666667" x2="1245.2041066666668" y2="308.1066666666667" stroke="#000000" stroke-width="0.8"/>
  <text x="1240.7453866666667" y="325.1066666666667" text-anchor="middle" font-family="'Arial Narrow', Arial, sans-serif" font-size="10" fill="#000000">60</text>
  <line x1="1243.2041066666668" y1="330.1066666666667" x2="1243.2041066666668" y2="310.1066666666667" stroke="#000000" stroke-width="0.35"/>
  <line x1="1407.1187733333334" y1="330.1066666666667" x2="1407.1187733333334" y2="310.1066666666667" stroke="#000000" stroke-width="0.35"/>
  <line x1="1243.2041066666668" y1="312.1066666666667" x2="1407.1187733333334" y2="312.1066666666667" stroke="#000000" stroke-width="0.5"/>
  <line x1="1241.2041066666668" y1="316.1066666666667" x2="1245.2041066666668" y2="308.1066666666667" stroke="#000000" stroke-width="0.8"/>
  <line x1="1405.1187733333334" y1="316.1066666666667" x2="1409.1187733333334" y2="308.1066666666667" stroke="#000000" stroke-width="0.8"/>
  <text x="1325.16144" y="325.1066666666667" text-anchor="middle" font-family="'Arial Narrow', Arial, sans-serif" font-size="10" fill="#000000">2000</text>
  <line x1="1407.1187733333334" y1="330.1066666666667" x2="1407.1187733333334" y2="310.1066666666667" stroke="#000000" stroke-width="0.35"/>
  <line x1="1443.18" y1="330.1066666666667" x2="1443.18" y2="310.1066666666667" stroke="#000000" stroke-width="0.35"/>
  <line x1="1407.1187733333334" y1="312.1066666666667" x2="1443.18" y2="312.1066666666667" stroke="#000000" stroke-width="0.5"/>
  <line x1="1405.1187733333334" y1="316.1066666666667" x2="1409.1187733333334" y2="308.1066666666667" stroke="#000000" stroke-width="0.8"/>
  <line x1="1441.18" y1="316.1066666666667" x2="1445.18" y2="308.1066666666667" stroke="#000000" stroke-width="0.8"/>
  <text x="1425.1493866666667" y="325.1066666666667" text-anchor="middle" font-family="'Arial Narrow', Arial, sans-serif" font-size="10" fill="#000000">440</text>
  <line x1="213.81999999999994" y1="330.1066666666667" x2="213.81999999999994" y2="288.1066666666667" stroke="#000000" stroke-width="0.35"/>
  <line x1="312.1687999999999" y1="330.1066666666667" x2="312.1687999999999" y2="288.1066666666667" stroke="#000000" stroke-width="0.35"/>
  <line x1="213.81999999999994" y1="290.1066666666667" x2="312.1687999999999" y2="290.1066666666667" stroke="#000000" stroke-width="0.5"/>
  <line x1="211.81999999999994" y1="294.1066666666667" x2="215.81999999999994" y2="286.1066666666667" stroke="#000000" stroke-width="0.8"/>
  <line x1="310.1687999999999" y1="294.1066666666667" x2="314.1687999999999" y2="286.1066666666667" stroke="#000000" stroke-width="0.8"/>
  <text x="262.9943999999999" y="303.1066666666667" text-anchor="middle" font-family="'Arial Narrow', Arial, sans-serif" font-size="10" fill="#000000">1200</text>
  <line x1="312.1687999999999" y1="330.1066666666667" x2="312.1687999999999" y2="288.1066666666667" stroke="#000000" stroke-width="0.35"/>
  <line x1="731.7903466666667" y1="330.1066666666667" x2="731.7903466666667" y2="288.1066666666667" stroke="#000000" stroke-width="0.35"/>
  <line x1="312.1687999999999" y1="290.1066666666667" x2="731.7903466666667" y2="290.1066666666667" stroke="#000000" stroke-width="0.5"/>
  <line x1="310.1687999999999" y1="294.1066666666667" x2="314.1687999999999" y2="286.1066666666667" stroke="#000000" stroke-width="0.8"/>
  <line x1="729.7903466666667" y1="294.1066666666667" x2="733.7903466666667" y2="286.1066666666667" stroke="#000000" stroke-width="0.8"/>
  <text x="521.9795733333333" y="303.1066666666667" text-anchor="middle" font-family="'Arial Narrow', Arial, sans-serif" font-size="10" fill="#000000">5120</text>
  <line x1="731.7903466666667" y1="330.1066666666667" x2="731.7903466666667" y2="288.1066666666667" stroke="#000000" stroke-width="0.35"/>
  <line x1="1069.45456" y1="330.1066666666667" x2="1069.45456" y2="288.1066666666667" stroke="#000000" stroke-width="0.35"/>
  <line x1="731.7903466666667" y1="290.1066666666667" x2="1069.45456" y2="290.1066666666667" stroke="#000000" stroke-width="0.5"/>
  <line x1="729.7903466666667" y1="294.1066666666667" x2="733.7903466666667" y2="286.1066666666667" stroke="#000000" stroke-width="0.8"/>
  <line x1="1067.45456" y1="294.1066666666667" x2="1071.45456" y2="286.1066666666667" stroke="#000000" stroke-width="0.8"/>
  <text x="900.6224533333333" y="303.1066666666667" text-anchor="middle" font-family="'Arial Narrow', Arial, sans-serif" font-size="10" fill="#000000">4120</text>
  <line x1="1069.45456" y1="330.1066666666667" x2="1069.45456" y2="288.1066666666667" stroke="#000000" stroke-width="0.35"/>
  <line x1="1238.2866666666666" y1="330.1066666666667" x2="1238.2866666666666" y2="288.1066666666667" stroke="#000000" stroke-width="0.35"/>
  <line x1="1069.45456" y1="290.1066666666667" x2="1238.2866666666666" y2="290.1066666666667" stroke="#000000" stroke-width="0.5"/>
  <line x1="1067.45456" y1="294.1066666666667" x2="1071.45456" y2="286.1066666666667" stroke="#000000" stroke-width="0.8"/>
  <line x1="1236.2866666666666" y1="294.1066666666667" x2="1240.2866666666666" y2="286.1066666666667" stroke="#000000" stroke-width="0.8"/>
  <text x="1153.8706133333333" y="303.1066666666667" text-anchor="middle" font-family="'Arial Narrow', Arial, sans-serif" font-size="10" fill="#000000">2060</text>
  <line x1="1238.2866666666666" y1="330.1066666666667" x2="1238.2866666666666" y2="288.1066666666667" stroke="#000000" stroke-width="0.35"/>
  <line x1="1407.1187733333334" y1="330.1066666666667" x2="1407.1187733333334" y2="288.1066666666667" stroke="#000000" stroke-width="0.35"/>
  <line x1="1238.2866666666666" y1="290.1066666666667" x2="1407.1187733333334" y2="290.1066666666667" stroke="#000000" stroke-width="0.5"/>
  <line x1="1236.2866666666666" y1="294.1066666666667" x2="1240.2866666666666" y2="286.1066666666667" stroke="#000000" stroke-width="0.8"/>
  <line x1="1405.1187733333334" y1="294.1066666666667" x2="1409.1187733333334" y2="286.1066666666667" stroke="#000000" stroke-width="0.8"/>
  <text x="1322.70272" y="303.1066666666667" text-anchor="middle" font-family="'Arial Narrow', Arial, sans-serif" font-size="10" fill="#000000">2060</text>
  <line x1="1407.1187733333334" y1="330.1066666666667" x2="1407.1187733333334" y2="288.1066666666667" stroke="#000000" stroke-width="0.35"/>
  <line x1="1443.18" y1="330.1066666666667" x2="1443.18" y2="288.1066666666667" stroke="#000000" stroke-width="0.35"/>
  <line x1="1407.1187733333334" y1="290.1066666666667" x2="1443.18" y2="290.1066666666667" stroke="#000000" stroke-width="0.5"/>
  <line x1="1405.1187733333334" y1="294.1066666666667" x2="1409.1187733333334" y2="286.1066666666667" stroke="#000000" stroke-width="0.8"/>
  <line x1="1441.18" y1="294.1066666666667" x2="1445.18" y2="286.1066666666667" stroke="#000000" stroke-width="0.8"/>
  <text x="1425.1493866666667" y="303.1066666666667" text-anchor="middle" font-family="'Arial Narrow', Arial, sans-serif" font-size="10" fill="#000000">440</text>
  <line x1="213.81999999999994" y1="330.1066666666667" x2="213.81999999999994" y2="266.1066666666667" stroke="#000000" stroke-width="0.35"/>
  <line x1="1443.18" y1="330.1066666666667" x2="1443.18" y2="266.1066666666667" stroke="#000000" stroke-width="0.35"/>
  <line x1="213.81999999999994" y1="268.1066666666667" x2="1443.18" y2="268.1066666666667" stroke="#000000" stroke-width="0.5"/>
  <line x1="211.81999999999994" y1="272.1066666666667" x2="215.81999999999994" y2="264.1066666666667" stroke="#000000" stroke-width="0.8"/>
  <line x1="1441.18" y1="272.1066666666667" x2="1445.18" y2="264.1066666666667" stroke="#000000" stroke-width="0.8"/>
  <text x="828.5" y="281.1066666666667" text-anchor="middle" font-family="'Arial Narrow', Arial, sans-serif" font-size="10" fill="#000000">15000</text>
  <line x1="141.81999999999994" y1="537" x2="1515.18" y2="537" stroke="#000" stroke-width="0.8" stroke-dasharray="12 3 3 3"/>
  <circle cx="141.81999999999994" cy="537" r="10" fill="white" stroke="#000" stroke-width="1"/>
  <text x="141.81999999999994" y="541" text-anchor="middle" font-family="'Arial Narrow', Arial, sans-serif" font-size="10" fill="#000" font-weight="bold">A</text>
  <circle cx="1515.18" cy="537" r="10" fill="white" stroke="#000" stroke-width="1"/>
  <text x="1515.18" y="541" text-anchor="middle" font-family="'Arial Narrow', Arial, sans-serif" font-size="10" fill="#000" font-weight="bold">A</text>
  <path d="M 127.81999999999994 534 L 127.81999999999994 540 L 130.81999999999994 537 Z" fill="#000" stroke="none"/>
  <path d="M 1529.18 534 L 1529.18 540 L 1526.18 537 Z" fill="#000" stroke="none"/>
  <text x="828.5" y="1100" text-anchor="middle" font-family="'Arial Narrow', Arial, sans-serif" font-size="18" fill="#000000" font-weight="bold" letter-spacing="2">MẶT BẰNG TẦNG TRỆT</text>
  <text x="828.5" y="1116" text-anchor="middle" font-family="'Arial Narrow', Arial, sans-serif" font-size="13" fill="#000000">TL: 1/46 (xoay 90°)</text>
  <text x="8" y="1120" font-family="'Arial Narrow', Arial, sans-serif" font-size="7" fill="#888888">⚠ Tầng 1: Hố thang "Cầu thang" (1.2×2.5m) hơi nhỏ cho thang U-shape — khuyến nghị ≥2.1×3.5m. | Tầng 2: Nên có ít nhất 2 WC cho 3 phòng ngủ (hiện có 1 WC).</text>
</svg>