<?xml version="1.0" encoding="UTF-8"?>
<svg xmlns="http://www.w3.org/2000/svg" width="420mm" height="297mm" viewBox="0 0 1587 1122" preserveAspectRatio="xMidYMid meet">
  <defs>
  <!-- Tường ngoài: gạch chéo đôi (cross-hatch) — chuẩn CAD kiến trúc -->
  <pattern id="hatch-ext" patternUnits="userSpaceOnUse" width="5" height="5">
    <line x1="0" y1="0" x2="5" y2="5" stroke="#000" stroke-width="0.6"/>
    <line x1="5" y1="0" x2="0" y2="5" stroke="#000" stroke-width="0.6"/>
  </pattern>
  <!-- Tường trong: gạch chéo đơn — mảnh hơn -->
  <pattern id="hatch-int" patternUnits="userSpaceOnUse" width="4" height="4">
    <line x1="0" y1="0" x2="4" y2="4" stroke="#555" stroke-width="0.4"/>
  </pattern>
  <!-- Tường tô đặc (cho cột / tường chịu lực) -->
  <pattern id="hatch-solid" patternUnits="userSpaceOnUse" width="3" height="3">
    <rect width="3" height="3" fill="#333"/>
  </pattern>
</defs>
  <rect width="1587" height="1122" fill="white"/>
  <!-- LẦU 1 | 5m×12m | Scale 1/37 | A3 landscape | BMT Decor -->
  <line x1="234.30933333333326" y1="240.88333333333333" x2="234.30933333333326" y2="833.1166666666667" stroke="#999999" stroke-width="0.4" stroke-dasharray="8 4 2 4"/>
  <circle cx="234.30933333333326" cy="833.1166666666667" r="14" fill="white" stroke="#000000" stroke-width="1.2"/>
  <text x="234.30933333333326" y="838.1166666666667" text-anchor="middle" font-family="'Arial Narrow', Arial, sans-serif" font-size="13" fill="#000000" font-weight="bold">1</text>
  <circle cx="234.30933333333326" cy="240.88333333333333" r="14" fill="white" stroke="#000000" stroke-width="1.2"/>
  <text x="234.30933333333326" y="245.88333333333333" text-anchor="middle" font-family="'Arial Narrow', Arial, sans-serif" font-size="13" fill="#000000" font-weight="bold">1</text>
  <line x1="707.6129333333333" y1="240.88333333333333" x2="707.6129333333333" y2="833.1166666666667" stroke="#999999" stroke-width="0.4" stroke-dasharray="8 4 2 4"/>
  <circle cx="707.6129333333333" cy="833.1166666666667" r="14" fill="white" stroke="#000000" stroke-width="1.2"/>
  <text x="707.6129333333333" y="838.1166666666667" text-anchor="middle" font-family="'Arial Narrow', Arial, sans-serif" font-size="13" fill="#000000" font-weight="bold">2</text>
  <circle cx="707.6129333333333" cy="240.88333333333333" r="14" fill="white" stroke="#000000" stroke-width="1.2"/>
  <text x="707.6129333333333" y="245.88333333333333" text-anchor="middle" font-family="'Arial Narrow', Arial, sans-serif" font-size="13" fill="#000000" font-weight="bold">2</text>
  <line x1="749.6160666666667" y1="240.88333333333333" x2="749.6160666666667" y2="833.1166666666667" stroke="#999999" stroke-width="0.4" stroke-dasharray="8 4 2 4"/>
  <circle cx="749.6160666666667" cy="833.1166666666667" r="14" fill="white" stroke="#000000" stroke-width="1.2"/>
  <text x="749.6160666666667" y="838.1166666666667" text-anchor="middle" font-family="'Arial Narrow', Arial, sans-serif" font-size="13" fill="#000000" font-weight="bold">3</text>
  <circle cx="749.6160666666667" cy="240.88333333333333" r="14" fill="white" stroke="#000000" stroke-width="1.2"/>
  <text x="749.6160666666667" y="245.88333333333333" text-anchor="middle" font-family="'Arial Narrow', Arial, sans-serif" font-size="13" fill="#000000" font-weight="bold">3</text>
  <line x1="1076.4209333333333" y1="240.88333333333333" x2="1076.4209333333333" y2="833.1166666666667" stroke="#999999" stroke-width="0.4" stroke-dasharray="8 4 2 4"/>
  <circle cx="1076.4209333333333" cy="833.1166666666667" r="14" fill="white" stroke="#000000" stroke-width="1.2"/>
  <text x="1076.4209333333333" y="838.1166666666667" text-anchor="middle" font-family="'Arial Narrow', Arial, sans-serif" font-size="13" fill="#000000" font-weight="bold">4</text>
  <circle cx="1076.4209333333333" cy="240.88333333333333" r="14" fill="white" stroke="#000000" stroke-width="1.2"/>
  <text x="1076.4209333333333" y="245.88333333333333" text-anchor="middle" font-family="'Arial Narrow', Arial, sans-serif" font-size="13" fill="#000000" font-weight="bold">4</text>
  <line x1="1135.8400000000001" y1="240.88333333333333" x2="1135.8400000000001" y2="833.1166666666667" stroke="#999999" stroke-width="0.4" stroke-dasharray="8 4 2 4"/>
  <circle cx="1135.8400000000001" cy="833.1166666666667" r="14" fill="white" stroke="#000000" stroke-width="1.2"/>
  <text x="1135.8400000000001" y="838.1166666666667" text-anchor="middle" font-family="'Arial Narrow', Arial, sans-serif" font-size="13" fill="#000000" font-weight="bold">5</text>
  <circle cx="1135.8400000000001" cy="240.88333333333333" r="14" fill="white" stroke="#000000" stroke-width="1.2"/>
  <text x="1135.8400000000001" y="245.88333333333333" text-anchor="middle" font-family="'Arial Narrow', Arial, sans-serif" font-size="13" fill="#000000" font-weight="bold">5</text>
  <line x1="1238.2866666666666" y1="240.88333333333333" x2="1238.2866666666666" y2="833.1166666666667" stroke="#999999" stroke-width="0.4" stroke-dasharray="8 4 2 4"/>
  <circle cx="1238.2866666666666" cy="833.1166666666667" r="14" fill="white" stroke="#000000" stroke-width="1.2"/>
  <text x="1238.2866666666666" y="838.1166666666667" text-anchor="middle" font-family="'Arial Narrow', Arial, sans-serif" font-size="13" fill="#000000" font-weight="bold">6</text>
  <circle cx="1238.2866666666666" cy="240.88333333333333" r="14" fill="white" stroke="#000000" stroke-width="1.2"/>
  <text x="1238.2866666666666" y="245.88333333333333" text-anchor="middle" font-family="'Arial Narrow', Arial, sans-serif" font-size="13" fill="#000000" font-weight="bold">6</text>
  <line x1="1443.18" y1="240.88333333333333" x2="1443.18" y2="833.1166666666667" stroke="#999999" stroke-width="0.4" stroke-dasharray="8 4 2 4"/>
  <circle cx="1443.18" cy="833.1166666666667" r="14" fill="white" stroke="#000000" stroke-width="1.2"/>
  <text x="1443.18" y="838.1166666666667" text-anchor="middle" font-family="'Arial Narrow', Arial, sans-serif" font-size="13" fill="#000000" font-weight="bold">7</text>
  <circle cx="1443.18" cy="240.88333333333333" r="14" fill="white" stroke="#000000" stroke-width="1.2"/>
  <text x="1443.18" y="245.88333333333333" text-anchor="middle" font-family="'Arial Narrow', Arial, sans-serif" font-size="13" fill="#000000" font-weight="bold">7</text>
  <line x1="173.81999999999994" y1="280.8833333333333" x2="1483.18" y2="280.8833333333333" stroke="#999999" stroke-width="0.4" stroke-dasharray="8 4 2 4"/>
  <circle cx="173.81999999999994" cy="280.8833333333333" r="14" fill="white" stroke="#000000" stroke-width="1.2"/>
  <text x="173.81999999999994" y="285.8833333333333" text-anchor="middle" font-family="'Arial Narrow', Arial, sans-serif" font-size="13" fill="#000000" font-weight="bold">A</text>
  <circle cx="1483.18" cy="280.8833333333333" r="14" fill="white" stroke="#000000" stroke-width="1.2"/>
  <text x="1483.18" y="285.8833333333333" text-anchor="middle" font-family="'Arial Narrow', Arial, sans-serif" font-size="13" fill="#000000" font-weight="bold">A</text>
  <line x1="173.81999999999994" y1="793.1166666666667" x2="1483.18" y2="793.1166666666667" stroke="#999999" stroke-width="0.4" stroke-dasharray="8 4 2 4"/>
  <circle cx="173.81999999999994" cy="793.1166666666667" r="14" fill="white" stroke="#000000" stroke-width="1.2"/>
  <text x="173.81999999999994" y="798.1166666666667" text-anchor="middle" font-family="'Arial Narrow', Arial, sans-serif" font-size="13" fill="#000000" font-weight="bold">B</text>
  <circle cx="1483.18" cy="793.1166666666667" r="14" fill="white" stroke="#000000" stroke-width="1.2"/>
  <text x="1483.18" y="798.1166666666667" text-anchor="middle" font-family="'Arial Narrow', Arial, sans-serif" font-size="13" fill="#000000" font-weight="bold">B</text>
  <rect x="224.0646666666666" y="270.63866666666667" width="20.489333333333335" height="20.489333333333335" fill="#000000" stroke="none"/>
  <rect x="224.0646666666666" y="782.872" width="20.489333333333335" height="20.489333333333335" fill="#000000" stroke="none"/>
  <rect x="697.3682666666666" y="270.63866666666667" width="20.489333333333335" height="20.489333333333335" fill="#000000" stroke="none"/>
  <rect x="697.3682666666666" y="782.872" width="20.489333333333335" height="20.489333333333335" fill="#000000" stroke="none"/>
  <rect x="739.3714" y="270.63866666666667" width="20.489333333333335" height="20.489333333333335" fill="#000000" stroke="none"/>
  <rect x="739.3714" y="782.872" width="20.489333333333335" height="20.489333333333335" fill="#000000" stroke="none"/>
  <rect x="1066.1762666666666" y="270.63866666666667" width="20.489333333333335" height="20.489333333333335" fill="#000000" stroke="none"/>
  <rect x="1066.1762666666666" y="782.872" width="20.489333333333335" height="20.489333333333335" fill="#000000" stroke="none"/>
  <rect x="1125.5953333333334" y="270.63866666666667" width="20.489333333333335" height="20.489333333333335" fill="#000000" stroke="none"/>
  <rect x="1125.5953333333334" y="782.872" width="20.489333333333335" height="20.489333333333335" fill="#000000" stroke="none"/>
  <rect x="1228.042" y="270.63866666666667" width="20.489333333333335" height="20.489333333333335" fill="#000000" stroke="none"/>
  <rect x="1228.042" y="782.872" width="20.489333333333335" height="20.489333333333335" fill="#000000" stroke="none"/>
  <rect x="1432.9353333333333" y="270.63866666666667" width="20.489333333333335" height="20.489333333333335" fill="#000000" stroke="none"/>
  <rect x="1432.9353333333333" y="782.872" width="20.489333333333335" height="20.489333333333335" fill="#000000" stroke="none"/>
  <rect x="749.6160666666667" y="301.37266666666665" width="326.80486666666667" height="471.25466666666665" fill="white" stroke="none"/>
  <rect x="749.6160666666667" y="301.37266666666665" width="326.80486666666667" height="471.25466666666665" fill="white" stroke="#000000" stroke-width="1"/>
  <line x1="749.6160666666667" y1="301.37266666666665" x2="1076.4209333333333" y2="772.6273333333334" stroke="#000000" stroke-width="0.6"/>
  <line x1="1076.4209333333333" y1="301.37266666666665" x2="749.6160666666667" y2="772.6273333333334" stroke="#000000" stroke-width="0.6"/>
  <text x="913.0185" y="541" text-anchor="middle" font-family="'Arial Narrow', Arial, sans-serif" font-size="7" fill="#000000">THÔNG TẦNG</text>
  <text x="913.0185" y="535" text-anchor="middle" font-family="'Arial Narrow', Arial, sans-serif" font-size="9" fill="#000" font-weight="bold">Cầu thang</text>
  <text x="913.0185" y="547" text-anchor="middle" font-family="'Arial Narrow', Arial, sans-serif" font-size="7.5" fill="#333">14.7m²</text>
  <rect x="234.30933333333326" y="301.37266666666665" width="461.01000000000005" height="471.25466666666665" fill="white" stroke="none"/>
  <rect x="409.81433333333325" y="333.6433666666667" width="110" height="95" fill="white" stroke="#000000" stroke-width="0.8"/>
  <rect x="409.81433333333325" y="333.6433666666667" width="110" height="6.65" fill="#c0c0c0" stroke="#000000" stroke-width="0.6"/>
  <rect x="414.21433333333323" y="343.29336666666666" width="39.6" height="17.099999999999998" rx="4" fill="#e8e8e8" stroke="#000000" stroke-width="0.5"/>
  <line x1="434.01433333333324" y1="344.29336666666666" x2="434.01433333333324" y2="359.3933666666667" stroke="#000000" stroke-width="0.25"/>
  <rect x="475.81433333333325" y="343.29336666666666" width="39.6" height="17.099999999999998" rx="4" fill="#e8e8e8" stroke="#000000" stroke-width="0.5"/>
  <line x1="495.61433333333326" y1="344.29336666666666" x2="495.61433333333326" y2="359.3933666666667" stroke="#000000" stroke-width="0.25"/>
  <line x1="411.81433333333325" y1="371.6433666666667" x2="517.8143333333333" y2="371.6433666666667" stroke="#000000" stroke-width="0.4"/>
  <path d="M 413.81433333333325 371.6433666666667 Q 464.81433333333325 377.6433666666667 515.8143333333333 371.6433666666667" fill="none" stroke="#000000" stroke-width="0.3"/>
  <line x1="464.81433333333325" y1="374.6433666666667" x2="464.81433333333325" y2="426.6433666666667" stroke="#000000" stroke-width="0.2" stroke-dasharray="3 3"/>
  <rect x="390.81433333333325" y="333.6433666666667" width="16" height="16" fill="white" stroke="#000000" stroke-width="0.6"/>
  <circle cx="398.81433333333325" cy="341.6433666666667" r="3" fill="none" stroke="#000000" stroke-width="0.35"/>
  <rect x="522.8143333333333" y="333.6433666666667" width="16" height="16" fill="white" stroke="#000000" stroke-width="0.6"/>
  <circle cx="530.8143333333333" cy="341.6433666666667" r="3" fill="none" stroke="#000000" stroke-width="0.35"/>
  <rect x="266.5800333333333" y="718.3566333333333" width="396.46860000000004" height="22" fill="white" stroke="#000000" stroke-width="0.7"/>
  <line x1="267.5800333333333" y1="719.3566333333333" x2="344.8737533333333" y2="739.3566333333333" stroke="#000000" stroke-width="0.3"/>
  <line x1="344.8737533333333" y1="719.3566333333333" x2="267.5800333333333" y2="739.3566333333333" stroke="#000000" stroke-width="0.3"/>
  <circle cx="304.2268933333333" cy="729.3566333333333" r="1" fill="#000000" stroke="none"/>
  <circle cx="308.2268933333333" cy="729.3566333333333" r="1" fill="#000000" stroke="none"/>
  <line x1="345.8737533333333" y1="718.3566333333333" x2="345.8737533333333" y2="740.3566333333333" stroke="#000000" stroke-width="0.5"/>
  <line x1="346.8737533333333" y1="719.3566333333333" x2="424.1674733333333" y2="739.3566333333333" stroke="#000000" stroke-width="0.3"/>
  <line x1="424.1674733333333" y1="719.3566333333333" x2="346.8737533333333" y2="739.3566333333333" stroke="#000000" stroke-width="0.3"/>
  <circle cx="383.5206133333333" cy="729.3566333333333" r="1" fill="#000000" stroke="none"/>
  <circle cx="387.5206133333333" cy="729.3566333333333" r="1" fill="#000000" stroke="none"/>
  <line x1="425.1674733333333" y1="718.3566333333333" x2="425.1674733333333" y2="740.3566333333333" stroke="#000000" stroke-width="0.5"/>
  <line x1="426.1674733333333" y1="719.3566333333333" x2="503.4611933333333" y2="739.3566333333333" stroke="#000000" stroke-width="0.3"/>
  <line x1="503.4611933333333" y1="719.3566333333333" x2="426.1674733333333" y2="739.3566333333333" stroke="#000000" stroke-width="0.3"/>
  <circle cx="462.8143333333333" cy="729.3566333333333" r="1" fill="#000000" stroke="none"/>
  <circle cx="466.8143333333333" cy="729.3566333333333" r="1" fill="#000000" stroke="none"/>
  <line x1="504.4611933333333" y1="718.3566333333333" x2="504.4611933333333" y2="740.3566333333333" stroke="#000000" stroke-width="0.5"/>
  <line x1="505.4611933333333" y1="719.3566333333333" x2="582.7549133333333" y2="739.3566333333333" stroke="#000000" stroke-width="0.3"/>
  <line x1="582.7549133333333" y1="719.3566333333333" x2="505.4611933333333" y2="739.3566333333333" stroke="#000000" stroke-width="0.3"/>
  <circle cx="542.1080533333334" cy="729.3566333333333" r="1" fill="#000000" stroke="none"/>
  <circle cx="546.1080533333334" cy="729.3566333333333" r="1" fill="#000000" stroke="none"/>
  <line x1="583.7549133333333" y1="718.3566333333333" x2="583.7549133333333" y2="740.3566333333333" stroke="#000000" stroke-width="0.5"/>
  <line x1="584.7549133333333" y1="719.3566333333333" x2="662.0486333333333" y2="739.3566333333333" stroke="#000000" stroke-width="0.3"/>
  <line x1="662.0486333333333" y1="719.3566333333333" x2="584.7549133333333" y2="739.3566333333333" stroke="#000000" stroke-width="0.3"/>
  <circle cx="621.4017733333333" cy="729.3566333333333" r="1" fill="#000000" stroke="none"/>
  <circle cx="625.4017733333333" cy="729.3566333333333" r="1" fill="#000000" stroke="none"/>
  <rect x="266.5800333333333" y="694.3566333333333" width="48" height="14" fill="white" stroke="#000000" stroke-width="0.6"/>
  <line x1="268.5800333333333" y1="701.3566333333333" x2="312.5800333333333" y2="701.3566333333333" stroke="#000000" stroke-width="0.25"/>
  <circle cx="290.5800333333333" cy="717.3566333333333" r="6" fill="none" stroke="#000000" stroke-width="0.5"/>
  <path d="M 284.5800333333333 718.3566333333333 A 8 8 0 0 0 296.5800333333333 718.3566333333333" fill="none" stroke="#000000" stroke-width="0.4"/>
  <text x="464.81433333333325" y="535" text-anchor="middle" font-family="'Arial Narrow', Arial, sans-serif" font-size="9" fill="#000" font-weight="bold">Phòng ngủ Master</text>
  <text x="464.81433333333325" y="547" text-anchor="middle" font-family="'Arial Narrow', Arial, sans-serif" font-size="7.5" fill="#333">20.7m²</text>
  <rect x="707.6129333333333" y="301.37266666666665" width="368.80800000000005" height="471.25466666666665" fill="white" stroke="none"/>
  <rect x="852.0169333333333" y="327.1892266666666" width="80" height="95" fill="white" stroke="#000000" stroke-width="0.8"/>
  <rect x="852.0169333333333" y="327.1892266666666" width="80" height="6.65" fill="#c0c0c0" stroke="#000000" stroke-width="0.6"/>
  <rect x="855.2169333333334" y="336.8392266666666" width="28.799999999999997" height="17.099999999999998" rx="4" fill="#e8e8e8" stroke="#000000" stroke-width="0.5"/>
  <line x1="869.6169333333333" y1="337.8392266666666" x2="869.6169333333333" y2="352.9392266666666" stroke="#000000" stroke-width="0.25"/>
  <rect x="900.0169333333333" y="336.8392266666666" width="28.799999999999997" height="17.099999999999998" rx="4" fill="#e8e8e8" stroke="#000000" stroke-width="0.5"/>
  <line x1="914.4169333333333" y1="337.8392266666666" x2="914.4169333333333" y2="352.9392266666666" stroke="#000000" stroke-width="0.25"/>
  <line x1="854.0169333333333" y1="365.1892266666666" x2="930.0169333333333" y2="365.1892266666666" stroke="#000000" stroke-width="0.4"/>
  <path d="M 856.0169333333333 365.1892266666666 Q 892.0169333333333 371.1892266666666 928.0169333333333 365.1892266666666" fill="none" stroke="#000000" stroke-width="0.3"/>
  <line x1="892.0169333333333" y1="368.1892266666666" x2="892.0169333333333" y2="420.1892266666666" stroke="#000000" stroke-width="0.2" stroke-dasharray="3 3"/>
  <rect x="833.0169333333333" y="327.1892266666666" width="16" height="16" fill="white" stroke="#000000" stroke-width="0.6"/>
  <circle cx="841.0169333333333" cy="335.1892266666666" r="3" fill="none" stroke="#000000" stroke-width="0.35"/>
  <rect x="935.0169333333333" y="327.1892266666666" width="16" height="16" fill="white" stroke="#000000" stroke-width="0.6"/>
  <circle cx="943.0169333333333" cy="335.1892266666666" r="3" fill="none" stroke="#000000" stroke-width="0.35"/>
  <rect x="733.4294933333333" y="724.8107733333333" width="317.17488000000003" height="22" fill="white" stroke="#000000" stroke-width="0.7"/>
  <line x1="734.4294933333333" y1="725.8107733333333" x2="795.8644693333333" y2="745.8107733333333" stroke="#000000" stroke-width="0.3"/>
  <line x1="795.8644693333333" y1="725.8107733333333" x2="734.4294933333333" y2="745.8107733333333" stroke="#000000" stroke-width="0.3"/>
  <circle cx="763.1469813333333" cy="735.8107733333333" r="1" fill="#000000" stroke="none"/>
  <circle cx="767.1469813333333" cy="735.8107733333333" r="1" fill="#000000" stroke="none"/>
  <line x1="796.8644693333333" y1="724.8107733333333" x2="796.8644693333333" y2="746.8107733333333" stroke="#000000" stroke-width="0.5"/>
  <line x1="797.8644693333333" y1="725.8107733333333" x2="859.2994453333333" y2="745.8107733333333" stroke="#000000" stroke-width="0.3"/>
  <line x1="859.2994453333333" y1="725.8107733333333" x2="797.8644693333333" y2="745.8107733333333" stroke="#000000" stroke-width="0.3"/>
  <circle cx="826.5819573333333" cy="735.8107733333333" r="1" fill="#000000" stroke="none"/>
  <circle cx="830.5819573333333" cy="735.8107733333333" r="1" fill="#000000" stroke="none"/>
  <line x1="860.2994453333333" y1="724.8107733333333" x2="860.2994453333333" y2="746.8107733333333" stroke="#000000" stroke-width="0.5"/>
  <line x1="861.2994453333333" y1="725.8107733333333" x2="922.7344213333333" y2="745.8107733333333" stroke="#000000" stroke-width="0.3"/>
  <line x1="922.7344213333333" y1="725.8107733333333" x2="861.2994453333333" y2="745.8107733333333" stroke="#000000" stroke-width="0.3"/>
  <circle cx="890.0169333333333" cy="735.8107733333333" r="1" fill="#000000" stroke="none"/>
  <circle cx="894.0169333333333" cy="735.8107733333333" r="1" fill="#000000" stroke="none"/>
  <line x1="923.7344213333333" y1="724.8107733333333" x2="923.7344213333333" y2="746.8107733333333" stroke="#000000" stroke-width="0.5"/>
  <line x1="924.7344213333333" y1="725.8107733333333" x2="986.1693973333333" y2="745.8107733333333" stroke="#000000" stroke-width="0.3"/>
  <line x1="986.1693973333333" y1="725.8107733333333" x2="924.7344213333333" y2="745.8107733333333" stroke="#000000" stroke-width="0.3"/>
  <circle cx="953.4519093333333" cy="735.8107733333333" r="1" fill="#000000" stroke="none"/>
  <circle cx="957.4519093333333" cy="735.8107733333333" r="1" fill="#000000" stroke="none"/>
  <line x1="987.1693973333333" y1="724.8107733333333" x2="987.1693973333333" y2="746.8107733333333" stroke="#000000" stroke-width="0.5"/>
  <line x1="988.1693973333333" y1="725.8107733333333" x2="1049.6043733333333" y2="745.8107733333333" stroke="#000000" stroke-width="0.3"/>
  <line x1="1049.6043733333333" y1="725.8107733333333" x2="988.1693973333333" y2="745.8107733333333" stroke="#000000" stroke-width="0.3"/>
  <circle cx="1016.8868853333333" cy="735.8107733333333" r="1" fill="#000000" stroke="none"/>
  <circle cx="1020.8868853333333" cy="735.8107733333333" r="1" fill="#000000" stroke="none"/>
  <rect x="733.4294933333333" y="700.8107733333333" width="48" height="14" fill="white" stroke="#000000" stroke-width="0.6"/>
  <line x1="735.4294933333333" y1="707.8107733333333" x2="779.4294933333333" y2="707.8107733333333" stroke="#000000" stroke-width="0.25"/>
  <circle cx="757.4294933333333" cy="723.8107733333333" r="6" fill="none" stroke="#000000" stroke-width="0.5"/>
  <path d="M 751.4294933333333 724.8107733333333 A 8 8 0 0 0 763.4294933333333 724.8107733333333" fill="none" stroke="#000000" stroke-width="0.4"/>
  <text x="892.0169333333333" y="535" text-anchor="middle" font-family="'Arial Narrow', Arial, sans-serif" font-size="9" fill="#000" font-weight="bold">Phòng ngủ 1</text>
  <text x="892.0169333333333" y="547" text-anchor="middle" font-family="'Arial Narrow', Arial, sans-serif" font-size="7.5" fill="#333">16.6m²</text>
  <rect x="1074.372" y="301.37266666666665" width="368.80800000000005" height="471.25466666666665" fill="white" stroke="none"/>
  <rect x="1218.776" y="327.1892266666666" width="80" height="95" fill="white" stroke="#000000" stroke-width="0.8"/>
  <rect x="1218.776" y="327.1892266666666" width="80" height="6.65" fill="#c0c0c0" stroke="#000000" stroke-width="0.6"/>
  <rect x="1221.976" y="336.8392266666666" width="28.799999999999997" height="17.099999999999998" rx="4" fill="#e8e8e8" stroke="#000000" stroke-width="0.5"/>
  <line x1="1236.3760000000002" y1="337.8392266666666" x2="1236.3760000000002" y2="352.9392266666666" stroke="#000000" stroke-width="0.25"/>
  <rect x="1266.776" y="336.8392266666666" width="28.799999999999997" height="17.099999999999998" rx="4" fill="#e8e8e8" stroke="#000000" stroke-width="0.5"/>
  <line x1="1281.176" y1="337.8392266666666" x2="1281.176" y2="352.9392266666666" stroke="#000000" stroke-width="0.25"/>
  <line x1="1220.776" y1="365.1892266666666" x2="1296.776" y2="365.1892266666666" stroke="#000000" stroke-width="0.4"/>
  <path d="M 1222.776 365.1892266666666 Q 1258.776 371.1892266666666 1294.776 365.1892266666666" fill="none" stroke="#000000" stroke-width="0.3"/>
  <line x1="1258.776" y1="368.1892266666666" x2="1258.776" y2="420.1892266666666" stroke="#000000" stroke-width="0.2" stroke-dasharray="3 3"/>
  <rect x="1199.776" y="327.1892266666666" width="16" height="16" fill="white" stroke="#000000" stroke-width="0.6"/>
  <circle cx="1207.776" cy="335.1892266666666" r="3" fill="none" stroke="#000000" stroke-width="0.35"/>
  <rect x="1301.776" y="327.1892266666666" width="16" height="16" fill="white" stroke="#000000" stroke-width="0.6"/>
  <circle cx="1309.776" cy="335.1892266666666" r="3" fill="none" stroke="#000000" stroke-width="0.35"/>
  <rect x="1100.18856" y="724.8107733333333" width="317.17488000000003" height="22" fill="white" stroke="#000000" stroke-width="0.7"/>
  <line x1="1101.18856" y1="725.8107733333333" x2="1162.623536" y2="745.8107733333333" stroke="#000000" stroke-width="0.3"/>
  <line x1="1162.623536" y1="725.8107733333333" x2="1101.18856" y2="745.8107733333333" stroke="#000000" stroke-width="0.3"/>
  <circle cx="1129.906048" cy="735.8107733333333" r="1" fill="#000000" stroke="none"/>
  <circle cx="1133.906048" cy="735.8107733333333" r="1" fill="#000000" stroke="none"/>
  <line x1="1163.623536" y1="724.8107733333333" x2="1163.623536" y2="746.8107733333333" stroke="#000000" stroke-width="0.5"/>
  <line x1="1164.623536" y1="725.8107733333333" x2="1226.058512" y2="745.8107733333333" stroke="#000000" stroke-width="0.3"/>
  <line x1="1226.058512" y1="725.8107733333333" x2="1164.623536" y2="745.8107733333333" stroke="#000000" stroke-width="0.3"/>
  <circle cx="1193.341024" cy="735.8107733333333" r="1" fill="#000000" stroke="none"/>
  <circle cx="1197.341024" cy="735.8107733333333" r="1" fill="#000000" stroke="none"/>
  <line x1="1227.058512" y1="724.8107733333333" x2="1227.058512" y2="746.8107733333333" stroke="#000000" stroke-width="0.5"/>
  <line x1="1228.058512" y1="725.8107733333333" x2="1289.493488" y2="745.8107733333333" stroke="#000000" stroke-width="0.3"/>
  <line x1="1289.493488" y1="725.8107733333333" x2="1228.058512" y2="745.8107733333333" stroke="#000000" stroke-width="0.3"/>
  <circle cx="1256.776" cy="735.8107733333333" r="1" fill="#000000" stroke="none"/>
  <circle cx="1260.776" cy="735.8107733333333" r="1" fill="#000000" stroke="none"/>
  <line x1="1290.493488" y1="724.8107733333333" x2="1290.493488" y2="746.8107733333333" stroke="#000000" stroke-width="0.5"/>
  <line x1="1291.493488" y1="725.8107733333333" x2="1352.928464" y2="745.8107733333333" stroke="#000000" stroke-width="0.3"/>
  <line x1="1352.928464" y1="725.8107733333333" x2="1291.493488" y2="745.8107733333333" stroke="#000000" stroke-width="0.3"/>
  <circle cx="1320.210976" cy="735.8107733333333" r="1" fill="#000000" stroke="none"/>
  <circle cx="1324.210976" cy="735.8107733333333" r="1" fill="#000000" stroke="none"/>
  <line x1="1353.928464" y1="724.8107733333333" x2="1353.928464" y2="746.8107733333333" stroke="#000000" stroke-width="0.5"/>
  <line x1="1354.928464" y1="725.8107733333333" x2="1416.36344" y2="745.8107733333333" stroke="#000000" stroke-width="0.3"/>
  <line x1="1416.36344" y1="725.8107733333333" x2="1354.928464" y2="745.8107733333333" stroke="#000000" stroke-width="0.3"/>
  <circle cx="1383.645952" cy="735.8107733333333" r="1" fill="#000000" stroke="none"/>
  <circle cx="1387.645952" cy="735.8107733333333" r="1" fill="#000000" stroke="none"/>
  <rect x="1100.18856" y="700.8107733333333" width="48" height="14" fill="white" stroke="#000000" stroke-width="0.6"/>
  <line x1="1102.18856" y1="707.8107733333333" x2="1146.18856" y2="707.8107733333333" stroke="#000000" stroke-width="0.25"/>
  <circle cx="1124.18856" cy="723.8107733333333" r="6" fill="none" stroke="#000000" stroke-width="0.5"/>
  <path d="M 1118.18856 724.8107733333333 A 8 8 0 0 0 1130.18856 724.8107733333333" fill="none" stroke="#000000" stroke-width="0.4"/>
  <text x="1258.776" y="535" text-anchor="middle" font-family="'Arial Narrow', Arial, sans-serif" font-size="9" fill="#000" font-weight="bold">Phòng ngủ 2</text>
  <text x="1258.776" y="547" text-anchor="middle" font-family="'Arial Narrow', Arial, sans-serif" font-size="7.5" fill="#333">16.6m²</text>
  <rect x="1238.2866666666666" y="301.37266666666665" width="204.89333333333335" height="172.1104" fill="white" stroke="none"/>
  <rect x="1250.3343946666666" y="313.42039466666665" width="38" height="22" rx="1" fill="white" stroke="#000000" stroke-width="0.7"/>
  <ellipse cx="1269.3343946666666" cy="325.5203946666667" rx="12.920000000000002" ry="7.48" fill="none" stroke="#000000" stroke-width="0.5"/>
  <circle cx="1269.3343946666666" cy="325.5203946666667" r="1.5" fill="#000000" stroke="none"/>
  <circle cx="1269.3343946666666" cy="316.72039466666666" r="2.2" fill="#000000" stroke="none"/>
  <line x1="1269.3343946666666" y1="318.92039466666665" x2="1269.3343946666666" y2="320.4603946666667" stroke="#000000" stroke-width="0.6"/>
  <rect x="1256.0343946666667" y="306.82039466666663" width="26.599999999999998" height="5.5" fill="none" stroke="#000000" stroke-width="0.3" stroke-dasharray="2 1"/>
  <rect x="1404.732272" y="421.43533866666667" width="22.8" height="8.8" rx="2" fill="white" stroke="#000000" stroke-width="0.7"/>
  <circle cx="1413.732272" cy="425.83533866666664" r="1.8" fill="none" stroke="#000000" stroke-width="0.4"/>
  <circle cx="1418.5322720000001" cy="425.83533866666664" r="1.8" fill="none" stroke="#000000" stroke-width="0.4"/>
  <ellipse cx="1416.132272" cy="446.2353386666667" rx="13.8" ry="14.399999999999999" fill="white" stroke="#000000" stroke-width="0.7"/>
  <ellipse cx="1416.132272" cy="445.43533866666667" rx="10.200000000000001" ry="10.8" fill="none" stroke="#000000" stroke-width="0.4"/>
  <line x1="1408.632272" y1="431.2353386666667" x2="1423.632272" y2="431.2353386666667" stroke="#000000" stroke-width="0.4"/>
  <path d="M 1250.3343946666666 431.43533866666667 A 30 30 0 0 1 1280.3343946666666 461.43533866666667" fill="none" stroke="#000000" stroke-width="0.7"/>
  <line x1="1250.3343946666666" y1="431.43533866666667" x2="1250.3343946666666" y2="461.43533866666667" stroke="#000000" stroke-width="0.6"/>
  <line x1="1250.3343946666666" y1="461.43533866666667" x2="1280.3343946666666" y2="461.43533866666667" stroke="#000000" stroke-width="0.6"/>
  <circle cx="1261.7343946666667" cy="450.0353386666667" r="4.5" fill="none" stroke="#000000" stroke-width="0.5"/>
  <circle cx="1263.2900295852771" cy="451.5909735852771" r="0.6" fill="#000000" stroke="none"/>
  <circle cx="1260.1787597480563" cy="451.5909735852771" r="0.6" fill="#000000" stroke="none"/>
  <circle cx="1260.1787597480563" cy="448.4797037480563" r="0.6" fill="#000000" stroke="none"/>
  <circle cx="1263.2900295852771" cy="448.4797037480563" r="0.6" fill="#000000" stroke="none"/>
  <rect x="1253.3343946666666" y="455.43533866666667" width="4" height="4" fill="none" stroke="#000000" stroke-width="0.4"/>
  <line x1="1253.3343946666666" y1="455.43533866666667" x2="1257.3343946666666" y2="459.43533866666667" stroke="#000000" stroke-width="0.3"/>
  <rect x="1337.7333333333333" y="406.63010826666664" width="6" height="6" fill="none" stroke="#000000" stroke-width="0.4"/>
  <line x1="1337.7333333333333" y1="406.63010826666664" x2="1343.7333333333333" y2="412.63010826666664" stroke="#000000" stroke-width="0.3"/>
  <line x1="1343.7333333333333" y1="406.63010826666664" x2="1337.7333333333333" y2="412.63010826666664" stroke="#000000" stroke-width="0.3"/>
  <text x="1340.7333333333333" y="385.42786666666666" text-anchor="middle" font-family="'Arial Narrow', Arial, sans-serif" font-size="9" fill="#000" font-weight="bold">WC</text>
  <text x="1340.7333333333333" y="397.42786666666666" text-anchor="middle" font-family="'Arial Narrow', Arial, sans-serif" font-size="7.5" fill="#333">3.4m²</text>
  <path d="M 1250.2866666666666 459.4830666666667 L 1244.2866666666666 465.4830666666667 L 1256.2866666666666 465.4830666666667 Z" fill="#000" stroke="none"/>
  <text x="1259.2866666666666" y="467.4830666666667" font-family="'Arial Narrow', Arial, sans-serif" font-size="8" fill="#000">+0.050</text>
  <rect x="1135.8400000000001" y="485.77666666666664" width="307.34000000000003" height="286.85066666666665" fill="white" stroke="none"/>
  <rect x="1155.9195466666667" y="505.8562133333333" width="120" height="26" fill="white" stroke="#000000" stroke-width="0.7"/>
  <rect x="1157.9195466666667" y="509.7562133333333" width="24" height="18.2" fill="none" stroke="#000000" stroke-width="0.35"/>
  <line x1="1157.9195466666667" y1="518.8562133333332" x2="1181.9195466666667" y2="518.8562133333332" stroke="#000000" stroke-width="0.25"/>
  <circle cx="1215.9195466666667" cy="549.8562133333332" r="10" fill="none" stroke="#000000" stroke-width="0.6"/>
  <line x1="1215.9195466666667" y1="544.8562133333332" x2="1215.9195466666667" y2="535.8562133333332" stroke="#000000" stroke-width="0.35"/>
  <circle cx="1215.9195466666667" cy="535.8562133333332" r="1.2" fill="#000000" stroke="none"/>
  <line x1="1220.6748292481425" y1="548.3111283614585" x2="1229.234337894799" y2="545.529975412084" stroke="#000000" stroke-width="0.35"/>
  <circle cx="1229.234337894799" cy="545.529975412084" r="1.2" fill="#000000" stroke="none"/>
  <line x1="1218.858472928129" y1="553.901298305208" x2="1224.1485401987613" y2="561.1824512545825" stroke="#000000" stroke-width="0.35"/>
  <circle cx="1224.1485401987613" cy="561.1824512545825" r="1.2" fill="#000000" stroke="none"/>
  <line x1="1212.9806204052045" y1="553.901298305208" x2="1207.6905531345722" y2="561.1824512545825" stroke="#000000" stroke-width="0.35"/>
  <circle cx="1207.6905531345722" cy="561.1824512545825" r="1.2" fill="#000000" stroke="none"/>
  <line x1="1211.164264085191" y1="548.3111283614585" x2="1202.6047554385345" y2="545.529975412084" stroke="#000000" stroke-width="0.35"/>
  <circle cx="1202.6047554385345" cy="545.529975412084" r="1.2" fill="#000000" stroke="none"/>
  <rect x="1407.1004533333335" y="505.8562133333333" width="16" height="65" fill="white" stroke="#000000" stroke-width="0.6"/>
  <line x1="1407.1004533333335" y1="522.1062133333332" x2="1423.1004533333335" y2="522.1062133333332" stroke="#000000" stroke-width="0.35"/>
  <line x1="1407.1004533333335" y1="538.3562133333332" x2="1423.1004533333335" y2="538.3562133333332" stroke="#000000" stroke-width="0.35"/>
  <line x1="1407.1004533333335" y1="554.6062133333332" x2="1423.1004533333335" y2="554.6062133333332" stroke="#000000" stroke-width="0.35"/>
  <text x="1289.5100000000002" y="627.202" text-anchor="middle" font-family="'Arial Narrow', Arial, sans-serif" font-size="9" fill="#000" font-weight="bold">Phòng làm việc</text>
  <text x="1289.5100000000002" y="639.202" text-anchor="middle" font-family="'Arial Narrow', Arial, sans-serif" font-size="7.5" fill="#333">8.4m²</text>
  <polygon points="203.58,280.88 203.58,793.12 224.06,793.12 224.06,280.88" fill="url(#hatch-ext)" stroke="#000" stroke-width="1.4"/>
  <line x1="203.57533333333328" y1="280.8833333333333" x2="203.57533333333328" y2="793.1166666666667" stroke="#000" stroke-width="1.5" stroke-linecap="square"/>
  <line x1="224.0646666666666" y1="280.8833333333333" x2="224.0646666666666" y2="793.1166666666667" stroke="#000" stroke-width="1.5" stroke-linecap="square"/>
  <polygon points="1432.94,280.88 1432.94,793.12 1453.42,793.12 1453.42,280.88" fill="url(#hatch-ext)" stroke="#000" stroke-width="1.4"/>
  <line x1="1432.9353333333333" y1="280.8833333333333" x2="1432.9353333333333" y2="793.1166666666667" stroke="#000" stroke-width="1.5" stroke-linecap="square"/>
  <line x1="1453.4246666666668" y1="280.8833333333333" x2="1453.4246666666668" y2="793.1166666666667" stroke="#000" stroke-width="1.5" stroke-linecap="square"/>
  <polygon points="213.82,291.13 1443.18,291.13 1443.18,270.64 213.82,270.64" fill="url(#hatch-ext)" stroke="#000" stroke-width="1.4"/>
  <line x1="213.81999999999994" y1="291.128" x2="1443.18" y2="291.128" stroke="#000" stroke-width="1.5" stroke-linecap="square"/>
  <line x1="213.81999999999994" y1="270.63866666666667" x2="1443.18" y2="270.63866666666667" stroke="#000" stroke-width="1.5" stroke-linecap="square"/>
  <polygon points="213.82,803.36 1443.18,803.36 1443.18,782.87 213.82,782.87" fill="url(#hatch-ext)" stroke="#000" stroke-width="1.4"/>
  <line x1="213.81999999999994" y1="803.3613333333334" x2="1443.18" y2="803.3613333333334" stroke="#000" stroke-width="1.5" stroke-linecap="square"/>
  <line x1="213.81999999999994" y1="782.872" x2="1443.18" y2="782.872" stroke="#000" stroke-width="1.5" stroke-linecap="square"/>
  <polygon points="1070.27,301.37 1070.27,772.63 1082.57,772.63 1082.57,301.37" fill="url(#hatch-int)" stroke="#000" stroke-width="0.7"/>
  <line x1="1070.2741333333333" y1="301.37266666666665" x2="1070.2741333333333" y2="772.6273333333334" stroke="#000" stroke-width="0.8" stroke-linecap="square"/>
  <line x1="1082.5677333333333" y1="301.37266666666665" x2="1082.5677333333333" y2="772.6273333333334" stroke="#000" stroke-width="0.8" stroke-linecap="square"/>
  <polygon points="689.17,301.37 689.17,772.63 701.47,772.63 701.47,301.37" fill="url(#hatch-int)" stroke="#000" stroke-width="0.7"/>
  <line x1="689.1725333333334" y1="301.37266666666665" x2="689.1725333333334" y2="772.6273333333334" stroke="#000" stroke-width="0.8" stroke-linecap="square"/>
  <line x1="701.4661333333333" y1="301.37266666666665" x2="701.4661333333333" y2="772.6273333333334" stroke="#000" stroke-width="0.8" stroke-linecap="square"/>
  <polygon points="1070.27,301.37 1070.27,772.63 1082.57,772.63 1082.57,301.37" fill="url(#hatch-int)" stroke="#000" stroke-width="0.7"/>
  <line x1="1070.2741333333333" y1="301.37266666666665" x2="1070.2741333333333" y2="772.6273333333334" stroke="#000" stroke-width="0.8" stroke-linecap="square"/>
  <line x1="1082.5677333333333" y1="301.37266666666665" x2="1082.5677333333333" y2="772.6273333333334" stroke="#000" stroke-width="0.8" stroke-linecap="square"/>
  <polygon points="1451.38,301.37 1451.38,473.48 1463.67,473.48 1463.67,301.37" fill="url(#hatch-int)" stroke="#000" stroke-width="0.7"/>
  <line x1="1451.3757333333333" y1="301.37266666666665" x2="1451.3757333333333" y2="473.4830666666667" stroke="#000" stroke-width="0.8" stroke-linecap="square"/>
  <line x1="1463.6693333333333" y1="301.37266666666665" x2="1463.6693333333333" y2="473.4830666666667" stroke="#000" stroke-width="0.8" stroke-linecap="square"/>
  <polygon points="1451.38,485.78 1451.38,772.63 1463.67,772.63 1463.67,485.78" fill="url(#hatch-int)" stroke="#000" stroke-width="0.7"/>
  <line x1="1451.3757333333333" y1="485.77666666666664" x2="1451.3757333333333" y2="772.6273333333334" stroke="#000" stroke-width="0.8" stroke-linecap="square"/>
  <line x1="1463.6693333333333" y1="485.77666666666664" x2="1463.6693333333333" y2="772.6273333333334" stroke="#000" stroke-width="0.8" stroke-linecap="square"/>
  <polygon points="1469.82,479.63 1674.71,479.63 1674.71,467.34 1469.82,467.34" fill="url(#hatch-int)" stroke="#000" stroke-width="0.7"/>
  <line x1="1469.8161333333333" y1="479.62986666666666" x2="1674.7094666666667" y2="479.62986666666666" stroke="#000" stroke-width="0.8" stroke-linecap="square"/>
  <line x1="1469.8161333333333" y1="467.3362666666667" x2="1674.7094666666667" y2="467.3362666666667" stroke="#000" stroke-width="0.8" stroke-linecap="square"/>
  <polygon points="202.08,589.22 202.08,484.78 225.56,484.78 225.56,589.22" fill="white" stroke="none"/>
  <polygon points="687.67,584.10 687.67,489.90 702.97,489.90 702.97,584.10" fill="white" stroke="none"/>
  <polygon points="1068.77,584.10 1068.77,489.90 1084.07,489.90 1084.07,584.10" fill="white" stroke="none"/>
  <polygon points="1445.78,434.53 1445.78,340.33 1469.27,340.33 1469.27,434.53" fill="white" stroke="none"/>
  <rect x="212.81999999999994" y="448.4203333333333" width="124.936" height="23.489333333333335" fill="white" stroke="none"/>
  <line x1="213.81999999999994" y1="457.16499999999996" x2="336.756" y2="457.16499999999996" stroke="#000000" stroke-width="2"/>
  <line x1="213.81999999999994" y1="463.16499999999996" x2="336.756" y2="463.16499999999996" stroke="#000000" stroke-width="2"/>
  <line x1="213.81999999999994" y1="457.16499999999996" x2="213.81999999999994" y2="463.16499999999996" stroke="#000000" stroke-width="1"/>
  <line x1="336.756" y1="457.16499999999996" x2="336.756" y2="463.16499999999996" stroke="#000000" stroke-width="1"/>
  <line x1="213.81999999999994" y1="457.16499999999996" x2="336.756" y2="463.16499999999996" stroke="#000000" stroke-width="0.5"/>
  <line x1="336.756" y1="457.16499999999996" x2="213.81999999999994" y2="463.16499999999996" stroke="#000000" stroke-width="0.5"/>
  <rect x="265.28799999999995" y="438.16499999999996" width="20" height="12" rx="2" fill="white" stroke="#000" stroke-width="0.5"/>
  <text x="275.28799999999995" y="448.16499999999996" text-anchor="middle" font-family="'Arial Narrow', Arial, sans-serif" font-size="7" fill="#000">S1</text>
  <rect x="1442.18" y="463.7873333333333" width="104.44666666666667" height="23.489333333333335" fill="white" stroke="none"/>
  <line x1="1443.18" y1="472.532" x2="1545.6266666666668" y2="472.532" stroke="#000000" stroke-width="2"/>
  <line x1="1443.18" y1="478.532" x2="1545.6266666666668" y2="478.532" stroke="#000000" stroke-width="2"/>
  <line x1="1443.18" y1="472.532" x2="1443.18" y2="478.532" stroke="#000000" stroke-width="1"/>
  <line x1="1545.6266666666668" y1="472.532" x2="1545.6266666666668" y2="478.532" stroke="#000000" stroke-width="1"/>
  <line x1="1443.18" y1="472.532" x2="1545.6266666666668" y2="478.532" stroke="#000000" stroke-width="0.5"/>
  <line x1="1545.6266666666668" y1="472.532" x2="1443.18" y2="478.532" stroke="#000000" stroke-width="0.5"/>
  <rect x="1484.4033333333334" y="453.532" width="20" height="12" rx="2" fill="white" stroke="#000" stroke-width="0.5"/>
  <text x="1494.4033333333334" y="463.532" text-anchor="middle" font-family="'Arial Narrow', Arial, sans-serif" font-size="7" fill="#000">S2</text>
  <line x1="213.81999999999994" y1="485.77666666666664" x2="316.2666666666666" y2="485.77666666666664" stroke="#000000" stroke-width="2"/>
  <line x1="213.81999999999994" y1="485.77666666666664" x2="213.81999999999994" y2="588.2233333333334" stroke="#000000" stroke-width="0.8"/>
  <path d="M 213.81999999999994 588.2233333333334 A 102.44666666666667 102.44666666666667 0 0 1 316.2666666666666 485.77666666666664" fill="none" stroke="#000000" stroke-width="0.7"/>
  <rect x="255.0433333333333" y="465.77666666666664" width="20" height="12" rx="2" fill="white" stroke="#000" stroke-width="0.5"/>
  <text x="265.0433333333333" y="475.77666666666664" text-anchor="middle" font-family="'Arial Narrow', Arial, sans-serif" font-size="7" fill="#000">D1</text>
  <line x1="695.3193333333334" y1="490.899" x2="787.5213333333334" y2="490.899" stroke="#000000" stroke-width="2"/>
  <line x1="695.3193333333334" y1="490.899" x2="695.3193333333334" y2="583.101" stroke="#000000" stroke-width="0.8"/>
  <path d="M 695.3193333333334 583.101 A 92.20200000000001 92.20200000000001 0 0 1 787.5213333333334 490.899" fill="none" stroke="#000000" stroke-width="0.7"/>
  <rect x="731.4203333333334" y="470.899" width="20" height="12" rx="2" fill="white" stroke="#000" stroke-width="0.5"/>
  <text x="741.4203333333334" y="480.899" text-anchor="middle" font-family="'Arial Narrow', Arial, sans-serif" font-size="7" fill="#000">D2</text>
  <line x1="1076.4209333333333" y1="490.899" x2="1168.6229333333333" y2="490.899" stroke="#000000" stroke-width="2"/>
  <line x1="1076.4209333333333" y1="490.899" x2="1076.4209333333333" y2="583.101" stroke="#000000" stroke-width="0.8"/>
  <path d="M 1076.4209333333333 583.101 A 92.20200000000001 92.20200000000001 0 0 1 1168.6229333333333 490.899" fill="none" stroke="#000000" stroke-width="0.7"/>
  <rect x="1112.5219333333334" y="470.899" width="20" height="12" rx="2" fill="white" stroke="#000" stroke-width="0.5"/>
  <text x="1122.5219333333334" y="480.899" text-anchor="middle" font-family="'Arial Narrow', Arial, sans-serif" font-size="7" fill="#000">D3</text>
  <line x1="1457.5225333333333" y1="341.32686666666666" x2="1549.7245333333333" y2="341.32686666666666" stroke="#000000" stroke-width="2"/>
  <line x1="1457.5225333333333" y1="341.32686666666666" x2="1457.5225333333333" y2="433.52886666666666" stroke="#000000" stroke-width="0.8"/>
  <path d="M 1457.5225333333333 433.52886666666666 A 92.20200000000001 92.20200000000001 0 0 1 1549.7245333333333 341.32686666666666" fill="none" stroke="#000000" stroke-width="0.7"/>
  <rect x="1493.6235333333334" y="321.32686666666666" width="20" height="12" rx="2" fill="white" stroke="#000" stroke-width="0.5"/>
  <text x="1503.6235333333334" y="331.32686666666666" text-anchor="middle" font-family="'Arial Narrow', Arial, sans-serif" font-size="7" fill="#000">D4</text>
  <circle cx="1473.18" cy="310.8833333333333" r="16" fill="white" stroke="#000" stroke-width="1"/>
  <path d="M 1473.18 297.8833333333333 L 1468.18 310.8833333333333 L 1473.18 305.8833333333333 L 1478.18 310.8833333333333 Z" fill="#000" stroke="none"/>
  <path d="M 1473.18 323.8833333333333 L 1468.18 310.8833333333333 L 1473.18 315.8833333333333 L 1478.18 310.8833333333333 Z" fill="white" stroke="#000" stroke-width="0.6"/>
  <text x="1473.18" y="290.8833333333333" text-anchor="middle" font-family="'Arial Narrow', Arial, sans-serif" font-size="9" fill="#000" font-weight="bold">N</text>
  <rect x="213.81999999999994" y="280.8833333333333" width="1229.3600000000001" height="512.2333333333333" fill="none" stroke="#000000" stroke-width="2"/>
  <line x1="213.81999999999994" y1="795.1166666666667" x2="213.81999999999994" y2="815.1166666666667" stroke="#000000" stroke-width="0.35"/>
  <line x1="234.30933333333326" y1="795.1166666666667" x2="234.30933333333326" y2="815.1166666666667" stroke="#000000" stroke-width="0.35"/>
  <line x1="213.81999999999994" y1="813.1166666666667" x2="234.30933333333326" y2="813.1166666666667" stroke="#000000" stroke-width="0.5"/>
  <line x1="211.81999999999994" y1="817.1166666666667" x2="215.81999999999994" y2="809.1166666666667" stroke="#000000" stroke-width="0.8"/>
  <line x1="232.30933333333326" y1="817.1166666666667" x2="236.30933333333326" y2="809.1166666666667" stroke="#000000" stroke-width="0.8"/>
  <text x="224.0646666666666" y="808.1166666666667" text-anchor="middle" font-family="'Arial Narrow', Arial, sans-serif" font-size="10" fill="#000000">200</text>
  <line x1="234.30933333333326" y1="795.1166666666667" x2="234.30933333333326" y2="815.1166666666667" stroke="#000000" stroke-width="0.35"/>
  <line x1="695.3193333333334" y1="795.1166666666667" x2="695.3193333333334" y2="815.1166666666667" stroke="#000000" stroke-width="0.35"/>
  <line x1="234.30933333333326" y1="813.1166666666667" x2="695.3193333333334" y2="813.1166666666667" stroke="#000000" stroke-width="0.5"/>
  <line x1="232.30933333333326" y1="817.1166666666667" x2="236.30933333333326" y2="809.1166666666667" stroke="#000000" stroke-width="0.8"/>
  <line x1="693.3193333333334" y1="817.1166666666667" x2="697.3193333333334" y2="809.1166666666667" stroke="#000000" stroke-width="0.8"/>
  <text x="464.8143333333333" y="808.1166666666667" text-anchor="middle" font-family="'Arial Narrow', Arial, sans-serif" font-size="10" fill="#000000">4500</text>
  <line x1="695.3193333333334" y1="795.1166666666667" x2="695.3193333333334" y2="815.1166666666667" stroke="#000000" stroke-width="0.35"/>
  <line x1="707.6129333333333" y1="795.1166666666667" x2="707.6129333333333" y2="815.1166666666667" stroke="#000000" stroke-width="0.35"/>
  <line x1="695.3193333333334" y1="813.1166666666667" x2="707.6129333333333" y2="813.1166666666667" stroke="#000000" stroke-width="0.5"/>
  <line x1="693.3193333333334" y1="817.1166666666667" x2="697.3193333333334" y2="809.1166666666667" stroke="#000000" stroke-width="0.8"/>
  <line x1="705.6129333333333" y1="817.1166666666667" x2="709.6129333333333" y2="809.1166666666667" stroke="#000000" stroke-width="0.8"/>
  <text x="701.4661333333333" y="808.1166666666667" text-anchor="middle" font-family="'Arial Narrow', Arial, sans-serif" font-size="10" fill="#000000">120</text>
  <line x1="707.6129333333333" y1="795.1166666666667" x2="707.6129333333333" y2="815.1166666666667" stroke="#000000" stroke-width="0.35"/>
  <line x1="749.6160666666667" y1="795.1166666666667" x2="749.6160666666667" y2="815.1166666666667" stroke="#000000" stroke-width="0.35"/>
  <line x1="707.6129333333333" y1="813.1166666666667" x2="749.6160666666667" y2="813.1166666666667" stroke="#000000" stroke-width="0.5"/>
  <line x1="705.6129333333333" y1="817.1166666666667" x2="709.6129333333333" y2="809.1166666666667" stroke="#000000" stroke-width="0.8"/>
  <line x1="747.6160666666667" y1="817.1166666666667" x2="751.6160666666667" y2="809.1166666666667" stroke="#000000" stroke-width="0.8"/>
  <text x="728.6145" y="808.1166666666667" text-anchor="middle" font-family="'Arial Narrow', Arial, sans-serif" font-size="10" fill="#000000">410</text>
  <line x1="749.6160666666667" y1="795.1166666666667" x2="749.6160666666667" y2="815.1166666666667" stroke="#000000" stroke-width="0.35"/>
  <line x1="1074.372" y1="795.1166666666667" x2="1074.372" y2="815.1166666666667" stroke="#000000" stroke-width="0.35"/>
  <line x1="749.6160666666667" y1="813.1166666666667" x2="1074.372" y2="813.1166666666667" stroke="#000000" stroke-width="0.5"/>
  <line x1="747.6160666666667" y1="817.1166666666667" x2="751.6160666666667" y2="809.1166666666667" stroke="#000000" stroke-width="0.8"/>
  <line x1="1072.372" y1="817.1166666666667" x2="1076.372" y2="809.1166666666667" stroke="#000000" stroke-width="0.8"/>
  <text x="911.9940333333334" y="808.1166666666667" text-anchor="middle" font-family="'Arial Narrow', Arial, sans-serif" font-size="10" fill="#000000">3170</text>
  <line x1="1076.4209333333333" y1="795.1166666666667" x2="1076.4209333333333" y2="815.1166666666667" stroke="#000000" stroke-width="0.35"/>
  <line x1="1135.8400000000001" y1="795.1166666666667" x2="1135.8400000000001" y2="815.1166666666667" stroke="#000000" stroke-width="0.35"/>
  <line x1="1076.4209333333333" y1="813.1166666666667" x2="1135.8400000000001" y2="813.1166666666667" stroke="#000000" stroke-width="0.5"/>
  <line x1="1074.4209333333333" y1="817.1166666666667" x2="1078.4209333333333" y2="809.1166666666667" stroke="#000000" stroke-width="0.8"/>
  <line x1="1133.8400000000001" y1="817.1166666666667" x2="1137.8400000000001" y2="809.1166666666667" stroke="#000000" stroke-width="0.8"/>
  <text x="1106.1304666666667" y="808.1166666666667" text-anchor="middle" font-family="'Arial Narrow', Arial, sans-serif" font-size="10" fill="#000000">580</text>
  <line x1="1135.8400000000001" y1="795.1166666666667" x2="1135.8400000000001" y2="815.1166666666667" stroke="#000000" stroke-width="0.35"/>
  <line x1="1238.2866666666666" y1="795.1166666666667" x2="1238.2866666666666" y2="815.1166666666667" stroke="#000000" stroke-width="0.35"/>
  <line x1="1135.8400000000001" y1="813.1166666666667" x2="1238.2866666666666" y2="813.1166666666667" stroke="#000000" stroke-width="0.5"/>
  <line x1="1133.8400000000001" y1="817.1166666666667" x2="1137.8400000000001" y2="809.1166666666667" stroke="#000000" stroke-width="0.8"/>
  <line x1="1236.2866666666666" y1="817.1166666666667" x2="1240.2866666666666" y2="809.1166666666667" stroke="#000000" stroke-width="0.8"/>
  <text x="1187.0633333333335" y="808.1166666666667" text-anchor="middle" font-family="'Arial Narrow', Arial, sans-serif" font-size="10" fill="#000000">1000</text>
  <line x1="1238.2866666666666" y1="795.1166666666667" x2="1238.2866666666666" y2="815.1166666666667" stroke="#000000" stroke-width="0.35"/>
  <line x1="1443.18" y1="795.1166666666667" x2="1443.18" y2="815.1166666666667" stroke="#000000" stroke-width="0.35"/>
  <line x1="1238.2866666666666" y1="813.1166666666667" x2="1443.18" y2="813.1166666666667" stroke="#000000" stroke-width="0.5"/>
  <line x1="1236.2866666666666" y1="817.1166666666667" x2="1240.2866666666666" y2="809.1166666666667" stroke="#000000" stroke-width="0.8"/>
  <line x1="1441.18" y1="817.1166666666667" x2="1445.18" y2="809.1166666666667" stroke="#000000" stroke-width="0.8"/>
  <text x="1340.7333333333333" y="808.1166666666667" text-anchor="middle" font-family="'Arial Narrow', Arial, sans-serif" font-size="10" fill="#000000">2000</text>
  <line x1="213.81999999999994" y1="795.1166666666667" x2="213.81999999999994" y2="837.1166666666667" stroke="#000000" stroke-width="0.35"/>
  <line x1="234.30933333333326" y1="795.1166666666667" x2="234.30933333333326" y2="837.1166666666667" stroke="#000000" stroke-width="0.35"/>
  <line x1="213.81999999999994" y1="835.1166666666667" x2="234.30933333333326" y2="835.1166666666667" stroke="#000000" stroke-width="0.5"/>
  <line x1="211.81999999999994" y1="839.1166666666667" x2="215.81999999999994" y2="831.1166666666667" stroke="#000000" stroke-width="0.8"/>
  <line x1="232.30933333333326" y1="839.1166666666667" x2="236.30933333333326" y2="831.1166666666667" stroke="#000000" stroke-width="0.8"/>
  <text x="224.0646666666666" y="830.1166666666667" text-anchor="middle" font-family="'Arial Narrow', Arial, sans-serif" font-size="10" fill="#000000">200</text>
  <line x1="234.30933333333326" y1="795.1166666666667" x2="234.30933333333326" y2="837.1166666666667" stroke="#000000" stroke-width="0.35"/>
  <line x1="707.6129333333333" y1="795.1166666666667" x2="707.6129333333333" y2="837.1166666666667" stroke="#000000" stroke-width="0.35"/>
  <line x1="234.30933333333326" y1="835.1166666666667" x2="707.6129333333333" y2="835.1166666666667" stroke="#000000" stroke-width="0.5"/>
  <line x1="232.30933333333326" y1="839.1166666666667" x2="236.30933333333326" y2="831.1166666666667" stroke="#000000" stroke-width="0.8"/>
  <line x1="705.6129333333333" y1="839.1166666666667" x2="709.6129333333333" y2="831.1166666666667" stroke="#000000" stroke-width="0.8"/>
  <text x="470.9611333333333" y="830.1166666666667" text-anchor="middle" font-family="'Arial Narrow', Arial, sans-serif" font-size="10" fill="#000000">4620</text>
  <line x1="707.6129333333333" y1="795.1166666666667" x2="707.6129333333333" y2="837.1166666666667" stroke="#000000" stroke-width="0.35"/>
  <line x1="749.6160666666667" y1="795.1166666666667" x2="749.6160666666667" y2="837.1166666666667" stroke="#000000" stroke-width="0.35"/>
  <line x1="707.6129333333333" y1="835.1166666666667" x2="749.6160666666667" y2="835.1166666666667" stroke="#000000" stroke-width="0.5"/>
  <line x1="705.6129333333333" y1="839.1166666666667" x2="709.6129333333333" y2="831.1166666666667" stroke="#000000" stroke-width="0.8"/>
  <line x1="747.6160666666667" y1="839.1166666666667" x2="751.6160666666667" y2="831.1166666666667" stroke="#000000" stroke-width="0.8"/>
  <text x="728.6145" y="830.1166666666667" text-anchor="middle" font-family="'Arial Narrow', Arial, sans-serif" font-size="10" fill="#000000">410</text>
  <line x1="749.6160666666667" y1="795.1166666666667" x2="749.6160666666667" y2="837.1166666666667" stroke="#000000" stroke-width="0.35"/>
  <line x1="1076.4209333333333" y1="795.1166666666667" x2="1076.4209333333333" y2="837.1166666666667" stroke="#000000" stroke-width="0.35"/>
  <line x1="749.6160666666667" y1="835.1166666666667" x2="1076.4209333333333" y2="835.1166666666667" stroke="#000000" stroke-width="0.5"/>
  <line x1="747.6160666666667" y1="839.1166666666667" x2="751.6160666666667" y2="831.1166666666667" stroke="#000000" stroke-width="0.8"/>
  <line x1="1074.4209333333333" y1="839.1166666666667" x2="1078.4209333333333" y2="831.1166666666667" stroke="#000000" stroke-width="0.8"/>
  <text x="913.0185" y="830.1166666666667" text-anchor="middle" font-family="'Arial Narrow', Arial, sans-serif" font-size="10" fill="#000000">3190</text>
  <line x1="1076.4209333333333" y1="795.1166666666667" x2="1076.4209333333333" y2="837.1166666666667" stroke="#000000" stroke-width="0.35"/>
  <line x1="1135.8400000000001" y1="795.1166666666667" x2="1135.8400000000001" y2="837.1166666666667" stroke="#000000" stroke-width="0.35"/>
  <line x1="1076.4209333333333" y1="835.1166666666667" x2="1135.8400000000001" y2="835.1166666666667" stroke="#000000" stroke-width="0.5"/>
  <line x1="1074.4209333333333" y1="839.1166666666667" x2="1078.4209333333333" y2="831.1166666666667" stroke="#000000" stroke-width="0.8"/>
  <line x1="1133.8400000000001" y1="839.1166666666667" x2="1137.8400000000001" y2="831.1166666666667" stroke="#000000" stroke-width="0.8"/>
  <text x="1106.1304666666667" y="830.1166666666667" text-anchor="middle" font-family="'Arial Narrow', Arial, sans-serif" font-size="10" fill="#000000">580</text>
  <line x1="1135.8400000000001" y1="795.1166666666667" x2="1135.8400000000001" y2="837.1166666666667" stroke="#000000" stroke-width="0.35"/>
  <line x1="1238.2866666666666" y1="795.1166666666667" x2="1238.2866666666666" y2="837.1166666666667" stroke="#000000" stroke-width="0.35"/>
  <line x1="1135.8400000000001" y1="835.1166666666667" x2="1238.2866666666666" y2="835.1166666666667" stroke="#000000" stroke-width="0.5"/>
  <line x1="1133.8400000000001" y1="839.1166666666667" x2="1137.8400000000001" y2="831.1166666666667" stroke="#000000" stroke-width="0.8"/>
  <line x1="1236.2866666666666" y1="839.1166666666667" x2="1240.2866666666666" y2="831.1166666666667" stroke="#000000" stroke-width="0.8"/>
  <text x="1187.0633333333335" y="830.1166666666667" text-anchor="middle" font-family="'Arial Narrow', Arial, sans-serif" font-size="10" fill="#000000">1000</text>
  <line x1="1238.2866666666666" y1="795.1166666666667" x2="1238.2866666666666" y2="837.1166666666667" stroke="#000000" stroke-width="0.35"/>
  <line x1="1443.18" y1="795.1166666666667" x2="1443.18" y2="837.1166666666667" stroke="#000000" stroke-width="0.35"/>
  <line x1="1238.2866666666666" y1="835.1166666666667" x2="1443.18" y2="835.1166666666667" stroke="#000000" stroke-width="0.5"/>
  <line x1="1236.2866666666666" y1="839.1166666666667" x2="1240.2866666666666" y2="831.1166666666667" stroke="#000000" stroke-width="0.8"/>
  <line x1="1441.18" y1="839.1166666666667" x2="1445.18" y2="831.1166666666667" stroke="#000000" stroke-width="0.8"/>
  <text x="1340.7333333333333" y="830.1166666666667" text-anchor="middle" font-family="'Arial Narrow', Arial, sans-serif" font-size="10" fill="#000000">2000</text>
  <line x1="213.81999999999994" y1="795.1166666666667" x2="213.81999999999994" y2="859.1166666666667" stroke="#000000" stroke-width="0.35"/>
  <line x1="1443.18" y1="795.1166666666667" x2="1443.18" y2="859.1166666666667" stroke="#000000" stroke-width="0.35"/>
  <line x1="213.81999999999994" y1="857.1166666666667" x2="1443.18" y2="857.1166666666667" stroke="#000000" stroke-width="0.5"/>
  <line x1="211.81999999999994" y1="861.1166666666667" x2="215.81999999999994" y2="853.1166666666667" stroke="#000000" stroke-width="0.8"/>
  <line x1="1441.18" y1="861.1166666666667" x2="1445.18" y2="853.1166666666667" stroke="#000000" stroke-width="0.8"/>
  <text x="828.5" y="852.1166666666667" text-anchor="middle" font-family="'Arial Narrow', Arial, sans-serif" font-size="10" fill="#000000">12000</text>
  <line x1="211.81999999999994" y1="280.8833333333333" x2="191.81999999999994" y2="280.8833333333333" stroke="#000000" stroke-width="0.35"/>
  <line x1="211.81999999999994" y1="301.37266666666665" x2="191.81999999999994" y2="301.37266666666665" stroke="#000000" stroke-width="0.35"/>
  <line x1="193.81999999999994" y1="280.8833333333333" x2="193.81999999999994" y2="301.37266666666665" stroke="#000000" stroke-width="0.5"/>
  <line x1="189.81999999999994" y1="282.8833333333333" x2="197.81999999999994" y2="278.8833333333333" stroke="#000000" stroke-width="0.8"/>
  <line x1="189.81999999999994" y1="303.37266666666665" x2="197.81999999999994" y2="299.37266666666665" stroke="#000000" stroke-width="0.8"/>
  <text x="185.81999999999994" y="291.128" text-anchor="middle" font-family="'Arial Narrow', Arial, sans-serif" font-size="7.5" fill="#000000" transform="rotate(-90, 185.81999999999994, 291.128)">200</text>
  <line x1="211.81999999999994" y1="301.37266666666665" x2="191.81999999999994" y2="301.37266666666665" stroke="#000000" stroke-width="0.35"/>
  <line x1="211.81999999999994" y1="473.4830666666667" x2="191.81999999999994" y2="473.4830666666667" stroke="#000000" stroke-width="0.35"/>
  <line x1="193.81999999999994" y1="301.37266666666665" x2="193.81999999999994" y2="473.4830666666667" stroke="#000000" stroke-width="0.5"/>
  <line x1="189.81999999999994" y1="303.37266666666665" x2="197.81999999999994" y2="299.37266666666665" stroke="#000000" stroke-width="0.8"/>
  <line x1="189.81999999999994" y1="475.4830666666667" x2="197.81999999999994" y2="471.4830666666667" stroke="#000000" stroke-width="0.8"/>
  <text x="185.81999999999994" y="387.42786666666666" text-anchor="middle" font-family="'Arial Narrow', Arial, sans-serif" font-size="7.5" fill="#000000" transform="rotate(-90, 185.81999999999994, 387.42786666666666)">1680</text>
  <line x1="211.81999999999994" y1="473.4830666666667" x2="191.81999999999994" y2="473.4830666666667" stroke="#000000" stroke-width="0.35"/>
  <line x1="211.81999999999994" y1="485.77666666666664" x2="191.81999999999994" y2="485.77666666666664" stroke="#000000" stroke-width="0.35"/>
  <line x1="193.81999999999994" y1="473.4830666666667" x2="193.81999999999994" y2="485.77666666666664" stroke="#000000" stroke-width="0.5"/>
  <line x1="189.81999999999994" y1="475.4830666666667" x2="197.81999999999994" y2="471.4830666666667" stroke="#000000" stroke-width="0.8"/>
  <line x1="189.81999999999994" y1="487.77666666666664" x2="197.81999999999994" y2="483.77666666666664" stroke="#000000" stroke-width="0.8"/>
  <text x="185.81999999999994" y="479.62986666666666" text-anchor="middle" font-family="'Arial Narrow', Arial, sans-serif" font-size="7.5" fill="#000000" transform="rotate(-90, 185.81999999999994, 479.62986666666666)">120</text>
  <line x1="211.81999999999994" y1="485.77666666666664" x2="191.81999999999994" y2="485.77666666666664" stroke="#000000" stroke-width="0.35"/>
  <line x1="211.81999999999994" y1="772.6273333333334" x2="191.81999999999994" y2="772.6273333333334" stroke="#000000" stroke-width="0.35"/>
  <line x1="193.81999999999994" y1="485.77666666666664" x2="193.81999999999994" y2="772.6273333333334" stroke="#000000" stroke-width="0.5"/>
  <line x1="189.81999999999994" y1="487.77666666666664" x2="197.81999999999994" y2="483.77666666666664" stroke="#000000" stroke-width="0.8"/>
  <line x1="189.81999999999994" y1="774.6273333333334" x2="197.81999999999994" y2="770.6273333333334" stroke="#000000" stroke-width="0.8"/>
  <text x="185.81999999999994" y="629.202" text-anchor="middle" font-family="'Arial Narrow', Arial, sans-serif" font-size="7.5" fill="#000000" transform="rotate(-90, 185.81999999999994, 629.202)">2800</text>
  <line x1="211.81999999999994" y1="772.6273333333334" x2="191.81999999999994" y2="772.6273333333334" stroke="#000000" stroke-width="0.35"/>
  <line x1="211.81999999999994" y1="793.1166666666667" x2="191.81999999999994" y2="793.1166666666667" stroke="#000000" stroke-width="0.35"/>
  <line x1="193.81999999999994" y1="772.6273333333334" x2="193.81999999999994" y2="793.1166666666667" stroke="#000000" stroke-width="0.5"/>
  <line x1="189.81999999999994" y1="774.6273333333334" x2="197.81999999999994" y2="770.6273333333334" stroke="#000000" stroke-width="0.8"/>
  <line x1="189.81999999999994" y1="795.1166666666667" x2="197.81999999999994" y2="791.1166666666667" stroke="#000000" stroke-width="0.8"/>
  <text x="185.81999999999994" y="782.8720000000001" text-anchor="middle" font-family="'Arial Narrow', Arial, sans-serif" font-size="7.5" fill="#000000" transform="rotate(-90, 185.81999999999994, 782.8720000000001)">200</text>
  <line x1="211.81999999999994" y1="280.8833333333333" x2="169.81999999999994" y2="280.8833333333333" stroke="#000000" stroke-width="0.35"/>
  <line x1="211.81999999999994" y1="793.1166666666667" x2="169.81999999999994" y2="793.1166666666667" stroke="#000000" stroke-width="0.35"/>
  <line x1="171.81999999999994" y1="280.8833333333333" x2="171.81999999999994" y2="793.1166666666667" stroke="#000000" stroke-width="0.5"/>
  <line x1="167.81999999999994" y1="282.8833333333333" x2="175.81999999999994" y2="278.8833333333333" stroke="#000000" stroke-width="0.8"/>
  <line x1="167.81999999999994" y1="795.1166666666667" x2="175.81999999999994" y2="791.1166666666667" stroke="#000000" stroke-width="0.8"/>
  <text x="163.81999999999994" y="537" text-anchor="middle" font-family="'Arial Narrow', Arial, sans-serif" font-size="7.5" fill="#000000" transform="rotate(-90, 163.81999999999994, 537)">5000</text>
  <line x1="211.81999999999994" y1="280.8833333333333" x2="147.81999999999994" y2="280.8833333333333" stroke="#000000" stroke-width="0.35"/>
  <line x1="211.81999999999994" y1="793.1166666666667" x2="147.81999999999994" y2="793.1166666666667" stroke="#000000" stroke-width="0.35"/>
  <line x1="149.81999999999994" y1="280.8833333333333" x2="149.81999999999994" y2="793.1166666666667" stroke="#000000" stroke-width="0.5"/>
  <line x1="145.81999999999994" y1="282.8833333333333" x2="153.81999999999994" y2="278.8833333333333" stroke="#000000" stroke-width="0.8"/>
  <line x1="145.81999999999994" y1="795.1166666666667" x2="153.81999999999994" y2="791.1166666666667" stroke="#000000" stroke-width="0.8"/>
  <text x="141.81999999999994" y="537" text-anchor="middle" font-family="'Arial Narrow', Arial, sans-serif" font-size="7.5" fill="#000000" transform="rotate(-90, 141.81999999999994, 537)">5000</text>
  <line x1="213.81999999999994" y1="278.8833333333333" x2="213.81999999999994" y2="258.8833333333333" stroke="#000000" stroke-width="0.35"/>
  <line x1="234.30933333333326" y1="278.8833333333333" x2="234.30933333333326" y2="258.8833333333333" stroke="#000000" stroke-width="0.35"/>
  <line x1="213.81999999999994" y1="260.8833333333333" x2="234.30933333333326" y2="260.8833333333333" stroke="#000000" stroke-width="0.5"/>
  <line x1="211.81999999999994" y1="264.8833333333333" x2="215.81999999999994" y2="256.8833333333333" stroke="#000000" stroke-width="0.8"/>
  <line x1="232.30933333333326" y1="264.8833333333333" x2="236.30933333333326" y2="256.8833333333333" stroke="#000000" stroke-width="0.8"/>
  <text x="224.0646666666666" y="273.8833333333333" text-anchor="middle" font-family="'Arial Narrow', Arial, sans-serif" font-size="10" fill="#000000">200</text>
  <line x1="234.30933333333326" y1="278.8833333333333" x2="234.30933333333326" y2="258.8833333333333" stroke="#000000" stroke-width="0.35"/>
  <line x1="695.3193333333334" y1="278.8833333333333" x2="695.3193333333334" y2="258.8833333333333" stroke="#000000" stroke-width="0.35"/>
  <line x1="234.30933333333326" y1="260.8833333333333" x2="695.3193333333334" y2="260.8833333333333" stroke="#000000" stroke-width="0.5"/>
  <line x1="232.30933333333326" y1="264.8833333333333" x2="236.30933333333326" y2="256.8833333333333" stroke="#000000" stroke-width="0.8"/>
  <line x1="693.3193333333334" y1="264.8833333333333" x2="697.3193333333334" y2="256.8833333333333" stroke="#000000" stroke-width="0.8"/>
  <text x="464.8143333333333" y="273.8833333333333" text-anchor="middle" font-family="'Arial Narrow', Arial, sans-serif" font-size="10" fill="#000000">4500</text>
  <line x1="695.3193333333334" y1="278.8833333333333" x2="695.3193333333334" y2="258.8833333333333" stroke="#000000" stroke-width="0.35"/>
  <line x1="707.6129333333333" y1="278.8833333333333" x2="707.6129333333333" y2="258.8833333333333" stroke="#000000" stroke-width="0.35"/>
  <line x1="695.3193333333334" y1="260.8833333333333" x2="707.6129333333333" y2="260.8833333333333" stroke="#000000" stroke-width="0.5"/>
  <line x1="693.3193333333334" y1="264.8833333333333" x2="697.3193333333334" y2="256.8833333333333" stroke="#000000" stroke-width="0.8"/>
  <line x1="705.6129333333333" y1="264.8833333333333" x2="709.6129333333333" y2="256.8833333333333" stroke="#000000" stroke-width="0.8"/>
  <text x="701.4661333333333" y="273.8833333333333" text-anchor="middle" font-family="'Arial Narrow', Arial, sans-serif" font-size="10" fill="#000000">120</text>
  <line x1="707.6129333333333" y1="278.8833333333333" x2="707.6129333333333" y2="258.8833333333333" stroke="#000000" stroke-width="0.35"/>
  <line x1="749.6160666666667" y1="278.8833333333333" x2="749.6160666666667" y2="258.8833333333333" stroke="#000000" stroke-width="0.35"/>
  <line x1="707.6129333333333" y1="260.8833333333333" x2="749.6160666666667" y2="260.8833333333333" stroke="#000000" stroke-width="0.5"/>
  <line x1="705.6129333333333" y1="264.8833333333333" x2="709.6129333333333" y2="256.8833333333333" stroke="#000000" stroke-width="0.8"/>
  <line x1="747.6160666666667" y1="264.8833333333333" x2="751.6160666666667" y2="256.8833333333333" stroke="#000000" stroke-width="0.8"/>
  <text x="728.6145" y="273.8833333333333" text-anchor="middle" font-family="'Arial Narrow', Arial, sans-serif" font-size="10" fill="#000000">410</text>
  <line x1="749.6160666666667" y1="278.8833333333333" x2="749.6160666666667" y2="258.8833333333333" stroke="#000000" stroke-width="0.35"/>
  <line x1="1074.372" y1="278.8833333333333" x2="1074.372" y2="258.8833333333333" stroke="#000000" stroke-width="0.35"/>
  <line x1="749.6160666666667" y1="260.8833333333333" x2="1074.372" y2="260.8833333333333" stroke="#000000" stroke-width="0.5"/>
  <line x1="747.6160666666667" y1="264.8833333333333" x2="751.6160666666667" y2="256.8833333333333" stroke="#000000" stroke-width="0.8"/>
  <line x1="1072.372" y1="264.8833333333333" x2="1076.372" y2="256.8833333333333" stroke="#000000" stroke-width="0.8"/>
  <text x="911.9940333333334" y="273.8833333333333" text-anchor="middle" font-family="'Arial Narrow', Arial, sans-serif" font-size="10" fill="#000000">3170</text>
  <line x1="1076.4209333333333" y1="278.8833333333333" x2="1076.4209333333333" y2="258.8833333333333" stroke="#000000" stroke-width="0.35"/>
  <line x1="1135.8400000000001" y1="278.8833333333333" x2="1135.8400000000001" y2="258.8833333333333" stroke="#000000" stroke-width="0.35"/>
  <line x1="1076.4209333333333" y1="260.8833333333333" x2="1135.8400000000001" y2="260.8833333333333" stroke="#000000" stroke-width="0.5"/>
  <line x1="1074.4209333333333" y1="264.8833333333333" x2="1078.4209333333333" y2="256.8833333333333" stroke="#000000" stroke-width="0.8"/>
  <line x1="1133.8400000000001" y1="264.8833333333333" x2="1137.8400000000001" y2="256.8833333333333" stroke="#000000" stroke-width="0.8"/>
  <text x="1106.1304666666667" y="273.8833333333333" text-anchor="middle" font-family="'Arial Narrow', Arial, sans-serif" font-size="10" fill="#000000">580</text>
  <line x1="1135.8400000000001" y1="278.8833333333333" x2="1135.8400000000001" y2="258.8833333333333" stroke="#000000" stroke-width="0.35"/>
  <line x1="1238.2866666666666" y1="278.8833333333333" x2="1238.2866666666666" y2="258.8833333333333" stroke="#000000" stroke-width="0.35"/>
  <line x1="1135.8400000000001" y1="260.8833333333333" x2="1238.2866666666666" y2="260.8833333333333" stroke="#000000" stroke-width="0.5"/>
  <line x1="1133.8400000000001" y1="264.8833333333333" x2="1137.8400000000001" y2="256.8833333333333" stroke="#000000" stroke-width="0.8"/>
  <line x1="1236.2866666666666" y1="264.8833333333333" x2="1240.2866666666666" y2="256.8833333333333" stroke="#000000" stroke-width="0.8"/>
  <text x="1187.0633333333335" y="273.8833333333333" text-anchor="middle" font-family="'Arial Narrow', Arial, sans-serif" font-size="10" fill="#000000">1000</text>
  <line x1="1238.2866666666666" y1="278.8833333333333" x2="1238.2866666666666" y2="258.8833333333333" stroke="#000000" stroke-width="0.35"/>
  <line x1="1443.18" y1="278.8833333333333" x2="1443.18" y2="258.8833333333333" stroke="#000000" stroke-width="0.35"/>
  <line x1="1238.2866666666666" y1="260.8833333333333" x2="1443.18" y2="260.8833333333333" stroke="#000000" stroke-width="0.5"/>
  <line x1="1236.2866666666666" y1="264.8833333333333" x2="1240.2866666666666" y2="256.8833333333333" stroke="#000000" stroke-width="0.8"/>
  <line x1="1441.18" y1="264.8833333333333" x2="1445.18" y2="256.8833333333333" stroke="#000000" stroke-width="0.8"/>
  <text x="1340.7333333333333" y="273.8833333333333" text-anchor="middle" font-family="'Arial Narrow', Arial, sans-serif" font-size="10" fill="#000000">2000</text>
  <line x1="213.81999999999994" y1="278.8833333333333" x2="213.81999999999994" y2="236.88333333333333" stroke="#000000" stroke-width="0.35"/>
  <line x1="234.30933333333326" y1="278.8833333333333" x2="234.30933333333326" y2="236.88333333333333" stroke="#000000" stroke-width="0.35"/>
  <line x1="213.81999999999994" y1="238.88333333333333" x2="234.30933333333326" y2="238.88333333333333" stroke="#000000" stroke-width="0.5"/>
  <line x1="211.81999999999994" y1="242.88333333333333" x2="215.81999999999994" y2="234.88333333333333" stroke="#000000" stroke-width="0.8"/>
  <line x1="232.30933333333326" y1="242.88333333333333" x2="236.30933333333326" y2="234.88333333333333" stroke="#000000" stroke-width="0.8"/>
  <text x="224.0646666666666" y="251.88333333333333" text-anchor="middle" font-family="'Arial Narrow', Arial, sans-serif" font-size="10" fill="#000000">200</text>
  <line x1="234.30933333333326" y1="278.8833333333333" x2="234.30933333333326" y2="236.88333333333333" stroke="#000000" stroke-width="0.35"/>
  <line x1="707.6129333333333" y1="278.8833333333333" x2="707.6129333333333" y2="236.88333333333333" stroke="#000000" stroke-width="0.35"/>
  <line x1="234.30933333333326" y1="238.88333333333333" x2="707.6129333333333" y2="238.88333333333333" stroke="#000000" stroke-width="0.5"/>
  <line x1="232.30933333333326" y1="242.88333333333333" x2="236.30933333333326" y2="234.88333333333333" stroke="#000000" stroke-width="0.8"/>
  <line x1="705.6129333333333" y1="242.88333333333333" x2="709.6129333333333" y2="234.88333333333333" stroke="#000000" stroke-width="0.8"/>
  <text x="470.9611333333333" y="251.88333333333333" text-anchor="middle" font-family="'Arial Narrow', Arial, sans-serif" font-size="10" fill="#000000">4620</text>
  <line x1="707.6129333333333" y1="278.8833333333333" x2="707.6129333333333" y2="236.88333333333333" stroke="#000000" stroke-width="0.35"/>
  <line x1="749.6160666666667" y1="278.8833333333333" x2="749.6160666666667" y2="236.88333333333333" stroke="#000000" stroke-width="0.35"/>
  <line x1="707.6129333333333" y1="238.88333333333333" x2="749.6160666666667" y2="238.88333333333333" stroke="#000000" stroke-width="0.5"/>
  <line x1="705.6129333333333" y1="242.88333333333333" x2="709.6129333333333" y2="234.88333333333333" stroke="#000000" stroke-width="0.8"/>
  <line x1="747.6160666666667" y1="242.88333333333333" x2="751.6160666666667" y2="234.88333333333333" stroke="#000000" stroke-width="0.8"/>
  <text x="728.6145" y="251.88333333333333" text-anchor="middle" font-family="'Arial Narrow', Arial, sans-serif" font-size="10" fill="#000000">410</text>
  <line x1="749.6160666666667" y1="278.8833333333333" x2="749.6160666666667" y2="236.88333333333333" stroke="#000000" stroke-width="0.35"/>
  <line x1="1076.4209333333333" y1="278.8833333333333" x2="1076.4209333333333" y2="236.88333333333333" stroke="#000000" stroke-width="0.35"/>
  <line x1="749.6160666666667" y1="238.88333333333333" x2="1076.4209333333333" y2="238.88333333333333" stroke="#000000" stroke-width="0.5"/>
  <line x1="747.6160666666667" y1="242.88333333333333" x2="751.6160666666667" y2="234.88333333333333" stroke="#000000" stroke-width="0.8"/>
  <line x1="1074.4209333333333" y1="242.88333333333333" x2="1078.4209333333333" y2="234.88333333333333" stroke="#000000" stroke-width="0.8"/>
  <text x="913.0185" y="251.88333333333333" text-anchor="middle" font-family="'Arial Narrow', Arial, sans-serif" font-size="10" fill="#000000">3190</text>
  <line x1="1076.4209333333333" y1="278.8833333333333" x2="1076.4209333333333" y2="236.88333333333333" stroke="#000000" stroke-width="0.35"/>
  <line x1="1135.8400000000001" y1="278.8833333333333" x2="1135.8400000000001" y2="236.88333333333333" stroke="#000000" stroke-width="0.35"/>
  <line x1="1076.4209333333333" y1="238.88333333333333" x2="1135.8400000000001" y2="238.88333333333333" stroke="#000000" stroke-width="0.5"/>
  <line x1="1074.4209333333333" y1="242.88333333333333" x2="1078.4209333333333" y2="234.88333333333333" stroke="#000000" stroke-width="0.8"/>
  <line x1="1133.8400000000001" y1="242.88333333333333" x2="1137.8400000000001" y2="234.88333333333333" stroke="#000000" stroke-width="0.8"/>
  <text x="1106.1304666666667" y="251.88333333333333" text-anchor="middle" font-family="'Arial Narrow', Arial, sans-serif" font-size="10" fill="#000000">580</text>
  <line x1="1135.8400000000001" y1="278.8833333333333" x2="1135.8400000000001" y2="236.88333333333333" stroke="#000000" stroke-width="0.35"/>
  <line x1="1238.2866666666666" y1="278.8833333333333" x2="1238.2866666666666" y2="236.88333333333333" stroke="#000000" stroke-width="0.35"/>
  <line x1="1135.8400000000001" y1="238.88333333333333" x2="1238.2866666666666" y2="238.88333333333333" stroke="#000000" stroke-width="0.5"/>
  <line x1="1133.8400000000001" y1="242.88333333333333" x2="1137.8400000000001" y2="234.88333333333333" stroke="#000000" stroke-width="0.8"/>
  <line x1="1236.2866666666666" y1="242.88333333333333" x2="1240.2866666666666" y2="234.88333333333333" stroke="#000000" stroke-width="0.8"/>
  <text x="1187.0633333333335" y="251.88333333333333" text-anchor="middle" font-family="'Arial Narrow', Arial, sans-serif" font-size="10" fill="#000000">1000</text>
  <line x1="1238.2866666666666" y1="278.8833333333333" x2="1238.2866666666666" y2="236.88333333333333" stroke="#000000" stroke-width="0.35"/>
  <line x1="1443.18" y1="278.8833333333333" x2="1443.18" y2="236.88333333333333" stroke="#000000" stroke-width="0.35"/>
  <line x1="1238.2866666666666" y1="238.88333333333333" x2="1443.18" y2="238.88333333333333" stroke="#000000" stroke-width="0.5"/>
  <line x1="1236.2866666666666" y1="242.88333333333333" x2="1240.2866666666666" y2="234.88333333333333" stroke="#000000" stroke-width="0.8"/>
  <line x1="1441.18" y1="242.88333333333333" x2="1445.18" y2="234.88333333333333" stroke="#000000" stroke-width="0.8"/>
  <text x="1340.7333333333333" y="251.88333333333333" text-anchor="middle" font-family="'Arial Narrow', Arial, sans-serif" font-size="10" fill="#000000">2000</text>
  <line x1="213.81999999999994" y1="278.8833333333333" x2="213.81999999999994" y2="214.88333333333333" stroke="#000000" stroke-width="0.35"/>
  <line x1="1443.18" y1="278.8833333333333" x2="1443.18" y2="214.88333333333333" stroke="#000000" stroke-width="0.35"/>
  <line x1="213.81999999999994" y1="216.88333333333333" x2="1443.18" y2="216.88333333333333" stroke="#000000" stroke-width="0.5"/>
  <line x1="211.81999999999994" y1="220.88333333333333" x2="215.81999999999994" y2="212.88333333333333" stroke="#000000" stroke-width="0.8"/>
  <line x1="1441.18" y1="220.88333333333333" x2="1445.18" y2="212.88333333333333" stroke="#000000" stroke-width="0.8"/>
  <text x="828.5" y="229.88333333333333" text-anchor="middle" font-family="'Arial Narrow', Arial, sans-serif" font-size="10" fill="#000000">12000</text>
  <line x1="141.81999999999994" y1="537" x2="1515.18" y2="537" stroke="#000" stroke-width="0.8" stroke-dasharray="12 3 3 3"/>
  <circle cx="141.81999999999994" cy="537" r="10" fill="white" stroke="#000" stroke-width="1"/>
  <text x="141.81999999999994" y="541" text-anchor="middle" font-family="'Arial Narrow', Arial, sans-serif" font-size="10" fill="#000" font-weight="bold">A</text>
  <circle cx="1515.18" cy="537" r="10" fill="white" stroke="#000" stroke-width="1"/>
  <text x="1515.18" y="541" text-anchor="middle" font-family="'Arial Narrow', Arial, sans-serif" font-size="10" fill="#000" font-weight="bold">A</text>
  <path d="M 127.81999999999994 534 L 127.81999999999994 540 L 130.81999999999994 537 Z" fill="#000" stroke="none"/>
  <path d="M 1529.18 534 L 1529.18 540 L 1526.18 537 Z" fill="#000" stroke="none"/>
  <text x="828.5" y="1100" text-anchor="middle" font-family="'Arial Narrow', Arial, sans-serif" font-size="18" fill="#000000" font-weight="bold" letter-spacing="2">MẶT BẰNG LẦU 1</text>
  <text x="828.5" y="1116" text-anchor="middle" font-family="'Arial Narrow', Arial, sans-serif" font-size="13" fill="#000000">TL: 1/37 (xoay 90°)</text>
  <text x="8" y="1120" font-family="'Arial Narrow', Arial, sans-serif" font-size="7" fill="#888888">⚠ Tầng 1: Hố thang "Cầu thang" (1.2×2.5m) hơi nhỏ cho thang U-shape — khuyến nghị ≥2.1×3.5m. | Tầng 2: Nên có ít nhất 2 WC cho 3 phòng ngủ (hiện có 1 WC).</text>
</svg>