<?xml version="1.0" encoding="UTF-8"?>
<svg xmlns="http://www.w3.org/2000/svg" width="420mm" height="297mm" viewBox="0 0 1587 1122" preserveAspectRatio="xMidYMid meet">
  <defs>
  <!-- Tường ngoài: gạch chéo đôi (cross-hatch) — chuẩn CAD kiến trúc -->
  <pattern id="hatch-ext" patternUnits="userSpaceOnUse" width="5" height="5">
    <line x1="0" y1="0" x2="5" y2="5" stroke="#000" stroke-width="0.6"/>
    <line x1="5" y1="0" x2="0" y2="5" stroke="#000" stroke-width="0.6"/>
  </pattern>
  <!-- Tường trong: gạch chéo đơn — mảnh hơn -->
  <pattern id="hatch-int" patternUnits="userSpaceOnUse" width="4" height="4">
    <line x1="0" y1="0" x2="4" y2="4" stroke="#555" stroke-width="0.4"/>
  </pattern>
  <!-- Tường tô đặc (cho cột / tường chịu lực) -->
  <pattern id="hatch-solid" patternUnits="userSpaceOnUse" width="3" height="3">
    <rect width="3" height="3" fill="#333"/>
  </pattern>
</defs>
  <rect width="1587" height="1122" fill="white"/>
  <!-- LẦU 1 | 5m×20m | Scale 1/61 | A3 landscape | BMT Decor -->
  <line x1="226.11360000000005" y1="343.33000000000004" x2="226.11360000000005" y2="730.6700000000001" stroke="#999999" stroke-width="0.4" stroke-dasharray="8 4 2 4"/>
  <circle cx="226.11360000000005" cy="730.6700000000001" r="14" fill="white" stroke="#000000" stroke-width="1.2"/>
  <text x="226.11360000000005" y="735.6700000000001" text-anchor="middle" font-family="'Arial Narrow', Arial, sans-serif" font-size="13" fill="#000000" font-weight="bold">1</text>
  <circle cx="226.11360000000005" cy="343.33000000000004" r="14" fill="white" stroke="#000000" stroke-width="1.2"/>
  <text x="226.11360000000005" y="348.33000000000004" text-anchor="middle" font-family="'Arial Narrow', Arial, sans-serif" font-size="13" fill="#000000" font-weight="bold">1</text>
  <line x1="510.09576000000004" y1="343.33000000000004" x2="510.09576000000004" y2="730.6700000000001" stroke="#999999" stroke-width="0.4" stroke-dasharray="8 4 2 4"/>
  <circle cx="510.09576000000004" cy="730.6700000000001" r="14" fill="white" stroke="#000000" stroke-width="1.2"/>
  <text x="510.09576000000004" y="735.6700000000001" text-anchor="middle" font-family="'Arial Narrow', Arial, sans-serif" font-size="13" fill="#000000" font-weight="bold">2</text>
  <circle cx="510.09576000000004" cy="343.33000000000004" r="14" fill="white" stroke="#000000" stroke-width="1.2"/>
  <text x="510.09576000000004" y="348.33000000000004" text-anchor="middle" font-family="'Arial Narrow', Arial, sans-serif" font-size="13" fill="#000000" font-weight="bold">2</text>
  <line x1="731.3805600000001" y1="343.33000000000004" x2="731.3805600000001" y2="730.6700000000001" stroke="#999999" stroke-width="0.4" stroke-dasharray="8 4 2 4"/>
  <circle cx="731.3805600000001" cy="730.6700000000001" r="14" fill="white" stroke="#000000" stroke-width="1.2"/>
  <text x="731.3805600000001" y="735.6700000000001" text-anchor="middle" font-family="'Arial Narrow', Arial, sans-serif" font-size="13" fill="#000000" font-weight="bold">3</text>
  <circle cx="731.3805600000001" cy="343.33000000000004" r="14" fill="white" stroke="#000000" stroke-width="1.2"/>
  <text x="731.3805600000001" y="348.33000000000004" text-anchor="middle" font-family="'Arial Narrow', Arial, sans-serif" font-size="13" fill="#000000" font-weight="bold">3</text>
  <line x1="875.83036" y1="343.33000000000004" x2="875.83036" y2="730.6700000000001" stroke="#999999" stroke-width="0.4" stroke-dasharray="8 4 2 4"/>
  <circle cx="875.83036" cy="730.6700000000001" r="14" fill="white" stroke="#000000" stroke-width="1.2"/>
  <text x="875.83036" y="735.6700000000001" text-anchor="middle" font-family="'Arial Narrow', Arial, sans-serif" font-size="13" fill="#000000" font-weight="bold">4</text>
  <circle cx="875.83036" cy="343.33000000000004" r="14" fill="white" stroke="#000000" stroke-width="1.2"/>
  <text x="875.83036" y="348.33000000000004" text-anchor="middle" font-family="'Arial Narrow', Arial, sans-serif" font-size="13" fill="#000000" font-weight="bold">4</text>
  <line x1="967.41768" y1="343.33000000000004" x2="967.41768" y2="730.6700000000001" stroke="#999999" stroke-width="0.4" stroke-dasharray="8 4 2 4"/>
  <circle cx="967.41768" cy="730.6700000000001" r="14" fill="white" stroke="#000000" stroke-width="1.2"/>
  <text x="967.41768" y="735.6700000000001" text-anchor="middle" font-family="'Arial Narrow', Arial, sans-serif" font-size="13" fill="#000000" font-weight="bold">5</text>
  <circle cx="967.41768" cy="343.33000000000004" r="14" fill="white" stroke="#000000" stroke-width="1.2"/>
  <text x="967.41768" y="348.33000000000004" text-anchor="middle" font-family="'Arial Narrow', Arial, sans-serif" font-size="13" fill="#000000" font-weight="bold">5</text>
  <line x1="1097.72984" y1="343.33000000000004" x2="1097.72984" y2="730.6700000000001" stroke="#999999" stroke-width="0.4" stroke-dasharray="8 4 2 4"/>
  <circle cx="1097.72984" cy="730.6700000000001" r="14" fill="white" stroke="#000000" stroke-width="1.2"/>
  <text x="1097.72984" y="735.6700000000001" text-anchor="middle" font-family="'Arial Narrow', Arial, sans-serif" font-size="13" fill="#000000" font-weight="bold">6</text>
  <circle cx="1097.72984" cy="343.33000000000004" r="14" fill="white" stroke="#000000" stroke-width="1.2"/>
  <text x="1097.72984" y="348.33000000000004" text-anchor="middle" font-family="'Arial Narrow', Arial, sans-serif" font-size="13" fill="#000000" font-weight="bold">6</text>
  <line x1="1443.1799999999998" y1="343.33000000000004" x2="1443.1799999999998" y2="730.6700000000001" stroke="#999999" stroke-width="0.4" stroke-dasharray="8 4 2 4"/>
  <circle cx="1443.1799999999998" cy="730.6700000000001" r="14" fill="white" stroke="#000000" stroke-width="1.2"/>
  <text x="1443.1799999999998" y="735.6700000000001" text-anchor="middle" font-family="'Arial Narrow', Arial, sans-serif" font-size="13" fill="#000000" font-weight="bold">7</text>
  <circle cx="1443.1799999999998" cy="343.33000000000004" r="14" fill="white" stroke="#000000" stroke-width="1.2"/>
  <text x="1443.1799999999998" y="348.33000000000004" text-anchor="middle" font-family="'Arial Narrow', Arial, sans-serif" font-size="13" fill="#000000" font-weight="bold">7</text>
  <line x1="173.82000000000005" y1="383.33000000000004" x2="1483.1799999999998" y2="383.33000000000004" stroke="#999999" stroke-width="0.4" stroke-dasharray="8 4 2 4"/>
  <circle cx="173.82000000000005" cy="383.33000000000004" r="14" fill="white" stroke="#000000" stroke-width="1.2"/>
  <text x="173.82000000000005" y="388.33000000000004" text-anchor="middle" font-family="'Arial Narrow', Arial, sans-serif" font-size="13" fill="#000000" font-weight="bold">A</text>
  <circle cx="1483.1799999999998" cy="383.33000000000004" r="14" fill="white" stroke="#000000" stroke-width="1.2"/>
  <text x="1483.1799999999998" y="388.33000000000004" text-anchor="middle" font-family="'Arial Narrow', Arial, sans-serif" font-size="13" fill="#000000" font-weight="bold">A</text>
  <line x1="173.82000000000005" y1="690.6700000000001" x2="1483.1799999999998" y2="690.6700000000001" stroke="#999999" stroke-width="0.4" stroke-dasharray="8 4 2 4"/>
  <circle cx="173.82000000000005" cy="690.6700000000001" r="14" fill="white" stroke="#000000" stroke-width="1.2"/>
  <text x="173.82000000000005" y="695.6700000000001" text-anchor="middle" font-family="'Arial Narrow', Arial, sans-serif" font-size="13" fill="#000000" font-weight="bold">B</text>
  <circle cx="1483.1799999999998" cy="690.6700000000001" r="14" fill="white" stroke="#000000" stroke-width="1.2"/>
  <text x="1483.1799999999998" y="695.6700000000001" text-anchor="middle" font-family="'Arial Narrow', Arial, sans-serif" font-size="13" fill="#000000" font-weight="bold">B</text>
  <rect x="219.96680000000003" y="377.18320000000006" width="12.2936" height="12.2936" fill="#000000" stroke="none"/>
  <rect x="219.96680000000003" y="684.5232000000001" width="12.2936" height="12.2936" fill="#000000" stroke="none"/>
  <rect x="503.94896000000006" y="377.18320000000006" width="12.2936" height="12.2936" fill="#000000" stroke="none"/>
  <rect x="503.94896000000006" y="684.5232000000001" width="12.2936" height="12.2936" fill="#000000" stroke="none"/>
  <rect x="725.2337600000001" y="377.18320000000006" width="12.2936" height="12.2936" fill="#000000" stroke="none"/>
  <rect x="725.2337600000001" y="684.5232000000001" width="12.2936" height="12.2936" fill="#000000" stroke="none"/>
  <rect x="869.68356" y="377.18320000000006" width="12.2936" height="12.2936" fill="#000000" stroke="none"/>
  <rect x="869.68356" y="684.5232000000001" width="12.2936" height="12.2936" fill="#000000" stroke="none"/>
  <rect x="961.27088" y="377.18320000000006" width="12.2936" height="12.2936" fill="#000000" stroke="none"/>
  <rect x="961.27088" y="684.5232000000001" width="12.2936" height="12.2936" fill="#000000" stroke="none"/>
  <rect x="1091.58304" y="377.18320000000006" width="12.2936" height="12.2936" fill="#000000" stroke="none"/>
  <rect x="1091.58304" y="684.5232000000001" width="12.2936" height="12.2936" fill="#000000" stroke="none"/>
  <rect x="1437.0331999999999" y="377.18320000000006" width="12.2936" height="12.2936" fill="#000000" stroke="none"/>
  <rect x="1437.0331999999999" y="684.5232000000001" width="12.2936" height="12.2936" fill="#000000" stroke="none"/>
  <rect x="722.16036" y="395.62360000000007" width="153.67" height="282.7528" fill="white" stroke="none"/>
  <rect x="722.16036" y="395.62360000000007" width="153.67" height="282.7528" fill="white" stroke="#000000" stroke-width="1"/>
  <line x1="722.16036" y1="395.62360000000007" x2="875.8303599999999" y2="678.3764000000001" stroke="#000000" stroke-width="0.6"/>
  <line x1="875.8303599999999" y1="395.62360000000007" x2="722.16036" y2="678.3764000000001" stroke="#000000" stroke-width="0.6"/>
  <text x="798.99536" y="541" text-anchor="middle" font-family="'Arial Narrow', Arial, sans-serif" font-size="7" fill="#000000">THÔNG TẦNG</text>
  <text x="798.99536" y="535" text-anchor="middle" font-family="'Arial Narrow', Arial, sans-serif" font-size="9" fill="#000" font-weight="bold">Cầu thang</text>
  <text x="798.99536" y="547" text-anchor="middle" font-family="'Arial Narrow', Arial, sans-serif" font-size="7.5" fill="#333">11.5m²</text>
  <rect x="226.11360000000005" y="395.62360000000007" width="276.606" height="282.7528" fill="white" stroke="none"/>
  <rect x="309.4166" y="414.98602000000005" width="110" height="95" fill="white" stroke="#000000" stroke-width="0.8"/>
  <rect x="309.4166" y="414.98602000000005" width="110" height="6.65" fill="#c0c0c0" stroke="#000000" stroke-width="0.6"/>
  <rect x="313.8166" y="424.63602000000003" width="39.6" height="17.099999999999998" rx="4" fill="#e8e8e8" stroke="#000000" stroke-width="0.5"/>
  <line x1="333.6166" y1="425.63602000000003" x2="333.6166" y2="440.73602000000005" stroke="#000000" stroke-width="0.25"/>
  <rect x="375.4166" y="424.63602000000003" width="39.6" height="17.099999999999998" rx="4" fill="#e8e8e8" stroke="#000000" stroke-width="0.5"/>
  <line x1="395.2166" y1="425.63602000000003" x2="395.2166" y2="440.73602000000005" stroke="#000000" stroke-width="0.25"/>
  <line x1="311.4166" y1="452.98602000000005" x2="417.4166" y2="452.98602000000005" stroke="#000000" stroke-width="0.4"/>
  <path d="M 313.4166 452.98602000000005 Q 364.4166 458.98602000000005 415.4166 452.98602000000005" fill="none" stroke="#000000" stroke-width="0.3"/>
  <line x1="364.4166" y1="455.98602000000005" x2="364.4166" y2="507.98602000000005" stroke="#000000" stroke-width="0.2" stroke-dasharray="3 3"/>
  <rect x="290.4166" y="414.98602000000005" width="16" height="16" fill="white" stroke="#000000" stroke-width="0.6"/>
  <circle cx="298.4166" cy="422.98602000000005" r="3" fill="none" stroke="#000000" stroke-width="0.35"/>
  <rect x="422.4166" y="414.98602000000005" width="16" height="16" fill="white" stroke="#000000" stroke-width="0.6"/>
  <circle cx="430.4166" cy="422.98602000000005" r="3" fill="none" stroke="#000000" stroke-width="0.35"/>
  <rect x="245.47602000000006" y="637.0139800000001" width="237.88116" height="22" fill="white" stroke="#000000" stroke-width="0.7"/>
  <line x1="246.47602000000006" y1="638.0139800000001" x2="292.05225200000007" y2="658.0139800000001" stroke="#000000" stroke-width="0.3"/>
  <line x1="292.05225200000007" y1="638.0139800000001" x2="246.47602000000006" y2="658.0139800000001" stroke="#000000" stroke-width="0.3"/>
  <circle cx="267.26413600000006" cy="648.0139800000001" r="1" fill="#000000" stroke="none"/>
  <circle cx="271.26413600000006" cy="648.0139800000001" r="1" fill="#000000" stroke="none"/>
  <line x1="293.05225200000007" y1="637.0139800000001" x2="293.05225200000007" y2="659.0139800000001" stroke="#000000" stroke-width="0.5"/>
  <line x1="294.05225200000007" y1="638.0139800000001" x2="339.62848400000007" y2="658.0139800000001" stroke="#000000" stroke-width="0.3"/>
  <line x1="339.62848400000007" y1="638.0139800000001" x2="294.05225200000007" y2="658.0139800000001" stroke="#000000" stroke-width="0.3"/>
  <circle cx="314.84036800000007" cy="648.0139800000001" r="1" fill="#000000" stroke="none"/>
  <circle cx="318.84036800000007" cy="648.0139800000001" r="1" fill="#000000" stroke="none"/>
  <line x1="340.62848400000007" y1="637.0139800000001" x2="340.62848400000007" y2="659.0139800000001" stroke="#000000" stroke-width="0.5"/>
  <line x1="341.62848400000007" y1="638.0139800000001" x2="387.2047160000001" y2="658.0139800000001" stroke="#000000" stroke-width="0.3"/>
  <line x1="387.2047160000001" y1="638.0139800000001" x2="341.62848400000007" y2="658.0139800000001" stroke="#000000" stroke-width="0.3"/>
  <circle cx="362.4166000000001" cy="648.0139800000001" r="1" fill="#000000" stroke="none"/>
  <circle cx="366.4166000000001" cy="648.0139800000001" r="1" fill="#000000" stroke="none"/>
  <line x1="388.2047160000001" y1="637.0139800000001" x2="388.2047160000001" y2="659.0139800000001" stroke="#000000" stroke-width="0.5"/>
  <line x1="389.2047160000001" y1="638.0139800000001" x2="434.7809480000001" y2="658.0139800000001" stroke="#000000" stroke-width="0.3"/>
  <line x1="434.7809480000001" y1="638.0139800000001" x2="389.2047160000001" y2="658.0139800000001" stroke="#000000" stroke-width="0.3"/>
  <circle cx="409.9928320000001" cy="648.0139800000001" r="1" fill="#000000" stroke="none"/>
  <circle cx="413.9928320000001" cy="648.0139800000001" r="1" fill="#000000" stroke="none"/>
  <line x1="435.7809480000001" y1="637.0139800000001" x2="435.7809480000001" y2="659.0139800000001" stroke="#000000" stroke-width="0.5"/>
  <line x1="436.7809480000001" y1="638.0139800000001" x2="482.3571800000001" y2="658.0139800000001" stroke="#000000" stroke-width="0.3"/>
  <line x1="482.3571800000001" y1="638.0139800000001" x2="436.7809480000001" y2="658.0139800000001" stroke="#000000" stroke-width="0.3"/>
  <circle cx="457.5690640000001" cy="648.0139800000001" r="1" fill="#000000" stroke="none"/>
  <circle cx="461.5690640000001" cy="648.0139800000001" r="1" fill="#000000" stroke="none"/>
  <rect x="245.47602000000006" y="613.0139800000001" width="48" height="14" fill="white" stroke="#000000" stroke-width="0.6"/>
  <line x1="247.47602000000006" y1="620.0139800000001" x2="291.47602000000006" y2="620.0139800000001" stroke="#000000" stroke-width="0.25"/>
  <circle cx="269.47602000000006" cy="636.0139800000001" r="6" fill="none" stroke="#000000" stroke-width="0.5"/>
  <path d="M 263.47602000000006 637.0139800000001 A 8 8 0 0 0 275.47602000000006 637.0139800000001" fill="none" stroke="#000000" stroke-width="0.4"/>
  <text x="364.4166" y="535" text-anchor="middle" font-family="'Arial Narrow', Arial, sans-serif" font-size="9" fill="#000" font-weight="bold">Phòng ngủ Master</text>
  <text x="364.4166" y="547" text-anchor="middle" font-family="'Arial Narrow', Arial, sans-serif" font-size="7.5" fill="#333">20.7m²</text>
  <rect x="510.09576000000004" y="395.62360000000007" width="221.2848" height="282.7528" fill="white" stroke="none"/>
  <rect x="580.73816" y="411.11353600000007" width="80" height="95" fill="white" stroke="#000000" stroke-width="0.8"/>
  <rect x="580.73816" y="411.11353600000007" width="80" height="6.65" fill="#c0c0c0" stroke="#000000" stroke-width="0.6"/>
  <rect x="583.93816" y="420.76353600000004" width="28.799999999999997" height="17.099999999999998" rx="4" fill="#e8e8e8" stroke="#000000" stroke-width="0.5"/>
  <line x1="598.33816" y1="421.76353600000004" x2="598.33816" y2="436.86353600000007" stroke="#000000" stroke-width="0.25"/>
  <rect x="628.73816" y="420.76353600000004" width="28.799999999999997" height="17.099999999999998" rx="4" fill="#e8e8e8" stroke="#000000" stroke-width="0.5"/>
  <line x1="643.13816" y1="421.76353600000004" x2="643.13816" y2="436.86353600000007" stroke="#000000" stroke-width="0.25"/>
  <line x1="582.73816" y1="449.11353600000007" x2="658.73816" y2="449.11353600000007" stroke="#000000" stroke-width="0.4"/>
  <path d="M 584.73816 449.11353600000007 Q 620.73816 455.11353600000007 656.73816 449.11353600000007" fill="none" stroke="#000000" stroke-width="0.3"/>
  <line x1="620.73816" y1="452.11353600000007" x2="620.73816" y2="504.11353600000007" stroke="#000000" stroke-width="0.2" stroke-dasharray="3 3"/>
  <rect x="561.73816" y="411.11353600000007" width="16" height="16" fill="white" stroke="#000000" stroke-width="0.6"/>
  <circle cx="569.73816" cy="419.11353600000007" r="3" fill="none" stroke="#000000" stroke-width="0.35"/>
  <rect x="663.73816" y="411.11353600000007" width="16" height="16" fill="white" stroke="#000000" stroke-width="0.6"/>
  <circle cx="671.73816" cy="419.11353600000007" r="3" fill="none" stroke="#000000" stroke-width="0.35"/>
  <rect x="525.5856960000001" y="640.886464" width="190.304928" height="22" fill="white" stroke="#000000" stroke-width="0.7"/>
  <line x1="526.5856960000001" y1="641.886464" x2="562.6466816000001" y2="661.886464" stroke="#000000" stroke-width="0.3"/>
  <line x1="562.6466816000001" y1="641.886464" x2="526.5856960000001" y2="661.886464" stroke="#000000" stroke-width="0.3"/>
  <circle cx="542.6161888000001" cy="651.886464" r="1" fill="#000000" stroke="none"/>
  <circle cx="546.6161888000001" cy="651.886464" r="1" fill="#000000" stroke="none"/>
  <line x1="563.6466816000001" y1="640.886464" x2="563.6466816000001" y2="662.886464" stroke="#000000" stroke-width="0.5"/>
  <line x1="564.6466816000001" y1="641.886464" x2="600.7076672000001" y2="661.886464" stroke="#000000" stroke-width="0.3"/>
  <line x1="600.7076672000001" y1="641.886464" x2="564.6466816000001" y2="661.886464" stroke="#000000" stroke-width="0.3"/>
  <circle cx="580.6771744000001" cy="651.886464" r="1" fill="#000000" stroke="none"/>
  <circle cx="584.6771744000001" cy="651.886464" r="1" fill="#000000" stroke="none"/>
  <line x1="601.7076672000001" y1="640.886464" x2="601.7076672000001" y2="662.886464" stroke="#000000" stroke-width="0.5"/>
  <line x1="602.7076672000001" y1="641.886464" x2="638.7686528" y2="661.886464" stroke="#000000" stroke-width="0.3"/>
  <line x1="638.7686528" y1="641.886464" x2="602.7076672000001" y2="661.886464" stroke="#000000" stroke-width="0.3"/>
  <circle cx="618.7381600000001" cy="651.886464" r="1" fill="#000000" stroke="none"/>
  <circle cx="622.7381600000001" cy="651.886464" r="1" fill="#000000" stroke="none"/>
  <line x1="639.7686528" y1="640.886464" x2="639.7686528" y2="662.886464" stroke="#000000" stroke-width="0.5"/>
  <line x1="640.7686528" y1="641.886464" x2="676.8296384" y2="661.886464" stroke="#000000" stroke-width="0.3"/>
  <line x1="676.8296384" y1="641.886464" x2="640.7686528" y2="661.886464" stroke="#000000" stroke-width="0.3"/>
  <circle cx="656.7991456000001" cy="651.886464" r="1" fill="#000000" stroke="none"/>
  <circle cx="660.7991456000001" cy="651.886464" r="1" fill="#000000" stroke="none"/>
  <line x1="677.8296384" y1="640.886464" x2="677.8296384" y2="662.886464" stroke="#000000" stroke-width="0.5"/>
  <line x1="678.8296384" y1="641.886464" x2="714.890624" y2="661.886464" stroke="#000000" stroke-width="0.3"/>
  <line x1="714.890624" y1="641.886464" x2="678.8296384" y2="661.886464" stroke="#000000" stroke-width="0.3"/>
  <circle cx="694.8601312000001" cy="651.886464" r="1" fill="#000000" stroke="none"/>
  <circle cx="698.8601312000001" cy="651.886464" r="1" fill="#000000" stroke="none"/>
  <rect x="525.5856960000001" y="616.886464" width="48" height="14" fill="white" stroke="#000000" stroke-width="0.6"/>
  <line x1="527.5856960000001" y1="623.886464" x2="571.5856960000001" y2="623.886464" stroke="#000000" stroke-width="0.25"/>
  <circle cx="549.5856960000001" cy="639.886464" r="6" fill="none" stroke="#000000" stroke-width="0.5"/>
  <path d="M 543.5856960000001 640.886464 A 8 8 0 0 0 555.5856960000001 640.886464" fill="none" stroke="#000000" stroke-width="0.4"/>
  <text x="620.73816" y="535" text-anchor="middle" font-family="'Arial Narrow', Arial, sans-serif" font-size="9" fill="#000" font-weight="bold">Phòng ngủ đôi 1</text>
  <text x="620.73816" y="547" text-anchor="middle" font-family="'Arial Narrow', Arial, sans-serif" font-size="7.5" fill="#333">16.6m²</text>
  <rect x="738.75672" y="395.62360000000007" width="221.2848" height="282.7528" fill="white" stroke="none"/>
  <rect x="809.3991199999999" y="411.11353600000007" width="80" height="95" fill="white" stroke="#000000" stroke-width="0.8"/>
  <rect x="809.3991199999999" y="411.11353600000007" width="80" height="6.65" fill="#c0c0c0" stroke="#000000" stroke-width="0.6"/>
  <rect x="812.59912" y="420.76353600000004" width="28.799999999999997" height="17.099999999999998" rx="4" fill="#e8e8e8" stroke="#000000" stroke-width="0.5"/>
  <line x1="826.99912" y1="421.76353600000004" x2="826.99912" y2="436.86353600000007" stroke="#000000" stroke-width="0.25"/>
  <rect x="857.3991199999999" y="420.76353600000004" width="28.799999999999997" height="17.099999999999998" rx="4" fill="#e8e8e8" stroke="#000000" stroke-width="0.5"/>
  <line x1="871.7991199999999" y1="421.76353600000004" x2="871.7991199999999" y2="436.86353600000007" stroke="#000000" stroke-width="0.25"/>
  <line x1="811.3991199999999" y1="449.11353600000007" x2="887.3991199999999" y2="449.11353600000007" stroke="#000000" stroke-width="0.4"/>
  <path d="M 813.3991199999999 449.11353600000007 Q 849.3991199999999 455.11353600000007 885.3991199999999 449.11353600000007" fill="none" stroke="#000000" stroke-width="0.3"/>
  <line x1="849.3991199999999" y1="452.11353600000007" x2="849.3991199999999" y2="504.11353600000007" stroke="#000000" stroke-width="0.2" stroke-dasharray="3 3"/>
  <rect x="790.3991199999999" y="411.11353600000007" width="16" height="16" fill="white" stroke="#000000" stroke-width="0.6"/>
  <circle cx="798.3991199999999" cy="419.11353600000007" r="3" fill="none" stroke="#000000" stroke-width="0.35"/>
  <rect x="892.3991199999999" y="411.11353600000007" width="16" height="16" fill="white" stroke="#000000" stroke-width="0.6"/>
  <circle cx="900.3991199999999" cy="419.11353600000007" r="3" fill="none" stroke="#000000" stroke-width="0.35"/>
  <rect x="754.246656" y="640.886464" width="190.304928" height="22" fill="white" stroke="#000000" stroke-width="0.7"/>
  <line x1="755.246656" y1="641.886464" x2="791.3076416" y2="661.886464" stroke="#000000" stroke-width="0.3"/>
  <line x1="791.3076416" y1="641.886464" x2="755.246656" y2="661.886464" stroke="#000000" stroke-width="0.3"/>
  <circle cx="771.2771488000001" cy="651.886464" r="1" fill="#000000" stroke="none"/>
  <circle cx="775.2771488000001" cy="651.886464" r="1" fill="#000000" stroke="none"/>
  <line x1="792.3076416" y1="640.886464" x2="792.3076416" y2="662.886464" stroke="#000000" stroke-width="0.5"/>
  <line x1="793.3076416" y1="641.886464" x2="829.3686272" y2="661.886464" stroke="#000000" stroke-width="0.3"/>
  <line x1="829.3686272" y1="641.886464" x2="793.3076416" y2="661.886464" stroke="#000000" stroke-width="0.3"/>
  <circle cx="809.3381344000001" cy="651.886464" r="1" fill="#000000" stroke="none"/>
  <circle cx="813.3381344000001" cy="651.886464" r="1" fill="#000000" stroke="none"/>
  <line x1="830.3686272" y1="640.886464" x2="830.3686272" y2="662.886464" stroke="#000000" stroke-width="0.5"/>
  <line x1="831.3686272" y1="641.886464" x2="867.4296128" y2="661.886464" stroke="#000000" stroke-width="0.3"/>
  <line x1="867.4296128" y1="641.886464" x2="831.3686272" y2="661.886464" stroke="#000000" stroke-width="0.3"/>
  <circle cx="847.39912" cy="651.886464" r="1" fill="#000000" stroke="none"/>
  <circle cx="851.39912" cy="651.886464" r="1" fill="#000000" stroke="none"/>
  <line x1="868.4296128" y1="640.886464" x2="868.4296128" y2="662.886464" stroke="#000000" stroke-width="0.5"/>
  <line x1="869.4296128" y1="641.886464" x2="905.4905984" y2="661.886464" stroke="#000000" stroke-width="0.3"/>
  <line x1="905.4905984" y1="641.886464" x2="869.4296128" y2="661.886464" stroke="#000000" stroke-width="0.3"/>
  <circle cx="885.4601056" cy="651.886464" r="1" fill="#000000" stroke="none"/>
  <circle cx="889.4601056" cy="651.886464" r="1" fill="#000000" stroke="none"/>
  <line x1="906.4905984" y1="640.886464" x2="906.4905984" y2="662.886464" stroke="#000000" stroke-width="0.5"/>
  <line x1="907.4905984" y1="641.886464" x2="943.5515839999999" y2="661.886464" stroke="#000000" stroke-width="0.3"/>
  <line x1="943.5515839999999" y1="641.886464" x2="907.4905984" y2="661.886464" stroke="#000000" stroke-width="0.3"/>
  <circle cx="923.5210912" cy="651.886464" r="1" fill="#000000" stroke="none"/>
  <circle cx="927.5210912" cy="651.886464" r="1" fill="#000000" stroke="none"/>
  <rect x="754.246656" y="616.886464" width="48" height="14" fill="white" stroke="#000000" stroke-width="0.6"/>
  <line x1="756.246656" y1="623.886464" x2="800.246656" y2="623.886464" stroke="#000000" stroke-width="0.25"/>
  <circle cx="778.246656" cy="639.886464" r="6" fill="none" stroke="#000000" stroke-width="0.5"/>
  <path d="M 772.246656 640.886464 A 8 8 0 0 0 784.246656 640.886464" fill="none" stroke="#000000" stroke-width="0.4"/>
  <text x="849.3991199999999" y="535" text-anchor="middle" font-family="'Arial Narrow', Arial, sans-serif" font-size="9" fill="#000" font-weight="bold">Phòng ngủ đôi 2</text>
  <text x="849.3991199999999" y="547" text-anchor="middle" font-family="'Arial Narrow', Arial, sans-serif" font-size="7.5" fill="#333">16.6m²</text>
  <rect x="967.41768" y="395.62360000000007" width="122.93599999999999" height="282.7528" fill="white" stroke="none"/>
  <rect x="976.0232" y="404.2291200000001" width="38" height="22" rx="1" fill="white" stroke="#000000" stroke-width="0.7"/>
  <ellipse cx="995.0232" cy="416.3291200000001" rx="12.920000000000002" ry="7.48" fill="none" stroke="#000000" stroke-width="0.5"/>
  <circle cx="995.0232" cy="416.3291200000001" r="1.5" fill="#000000" stroke="none"/>
  <circle cx="995.0232" cy="407.5291200000001" r="2.2" fill="#000000" stroke="none"/>
  <line x1="995.0232" y1="409.7291200000001" x2="995.0232" y2="411.2691200000001" stroke="#000000" stroke-width="0.6"/>
  <rect x="981.7232" y="397.62912000000006" width="26.599999999999998" height="5.5" fill="none" stroke="#000000" stroke-width="0.3" stroke-dasharray="2 1"/>
  <rect x="1055.3481599999998" y="629.77088" width="22.8" height="8.8" rx="2" fill="white" stroke="#000000" stroke-width="0.7"/>
  <circle cx="1064.3481599999998" cy="634.17088" r="1.8" fill="none" stroke="#000000" stroke-width="0.4"/>
  <circle cx="1069.14816" cy="634.17088" r="1.8" fill="none" stroke="#000000" stroke-width="0.4"/>
  <ellipse cx="1066.7481599999999" cy="654.57088" rx="13.8" ry="14.399999999999999" fill="white" stroke="#000000" stroke-width="0.7"/>
  <ellipse cx="1066.7481599999999" cy="653.77088" rx="10.200000000000001" ry="10.8" fill="none" stroke="#000000" stroke-width="0.4"/>
  <line x1="1059.2481599999999" y1="639.57088" x2="1074.2481599999999" y2="639.57088" stroke="#000000" stroke-width="0.4"/>
  <rect x="976.0232" y="431.2291200000001" width="40.1754848" height="72" rx="4" fill="white" stroke="#000000" stroke-width="0.8"/>
  <rect x="979.0232" y="434.2291200000001" width="34.1754848" height="66" rx="3" fill="none" stroke="#000000" stroke-width="0.4"/>
  <circle cx="996.1109424" cy="493.2291200000001" r="2.5" fill="none" stroke="#000000" stroke-width="0.5"/>
  <circle cx="996.1109424" cy="493.2291200000001" r="0.8" fill="#000000" stroke="none"/>
  <circle cx="990.08461968" cy="439.2291200000001" r="2.5" fill="none" stroke="#000000" stroke-width="0.5"/>
  <circle cx="1002.1372651199999" cy="439.2291200000001" r="2.5" fill="none" stroke="#000000" stroke-width="0.5"/>
  <line x1="1014.1986848" y1="452.8291200000001" x2="1014.1986848" y2="481.62912000000006" stroke="#000000" stroke-width="0.6"/>
  <rect x="1025.88568" y="573.831264" width="6" height="6" fill="none" stroke="#000000" stroke-width="0.4"/>
  <line x1="1025.88568" y1="573.831264" x2="1031.88568" y2="579.831264" stroke="#000000" stroke-width="0.3"/>
  <line x1="1031.88568" y1="573.831264" x2="1025.88568" y2="579.831264" stroke="#000000" stroke-width="0.3"/>
  <text x="1028.88568" y="535" text-anchor="middle" font-family="'Arial Narrow', Arial, sans-serif" font-size="9" fill="#000" font-weight="bold">WC</text>
  <text x="1028.88568" y="547" text-anchor="middle" font-family="'Arial Narrow', Arial, sans-serif" font-size="7.5" fill="#333">9.2m²</text>
  <path d="M 979.41768 664.3764000000001 L 973.41768 670.3764000000001 L 985.41768 670.3764000000001 Z" fill="#000" stroke="none"/>
  <text x="988.41768" y="672.3764000000001" font-family="'Arial Narrow', Arial, sans-serif" font-size="8" fill="#000">+0.050</text>
  <rect x="1097.72984" y="395.62360000000007" width="333.15655999999996" height="282.7528" fill="white" stroke="none"/>
  <rect x="1117.522536" y="415.41629600000005" width="120" height="26" fill="white" stroke="#000000" stroke-width="0.7"/>
  <rect x="1119.522536" y="419.316296" width="24" height="18.2" fill="none" stroke="#000000" stroke-width="0.35"/>
  <line x1="1119.522536" y1="428.41629600000005" x2="1143.522536" y2="428.41629600000005" stroke="#000000" stroke-width="0.25"/>
  <circle cx="1177.522536" cy="459.41629600000005" r="10" fill="none" stroke="#000000" stroke-width="0.6"/>
  <line x1="1177.522536" y1="454.41629600000005" x2="1177.522536" y2="445.41629600000005" stroke="#000000" stroke-width="0.35"/>
  <circle cx="1177.522536" cy="445.41629600000005" r="1.2" fill="#000000" stroke="none"/>
  <line x1="1182.2778185814757" y1="457.8712110281253" x2="1190.8373272281322" y2="455.09005807875076" stroke="#000000" stroke-width="0.35"/>
  <circle cx="1190.8373272281322" cy="455.09005807875076" r="1.2" fill="#000000" stroke="none"/>
  <line x1="1180.4614622614622" y1="463.4613809718748" x2="1185.7515295320945" y2="470.74253392124933" stroke="#000000" stroke-width="0.35"/>
  <circle cx="1185.7515295320945" cy="470.74253392124933" r="1.2" fill="#000000" stroke="none"/>
  <line x1="1174.5836097385377" y1="463.4613809718748" x2="1169.2935424679054" y2="470.74253392124933" stroke="#000000" stroke-width="0.35"/>
  <circle cx="1169.2935424679054" cy="470.74253392124933" r="1.2" fill="#000000" stroke="none"/>
  <line x1="1172.7672534185242" y1="457.8712110281253" x2="1164.2077447718677" y2="455.09005807875076" stroke="#000000" stroke-width="0.35"/>
  <circle cx="1164.2077447718677" cy="455.09005807875076" r="1.2" fill="#000000" stroke="none"/>
  <rect x="1395.093704" y="415.41629600000005" width="16" height="65" fill="white" stroke="#000000" stroke-width="0.6"/>
  <line x1="1395.093704" y1="431.66629600000005" x2="1411.093704" y2="431.66629600000005" stroke="#000000" stroke-width="0.35"/>
  <line x1="1395.093704" y1="447.91629600000005" x2="1411.093704" y2="447.91629600000005" stroke="#000000" stroke-width="0.35"/>
  <line x1="1395.093704" y1="464.16629600000005" x2="1411.093704" y2="464.16629600000005" stroke="#000000" stroke-width="0.35"/>
  <text x="1264.30812" y="535" text-anchor="middle" font-family="'Arial Narrow', Arial, sans-serif" font-size="9" fill="#000" font-weight="bold">Phòng làm việc</text>
  <text x="1264.30812" y="547" text-anchor="middle" font-family="'Arial Narrow', Arial, sans-serif" font-size="7.5" fill="#333">24.9m²</text>
  <polygon points="207.67,383.33 207.67,690.67 219.97,690.67 219.97,383.33" fill="url(#hatch-ext)" stroke="#000" stroke-width="1.4"/>
  <line x1="207.67320000000004" y1="383.33000000000004" x2="207.67320000000004" y2="690.6700000000001" stroke="#000" stroke-width="1.5" stroke-linecap="square"/>
  <line x1="219.96680000000006" y1="383.33000000000004" x2="219.96680000000006" y2="690.6700000000001" stroke="#000" stroke-width="1.5" stroke-linecap="square"/>
  <polygon points="1437.03,383.33 1437.03,690.67 1449.33,690.67 1449.33,383.33" fill="url(#hatch-ext)" stroke="#000" stroke-width="1.4"/>
  <line x1="1437.0331999999999" y1="383.33000000000004" x2="1437.0331999999999" y2="690.6700000000001" stroke="#000" stroke-width="1.5" stroke-linecap="square"/>
  <line x1="1449.3267999999998" y1="383.33000000000004" x2="1449.3267999999998" y2="690.6700000000001" stroke="#000" stroke-width="1.5" stroke-linecap="square"/>
  <polygon points="213.82,389.48 1443.18,389.48 1443.18,377.18 213.82,377.18" fill="url(#hatch-ext)" stroke="#000" stroke-width="1.4"/>
  <line x1="213.82000000000005" y1="389.4768" x2="1443.1799999999998" y2="389.4768" stroke="#000" stroke-width="1.5" stroke-linecap="square"/>
  <line x1="213.82000000000005" y1="377.18320000000006" x2="1443.1799999999998" y2="377.18320000000006" stroke="#000" stroke-width="1.5" stroke-linecap="square"/>
  <polygon points="213.82,696.82 1443.18,696.82 1443.18,684.52 213.82,684.52" fill="url(#hatch-ext)" stroke="#000" stroke-width="1.4"/>
  <line x1="213.82000000000005" y1="696.8168000000001" x2="1443.1799999999998" y2="696.8168000000001" stroke="#000" stroke-width="1.5" stroke-linecap="square"/>
  <line x1="213.82000000000005" y1="684.5232000000001" x2="1443.1799999999998" y2="684.5232000000001" stroke="#000" stroke-width="1.5" stroke-linecap="square"/>
  <polygon points="727.69,395.62 727.69,678.38 735.07,678.38 735.07,395.62" fill="url(#hatch-int)" stroke="#000" stroke-width="0.7"/>
  <line x1="727.69248" y1="395.62360000000007" x2="727.69248" y2="678.3764" stroke="#000" stroke-width="0.8" stroke-linecap="square"/>
  <line x1="735.0686400000001" y1="395.62360000000007" x2="735.0686400000001" y2="678.3764" stroke="#000" stroke-width="0.8" stroke-linecap="square"/>
  <polygon points="499.03,395.62 499.03,678.38 506.41,678.38 506.41,395.62" fill="url(#hatch-int)" stroke="#000" stroke-width="0.7"/>
  <line x1="499.03152000000006" y1="395.62360000000007" x2="499.03152000000006" y2="678.3764" stroke="#000" stroke-width="0.8" stroke-linecap="square"/>
  <line x1="506.4076800000001" y1="395.62360000000007" x2="506.4076800000001" y2="678.3764" stroke="#000" stroke-width="0.8" stroke-linecap="square"/>
  <polygon points="727.69,395.62 727.69,678.38 735.07,678.38 735.07,395.62" fill="url(#hatch-int)" stroke="#000" stroke-width="0.7"/>
  <line x1="727.69248" y1="395.62360000000007" x2="727.69248" y2="678.3764" stroke="#000" stroke-width="0.8" stroke-linecap="square"/>
  <line x1="735.0686400000001" y1="395.62360000000007" x2="735.0686400000001" y2="678.3764" stroke="#000" stroke-width="0.8" stroke-linecap="square"/>
  <polygon points="956.35,395.62 956.35,678.38 963.73,678.38 963.73,395.62" fill="url(#hatch-int)" stroke="#000" stroke-width="0.7"/>
  <line x1="956.35344" y1="395.62360000000007" x2="956.35344" y2="678.3764" stroke="#000" stroke-width="0.8" stroke-linecap="square"/>
  <line x1="963.7296" y1="395.62360000000007" x2="963.7296" y2="678.3764" stroke="#000" stroke-width="0.8" stroke-linecap="square"/>
  <polygon points="1086.67,395.62 1086.67,678.38 1094.04,678.38 1094.04,395.62" fill="url(#hatch-int)" stroke="#000" stroke-width="0.7"/>
  <line x1="1086.6656" y1="395.62360000000007" x2="1086.6656" y2="678.3764" stroke="#000" stroke-width="0.8" stroke-linecap="square"/>
  <line x1="1094.0417599999998" y1="395.62360000000007" x2="1094.0417599999998" y2="678.3764" stroke="#000" stroke-width="0.8" stroke-linecap="square"/>
  <polygon points="206.17,568.73 206.17,505.27 221.47,505.27 221.47,568.73" fill="white" stroke="none"/>
  <polygon points="497.53,565.66 497.53,508.34 507.91,508.34 507.91,565.66" fill="white" stroke="none"/>
  <polygon points="726.19,565.66 726.19,508.34 736.57,508.34 736.57,565.66" fill="white" stroke="none"/>
  <polygon points="954.85,565.66 954.85,508.34 965.23,508.34 965.23,565.66" fill="white" stroke="none"/>
  <rect x="212.82000000000005" y="483.2522" width="75.76159999999999" height="15.2936" fill="white" stroke="none"/>
  <line x1="213.82000000000005" y1="487.899" x2="287.58160000000004" y2="487.899" stroke="#000000" stroke-width="2"/>
  <line x1="213.82000000000005" y1="493.899" x2="287.58160000000004" y2="493.899" stroke="#000000" stroke-width="2"/>
  <line x1="213.82000000000005" y1="487.899" x2="213.82000000000005" y2="493.899" stroke="#000000" stroke-width="1"/>
  <line x1="287.58160000000004" y1="487.899" x2="287.58160000000004" y2="493.899" stroke="#000000" stroke-width="1"/>
  <line x1="213.82000000000005" y1="487.899" x2="287.58160000000004" y2="493.899" stroke="#000000" stroke-width="0.5"/>
  <line x1="287.58160000000004" y1="487.899" x2="213.82000000000005" y2="493.899" stroke="#000000" stroke-width="0.5"/>
  <rect x="240.70080000000004" y="468.899" width="20" height="12" rx="2" fill="white" stroke="#000" stroke-width="0.5"/>
  <text x="250.70080000000004" y="478.899" text-anchor="middle" font-family="'Arial Narrow', Arial, sans-serif" font-size="7" fill="#000">S1</text>
  <rect x="1442.1799999999998" y="492.47240000000005" width="63.467999999999996" height="15.2936" fill="white" stroke="none"/>
  <line x1="1443.1799999999998" y1="497.11920000000003" x2="1504.648" y2="497.11920000000003" stroke="#000000" stroke-width="2"/>
  <line x1="1443.1799999999998" y1="503.11920000000003" x2="1504.648" y2="503.11920000000003" stroke="#000000" stroke-width="2"/>
  <line x1="1443.1799999999998" y1="497.11920000000003" x2="1443.1799999999998" y2="503.11920000000003" stroke="#000000" stroke-width="1"/>
  <line x1="1504.648" y1="497.11920000000003" x2="1504.648" y2="503.11920000000003" stroke="#000000" stroke-width="1"/>
  <line x1="1443.1799999999998" y1="497.11920000000003" x2="1504.648" y2="503.11920000000003" stroke="#000000" stroke-width="0.5"/>
  <line x1="1504.648" y1="497.11920000000003" x2="1443.1799999999998" y2="503.11920000000003" stroke="#000000" stroke-width="0.5"/>
  <rect x="1463.9139999999998" y="478.11920000000003" width="20" height="12" rx="2" fill="white" stroke="#000" stroke-width="0.5"/>
  <text x="1473.9139999999998" y="488.11920000000003" text-anchor="middle" font-family="'Arial Narrow', Arial, sans-serif" font-size="7" fill="#000">S2</text>
  <line x1="213.82000000000005" y1="506.266" x2="275.28800000000007" y2="506.266" stroke="#000000" stroke-width="2"/>
  <line x1="213.82000000000005" y1="506.266" x2="213.82000000000005" y2="567.734" stroke="#000000" stroke-width="0.8"/>
  <path d="M 213.82000000000005 567.734 A 61.467999999999996 61.467999999999996 0 0 1 275.28800000000007 506.266" fill="none" stroke="#000000" stroke-width="0.7"/>
  <rect x="234.55400000000006" y="486.266" width="20" height="12" rx="2" fill="white" stroke="#000" stroke-width="0.5"/>
  <text x="244.55400000000006" y="496.266" text-anchor="middle" font-family="'Arial Narrow', Arial, sans-serif" font-size="7" fill="#000">D1</text>
  <line x1="502.71960000000007" y1="509.3394" x2="558.0408000000001" y2="509.3394" stroke="#000000" stroke-width="2"/>
  <line x1="502.71960000000007" y1="509.3394" x2="502.71960000000007" y2="564.6606" stroke="#000000" stroke-width="0.8"/>
  <path d="M 502.71960000000007 564.6606 A 55.3212 55.3212 0 0 1 558.0408000000001 509.3394" fill="none" stroke="#000000" stroke-width="0.7"/>
  <rect x="520.3802000000001" y="489.3394" width="20" height="12" rx="2" fill="white" stroke="#000" stroke-width="0.5"/>
  <text x="530.3802000000001" y="499.3394" text-anchor="middle" font-family="'Arial Narrow', Arial, sans-serif" font-size="7" fill="#000">D2</text>
  <line x1="731.3805600000001" y1="509.3394" x2="786.70176" y2="509.3394" stroke="#000000" stroke-width="2"/>
  <line x1="731.3805600000001" y1="509.3394" x2="731.3805600000001" y2="564.6606" stroke="#000000" stroke-width="0.8"/>
  <path d="M 731.3805600000001 564.6606 A 55.3212 55.3212 0 0 1 786.70176 509.3394" fill="none" stroke="#000000" stroke-width="0.7"/>
  <rect x="749.0411600000001" y="489.3394" width="20" height="12" rx="2" fill="white" stroke="#000" stroke-width="0.5"/>
  <text x="759.0411600000001" y="499.3394" text-anchor="middle" font-family="'Arial Narrow', Arial, sans-serif" font-size="7" fill="#000">D3</text>
  <line x1="960.04152" y1="509.3394" x2="1015.36272" y2="509.3394" stroke="#000000" stroke-width="2"/>
  <line x1="960.04152" y1="509.3394" x2="960.04152" y2="564.6606" stroke="#000000" stroke-width="0.8"/>
  <path d="M 960.04152 564.6606 A 55.3212 55.3212 0 0 1 1015.36272 509.3394" fill="none" stroke="#000000" stroke-width="0.7"/>
  <rect x="977.70212" y="489.3394" width="20" height="12" rx="2" fill="white" stroke="#000" stroke-width="0.5"/>
  <text x="987.70212" y="499.3394" text-anchor="middle" font-family="'Arial Narrow', Arial, sans-serif" font-size="7" fill="#000">D4</text>
  <circle cx="1473.1799999999998" cy="413.33000000000004" r="16" fill="white" stroke="#000" stroke-width="1"/>
  <path d="M 1473.1799999999998 400.33000000000004 L 1468.1799999999998 413.33000000000004 L 1473.1799999999998 408.33000000000004 L 1478.1799999999998 413.33000000000004 Z" fill="#000" stroke="none"/>
  <path d="M 1473.1799999999998 426.33000000000004 L 1468.1799999999998 413.33000000000004 L 1473.1799999999998 418.33000000000004 L 1478.1799999999998 413.33000000000004 Z" fill="white" stroke="#000" stroke-width="0.6"/>
  <text x="1473.1799999999998" y="393.33000000000004" text-anchor="middle" font-family="'Arial Narrow', Arial, sans-serif" font-size="9" fill="#000" font-weight="bold">N</text>
  <rect x="213.82000000000005" y="383.33000000000004" width="1229.36" height="307.34" fill="none" stroke="#000000" stroke-width="2"/>
  <line x1="213.82000000000005" y1="692.6700000000001" x2="213.82000000000005" y2="712.6700000000001" stroke="#000000" stroke-width="0.35"/>
  <line x1="226.11360000000005" y1="692.6700000000001" x2="226.11360000000005" y2="712.6700000000001" stroke="#000000" stroke-width="0.35"/>
  <line x1="213.82000000000005" y1="710.6700000000001" x2="226.11360000000005" y2="710.6700000000001" stroke="#000000" stroke-width="0.5"/>
  <line x1="211.82000000000005" y1="714.6700000000001" x2="215.82000000000005" y2="706.6700000000001" stroke="#000000" stroke-width="0.8"/>
  <line x1="224.11360000000005" y1="714.6700000000001" x2="228.11360000000005" y2="706.6700000000001" stroke="#000000" stroke-width="0.8"/>
  <text x="219.96680000000003" y="705.6700000000001" text-anchor="middle" font-family="'Arial Narrow', Arial, sans-serif" font-size="10" fill="#000000">200</text>
  <line x1="226.11360000000005" y1="692.6700000000001" x2="226.11360000000005" y2="712.6700000000001" stroke="#000000" stroke-width="0.35"/>
  <line x1="502.71960000000007" y1="692.6700000000001" x2="502.71960000000007" y2="712.6700000000001" stroke="#000000" stroke-width="0.35"/>
  <line x1="226.11360000000005" y1="710.6700000000001" x2="502.71960000000007" y2="710.6700000000001" stroke="#000000" stroke-width="0.5"/>
  <line x1="224.11360000000005" y1="714.6700000000001" x2="228.11360000000005" y2="706.6700000000001" stroke="#000000" stroke-width="0.8"/>
  <line x1="500.71960000000007" y1="714.6700000000001" x2="504.71960000000007" y2="706.6700000000001" stroke="#000000" stroke-width="0.8"/>
  <text x="364.4166000000001" y="705.6700000000001" text-anchor="middle" font-family="'Arial Narrow', Arial, sans-serif" font-size="10" fill="#000000">4500</text>
  <line x1="502.71960000000007" y1="692.6700000000001" x2="502.71960000000007" y2="712.6700000000001" stroke="#000000" stroke-width="0.35"/>
  <line x1="510.09576000000004" y1="692.6700000000001" x2="510.09576000000004" y2="712.6700000000001" stroke="#000000" stroke-width="0.35"/>
  <line x1="502.71960000000007" y1="710.6700000000001" x2="510.09576000000004" y2="710.6700000000001" stroke="#000000" stroke-width="0.5"/>
  <line x1="500.71960000000007" y1="714.6700000000001" x2="504.71960000000007" y2="706.6700000000001" stroke="#000000" stroke-width="0.8"/>
  <line x1="508.09576000000004" y1="714.6700000000001" x2="512.09576" y2="706.6700000000001" stroke="#000000" stroke-width="0.8"/>
  <text x="506.40768" y="705.6700000000001" text-anchor="middle" font-family="'Arial Narrow', Arial, sans-serif" font-size="10" fill="#000000">120</text>
  <line x1="510.09576000000004" y1="692.6700000000001" x2="510.09576000000004" y2="712.6700000000001" stroke="#000000" stroke-width="0.35"/>
  <line x1="722.16036" y1="692.6700000000001" x2="722.16036" y2="712.6700000000001" stroke="#000000" stroke-width="0.35"/>
  <line x1="510.09576000000004" y1="710.6700000000001" x2="722.16036" y2="710.6700000000001" stroke="#000000" stroke-width="0.5"/>
  <line x1="508.09576000000004" y1="714.6700000000001" x2="512.09576" y2="706.6700000000001" stroke="#000000" stroke-width="0.8"/>
  <line x1="720.16036" y1="714.6700000000001" x2="724.16036" y2="706.6700000000001" stroke="#000000" stroke-width="0.8"/>
  <text x="616.12806" y="705.6700000000001" text-anchor="middle" font-family="'Arial Narrow', Arial, sans-serif" font-size="10" fill="#000000">3450</text>
  <line x1="722.16036" y1="692.6700000000001" x2="722.16036" y2="712.6700000000001" stroke="#000000" stroke-width="0.35"/>
  <line x1="731.3805600000001" y1="692.6700000000001" x2="731.3805600000001" y2="712.6700000000001" stroke="#000000" stroke-width="0.35"/>
  <line x1="722.16036" y1="710.6700000000001" x2="731.3805600000001" y2="710.6700000000001" stroke="#000000" stroke-width="0.5"/>
  <line x1="720.16036" y1="714.6700000000001" x2="724.16036" y2="706.6700000000001" stroke="#000000" stroke-width="0.8"/>
  <line x1="729.3805600000001" y1="714.6700000000001" x2="733.3805600000001" y2="706.6700000000001" stroke="#000000" stroke-width="0.8"/>
  <text x="726.77046" y="705.6700000000001" text-anchor="middle" font-family="'Arial Narrow', Arial, sans-serif" font-size="10" fill="#000000">150</text>
  <line x1="731.3805600000001" y1="692.6700000000001" x2="731.3805600000001" y2="712.6700000000001" stroke="#000000" stroke-width="0.35"/>
  <line x1="738.75672" y1="692.6700000000001" x2="738.75672" y2="712.6700000000001" stroke="#000000" stroke-width="0.35"/>
  <line x1="731.3805600000001" y1="710.6700000000001" x2="738.75672" y2="710.6700000000001" stroke="#000000" stroke-width="0.5"/>
  <line x1="729.3805600000001" y1="714.6700000000001" x2="733.3805600000001" y2="706.6700000000001" stroke="#000000" stroke-width="0.8"/>
  <line x1="736.75672" y1="714.6700000000001" x2="740.75672" y2="706.6700000000001" stroke="#000000" stroke-width="0.8"/>
  <text x="735.06864" y="705.6700000000001" text-anchor="middle" font-family="'Arial Narrow', Arial, sans-serif" font-size="10" fill="#000000">120</text>
  <line x1="738.75672" y1="692.6700000000001" x2="738.75672" y2="712.6700000000001" stroke="#000000" stroke-width="0.35"/>
  <line x1="875.83036" y1="692.6700000000001" x2="875.83036" y2="712.6700000000001" stroke="#000000" stroke-width="0.35"/>
  <line x1="738.75672" y1="710.6700000000001" x2="875.83036" y2="710.6700000000001" stroke="#000000" stroke-width="0.5"/>
  <line x1="736.75672" y1="714.6700000000001" x2="740.75672" y2="706.6700000000001" stroke="#000000" stroke-width="0.8"/>
  <line x1="873.83036" y1="714.6700000000001" x2="877.83036" y2="706.6700000000001" stroke="#000000" stroke-width="0.8"/>
  <text x="807.29354" y="705.6700000000001" text-anchor="middle" font-family="'Arial Narrow', Arial, sans-serif" font-size="10" fill="#000000">2230</text>
  <line x1="875.83036" y1="692.6700000000001" x2="875.83036" y2="712.6700000000001" stroke="#000000" stroke-width="0.35"/>
  <line x1="960.04152" y1="692.6700000000001" x2="960.04152" y2="712.6700000000001" stroke="#000000" stroke-width="0.35"/>
  <line x1="875.83036" y1="710.6700000000001" x2="960.04152" y2="710.6700000000001" stroke="#000000" stroke-width="0.5"/>
  <line x1="873.83036" y1="714.6700000000001" x2="877.83036" y2="706.6700000000001" stroke="#000000" stroke-width="0.8"/>
  <line x1="958.04152" y1="714.6700000000001" x2="962.04152" y2="706.6700000000001" stroke="#000000" stroke-width="0.8"/>
  <text x="917.9359400000001" y="705.6700000000001" text-anchor="middle" font-family="'Arial Narrow', Arial, sans-serif" font-size="10" fill="#000000">1370</text>
  <line x1="960.04152" y1="692.6700000000001" x2="960.04152" y2="712.6700000000001" stroke="#000000" stroke-width="0.35"/>
  <line x1="967.41768" y1="692.6700000000001" x2="967.41768" y2="712.6700000000001" stroke="#000000" stroke-width="0.35"/>
  <line x1="960.04152" y1="710.6700000000001" x2="967.41768" y2="710.6700000000001" stroke="#000000" stroke-width="0.5"/>
  <line x1="958.04152" y1="714.6700000000001" x2="962.04152" y2="706.6700000000001" stroke="#000000" stroke-width="0.8"/>
  <line x1="965.41768" y1="714.6700000000001" x2="969.41768" y2="706.6700000000001" stroke="#000000" stroke-width="0.8"/>
  <text x="963.7296" y="705.6700000000001" text-anchor="middle" font-family="'Arial Narrow', Arial, sans-serif" font-size="10" fill="#000000">120</text>
  <line x1="967.41768" y1="692.6700000000001" x2="967.41768" y2="712.6700000000001" stroke="#000000" stroke-width="0.35"/>
  <line x1="1090.35368" y1="692.6700000000001" x2="1090.35368" y2="712.6700000000001" stroke="#000000" stroke-width="0.35"/>
  <line x1="967.41768" y1="710.6700000000001" x2="1090.35368" y2="710.6700000000001" stroke="#000000" stroke-width="0.5"/>
  <line x1="965.41768" y1="714.6700000000001" x2="969.41768" y2="706.6700000000001" stroke="#000000" stroke-width="0.8"/>
  <line x1="1088.35368" y1="714.6700000000001" x2="1092.35368" y2="706.6700000000001" stroke="#000000" stroke-width="0.8"/>
  <text x="1028.8856799999999" y="705.6700000000001" text-anchor="middle" font-family="'Arial Narrow', Arial, sans-serif" font-size="10" fill="#000000">2000</text>
  <line x1="1090.35368" y1="692.6700000000001" x2="1090.35368" y2="712.6700000000001" stroke="#000000" stroke-width="0.35"/>
  <line x1="1097.72984" y1="692.6700000000001" x2="1097.72984" y2="712.6700000000001" stroke="#000000" stroke-width="0.35"/>
  <line x1="1090.35368" y1="710.6700000000001" x2="1097.72984" y2="710.6700000000001" stroke="#000000" stroke-width="0.5"/>
  <line x1="1088.35368" y1="714.6700000000001" x2="1092.35368" y2="706.6700000000001" stroke="#000000" stroke-width="0.8"/>
  <line x1="1095.72984" y1="714.6700000000001" x2="1099.72984" y2="706.6700000000001" stroke="#000000" stroke-width="0.8"/>
  <text x="1094.04176" y="705.6700000000001" text-anchor="middle" font-family="'Arial Narrow', Arial, sans-serif" font-size="10" fill="#000000">120</text>
  <line x1="1097.72984" y1="692.6700000000001" x2="1097.72984" y2="712.6700000000001" stroke="#000000" stroke-width="0.35"/>
  <line x1="1430.8863999999999" y1="692.6700000000001" x2="1430.8863999999999" y2="712.6700000000001" stroke="#000000" stroke-width="0.35"/>
  <line x1="1097.72984" y1="710.6700000000001" x2="1430.8863999999999" y2="710.6700000000001" stroke="#000000" stroke-width="0.5"/>
  <line x1="1095.72984" y1="714.6700000000001" x2="1099.72984" y2="706.6700000000001" stroke="#000000" stroke-width="0.8"/>
  <line x1="1428.8863999999999" y1="714.6700000000001" x2="1432.8863999999999" y2="706.6700000000001" stroke="#000000" stroke-width="0.8"/>
  <text x="1264.30812" y="705.6700000000001" text-anchor="middle" font-family="'Arial Narrow', Arial, sans-serif" font-size="10" fill="#000000">5420</text>
  <line x1="1430.8863999999999" y1="692.6700000000001" x2="1430.8863999999999" y2="712.6700000000001" stroke="#000000" stroke-width="0.35"/>
  <line x1="1443.1799999999998" y1="692.6700000000001" x2="1443.1799999999998" y2="712.6700000000001" stroke="#000000" stroke-width="0.35"/>
  <line x1="1430.8863999999999" y1="710.6700000000001" x2="1443.1799999999998" y2="710.6700000000001" stroke="#000000" stroke-width="0.5"/>
  <line x1="1428.8863999999999" y1="714.6700000000001" x2="1432.8863999999999" y2="706.6700000000001" stroke="#000000" stroke-width="0.8"/>
  <line x1="1441.1799999999998" y1="714.6700000000001" x2="1445.1799999999998" y2="706.6700000000001" stroke="#000000" stroke-width="0.8"/>
  <text x="1437.0331999999999" y="705.6700000000001" text-anchor="middle" font-family="'Arial Narrow', Arial, sans-serif" font-size="10" fill="#000000">200</text>
  <line x1="213.82000000000005" y1="692.6700000000001" x2="213.82000000000005" y2="734.6700000000001" stroke="#000000" stroke-width="0.35"/>
  <line x1="226.11360000000005" y1="692.6700000000001" x2="226.11360000000005" y2="734.6700000000001" stroke="#000000" stroke-width="0.35"/>
  <line x1="213.82000000000005" y1="732.6700000000001" x2="226.11360000000005" y2="732.6700000000001" stroke="#000000" stroke-width="0.5"/>
  <line x1="211.82000000000005" y1="736.6700000000001" x2="215.82000000000005" y2="728.6700000000001" stroke="#000000" stroke-width="0.8"/>
  <line x1="224.11360000000005" y1="736.6700000000001" x2="228.11360000000005" y2="728.6700000000001" stroke="#000000" stroke-width="0.8"/>
  <text x="219.96680000000003" y="727.6700000000001" text-anchor="middle" font-family="'Arial Narrow', Arial, sans-serif" font-size="10" fill="#000000">200</text>
  <line x1="226.11360000000005" y1="692.6700000000001" x2="226.11360000000005" y2="734.6700000000001" stroke="#000000" stroke-width="0.35"/>
  <line x1="510.09576000000004" y1="692.6700000000001" x2="510.09576000000004" y2="734.6700000000001" stroke="#000000" stroke-width="0.35"/>
  <line x1="226.11360000000005" y1="732.6700000000001" x2="510.09576000000004" y2="732.6700000000001" stroke="#000000" stroke-width="0.5"/>
  <line x1="224.11360000000005" y1="736.6700000000001" x2="228.11360000000005" y2="728.6700000000001" stroke="#000000" stroke-width="0.8"/>
  <line x1="508.09576000000004" y1="736.6700000000001" x2="512.09576" y2="728.6700000000001" stroke="#000000" stroke-width="0.8"/>
  <text x="368.10468000000003" y="727.6700000000001" text-anchor="middle" font-family="'Arial Narrow', Arial, sans-serif" font-size="10" fill="#000000">4620</text>
  <line x1="510.09576000000004" y1="692.6700000000001" x2="510.09576000000004" y2="734.6700000000001" stroke="#000000" stroke-width="0.35"/>
  <line x1="731.3805600000001" y1="692.6700000000001" x2="731.3805600000001" y2="734.6700000000001" stroke="#000000" stroke-width="0.35"/>
  <line x1="510.09576000000004" y1="732.6700000000001" x2="731.3805600000001" y2="732.6700000000001" stroke="#000000" stroke-width="0.5"/>
  <line x1="508.09576000000004" y1="736.6700000000001" x2="512.09576" y2="728.6700000000001" stroke="#000000" stroke-width="0.8"/>
  <line x1="729.3805600000001" y1="736.6700000000001" x2="733.3805600000001" y2="728.6700000000001" stroke="#000000" stroke-width="0.8"/>
  <text x="620.7381600000001" y="727.6700000000001" text-anchor="middle" font-family="'Arial Narrow', Arial, sans-serif" font-size="10" fill="#000000">3600</text>
  <line x1="731.3805600000001" y1="692.6700000000001" x2="731.3805600000001" y2="734.6700000000001" stroke="#000000" stroke-width="0.35"/>
  <line x1="875.83036" y1="692.6700000000001" x2="875.83036" y2="734.6700000000001" stroke="#000000" stroke-width="0.35"/>
  <line x1="731.3805600000001" y1="732.6700000000001" x2="875.83036" y2="732.6700000000001" stroke="#000000" stroke-width="0.5"/>
  <line x1="729.3805600000001" y1="736.6700000000001" x2="733.3805600000001" y2="728.6700000000001" stroke="#000000" stroke-width="0.8"/>
  <line x1="873.83036" y1="736.6700000000001" x2="877.83036" y2="728.6700000000001" stroke="#000000" stroke-width="0.8"/>
  <text x="803.60546" y="727.6700000000001" text-anchor="middle" font-family="'Arial Narrow', Arial, sans-serif" font-size="10" fill="#000000">2350</text>
  <line x1="875.83036" y1="692.6700000000001" x2="875.83036" y2="734.6700000000001" stroke="#000000" stroke-width="0.35"/>
  <line x1="967.41768" y1="692.6700000000001" x2="967.41768" y2="734.6700000000001" stroke="#000000" stroke-width="0.35"/>
  <line x1="875.83036" y1="732.6700000000001" x2="967.41768" y2="732.6700000000001" stroke="#000000" stroke-width="0.5"/>
  <line x1="873.83036" y1="736.6700000000001" x2="877.83036" y2="728.6700000000001" stroke="#000000" stroke-width="0.8"/>
  <line x1="965.41768" y1="736.6700000000001" x2="969.41768" y2="728.6700000000001" stroke="#000000" stroke-width="0.8"/>
  <text x="921.62402" y="727.6700000000001" text-anchor="middle" font-family="'Arial Narrow', Arial, sans-serif" font-size="10" fill="#000000">1490</text>
  <line x1="967.41768" y1="692.6700000000001" x2="967.41768" y2="734.6700000000001" stroke="#000000" stroke-width="0.35"/>
  <line x1="1097.72984" y1="692.6700000000001" x2="1097.72984" y2="734.6700000000001" stroke="#000000" stroke-width="0.35"/>
  <line x1="967.41768" y1="732.6700000000001" x2="1097.72984" y2="732.6700000000001" stroke="#000000" stroke-width="0.5"/>
  <line x1="965.41768" y1="736.6700000000001" x2="969.41768" y2="728.6700000000001" stroke="#000000" stroke-width="0.8"/>
  <line x1="1095.72984" y1="736.6700000000001" x2="1099.72984" y2="728.6700000000001" stroke="#000000" stroke-width="0.8"/>
  <text x="1032.57376" y="727.6700000000001" text-anchor="middle" font-family="'Arial Narrow', Arial, sans-serif" font-size="10" fill="#000000">2120</text>
  <line x1="1097.72984" y1="692.6700000000001" x2="1097.72984" y2="734.6700000000001" stroke="#000000" stroke-width="0.35"/>
  <line x1="1443.1799999999998" y1="692.6700000000001" x2="1443.1799999999998" y2="734.6700000000001" stroke="#000000" stroke-width="0.35"/>
  <line x1="1097.72984" y1="732.6700000000001" x2="1443.1799999999998" y2="732.6700000000001" stroke="#000000" stroke-width="0.5"/>
  <line x1="1095.72984" y1="736.6700000000001" x2="1099.72984" y2="728.6700000000001" stroke="#000000" stroke-width="0.8"/>
  <line x1="1441.1799999999998" y1="736.6700000000001" x2="1445.1799999999998" y2="728.6700000000001" stroke="#000000" stroke-width="0.8"/>
  <text x="1270.45492" y="727.6700000000001" text-anchor="middle" font-family="'Arial Narrow', Arial, sans-serif" font-size="10" fill="#000000">5620</text>
  <line x1="213.82000000000005" y1="692.6700000000001" x2="213.82000000000005" y2="756.6700000000001" stroke="#000000" stroke-width="0.35"/>
  <line x1="1443.1799999999998" y1="692.6700000000001" x2="1443.1799999999998" y2="756.6700000000001" stroke="#000000" stroke-width="0.35"/>
  <line x1="213.82000000000005" y1="754.6700000000001" x2="1443.1799999999998" y2="754.6700000000001" stroke="#000000" stroke-width="0.5"/>
  <line x1="211.82000000000005" y1="758.6700000000001" x2="215.82000000000005" y2="750.6700000000001" stroke="#000000" stroke-width="0.8"/>
  <line x1="1441.1799999999998" y1="758.6700000000001" x2="1445.1799999999998" y2="750.6700000000001" stroke="#000000" stroke-width="0.8"/>
  <text x="828.5" y="749.6700000000001" text-anchor="middle" font-family="'Arial Narrow', Arial, sans-serif" font-size="10" fill="#000000">20000</text>
  <line x1="211.82000000000005" y1="383.33000000000004" x2="191.82000000000005" y2="383.33000000000004" stroke="#000000" stroke-width="0.35"/>
  <line x1="211.82000000000005" y1="395.62360000000007" x2="191.82000000000005" y2="395.62360000000007" stroke="#000000" stroke-width="0.35"/>
  <line x1="193.82000000000005" y1="383.33000000000004" x2="193.82000000000005" y2="395.62360000000007" stroke="#000000" stroke-width="0.5"/>
  <line x1="189.82000000000005" y1="385.33000000000004" x2="197.82000000000005" y2="381.33000000000004" stroke="#000000" stroke-width="0.8"/>
  <line x1="189.82000000000005" y1="397.62360000000007" x2="197.82000000000005" y2="393.62360000000007" stroke="#000000" stroke-width="0.8"/>
  <text x="185.82000000000005" y="389.4768" text-anchor="middle" font-family="'Arial Narrow', Arial, sans-serif" font-size="7.5" fill="#000000" transform="rotate(-90, 185.82000000000005, 389.4768)">200</text>
  <line x1="211.82000000000005" y1="395.62360000000007" x2="191.82000000000005" y2="395.62360000000007" stroke="#000000" stroke-width="0.35"/>
  <line x1="211.82000000000005" y1="678.3764" x2="191.82000000000005" y2="678.3764" stroke="#000000" stroke-width="0.35"/>
  <line x1="193.82000000000005" y1="395.62360000000007" x2="193.82000000000005" y2="678.3764" stroke="#000000" stroke-width="0.5"/>
  <line x1="189.82000000000005" y1="397.62360000000007" x2="197.82000000000005" y2="393.62360000000007" stroke="#000000" stroke-width="0.8"/>
  <line x1="189.82000000000005" y1="680.3764" x2="197.82000000000005" y2="676.3764" stroke="#000000" stroke-width="0.8"/>
  <text x="185.82000000000005" y="537" text-anchor="middle" font-family="'Arial Narrow', Arial, sans-serif" font-size="7.5" fill="#000000" transform="rotate(-90, 185.82000000000005, 537)">4600</text>
  <line x1="211.82000000000005" y1="678.3764" x2="191.82000000000005" y2="678.3764" stroke="#000000" stroke-width="0.35"/>
  <line x1="211.82000000000005" y1="690.6700000000001" x2="191.82000000000005" y2="690.6700000000001" stroke="#000000" stroke-width="0.35"/>
  <line x1="193.82000000000005" y1="678.3764" x2="193.82000000000005" y2="690.6700000000001" stroke="#000000" stroke-width="0.5"/>
  <line x1="189.82000000000005" y1="680.3764" x2="197.82000000000005" y2="676.3764" stroke="#000000" stroke-width="0.8"/>
  <line x1="189.82000000000005" y1="692.6700000000001" x2="197.82000000000005" y2="688.6700000000001" stroke="#000000" stroke-width="0.8"/>
  <text x="185.82000000000005" y="684.5232000000001" text-anchor="middle" font-family="'Arial Narrow', Arial, sans-serif" font-size="7.5" fill="#000000" transform="rotate(-90, 185.82000000000005, 684.5232000000001)">200</text>
  <line x1="211.82000000000005" y1="383.33000000000004" x2="169.82000000000005" y2="383.33000000000004" stroke="#000000" stroke-width="0.35"/>
  <line x1="211.82000000000005" y1="690.6700000000001" x2="169.82000000000005" y2="690.6700000000001" stroke="#000000" stroke-width="0.35"/>
  <line x1="171.82000000000005" y1="383.33000000000004" x2="171.82000000000005" y2="690.6700000000001" stroke="#000000" stroke-width="0.5"/>
  <line x1="167.82000000000005" y1="385.33000000000004" x2="175.82000000000005" y2="381.33000000000004" stroke="#000000" stroke-width="0.8"/>
  <line x1="167.82000000000005" y1="692.6700000000001" x2="175.82000000000005" y2="688.6700000000001" stroke="#000000" stroke-width="0.8"/>
  <text x="163.82000000000005" y="537" text-anchor="middle" font-family="'Arial Narrow', Arial, sans-serif" font-size="7.5" fill="#000000" transform="rotate(-90, 163.82000000000005, 537)">5000</text>
  <line x1="211.82000000000005" y1="383.33000000000004" x2="147.82000000000005" y2="383.33000000000004" stroke="#000000" stroke-width="0.35"/>
  <line x1="211.82000000000005" y1="690.6700000000001" x2="147.82000000000005" y2="690.6700000000001" stroke="#000000" stroke-width="0.35"/>
  <line x1="149.82000000000005" y1="383.33000000000004" x2="149.82000000000005" y2="690.6700000000001" stroke="#000000" stroke-width="0.5"/>
  <line x1="145.82000000000005" y1="385.33000000000004" x2="153.82000000000005" y2="381.33000000000004" stroke="#000000" stroke-width="0.8"/>
  <line x1="145.82000000000005" y1="692.6700000000001" x2="153.82000000000005" y2="688.6700000000001" stroke="#000000" stroke-width="0.8"/>
  <text x="141.82000000000005" y="537" text-anchor="middle" font-family="'Arial Narrow', Arial, sans-serif" font-size="7.5" fill="#000000" transform="rotate(-90, 141.82000000000005, 537)">5000</text>
  <line x1="213.82000000000005" y1="381.33000000000004" x2="213.82000000000005" y2="361.33000000000004" stroke="#000000" stroke-width="0.35"/>
  <line x1="226.11360000000005" y1="381.33000000000004" x2="226.11360000000005" y2="361.33000000000004" stroke="#000000" stroke-width="0.35"/>
  <line x1="213.82000000000005" y1="363.33000000000004" x2="226.11360000000005" y2="363.33000000000004" stroke="#000000" stroke-width="0.5"/>
  <line x1="211.82000000000005" y1="367.33000000000004" x2="215.82000000000005" y2="359.33000000000004" stroke="#000000" stroke-width="0.8"/>
  <line x1="224.11360000000005" y1="367.33000000000004" x2="228.11360000000005" y2="359.33000000000004" stroke="#000000" stroke-width="0.8"/>
  <text x="219.96680000000003" y="376.33000000000004" text-anchor="middle" font-family="'Arial Narrow', Arial, sans-serif" font-size="10" fill="#000000">200</text>
  <line x1="226.11360000000005" y1="381.33000000000004" x2="226.11360000000005" y2="361.33000000000004" stroke="#000000" stroke-width="0.35"/>
  <line x1="502.71960000000007" y1="381.33000000000004" x2="502.71960000000007" y2="361.33000000000004" stroke="#000000" stroke-width="0.35"/>
  <line x1="226.11360000000005" y1="363.33000000000004" x2="502.71960000000007" y2="363.33000000000004" stroke="#000000" stroke-width="0.5"/>
  <line x1="224.11360000000005" y1="367.33000000000004" x2="228.11360000000005" y2="359.33000000000004" stroke="#000000" stroke-width="0.8"/>
  <line x1="500.71960000000007" y1="367.33000000000004" x2="504.71960000000007" y2="359.33000000000004" stroke="#000000" stroke-width="0.8"/>
  <text x="364.4166000000001" y="376.33000000000004" text-anchor="middle" font-family="'Arial Narrow', Arial, sans-serif" font-size="10" fill="#000000">4500</text>
  <line x1="502.71960000000007" y1="381.33000000000004" x2="502.71960000000007" y2="361.33000000000004" stroke="#000000" stroke-width="0.35"/>
  <line x1="510.09576000000004" y1="381.33000000000004" x2="510.09576000000004" y2="361.33000000000004" stroke="#000000" stroke-width="0.35"/>
  <line x1="502.71960000000007" y1="363.33000000000004" x2="510.09576000000004" y2="363.33000000000004" stroke="#000000" stroke-width="0.5"/>
  <line x1="500.71960000000007" y1="367.33000000000004" x2="504.71960000000007" y2="359.33000000000004" stroke="#000000" stroke-width="0.8"/>
  <line x1="508.09576000000004" y1="367.33000000000004" x2="512.09576" y2="359.33000000000004" stroke="#000000" stroke-width="0.8"/>
  <text x="506.40768" y="376.33000000000004" text-anchor="middle" font-family="'Arial Narrow', Arial, sans-serif" font-size="10" fill="#000000">120</text>
  <line x1="510.09576000000004" y1="381.33000000000004" x2="510.09576000000004" y2="361.33000000000004" stroke="#000000" stroke-width="0.35"/>
  <line x1="722.16036" y1="381.33000000000004" x2="722.16036" y2="361.33000000000004" stroke="#000000" stroke-width="0.35"/>
  <line x1="510.09576000000004" y1="363.33000000000004" x2="722.16036" y2="363.33000000000004" stroke="#000000" stroke-width="0.5"/>
  <line x1="508.09576000000004" y1="367.33000000000004" x2="512.09576" y2="359.33000000000004" stroke="#000000" stroke-width="0.8"/>
  <line x1="720.16036" y1="367.33000000000004" x2="724.16036" y2="359.33000000000004" stroke="#000000" stroke-width="0.8"/>
  <text x="616.12806" y="376.33000000000004" text-anchor="middle" font-family="'Arial Narrow', Arial, sans-serif" font-size="10" fill="#000000">3450</text>
  <line x1="722.16036" y1="381.33000000000004" x2="722.16036" y2="361.33000000000004" stroke="#000000" stroke-width="0.35"/>
  <line x1="731.3805600000001" y1="381.33000000000004" x2="731.3805600000001" y2="361.33000000000004" stroke="#000000" stroke-width="0.35"/>
  <line x1="722.16036" y1="363.33000000000004" x2="731.3805600000001" y2="363.33000000000004" stroke="#000000" stroke-width="0.5"/>
  <line x1="720.16036" y1="367.33000000000004" x2="724.16036" y2="359.33000000000004" stroke="#000000" stroke-width="0.8"/>
  <line x1="729.3805600000001" y1="367.33000000000004" x2="733.3805600000001" y2="359.33000000000004" stroke="#000000" stroke-width="0.8"/>
  <text x="726.77046" y="376.33000000000004" text-anchor="middle" font-family="'Arial Narrow', Arial, sans-serif" font-size="10" fill="#000000">150</text>
  <line x1="731.3805600000001" y1="381.33000000000004" x2="731.3805600000001" y2="361.33000000000004" stroke="#000000" stroke-width="0.35"/>
  <line x1="738.75672" y1="381.33000000000004" x2="738.75672" y2="361.33000000000004" stroke="#000000" stroke-width="0.35"/>
  <line x1="731.3805600000001" y1="363.33000000000004" x2="738.75672" y2="363.33000000000004" stroke="#000000" stroke-width="0.5"/>
  <line x1="729.3805600000001" y1="367.33000000000004" x2="733.3805600000001" y2="359.33000000000004" stroke="#000000" stroke-width="0.8"/>
  <line x1="736.75672" y1="367.33000000000004" x2="740.75672" y2="359.33000000000004" stroke="#000000" stroke-width="0.8"/>
  <text x="735.06864" y="376.33000000000004" text-anchor="middle" font-family="'Arial Narrow', Arial, sans-serif" font-size="10" fill="#000000">120</text>
  <line x1="738.75672" y1="381.33000000000004" x2="738.75672" y2="361.33000000000004" stroke="#000000" stroke-width="0.35"/>
  <line x1="875.83036" y1="381.33000000000004" x2="875.83036" y2="361.33000000000004" stroke="#000000" stroke-width="0.35"/>
  <line x1="738.75672" y1="363.33000000000004" x2="875.83036" y2="363.33000000000004" stroke="#000000" stroke-width="0.5"/>
  <line x1="736.75672" y1="367.33000000000004" x2="740.75672" y2="359.33000000000004" stroke="#000000" stroke-width="0.8"/>
  <line x1="873.83036" y1="367.33000000000004" x2="877.83036" y2="359.33000000000004" stroke="#000000" stroke-width="0.8"/>
  <text x="807.29354" y="376.33000000000004" text-anchor="middle" font-family="'Arial Narrow', Arial, sans-serif" font-size="10" fill="#000000">2230</text>
  <line x1="875.83036" y1="381.33000000000004" x2="875.83036" y2="361.33000000000004" stroke="#000000" stroke-width="0.35"/>
  <line x1="960.04152" y1="381.33000000000004" x2="960.04152" y2="361.33000000000004" stroke="#000000" stroke-width="0.35"/>
  <line x1="875.83036" y1="363.33000000000004" x2="960.04152" y2="363.33000000000004" stroke="#000000" stroke-width="0.5"/>
  <line x1="873.83036" y1="367.33000000000004" x2="877.83036" y2="359.33000000000004" stroke="#000000" stroke-width="0.8"/>
  <line x1="958.04152" y1="367.33000000000004" x2="962.04152" y2="359.33000000000004" stroke="#000000" stroke-width="0.8"/>
  <text x="917.9359400000001" y="376.33000000000004" text-anchor="middle" font-family="'Arial Narrow', Arial, sans-serif" font-size="10" fill="#000000">1370</text>
  <line x1="960.04152" y1="381.33000000000004" x2="960.04152" y2="361.33000000000004" stroke="#000000" stroke-width="0.35"/>
  <line x1="967.41768" y1="381.33000000000004" x2="967.41768" y2="361.33000000000004" stroke="#000000" stroke-width="0.35"/>
  <line x1="960.04152" y1="363.33000000000004" x2="967.41768" y2="363.33000000000004" stroke="#000000" stroke-width="0.5"/>
  <line x1="958.04152" y1="367.33000000000004" x2="962.04152" y2="359.33000000000004" stroke="#000000" stroke-width="0.8"/>
  <line x1="965.41768" y1="367.33000000000004" x2="969.41768" y2="359.33000000000004" stroke="#000000" stroke-width="0.8"/>
  <text x="963.7296" y="376.33000000000004" text-anchor="middle" font-family="'Arial Narrow', Arial, sans-serif" font-size="10" fill="#000000">120</text>
  <line x1="967.41768" y1="381.33000000000004" x2="967.41768" y2="361.33000000000004" stroke="#000000" stroke-width="0.35"/>
  <line x1="1090.35368" y1="381.33000000000004" x2="1090.35368" y2="361.33000000000004" stroke="#000000" stroke-width="0.35"/>
  <line x1="967.41768" y1="363.33000000000004" x2="1090.35368" y2="363.33000000000004" stroke="#000000" stroke-width="0.5"/>
  <line x1="965.41768" y1="367.33000000000004" x2="969.41768" y2="359.33000000000004" stroke="#000000" stroke-width="0.8"/>
  <line x1="1088.35368" y1="367.33000000000004" x2="1092.35368" y2="359.33000000000004" stroke="#000000" stroke-width="0.8"/>
  <text x="1028.8856799999999" y="376.33000000000004" text-anchor="middle" font-family="'Arial Narrow', Arial, sans-serif" font-size="10" fill="#000000">2000</text>
  <line x1="1090.35368" y1="381.33000000000004" x2="1090.35368" y2="361.33000000000004" stroke="#000000" stroke-width="0.35"/>
  <line x1="1097.72984" y1="381.33000000000004" x2="1097.72984" y2="361.33000000000004" stroke="#000000" stroke-width="0.35"/>
  <line x1="1090.35368" y1="363.33000000000004" x2="1097.72984" y2="363.33000000000004" stroke="#000000" stroke-width="0.5"/>
  <line x1="1088.35368" y1="367.33000000000004" x2="1092.35368" y2="359.33000000000004" stroke="#000000" stroke-width="0.8"/>
  <line x1="1095.72984" y1="367.33000000000004" x2="1099.72984" y2="359.33000000000004" stroke="#000000" stroke-width="0.8"/>
  <text x="1094.04176" y="376.33000000000004" text-anchor="middle" font-family="'Arial Narrow', Arial, sans-serif" font-size="10" fill="#000000">120</text>
  <line x1="1097.72984" y1="381.33000000000004" x2="1097.72984" y2="361.33000000000004" stroke="#000000" stroke-width="0.35"/>
  <line x1="1430.8863999999999" y1="381.33000000000004" x2="1430.8863999999999" y2="361.33000000000004" stroke="#000000" stroke-width="0.35"/>
  <line x1="1097.72984" y1="363.33000000000004" x2="1430.8863999999999" y2="363.33000000000004" stroke="#000000" stroke-width="0.5"/>
  <line x1="1095.72984" y1="367.33000000000004" x2="1099.72984" y2="359.33000000000004" stroke="#000000" stroke-width="0.8"/>
  <line x1="1428.8863999999999" y1="367.33000000000004" x2="1432.8863999999999" y2="359.33000000000004" stroke="#000000" stroke-width="0.8"/>
  <text x="1264.30812" y="376.33000000000004" text-anchor="middle" font-family="'Arial Narrow', Arial, sans-serif" font-size="10" fill="#000000">5420</text>
  <line x1="1430.8863999999999" y1="381.33000000000004" x2="1430.8863999999999" y2="361.33000000000004" stroke="#000000" stroke-width="0.35"/>
  <line x1="1443.1799999999998" y1="381.33000000000004" x2="1443.1799999999998" y2="361.33000000000004" stroke="#000000" stroke-width="0.35"/>
  <line x1="1430.8863999999999" y1="363.33000000000004" x2="1443.1799999999998" y2="363.33000000000004" stroke="#000000" stroke-width="0.5"/>
  <line x1="1428.8863999999999" y1="367.33000000000004" x2="1432.8863999999999" y2="359.33000000000004" stroke="#000000" stroke-width="0.8"/>
  <line x1="1441.1799999999998" y1="367.33000000000004" x2="1445.1799999999998" y2="359.33000000000004" stroke="#000000" stroke-width="0.8"/>
  <text x="1437.0331999999999" y="376.33000000000004" text-anchor="middle" font-family="'Arial Narrow', Arial, sans-serif" font-size="10" fill="#000000">200</text>
  <line x1="213.82000000000005" y1="381.33000000000004" x2="213.82000000000005" y2="339.33000000000004" stroke="#000000" stroke-width="0.35"/>
  <line x1="226.11360000000005" y1="381.33000000000004" x2="226.11360000000005" y2="339.33000000000004" stroke="#000000" stroke-width="0.35"/>
  <line x1="213.82000000000005" y1="341.33000000000004" x2="226.11360000000005" y2="341.33000000000004" stroke="#000000" stroke-width="0.5"/>
  <line x1="211.82000000000005" y1="345.33000000000004" x2="215.82000000000005" y2="337.33000000000004" stroke="#000000" stroke-width="0.8"/>
  <line x1="224.11360000000005" y1="345.33000000000004" x2="228.11360000000005" y2="337.33000000000004" stroke="#000000" stroke-width="0.8"/>
  <text x="219.96680000000003" y="354.33000000000004" text-anchor="middle" font-family="'Arial Narrow', Arial, sans-serif" font-size="10" fill="#000000">200</text>
  <line x1="226.11360000000005" y1="381.33000000000004" x2="226.11360000000005" y2="339.33000000000004" stroke="#000000" stroke-width="0.35"/>
  <line x1="510.09576000000004" y1="381.33000000000004" x2="510.09576000000004" y2="339.33000000000004" stroke="#000000" stroke-width="0.35"/>
  <line x1="226.11360000000005" y1="341.33000000000004" x2="510.09576000000004" y2="341.33000000000004" stroke="#000000" stroke-width="0.5"/>
  <line x1="224.11360000000005" y1="345.33000000000004" x2="228.11360000000005" y2="337.33000000000004" stroke="#000000" stroke-width="0.8"/>
  <line x1="508.09576000000004" y1="345.33000000000004" x2="512.09576" y2="337.33000000000004" stroke="#000000" stroke-width="0.8"/>
  <text x="368.10468000000003" y="354.33000000000004" text-anchor="middle" font-family="'Arial Narrow', Arial, sans-serif" font-size="10" fill="#000000">4620</text>
  <line x1="510.09576000000004" y1="381.33000000000004" x2="510.09576000000004" y2="339.33000000000004" stroke="#000000" stroke-width="0.35"/>
  <line x1="731.3805600000001" y1="381.33000000000004" x2="731.3805600000001" y2="339.33000000000004" stroke="#000000" stroke-width="0.35"/>
  <line x1="510.09576000000004" y1="341.33000000000004" x2="731.3805600000001" y2="341.33000000000004" stroke="#000000" stroke-width="0.5"/>
  <line x1="508.09576000000004" y1="345.33000000000004" x2="512.09576" y2="337.33000000000004" stroke="#000000" stroke-width="0.8"/>
  <line x1="729.3805600000001" y1="345.33000000000004" x2="733.3805600000001" y2="337.33000000000004" stroke="#000000" stroke-width="0.8"/>
  <text x="620.7381600000001" y="354.33000000000004" text-anchor="middle" font-family="'Arial Narrow', Arial, sans-serif" font-size="10" fill="#000000">3600</text>
  <line x1="731.3805600000001" y1="381.33000000000004" x2="731.3805600000001" y2="339.33000000000004" stroke="#000000" stroke-width="0.35"/>
  <line x1="875.83036" y1="381.33000000000004" x2="875.83036" y2="339.33000000000004" stroke="#000000" stroke-width="0.35"/>
  <line x1="731.3805600000001" y1="341.33000000000004" x2="875.83036" y2="341.33000000000004" stroke="#000000" stroke-width="0.5"/>
  <line x1="729.3805600000001" y1="345.33000000000004" x2="733.3805600000001" y2="337.33000000000004" stroke="#000000" stroke-width="0.8"/>
  <line x1="873.83036" y1="345.33000000000004" x2="877.83036" y2="337.33000000000004" stroke="#000000" stroke-width="0.8"/>
  <text x="803.60546" y="354.33000000000004" text-anchor="middle" font-family="'Arial Narrow', Arial, sans-serif" font-size="10" fill="#000000">2350</text>
  <line x1="875.83036" y1="381.33000000000004" x2="875.83036" y2="339.33000000000004" stroke="#000000" stroke-width="0.35"/>
  <line x1="967.41768" y1="381.33000000000004" x2="967.41768" y2="339.33000000000004" stroke="#000000" stroke-width="0.35"/>
  <line x1="875.83036" y1="341.33000000000004" x2="967.41768" y2="341.33000000000004" stroke="#000000" stroke-width="0.5"/>
  <line x1="873.83036" y1="345.33000000000004" x2="877.83036" y2="337.33000000000004" stroke="#000000" stroke-width="0.8"/>
  <line x1="965.41768" y1="345.33000000000004" x2="969.41768" y2="337.33000000000004" stroke="#000000" stroke-width="0.8"/>
  <text x="921.62402" y="354.33000000000004" text-anchor="middle" font-family="'Arial Narrow', Arial, sans-serif" font-size="10" fill="#000000">1490</text>
  <line x1="967.41768" y1="381.33000000000004" x2="967.41768" y2="339.33000000000004" stroke="#000000" stroke-width="0.35"/>
  <line x1="1097.72984" y1="381.33000000000004" x2="1097.72984" y2="339.33000000000004" stroke="#000000" stroke-width="0.35"/>
  <line x1="967.41768" y1="341.33000000000004" x2="1097.72984" y2="341.33000000000004" stroke="#000000" stroke-width="0.5"/>
  <line x1="965.41768" y1="345.33000000000004" x2="969.41768" y2="337.33000000000004" stroke="#000000" stroke-width="0.8"/>
  <line x1="1095.72984" y1="345.33000000000004" x2="1099.72984" y2="337.33000000000004" stroke="#000000" stroke-width="0.8"/>
  <text x="1032.57376" y="354.33000000000004" text-anchor="middle" font-family="'Arial Narrow', Arial, sans-serif" font-size="10" fill="#000000">2120</text>
  <line x1="1097.72984" y1="381.33000000000004" x2="1097.72984" y2="339.33000000000004" stroke="#000000" stroke-width="0.35"/>
  <line x1="1443.1799999999998" y1="381.33000000000004" x2="1443.1799999999998" y2="339.33000000000004" stroke="#000000" stroke-width="0.35"/>
  <line x1="1097.72984" y1="341.33000000000004" x2="1443.1799999999998" y2="341.33000000000004" stroke="#000000" stroke-width="0.5"/>
  <line x1="1095.72984" y1="345.33000000000004" x2="1099.72984" y2="337.33000000000004" stroke="#000000" stroke-width="0.8"/>
  <line x1="1441.1799999999998" y1="345.33000000000004" x2="1445.1799999999998" y2="337.33000000000004" stroke="#000000" stroke-width="0.8"/>
  <text x="1270.45492" y="354.33000000000004" text-anchor="middle" font-family="'Arial Narrow', Arial, sans-serif" font-size="10" fill="#000000">5620</text>
  <line x1="213.82000000000005" y1="381.33000000000004" x2="213.82000000000005" y2="317.33000000000004" stroke="#000000" stroke-width="0.35"/>
  <line x1="1443.1799999999998" y1="381.33000000000004" x2="1443.1799999999998" y2="317.33000000000004" stroke="#000000" stroke-width="0.35"/>
  <line x1="213.82000000000005" y1="319.33000000000004" x2="1443.1799999999998" y2="319.33000000000004" stroke="#000000" stroke-width="0.5"/>
  <line x1="211.82000000000005" y1="323.33000000000004" x2="215.82000000000005" y2="315.33000000000004" stroke="#000000" stroke-width="0.8"/>
  <line x1="1441.1799999999998" y1="323.33000000000004" x2="1445.1799999999998" y2="315.33000000000004" stroke="#000000" stroke-width="0.8"/>
  <text x="828.5" y="332.33000000000004" text-anchor="middle" font-family="'Arial Narrow', Arial, sans-serif" font-size="10" fill="#000000">20000</text>
  <line x1="141.82000000000005" y1="537" x2="1515.1799999999998" y2="537" stroke="#000" stroke-width="0.8" stroke-dasharray="12 3 3 3"/>
  <circle cx="141.82000000000005" cy="537" r="10" fill="white" stroke="#000" stroke-width="1"/>
  <text x="141.82000000000005" y="541" text-anchor="middle" font-family="'Arial Narrow', Arial, sans-serif" font-size="10" fill="#000" font-weight="bold">A</text>
  <circle cx="1515.1799999999998" cy="537" r="10" fill="white" stroke="#000" stroke-width="1"/>
  <text x="1515.1799999999998" y="541" text-anchor="middle" font-family="'Arial Narrow', Arial, sans-serif" font-size="10" fill="#000" font-weight="bold">A</text>
  <path d="M 127.82000000000005 534 L 127.82000000000005 540 L 130.82000000000005 537 Z" fill="#000" stroke="none"/>
  <path d="M 1529.1799999999998 534 L 1529.1799999999998 540 L 1526.1799999999998 537 Z" fill="#000" stroke="none"/>
  <text x="828.5" y="1100" text-anchor="middle" font-family="'Arial Narrow', Arial, sans-serif" font-size="18" fill="#000000" font-weight="bold" letter-spacing="2">MẶT BẰNG LẦU 1</text>
  <text x="828.5" y="1116" text-anchor="middle" font-family="'Arial Narrow', Arial, sans-serif" font-size="13" fill="#000000">TL: 1/61 (xoay 90°)</text>
  <text x="8" y="1120" font-family="'Arial Narrow', Arial, sans-serif" font-size="7" fill="#888888">⚠ Tầng 1: Hố thang "Cầu thang" (1.2×2.5m) hơi nhỏ cho thang U-shape — khuyến nghị ≥2.1×3.5m. | Tầng 2: Nên có ít nhất 2 WC cho 3 phòng ngủ (hiện có 1 WC).</text>
</svg>