<?xml version="1.0" encoding="UTF-8"?>
<svg xmlns="http://www.w3.org/2000/svg" width="420mm" height="297mm" viewBox="0 0 1587 1122" preserveAspectRatio="xMidYMid meet">
  <defs>
  <!-- Tường ngoài: gạch chéo đôi (cross-hatch) — chuẩn CAD kiến trúc -->
  <pattern id="hatch-ext" patternUnits="userSpaceOnUse" width="5" height="5">
    <line x1="0" y1="0" x2="5" y2="5" stroke="#000" stroke-width="0.6"/>
    <line x1="5" y1="0" x2="0" y2="5" stroke="#000" stroke-width="0.6"/>
  </pattern>
  <!-- Tường trong: gạch chéo đơn — mảnh hơn -->
  <pattern id="hatch-int" patternUnits="userSpaceOnUse" width="4" height="4">
    <line x1="0" y1="0" x2="4" y2="4" stroke="#555" stroke-width="0.4"/>
  </pattern>
  <!-- Tường tô đặc (cho cột / tường chịu lực) -->
  <pattern id="hatch-solid" patternUnits="userSpaceOnUse" width="3" height="3">
    <rect width="3" height="3" fill="#333"/>
  </pattern>
</defs>
  <rect width="1587" height="1122" fill="white"/>
  <!-- LẦU 1 | 5m×20m | Scale 1/61 | A3 landscape | BMT Decor -->
  <line x1="226.11360000000005" y1="343.33000000000004" x2="226.11360000000005" y2="730.6700000000001" stroke="#999999" stroke-width="0.4" stroke-dasharray="8 4 2 4"/>
  <circle cx="226.11360000000005" cy="730.6700000000001" r="14" fill="white" stroke="#000000" stroke-width="1.2"/>
  <text x="226.11360000000005" y="735.6700000000001" text-anchor="middle" font-family="'Arial Narrow', Arial, sans-serif" font-size="13" fill="#000000" font-weight="bold">1</text>
  <circle cx="226.11360000000005" cy="343.33000000000004" r="14" fill="white" stroke="#000000" stroke-width="1.2"/>
  <text x="226.11360000000005" y="348.33000000000004" text-anchor="middle" font-family="'Arial Narrow', Arial, sans-serif" font-size="13" fill="#000000" font-weight="bold">1</text>
  <line x1="510.09576000000004" y1="343.33000000000004" x2="510.09576000000004" y2="730.6700000000001" stroke="#999999" stroke-width="0.4" stroke-dasharray="8 4 2 4"/>
  <circle cx="510.09576000000004" cy="730.6700000000001" r="14" fill="white" stroke="#000000" stroke-width="1.2"/>
  <text x="510.09576000000004" y="735.6700000000001" text-anchor="middle" font-family="'Arial Narrow', Arial, sans-serif" font-size="13" fill="#000000" font-weight="bold">2</text>
  <circle cx="510.09576000000004" cy="343.33000000000004" r="14" fill="white" stroke="#000000" stroke-width="1.2"/>
  <text x="510.09576000000004" y="348.33000000000004" text-anchor="middle" font-family="'Arial Narrow', Arial, sans-serif" font-size="13" fill="#000000" font-weight="bold">2</text>
  <line x1="763.34392" y1="343.33000000000004" x2="763.34392" y2="730.6700000000001" stroke="#999999" stroke-width="0.4" stroke-dasharray="8 4 2 4"/>
  <circle cx="763.34392" cy="730.6700000000001" r="14" fill="white" stroke="#000000" stroke-width="1.2"/>
  <text x="763.34392" y="735.6700000000001" text-anchor="middle" font-family="'Arial Narrow', Arial, sans-serif" font-size="13" fill="#000000" font-weight="bold">3</text>
  <circle cx="763.34392" cy="343.33000000000004" r="14" fill="white" stroke="#000000" stroke-width="1.2"/>
  <text x="763.34392" y="348.33000000000004" text-anchor="middle" font-family="'Arial Narrow', Arial, sans-serif" font-size="13" fill="#000000" font-weight="bold">3</text>
  <line x1="1016.59208" y1="343.33000000000004" x2="1016.59208" y2="730.6700000000001" stroke="#999999" stroke-width="0.4" stroke-dasharray="8 4 2 4"/>
  <circle cx="1016.59208" cy="730.6700000000001" r="14" fill="white" stroke="#000000" stroke-width="1.2"/>
  <text x="1016.59208" y="735.6700000000001" text-anchor="middle" font-family="'Arial Narrow', Arial, sans-serif" font-size="13" fill="#000000" font-weight="bold">4</text>
  <circle cx="1016.59208" cy="343.33000000000004" r="14" fill="white" stroke="#000000" stroke-width="1.2"/>
  <text x="1016.59208" y="348.33000000000004" text-anchor="middle" font-family="'Arial Narrow', Arial, sans-serif" font-size="13" fill="#000000" font-weight="bold">4</text>
  <line x1="1245.25304" y1="343.33000000000004" x2="1245.25304" y2="730.6700000000001" stroke="#999999" stroke-width="0.4" stroke-dasharray="8 4 2 4"/>
  <circle cx="1245.25304" cy="730.6700000000001" r="14" fill="white" stroke="#000000" stroke-width="1.2"/>
  <text x="1245.25304" y="735.6700000000001" text-anchor="middle" font-family="'Arial Narrow', Arial, sans-serif" font-size="13" fill="#000000" font-weight="bold">5</text>
  <circle cx="1245.25304" cy="343.33000000000004" r="14" fill="white" stroke="#000000" stroke-width="1.2"/>
  <text x="1245.25304" y="348.33000000000004" text-anchor="middle" font-family="'Arial Narrow', Arial, sans-serif" font-size="13" fill="#000000" font-weight="bold">5</text>
  <line x1="1443.1799999999998" y1="343.33000000000004" x2="1443.1799999999998" y2="730.6700000000001" stroke="#999999" stroke-width="0.4" stroke-dasharray="8 4 2 4"/>
  <circle cx="1443.1799999999998" cy="730.6700000000001" r="14" fill="white" stroke="#000000" stroke-width="1.2"/>
  <text x="1443.1799999999998" y="735.6700000000001" text-anchor="middle" font-family="'Arial Narrow', Arial, sans-serif" font-size="13" fill="#000000" font-weight="bold">6</text>
  <circle cx="1443.1799999999998" cy="343.33000000000004" r="14" fill="white" stroke="#000000" stroke-width="1.2"/>
  <text x="1443.1799999999998" y="348.33000000000004" text-anchor="middle" font-family="'Arial Narrow', Arial, sans-serif" font-size="13" fill="#000000" font-weight="bold">6</text>
  <line x1="173.82000000000005" y1="383.33000000000004" x2="1483.1799999999998" y2="383.33000000000004" stroke="#999999" stroke-width="0.4" stroke-dasharray="8 4 2 4"/>
  <circle cx="173.82000000000005" cy="383.33000000000004" r="14" fill="white" stroke="#000000" stroke-width="1.2"/>
  <text x="173.82000000000005" y="388.33000000000004" text-anchor="middle" font-family="'Arial Narrow', Arial, sans-serif" font-size="13" fill="#000000" font-weight="bold">A</text>
  <circle cx="1483.1799999999998" cy="383.33000000000004" r="14" fill="white" stroke="#000000" stroke-width="1.2"/>
  <text x="1483.1799999999998" y="388.33000000000004" text-anchor="middle" font-family="'Arial Narrow', Arial, sans-serif" font-size="13" fill="#000000" font-weight="bold">A</text>
  <line x1="173.82000000000005" y1="690.6700000000001" x2="1483.1799999999998" y2="690.6700000000001" stroke="#999999" stroke-width="0.4" stroke-dasharray="8 4 2 4"/>
  <circle cx="173.82000000000005" cy="690.6700000000001" r="14" fill="white" stroke="#000000" stroke-width="1.2"/>
  <text x="173.82000000000005" y="695.6700000000001" text-anchor="middle" font-family="'Arial Narrow', Arial, sans-serif" font-size="13" fill="#000000" font-weight="bold">B</text>
  <circle cx="1483.1799999999998" cy="690.6700000000001" r="14" fill="white" stroke="#000000" stroke-width="1.2"/>
  <text x="1483.1799999999998" y="695.6700000000001" text-anchor="middle" font-family="'Arial Narrow', Arial, sans-serif" font-size="13" fill="#000000" font-weight="bold">B</text>
  <rect x="219.96680000000003" y="377.18320000000006" width="12.2936" height="12.2936" fill="#000000" stroke="none"/>
  <rect x="219.96680000000003" y="684.5232000000001" width="12.2936" height="12.2936" fill="#000000" stroke="none"/>
  <rect x="503.94896000000006" y="377.18320000000006" width="12.2936" height="12.2936" fill="#000000" stroke="none"/>
  <rect x="503.94896000000006" y="684.5232000000001" width="12.2936" height="12.2936" fill="#000000" stroke="none"/>
  <rect x="757.19712" y="377.18320000000006" width="12.2936" height="12.2936" fill="#000000" stroke="none"/>
  <rect x="757.19712" y="684.5232000000001" width="12.2936" height="12.2936" fill="#000000" stroke="none"/>
  <rect x="1010.44528" y="377.18320000000006" width="12.2936" height="12.2936" fill="#000000" stroke="none"/>
  <rect x="1010.44528" y="684.5232000000001" width="12.2936" height="12.2936" fill="#000000" stroke="none"/>
  <rect x="1239.10624" y="377.18320000000006" width="12.2936" height="12.2936" fill="#000000" stroke="none"/>
  <rect x="1239.10624" y="684.5232000000001" width="12.2936" height="12.2936" fill="#000000" stroke="none"/>
  <rect x="1437.0331999999999" y="377.18320000000006" width="12.2936" height="12.2936" fill="#000000" stroke="none"/>
  <rect x="1437.0331999999999" y="684.5232000000001" width="12.2936" height="12.2936" fill="#000000" stroke="none"/>
  <rect x="226.11360000000005" y="395.62360000000007" width="276.606" height="282.7528" fill="white" stroke="none"/>
  <rect x="309.4166" y="414.98602000000005" width="110" height="95" fill="white" stroke="#000000" stroke-width="0.8"/>
  <rect x="309.4166" y="414.98602000000005" width="110" height="6.65" fill="#c0c0c0" stroke="#000000" stroke-width="0.6"/>
  <rect x="313.8166" y="424.63602000000003" width="39.6" height="17.099999999999998" rx="4" fill="#e8e8e8" stroke="#000000" stroke-width="0.5"/>
  <line x1="333.6166" y1="425.63602000000003" x2="333.6166" y2="440.73602000000005" stroke="#000000" stroke-width="0.25"/>
  <rect x="375.4166" y="424.63602000000003" width="39.6" height="17.099999999999998" rx="4" fill="#e8e8e8" stroke="#000000" stroke-width="0.5"/>
  <line x1="395.2166" y1="425.63602000000003" x2="395.2166" y2="440.73602000000005" stroke="#000000" stroke-width="0.25"/>
  <line x1="311.4166" y1="452.98602000000005" x2="417.4166" y2="452.98602000000005" stroke="#000000" stroke-width="0.4"/>
  <path d="M 313.4166 452.98602000000005 Q 364.4166 458.98602000000005 415.4166 452.98602000000005" fill="none" stroke="#000000" stroke-width="0.3"/>
  <line x1="364.4166" y1="455.98602000000005" x2="364.4166" y2="507.98602000000005" stroke="#000000" stroke-width="0.2" stroke-dasharray="3 3"/>
  <rect x="290.4166" y="414.98602000000005" width="16" height="16" fill="white" stroke="#000000" stroke-width="0.6"/>
  <circle cx="298.4166" cy="422.98602000000005" r="3" fill="none" stroke="#000000" stroke-width="0.35"/>
  <rect x="422.4166" y="414.98602000000005" width="16" height="16" fill="white" stroke="#000000" stroke-width="0.6"/>
  <circle cx="430.4166" cy="422.98602000000005" r="3" fill="none" stroke="#000000" stroke-width="0.35"/>
  <rect x="245.47602000000006" y="637.0139800000001" width="237.88116" height="22" fill="white" stroke="#000000" stroke-width="0.7"/>
  <line x1="246.47602000000006" y1="638.0139800000001" x2="292.05225200000007" y2="658.0139800000001" stroke="#000000" stroke-width="0.3"/>
  <line x1="292.05225200000007" y1="638.0139800000001" x2="246.47602000000006" y2="658.0139800000001" stroke="#000000" stroke-width="0.3"/>
  <circle cx="267.26413600000006" cy="648.0139800000001" r="1" fill="#000000" stroke="none"/>
  <circle cx="271.26413600000006" cy="648.0139800000001" r="1" fill="#000000" stroke="none"/>
  <line x1="293.05225200000007" y1="637.0139800000001" x2="293.05225200000007" y2="659.0139800000001" stroke="#000000" stroke-width="0.5"/>
  <line x1="294.05225200000007" y1="638.0139800000001" x2="339.62848400000007" y2="658.0139800000001" stroke="#000000" stroke-width="0.3"/>
  <line x1="339.62848400000007" y1="638.0139800000001" x2="294.05225200000007" y2="658.0139800000001" stroke="#000000" stroke-width="0.3"/>
  <circle cx="314.84036800000007" cy="648.0139800000001" r="1" fill="#000000" stroke="none"/>
  <circle cx="318.84036800000007" cy="648.0139800000001" r="1" fill="#000000" stroke="none"/>
  <line x1="340.62848400000007" y1="637.0139800000001" x2="340.62848400000007" y2="659.0139800000001" stroke="#000000" stroke-width="0.5"/>
  <line x1="341.62848400000007" y1="638.0139800000001" x2="387.2047160000001" y2="658.0139800000001" stroke="#000000" stroke-width="0.3"/>
  <line x1="387.2047160000001" y1="638.0139800000001" x2="341.62848400000007" y2="658.0139800000001" stroke="#000000" stroke-width="0.3"/>
  <circle cx="362.4166000000001" cy="648.0139800000001" r="1" fill="#000000" stroke="none"/>
  <circle cx="366.4166000000001" cy="648.0139800000001" r="1" fill="#000000" stroke="none"/>
  <line x1="388.2047160000001" y1="637.0139800000001" x2="388.2047160000001" y2="659.0139800000001" stroke="#000000" stroke-width="0.5"/>
  <line x1="389.2047160000001" y1="638.0139800000001" x2="434.7809480000001" y2="658.0139800000001" stroke="#000000" stroke-width="0.3"/>
  <line x1="434.7809480000001" y1="638.0139800000001" x2="389.2047160000001" y2="658.0139800000001" stroke="#000000" stroke-width="0.3"/>
  <circle cx="409.9928320000001" cy="648.0139800000001" r="1" fill="#000000" stroke="none"/>
  <circle cx="413.9928320000001" cy="648.0139800000001" r="1" fill="#000000" stroke="none"/>
  <line x1="435.7809480000001" y1="637.0139800000001" x2="435.7809480000001" y2="659.0139800000001" stroke="#000000" stroke-width="0.5"/>
  <line x1="436.7809480000001" y1="638.0139800000001" x2="482.3571800000001" y2="658.0139800000001" stroke="#000000" stroke-width="0.3"/>
  <line x1="482.3571800000001" y1="638.0139800000001" x2="436.7809480000001" y2="658.0139800000001" stroke="#000000" stroke-width="0.3"/>
  <circle cx="457.5690640000001" cy="648.0139800000001" r="1" fill="#000000" stroke="none"/>
  <circle cx="461.5690640000001" cy="648.0139800000001" r="1" fill="#000000" stroke="none"/>
  <rect x="245.47602000000006" y="613.0139800000001" width="48" height="14" fill="white" stroke="#000000" stroke-width="0.6"/>
  <line x1="247.47602000000006" y1="620.0139800000001" x2="291.47602000000006" y2="620.0139800000001" stroke="#000000" stroke-width="0.25"/>
  <circle cx="269.47602000000006" cy="636.0139800000001" r="6" fill="none" stroke="#000000" stroke-width="0.5"/>
  <path d="M 263.47602000000006 637.0139800000001 A 8 8 0 0 0 275.47602000000006 637.0139800000001" fill="none" stroke="#000000" stroke-width="0.4"/>
  <text x="364.4166" y="535" text-anchor="middle" font-family="'Arial Narrow', Arial, sans-serif" font-size="9" fill="#000" font-weight="bold">Phòng ngủ Master</text>
  <text x="364.4166" y="547" text-anchor="middle" font-family="'Arial Narrow', Arial, sans-serif" font-size="7.5" fill="#333">20.7m²</text>
  <rect x="510.09576000000004" y="395.62360000000007" width="245.87199999999999" height="282.7528" fill="white" stroke="none"/>
  <rect x="593.0317600000001" y="412.8346400000001" width="80" height="95" fill="white" stroke="#000000" stroke-width="0.8"/>
  <rect x="593.0317600000001" y="412.8346400000001" width="80" height="6.65" fill="#c0c0c0" stroke="#000000" stroke-width="0.6"/>
  <rect x="596.2317600000001" y="422.48464000000007" width="28.799999999999997" height="17.099999999999998" rx="4" fill="#e8e8e8" stroke="#000000" stroke-width="0.5"/>
  <line x1="610.6317600000001" y1="423.48464000000007" x2="610.6317600000001" y2="438.5846400000001" stroke="#000000" stroke-width="0.25"/>
  <rect x="641.0317600000001" y="422.48464000000007" width="28.799999999999997" height="17.099999999999998" rx="4" fill="#e8e8e8" stroke="#000000" stroke-width="0.5"/>
  <line x1="655.43176" y1="423.48464000000007" x2="655.43176" y2="438.5846400000001" stroke="#000000" stroke-width="0.25"/>
  <line x1="595.0317600000001" y1="450.8346400000001" x2="671.0317600000001" y2="450.8346400000001" stroke="#000000" stroke-width="0.4"/>
  <path d="M 597.0317600000001 450.8346400000001 Q 633.0317600000001 456.8346400000001 669.0317600000001 450.8346400000001" fill="none" stroke="#000000" stroke-width="0.3"/>
  <line x1="633.0317600000001" y1="453.8346400000001" x2="633.0317600000001" y2="505.8346400000001" stroke="#000000" stroke-width="0.2" stroke-dasharray="3 3"/>
  <rect x="574.0317600000001" y="412.8346400000001" width="16" height="16" fill="white" stroke="#000000" stroke-width="0.6"/>
  <circle cx="582.0317600000001" cy="420.8346400000001" r="3" fill="none" stroke="#000000" stroke-width="0.35"/>
  <rect x="676.0317600000001" y="412.8346400000001" width="16" height="16" fill="white" stroke="#000000" stroke-width="0.6"/>
  <circle cx="684.0317600000001" cy="420.8346400000001" r="3" fill="none" stroke="#000000" stroke-width="0.35"/>
  <rect x="527.3068000000001" y="639.1653600000001" width="211.44992" height="22" fill="white" stroke="#000000" stroke-width="0.7"/>
  <line x1="528.3068000000001" y1="640.1653600000001" x2="568.5967840000001" y2="660.1653600000001" stroke="#000000" stroke-width="0.3"/>
  <line x1="568.5967840000001" y1="640.1653600000001" x2="528.3068000000001" y2="660.1653600000001" stroke="#000000" stroke-width="0.3"/>
  <circle cx="546.4517920000001" cy="650.1653600000001" r="1" fill="#000000" stroke="none"/>
  <circle cx="550.4517920000001" cy="650.1653600000001" r="1" fill="#000000" stroke="none"/>
  <line x1="569.5967840000001" y1="639.1653600000001" x2="569.5967840000001" y2="661.1653600000001" stroke="#000000" stroke-width="0.5"/>
  <line x1="570.5967840000001" y1="640.1653600000001" x2="610.8867680000001" y2="660.1653600000001" stroke="#000000" stroke-width="0.3"/>
  <line x1="610.8867680000001" y1="640.1653600000001" x2="570.5967840000001" y2="660.1653600000001" stroke="#000000" stroke-width="0.3"/>
  <circle cx="588.7417760000001" cy="650.1653600000001" r="1" fill="#000000" stroke="none"/>
  <circle cx="592.7417760000001" cy="650.1653600000001" r="1" fill="#000000" stroke="none"/>
  <line x1="611.8867680000001" y1="639.1653600000001" x2="611.8867680000001" y2="661.1653600000001" stroke="#000000" stroke-width="0.5"/>
  <line x1="612.8867680000001" y1="640.1653600000001" x2="653.1767520000001" y2="660.1653600000001" stroke="#000000" stroke-width="0.3"/>
  <line x1="653.1767520000001" y1="640.1653600000001" x2="612.8867680000001" y2="660.1653600000001" stroke="#000000" stroke-width="0.3"/>
  <circle cx="631.0317600000001" cy="650.1653600000001" r="1" fill="#000000" stroke="none"/>
  <circle cx="635.0317600000001" cy="650.1653600000001" r="1" fill="#000000" stroke="none"/>
  <line x1="654.1767520000001" y1="639.1653600000001" x2="654.1767520000001" y2="661.1653600000001" stroke="#000000" stroke-width="0.5"/>
  <line x1="655.1767520000001" y1="640.1653600000001" x2="695.4667360000001" y2="660.1653600000001" stroke="#000000" stroke-width="0.3"/>
  <line x1="695.4667360000001" y1="640.1653600000001" x2="655.1767520000001" y2="660.1653600000001" stroke="#000000" stroke-width="0.3"/>
  <circle cx="673.3217440000001" cy="650.1653600000001" r="1" fill="#000000" stroke="none"/>
  <circle cx="677.3217440000001" cy="650.1653600000001" r="1" fill="#000000" stroke="none"/>
  <line x1="696.4667360000001" y1="639.1653600000001" x2="696.4667360000001" y2="661.1653600000001" stroke="#000000" stroke-width="0.5"/>
  <line x1="697.4667360000001" y1="640.1653600000001" x2="737.7567200000001" y2="660.1653600000001" stroke="#000000" stroke-width="0.3"/>
  <line x1="737.7567200000001" y1="640.1653600000001" x2="697.4667360000001" y2="660.1653600000001" stroke="#000000" stroke-width="0.3"/>
  <circle cx="715.6117280000001" cy="650.1653600000001" r="1" fill="#000000" stroke="none"/>
  <circle cx="719.6117280000001" cy="650.1653600000001" r="1" fill="#000000" stroke="none"/>
  <rect x="527.3068000000001" y="615.1653600000001" width="48" height="14" fill="white" stroke="#000000" stroke-width="0.6"/>
  <line x1="529.3068000000001" y1="622.1653600000001" x2="573.3068000000001" y2="622.1653600000001" stroke="#000000" stroke-width="0.25"/>
  <circle cx="551.3068000000001" cy="638.1653600000001" r="6" fill="none" stroke="#000000" stroke-width="0.5"/>
  <path d="M 545.3068000000001 639.1653600000001 A 8 8 0 0 0 557.3068000000001 639.1653600000001" fill="none" stroke="#000000" stroke-width="0.4"/>
  <text x="633.0317600000001" y="535" text-anchor="middle" font-family="'Arial Narrow', Arial, sans-serif" font-size="9" fill="#000" font-weight="bold">Phòng ngủ 1</text>
  <text x="633.0317600000001" y="547" text-anchor="middle" font-family="'Arial Narrow', Arial, sans-serif" font-size="7.5" fill="#333">18.4m²</text>
  <rect x="763.34392" y="395.62360000000007" width="245.87199999999999" height="282.7528" fill="white" stroke="none"/>
  <rect x="846.2799200000001" y="412.8346400000001" width="80" height="95" fill="white" stroke="#000000" stroke-width="0.8"/>
  <rect x="846.2799200000001" y="412.8346400000001" width="80" height="6.65" fill="#c0c0c0" stroke="#000000" stroke-width="0.6"/>
  <rect x="849.4799200000001" y="422.48464000000007" width="28.799999999999997" height="17.099999999999998" rx="4" fill="#e8e8e8" stroke="#000000" stroke-width="0.5"/>
  <line x1="863.8799200000001" y1="423.48464000000007" x2="863.8799200000001" y2="438.5846400000001" stroke="#000000" stroke-width="0.25"/>
  <rect x="894.2799200000001" y="422.48464000000007" width="28.799999999999997" height="17.099999999999998" rx="4" fill="#e8e8e8" stroke="#000000" stroke-width="0.5"/>
  <line x1="908.67992" y1="423.48464000000007" x2="908.67992" y2="438.5846400000001" stroke="#000000" stroke-width="0.25"/>
  <line x1="848.2799200000001" y1="450.8346400000001" x2="924.2799200000001" y2="450.8346400000001" stroke="#000000" stroke-width="0.4"/>
  <path d="M 850.2799200000001 450.8346400000001 Q 886.2799200000001 456.8346400000001 922.2799200000001 450.8346400000001" fill="none" stroke="#000000" stroke-width="0.3"/>
  <line x1="886.2799200000001" y1="453.8346400000001" x2="886.2799200000001" y2="505.8346400000001" stroke="#000000" stroke-width="0.2" stroke-dasharray="3 3"/>
  <rect x="827.2799200000001" y="412.8346400000001" width="16" height="16" fill="white" stroke="#000000" stroke-width="0.6"/>
  <circle cx="835.2799200000001" cy="420.8346400000001" r="3" fill="none" stroke="#000000" stroke-width="0.35"/>
  <rect x="929.2799200000001" y="412.8346400000001" width="16" height="16" fill="white" stroke="#000000" stroke-width="0.6"/>
  <circle cx="937.2799200000001" cy="420.8346400000001" r="3" fill="none" stroke="#000000" stroke-width="0.35"/>
  <rect x="780.55496" y="639.1653600000001" width="211.44992" height="22" fill="white" stroke="#000000" stroke-width="0.7"/>
  <line x1="781.55496" y1="640.1653600000001" x2="821.844944" y2="660.1653600000001" stroke="#000000" stroke-width="0.3"/>
  <line x1="821.844944" y1="640.1653600000001" x2="781.55496" y2="660.1653600000001" stroke="#000000" stroke-width="0.3"/>
  <circle cx="799.699952" cy="650.1653600000001" r="1" fill="#000000" stroke="none"/>
  <circle cx="803.699952" cy="650.1653600000001" r="1" fill="#000000" stroke="none"/>
  <line x1="822.844944" y1="639.1653600000001" x2="822.844944" y2="661.1653600000001" stroke="#000000" stroke-width="0.5"/>
  <line x1="823.844944" y1="640.1653600000001" x2="864.1349280000001" y2="660.1653600000001" stroke="#000000" stroke-width="0.3"/>
  <line x1="864.1349280000001" y1="640.1653600000001" x2="823.844944" y2="660.1653600000001" stroke="#000000" stroke-width="0.3"/>
  <circle cx="841.9899360000001" cy="650.1653600000001" r="1" fill="#000000" stroke="none"/>
  <circle cx="845.9899360000001" cy="650.1653600000001" r="1" fill="#000000" stroke="none"/>
  <line x1="865.1349280000001" y1="639.1653600000001" x2="865.1349280000001" y2="661.1653600000001" stroke="#000000" stroke-width="0.5"/>
  <line x1="866.1349280000001" y1="640.1653600000001" x2="906.4249120000001" y2="660.1653600000001" stroke="#000000" stroke-width="0.3"/>
  <line x1="906.4249120000001" y1="640.1653600000001" x2="866.1349280000001" y2="660.1653600000001" stroke="#000000" stroke-width="0.3"/>
  <circle cx="884.2799200000001" cy="650.1653600000001" r="1" fill="#000000" stroke="none"/>
  <circle cx="888.2799200000001" cy="650.1653600000001" r="1" fill="#000000" stroke="none"/>
  <line x1="907.4249120000001" y1="639.1653600000001" x2="907.4249120000001" y2="661.1653600000001" stroke="#000000" stroke-width="0.5"/>
  <line x1="908.4249120000001" y1="640.1653600000001" x2="948.7148960000001" y2="660.1653600000001" stroke="#000000" stroke-width="0.3"/>
  <line x1="948.7148960000001" y1="640.1653600000001" x2="908.4249120000001" y2="660.1653600000001" stroke="#000000" stroke-width="0.3"/>
  <circle cx="926.5699040000001" cy="650.1653600000001" r="1" fill="#000000" stroke="none"/>
  <circle cx="930.5699040000001" cy="650.1653600000001" r="1" fill="#000000" stroke="none"/>
  <line x1="949.7148960000001" y1="639.1653600000001" x2="949.7148960000001" y2="661.1653600000001" stroke="#000000" stroke-width="0.5"/>
  <line x1="950.7148960000001" y1="640.1653600000001" x2="991.0048800000001" y2="660.1653600000001" stroke="#000000" stroke-width="0.3"/>
  <line x1="991.0048800000001" y1="640.1653600000001" x2="950.7148960000001" y2="660.1653600000001" stroke="#000000" stroke-width="0.3"/>
  <circle cx="968.8598880000001" cy="650.1653600000001" r="1" fill="#000000" stroke="none"/>
  <circle cx="972.8598880000001" cy="650.1653600000001" r="1" fill="#000000" stroke="none"/>
  <rect x="780.55496" y="615.1653600000001" width="48" height="14" fill="white" stroke="#000000" stroke-width="0.6"/>
  <line x1="782.55496" y1="622.1653600000001" x2="826.55496" y2="622.1653600000001" stroke="#000000" stroke-width="0.25"/>
  <circle cx="804.55496" cy="638.1653600000001" r="6" fill="none" stroke="#000000" stroke-width="0.5"/>
  <path d="M 798.55496 639.1653600000001 A 8 8 0 0 0 810.55496 639.1653600000001" fill="none" stroke="#000000" stroke-width="0.4"/>
  <text x="886.2799200000001" y="535" text-anchor="middle" font-family="'Arial Narrow', Arial, sans-serif" font-size="9" fill="#000" font-weight="bold">Phòng ngủ 2</text>
  <text x="886.2799200000001" y="547" text-anchor="middle" font-family="'Arial Narrow', Arial, sans-serif" font-size="7.5" fill="#333">18.4m²</text>
  <rect x="1016.59208" y="395.62360000000007" width="221.2848" height="282.7528" fill="white" stroke="none"/>
  <rect x="1087.23448" y="411.11353600000007" width="80" height="95" fill="white" stroke="#000000" stroke-width="0.8"/>
  <rect x="1087.23448" y="411.11353600000007" width="80" height="6.65" fill="#c0c0c0" stroke="#000000" stroke-width="0.6"/>
  <rect x="1090.4344800000001" y="420.76353600000004" width="28.799999999999997" height="17.099999999999998" rx="4" fill="#e8e8e8" stroke="#000000" stroke-width="0.5"/>
  <line x1="1104.8344800000002" y1="421.76353600000004" x2="1104.8344800000002" y2="436.86353600000007" stroke="#000000" stroke-width="0.25"/>
  <rect x="1135.23448" y="420.76353600000004" width="28.799999999999997" height="17.099999999999998" rx="4" fill="#e8e8e8" stroke="#000000" stroke-width="0.5"/>
  <line x1="1149.63448" y1="421.76353600000004" x2="1149.63448" y2="436.86353600000007" stroke="#000000" stroke-width="0.25"/>
  <line x1="1089.23448" y1="449.11353600000007" x2="1165.23448" y2="449.11353600000007" stroke="#000000" stroke-width="0.4"/>
  <path d="M 1091.23448 449.11353600000007 Q 1127.23448 455.11353600000007 1163.23448 449.11353600000007" fill="none" stroke="#000000" stroke-width="0.3"/>
  <line x1="1127.23448" y1="452.11353600000007" x2="1127.23448" y2="504.11353600000007" stroke="#000000" stroke-width="0.2" stroke-dasharray="3 3"/>
  <rect x="1068.23448" y="411.11353600000007" width="16" height="16" fill="white" stroke="#000000" stroke-width="0.6"/>
  <circle cx="1076.23448" cy="419.11353600000007" r="3" fill="none" stroke="#000000" stroke-width="0.35"/>
  <rect x="1170.23448" y="411.11353600000007" width="16" height="16" fill="white" stroke="#000000" stroke-width="0.6"/>
  <circle cx="1178.23448" cy="419.11353600000007" r="3" fill="none" stroke="#000000" stroke-width="0.35"/>
  <rect x="1032.082016" y="640.886464" width="190.304928" height="22" fill="white" stroke="#000000" stroke-width="0.7"/>
  <line x1="1033.082016" y1="641.886464" x2="1069.1430016000002" y2="661.886464" stroke="#000000" stroke-width="0.3"/>
  <line x1="1069.1430016000002" y1="641.886464" x2="1033.082016" y2="661.886464" stroke="#000000" stroke-width="0.3"/>
  <circle cx="1049.1125088000001" cy="651.886464" r="1" fill="#000000" stroke="none"/>
  <circle cx="1053.1125088000001" cy="651.886464" r="1" fill="#000000" stroke="none"/>
  <line x1="1070.1430016000002" y1="640.886464" x2="1070.1430016000002" y2="662.886464" stroke="#000000" stroke-width="0.5"/>
  <line x1="1071.1430016000002" y1="641.886464" x2="1107.2039872000003" y2="661.886464" stroke="#000000" stroke-width="0.3"/>
  <line x1="1107.2039872000003" y1="641.886464" x2="1071.1430016000002" y2="661.886464" stroke="#000000" stroke-width="0.3"/>
  <circle cx="1087.1734944000002" cy="651.886464" r="1" fill="#000000" stroke="none"/>
  <circle cx="1091.1734944000002" cy="651.886464" r="1" fill="#000000" stroke="none"/>
  <line x1="1108.2039872" y1="640.886464" x2="1108.2039872" y2="662.886464" stroke="#000000" stroke-width="0.5"/>
  <line x1="1109.2039872" y1="641.886464" x2="1145.2649728000001" y2="661.886464" stroke="#000000" stroke-width="0.3"/>
  <line x1="1145.2649728000001" y1="641.886464" x2="1109.2039872" y2="661.886464" stroke="#000000" stroke-width="0.3"/>
  <circle cx="1125.23448" cy="651.886464" r="1" fill="#000000" stroke="none"/>
  <circle cx="1129.23448" cy="651.886464" r="1" fill="#000000" stroke="none"/>
  <line x1="1146.2649728000001" y1="640.886464" x2="1146.2649728000001" y2="662.886464" stroke="#000000" stroke-width="0.5"/>
  <line x1="1147.2649728000001" y1="641.886464" x2="1183.3259584000002" y2="661.886464" stroke="#000000" stroke-width="0.3"/>
  <line x1="1183.3259584000002" y1="641.886464" x2="1147.2649728000001" y2="661.886464" stroke="#000000" stroke-width="0.3"/>
  <circle cx="1163.2954656000002" cy="651.886464" r="1" fill="#000000" stroke="none"/>
  <circle cx="1167.2954656000002" cy="651.886464" r="1" fill="#000000" stroke="none"/>
  <line x1="1184.3259584" y1="640.886464" x2="1184.3259584" y2="662.886464" stroke="#000000" stroke-width="0.5"/>
  <line x1="1185.3259584" y1="641.886464" x2="1221.386944" y2="661.886464" stroke="#000000" stroke-width="0.3"/>
  <line x1="1221.386944" y1="641.886464" x2="1185.3259584" y2="661.886464" stroke="#000000" stroke-width="0.3"/>
  <circle cx="1201.3564512" cy="651.886464" r="1" fill="#000000" stroke="none"/>
  <circle cx="1205.3564512" cy="651.886464" r="1" fill="#000000" stroke="none"/>
  <rect x="1032.082016" y="616.886464" width="48" height="14" fill="white" stroke="#000000" stroke-width="0.6"/>
  <line x1="1034.082016" y1="623.886464" x2="1078.082016" y2="623.886464" stroke="#000000" stroke-width="0.25"/>
  <circle cx="1056.082016" cy="639.886464" r="6" fill="none" stroke="#000000" stroke-width="0.5"/>
  <path d="M 1050.082016 640.886464 A 8 8 0 0 0 1062.082016 640.886464" fill="none" stroke="#000000" stroke-width="0.4"/>
  <text x="1127.23448" y="535" text-anchor="middle" font-family="'Arial Narrow', Arial, sans-serif" font-size="9" fill="#000" font-weight="bold">Phòng ngủ 3</text>
  <text x="1127.23448" y="547" text-anchor="middle" font-family="'Arial Narrow', Arial, sans-serif" font-size="7.5" fill="#333">16.6m²</text>
  <rect x="1245.25304" y="395.62360000000007" width="185.63335999999998" height="282.7528" fill="white" stroke="none"/>
  <rect x="1258.2473752" y="408.6179352000001" width="38" height="22" rx="1" fill="white" stroke="#000000" stroke-width="0.7"/>
  <ellipse cx="1277.2473752" cy="420.7179352000001" rx="12.920000000000002" ry="7.48" fill="none" stroke="#000000" stroke-width="0.5"/>
  <circle cx="1277.2473752" cy="420.7179352000001" r="1.5" fill="#000000" stroke="none"/>
  <circle cx="1277.2473752" cy="411.9179352000001" r="2.2" fill="#000000" stroke="none"/>
  <line x1="1277.2473752" y1="414.1179352000001" x2="1277.2473752" y2="415.6579352000001" stroke="#000000" stroke-width="0.6"/>
  <rect x="1263.9473752000001" y="402.01793520000007" width="26.599999999999998" height="5.5" fill="none" stroke="#000000" stroke-width="0.3" stroke-dasharray="2 1"/>
  <rect x="1391.4920648" y="625.3820648000001" width="22.8" height="8.8" rx="2" fill="white" stroke="#000000" stroke-width="0.7"/>
  <circle cx="1400.4920648" cy="629.7820648000001" r="1.8" fill="none" stroke="#000000" stroke-width="0.4"/>
  <circle cx="1405.2920648000002" cy="629.7820648000001" r="1.8" fill="none" stroke="#000000" stroke-width="0.4"/>
  <ellipse cx="1402.8920648" cy="650.1820648" rx="13.8" ry="14.399999999999999" fill="white" stroke="#000000" stroke-width="0.7"/>
  <ellipse cx="1402.8920648" cy="649.3820648000001" rx="10.200000000000001" ry="10.8" fill="none" stroke="#000000" stroke-width="0.4"/>
  <line x1="1395.3920648" y1="635.1820648" x2="1410.3920648" y2="635.1820648" stroke="#000000" stroke-width="0.4"/>
  <rect x="1258.2473752" y="435.6179352000001" width="42" height="72" rx="4" fill="white" stroke="#000000" stroke-width="0.8"/>
  <rect x="1261.2473752" y="438.6179352000001" width="36" height="66" rx="3" fill="none" stroke="#000000" stroke-width="0.4"/>
  <circle cx="1279.2473752" cy="497.6179352000001" r="2.5" fill="none" stroke="#000000" stroke-width="0.5"/>
  <circle cx="1279.2473752" cy="497.6179352000001" r="0.8" fill="#000000" stroke="none"/>
  <circle cx="1272.9473752000001" cy="443.6179352000001" r="2.5" fill="none" stroke="#000000" stroke-width="0.5"/>
  <circle cx="1285.5473752" cy="443.6179352000001" r="2.5" fill="none" stroke="#000000" stroke-width="0.5"/>
  <line x1="1298.2473752" y1="457.2179352000001" x2="1298.2473752" y2="486.01793520000007" stroke="#000000" stroke-width="0.6"/>
  <rect x="1335.06972" y="572.51461944" width="6" height="6" fill="none" stroke="#000000" stroke-width="0.4"/>
  <line x1="1335.06972" y1="572.51461944" x2="1341.06972" y2="578.51461944" stroke="#000000" stroke-width="0.3"/>
  <line x1="1341.06972" y1="572.51461944" x2="1335.06972" y2="578.51461944" stroke="#000000" stroke-width="0.3"/>
  <text x="1338.06972" y="535" text-anchor="middle" font-family="'Arial Narrow', Arial, sans-serif" font-size="9" fill="#000" font-weight="bold">WC</text>
  <text x="1338.06972" y="547" text-anchor="middle" font-family="'Arial Narrow', Arial, sans-serif" font-size="7.5" fill="#333">13.9m²</text>
  <path d="M 1257.25304 664.3764000000001 L 1251.25304 670.3764000000001 L 1263.25304 670.3764000000001 Z" fill="#000" stroke="none"/>
  <text x="1266.25304" y="672.3764000000001" font-family="'Arial Narrow', Arial, sans-serif" font-size="8" fill="#000">+0.050</text>
  <polygon points="207.67,383.33 207.67,690.67 219.97,690.67 219.97,383.33" fill="url(#hatch-ext)" stroke="#000" stroke-width="1.4"/>
  <line x1="207.67320000000004" y1="383.33000000000004" x2="207.67320000000004" y2="690.6700000000001" stroke="#000" stroke-width="1.5" stroke-linecap="square"/>
  <line x1="219.96680000000006" y1="383.33000000000004" x2="219.96680000000006" y2="690.6700000000001" stroke="#000" stroke-width="1.5" stroke-linecap="square"/>
  <polygon points="1437.03,383.33 1437.03,690.67 1449.33,690.67 1449.33,383.33" fill="url(#hatch-ext)" stroke="#000" stroke-width="1.4"/>
  <line x1="1437.0331999999999" y1="383.33000000000004" x2="1437.0331999999999" y2="690.6700000000001" stroke="#000" stroke-width="1.5" stroke-linecap="square"/>
  <line x1="1449.3267999999998" y1="383.33000000000004" x2="1449.3267999999998" y2="690.6700000000001" stroke="#000" stroke-width="1.5" stroke-linecap="square"/>
  <polygon points="213.82,389.48 1443.18,389.48 1443.18,377.18 213.82,377.18" fill="url(#hatch-ext)" stroke="#000" stroke-width="1.4"/>
  <line x1="213.82000000000005" y1="389.4768" x2="1443.1799999999998" y2="389.4768" stroke="#000" stroke-width="1.5" stroke-linecap="square"/>
  <line x1="213.82000000000005" y1="377.18320000000006" x2="1443.1799999999998" y2="377.18320000000006" stroke="#000" stroke-width="1.5" stroke-linecap="square"/>
  <polygon points="213.82,696.82 1443.18,696.82 1443.18,684.52 213.82,684.52" fill="url(#hatch-ext)" stroke="#000" stroke-width="1.4"/>
  <line x1="213.82000000000005" y1="696.8168000000001" x2="1443.1799999999998" y2="696.8168000000001" stroke="#000" stroke-width="1.5" stroke-linecap="square"/>
  <line x1="213.82000000000005" y1="684.5232000000001" x2="1443.1799999999998" y2="684.5232000000001" stroke="#000" stroke-width="1.5" stroke-linecap="square"/>
  <polygon points="499.03,395.62 499.03,678.38 506.41,678.38 506.41,395.62" fill="url(#hatch-int)" stroke="#000" stroke-width="0.7"/>
  <line x1="499.03152000000006" y1="395.62360000000007" x2="499.03152000000006" y2="678.3764" stroke="#000" stroke-width="0.8" stroke-linecap="square"/>
  <line x1="506.4076800000001" y1="395.62360000000007" x2="506.4076800000001" y2="678.3764" stroke="#000" stroke-width="0.8" stroke-linecap="square"/>
  <polygon points="752.28,395.62 752.28,678.38 759.66,678.38 759.66,395.62" fill="url(#hatch-int)" stroke="#000" stroke-width="0.7"/>
  <line x1="752.27968" y1="395.62360000000007" x2="752.27968" y2="678.3764" stroke="#000" stroke-width="0.8" stroke-linecap="square"/>
  <line x1="759.65584" y1="395.62360000000007" x2="759.65584" y2="678.3764" stroke="#000" stroke-width="0.8" stroke-linecap="square"/>
  <polygon points="1005.53,395.62 1005.53,678.38 1012.90,678.38 1012.90,395.62" fill="url(#hatch-int)" stroke="#000" stroke-width="0.7"/>
  <line x1="1005.52784" y1="395.62360000000007" x2="1005.52784" y2="678.3764" stroke="#000" stroke-width="0.8" stroke-linecap="square"/>
  <line x1="1012.904" y1="395.62360000000007" x2="1012.904" y2="678.3764" stroke="#000" stroke-width="0.8" stroke-linecap="square"/>
  <polygon points="1234.19,395.62 1234.19,678.38 1241.56,678.38 1241.56,395.62" fill="url(#hatch-int)" stroke="#000" stroke-width="0.7"/>
  <line x1="1234.1888" y1="395.62360000000007" x2="1234.1888" y2="678.3764" stroke="#000" stroke-width="0.8" stroke-linecap="square"/>
  <line x1="1241.5649599999997" y1="395.62360000000007" x2="1241.5649599999997" y2="678.3764" stroke="#000" stroke-width="0.8" stroke-linecap="square"/>
  <polygon points="206.17,568.73 206.17,505.27 221.47,505.27 221.47,568.73" fill="white" stroke="none"/>
  <polygon points="497.53,565.66 497.53,508.34 507.91,508.34 507.91,565.66" fill="white" stroke="none"/>
  <polygon points="750.78,565.66 750.78,508.34 761.16,508.34 761.16,565.66" fill="white" stroke="none"/>
  <polygon points="1004.03,565.66 1004.03,508.34 1014.40,508.34 1014.40,565.66" fill="white" stroke="none"/>
  <polygon points="1232.69,565.66 1232.69,508.34 1243.06,508.34 1243.06,565.66" fill="white" stroke="none"/>
  <rect x="212.82000000000005" y="483.2522" width="75.76159999999999" height="15.2936" fill="white" stroke="none"/>
  <line x1="213.82000000000005" y1="487.899" x2="287.58160000000004" y2="487.899" stroke="#000000" stroke-width="2"/>
  <line x1="213.82000000000005" y1="493.899" x2="287.58160000000004" y2="493.899" stroke="#000000" stroke-width="2"/>
  <line x1="213.82000000000005" y1="487.899" x2="213.82000000000005" y2="493.899" stroke="#000000" stroke-width="1"/>
  <line x1="287.58160000000004" y1="487.899" x2="287.58160000000004" y2="493.899" stroke="#000000" stroke-width="1"/>
  <line x1="213.82000000000005" y1="487.899" x2="287.58160000000004" y2="493.899" stroke="#000000" stroke-width="0.5"/>
  <line x1="287.58160000000004" y1="487.899" x2="213.82000000000005" y2="493.899" stroke="#000000" stroke-width="0.5"/>
  <rect x="240.70080000000004" y="468.899" width="20" height="12" rx="2" fill="white" stroke="#000" stroke-width="0.5"/>
  <text x="250.70080000000004" y="478.899" text-anchor="middle" font-family="'Arial Narrow', Arial, sans-serif" font-size="7" fill="#000">S1</text>
  <line x1="213.82000000000005" y1="506.266" x2="275.28800000000007" y2="506.266" stroke="#000000" stroke-width="2"/>
  <line x1="213.82000000000005" y1="506.266" x2="213.82000000000005" y2="567.734" stroke="#000000" stroke-width="0.8"/>
  <path d="M 213.82000000000005 567.734 A 61.467999999999996 61.467999999999996 0 0 1 275.28800000000007 506.266" fill="none" stroke="#000000" stroke-width="0.7"/>
  <rect x="234.55400000000006" y="486.266" width="20" height="12" rx="2" fill="white" stroke="#000" stroke-width="0.5"/>
  <text x="244.55400000000006" y="496.266" text-anchor="middle" font-family="'Arial Narrow', Arial, sans-serif" font-size="7" fill="#000">D1</text>
  <line x1="502.71960000000007" y1="509.3394" x2="558.0408000000001" y2="509.3394" stroke="#000000" stroke-width="2"/>
  <line x1="502.71960000000007" y1="509.3394" x2="502.71960000000007" y2="564.6606" stroke="#000000" stroke-width="0.8"/>
  <path d="M 502.71960000000007 564.6606 A 55.3212 55.3212 0 0 1 558.0408000000001 509.3394" fill="none" stroke="#000000" stroke-width="0.7"/>
  <rect x="520.3802000000001" y="489.3394" width="20" height="12" rx="2" fill="white" stroke="#000" stroke-width="0.5"/>
  <text x="530.3802000000001" y="499.3394" text-anchor="middle" font-family="'Arial Narrow', Arial, sans-serif" font-size="7" fill="#000">D2</text>
  <line x1="755.96776" y1="509.3394" x2="811.28896" y2="509.3394" stroke="#000000" stroke-width="2"/>
  <line x1="755.96776" y1="509.3394" x2="755.96776" y2="564.6606" stroke="#000000" stroke-width="0.8"/>
  <path d="M 755.96776 564.6606 A 55.3212 55.3212 0 0 1 811.28896 509.3394" fill="none" stroke="#000000" stroke-width="0.7"/>
  <rect x="773.62836" y="489.3394" width="20" height="12" rx="2" fill="white" stroke="#000" stroke-width="0.5"/>
  <text x="783.62836" y="499.3394" text-anchor="middle" font-family="'Arial Narrow', Arial, sans-serif" font-size="7" fill="#000">D3</text>
  <line x1="1009.21592" y1="509.3394" x2="1064.53712" y2="509.3394" stroke="#000000" stroke-width="2"/>
  <line x1="1009.21592" y1="509.3394" x2="1009.21592" y2="564.6606" stroke="#000000" stroke-width="0.8"/>
  <path d="M 1009.21592 564.6606 A 55.3212 55.3212 0 0 1 1064.53712 509.3394" fill="none" stroke="#000000" stroke-width="0.7"/>
  <rect x="1026.87652" y="489.3394" width="20" height="12" rx="2" fill="white" stroke="#000" stroke-width="0.5"/>
  <text x="1036.87652" y="499.3394" text-anchor="middle" font-family="'Arial Narrow', Arial, sans-serif" font-size="7" fill="#000">D4</text>
  <line x1="1237.8768799999998" y1="509.3394" x2="1293.19808" y2="509.3394" stroke="#000000" stroke-width="2"/>
  <line x1="1237.8768799999998" y1="509.3394" x2="1237.8768799999998" y2="564.6606" stroke="#000000" stroke-width="0.8"/>
  <path d="M 1237.8768799999998 564.6606 A 55.3212 55.3212 0 0 1 1293.19808 509.3394" fill="none" stroke="#000000" stroke-width="0.7"/>
  <rect x="1255.5374799999997" y="489.3394" width="20" height="12" rx="2" fill="white" stroke="#000" stroke-width="0.5"/>
  <text x="1265.5374799999997" y="499.3394" text-anchor="middle" font-family="'Arial Narrow', Arial, sans-serif" font-size="7" fill="#000">D5</text>
  <circle cx="1473.1799999999998" cy="413.33000000000004" r="16" fill="white" stroke="#000" stroke-width="1"/>
  <path d="M 1473.1799999999998 400.33000000000004 L 1468.1799999999998 413.33000000000004 L 1473.1799999999998 408.33000000000004 L 1478.1799999999998 413.33000000000004 Z" fill="#000" stroke="none"/>
  <path d="M 1473.1799999999998 426.33000000000004 L 1468.1799999999998 413.33000000000004 L 1473.1799999999998 418.33000000000004 L 1478.1799999999998 413.33000000000004 Z" fill="white" stroke="#000" stroke-width="0.6"/>
  <text x="1473.1799999999998" y="393.33000000000004" text-anchor="middle" font-family="'Arial Narrow', Arial, sans-serif" font-size="9" fill="#000" font-weight="bold">N</text>
  <rect x="213.82000000000005" y="383.33000000000004" width="1229.36" height="307.34" fill="none" stroke="#000000" stroke-width="2"/>
  <line x1="213.82000000000005" y1="692.6700000000001" x2="213.82000000000005" y2="712.6700000000001" stroke="#000000" stroke-width="0.35"/>
  <line x1="226.11360000000005" y1="692.6700000000001" x2="226.11360000000005" y2="712.6700000000001" stroke="#000000" stroke-width="0.35"/>
  <line x1="213.82000000000005" y1="710.6700000000001" x2="226.11360000000005" y2="710.6700000000001" stroke="#000000" stroke-width="0.5"/>
  <line x1="211.82000000000005" y1="714.6700000000001" x2="215.82000000000005" y2="706.6700000000001" stroke="#000000" stroke-width="0.8"/>
  <line x1="224.11360000000005" y1="714.6700000000001" x2="228.11360000000005" y2="706.6700000000001" stroke="#000000" stroke-width="0.8"/>
  <text x="219.96680000000003" y="705.6700000000001" text-anchor="middle" font-family="'Arial Narrow', Arial, sans-serif" font-size="10" fill="#000000">200</text>
  <line x1="226.11360000000005" y1="692.6700000000001" x2="226.11360000000005" y2="712.6700000000001" stroke="#000000" stroke-width="0.35"/>
  <line x1="502.71960000000007" y1="692.6700000000001" x2="502.71960000000007" y2="712.6700000000001" stroke="#000000" stroke-width="0.35"/>
  <line x1="226.11360000000005" y1="710.6700000000001" x2="502.71960000000007" y2="710.6700000000001" stroke="#000000" stroke-width="0.5"/>
  <line x1="224.11360000000005" y1="714.6700000000001" x2="228.11360000000005" y2="706.6700000000001" stroke="#000000" stroke-width="0.8"/>
  <line x1="500.71960000000007" y1="714.6700000000001" x2="504.71960000000007" y2="706.6700000000001" stroke="#000000" stroke-width="0.8"/>
  <text x="364.4166000000001" y="705.6700000000001" text-anchor="middle" font-family="'Arial Narrow', Arial, sans-serif" font-size="10" fill="#000000">4500</text>
  <line x1="502.71960000000007" y1="692.6700000000001" x2="502.71960000000007" y2="712.6700000000001" stroke="#000000" stroke-width="0.35"/>
  <line x1="510.09576000000004" y1="692.6700000000001" x2="510.09576000000004" y2="712.6700000000001" stroke="#000000" stroke-width="0.35"/>
  <line x1="502.71960000000007" y1="710.6700000000001" x2="510.09576000000004" y2="710.6700000000001" stroke="#000000" stroke-width="0.5"/>
  <line x1="500.71960000000007" y1="714.6700000000001" x2="504.71960000000007" y2="706.6700000000001" stroke="#000000" stroke-width="0.8"/>
  <line x1="508.09576000000004" y1="714.6700000000001" x2="512.09576" y2="706.6700000000001" stroke="#000000" stroke-width="0.8"/>
  <text x="506.40768" y="705.6700000000001" text-anchor="middle" font-family="'Arial Narrow', Arial, sans-serif" font-size="10" fill="#000000">120</text>
  <line x1="510.09576000000004" y1="692.6700000000001" x2="510.09576000000004" y2="712.6700000000001" stroke="#000000" stroke-width="0.35"/>
  <line x1="755.96776" y1="692.6700000000001" x2="755.96776" y2="712.6700000000001" stroke="#000000" stroke-width="0.35"/>
  <line x1="510.09576000000004" y1="710.6700000000001" x2="755.96776" y2="710.6700000000001" stroke="#000000" stroke-width="0.5"/>
  <line x1="508.09576000000004" y1="714.6700000000001" x2="512.09576" y2="706.6700000000001" stroke="#000000" stroke-width="0.8"/>
  <line x1="753.96776" y1="714.6700000000001" x2="757.96776" y2="706.6700000000001" stroke="#000000" stroke-width="0.8"/>
  <text x="633.0317600000001" y="705.6700000000001" text-anchor="middle" font-family="'Arial Narrow', Arial, sans-serif" font-size="10" fill="#000000">4000</text>
  <line x1="755.96776" y1="692.6700000000001" x2="755.96776" y2="712.6700000000001" stroke="#000000" stroke-width="0.35"/>
  <line x1="763.34392" y1="692.6700000000001" x2="763.34392" y2="712.6700000000001" stroke="#000000" stroke-width="0.35"/>
  <line x1="755.96776" y1="710.6700000000001" x2="763.34392" y2="710.6700000000001" stroke="#000000" stroke-width="0.5"/>
  <line x1="753.96776" y1="714.6700000000001" x2="757.96776" y2="706.6700000000001" stroke="#000000" stroke-width="0.8"/>
  <line x1="761.34392" y1="714.6700000000001" x2="765.34392" y2="706.6700000000001" stroke="#000000" stroke-width="0.8"/>
  <text x="759.65584" y="705.6700000000001" text-anchor="middle" font-family="'Arial Narrow', Arial, sans-serif" font-size="10" fill="#000000">120</text>
  <line x1="763.34392" y1="692.6700000000001" x2="763.34392" y2="712.6700000000001" stroke="#000000" stroke-width="0.35"/>
  <line x1="1009.21592" y1="692.6700000000001" x2="1009.21592" y2="712.6700000000001" stroke="#000000" stroke-width="0.35"/>
  <line x1="763.34392" y1="710.6700000000001" x2="1009.21592" y2="710.6700000000001" stroke="#000000" stroke-width="0.5"/>
  <line x1="761.34392" y1="714.6700000000001" x2="765.34392" y2="706.6700000000001" stroke="#000000" stroke-width="0.8"/>
  <line x1="1007.21592" y1="714.6700000000001" x2="1011.21592" y2="706.6700000000001" stroke="#000000" stroke-width="0.8"/>
  <text x="886.27992" y="705.6700000000001" text-anchor="middle" font-family="'Arial Narrow', Arial, sans-serif" font-size="10" fill="#000000">4000</text>
  <line x1="1009.21592" y1="692.6700000000001" x2="1009.21592" y2="712.6700000000001" stroke="#000000" stroke-width="0.35"/>
  <line x1="1016.59208" y1="692.6700000000001" x2="1016.59208" y2="712.6700000000001" stroke="#000000" stroke-width="0.35"/>
  <line x1="1009.21592" y1="710.6700000000001" x2="1016.59208" y2="710.6700000000001" stroke="#000000" stroke-width="0.5"/>
  <line x1="1007.21592" y1="714.6700000000001" x2="1011.21592" y2="706.6700000000001" stroke="#000000" stroke-width="0.8"/>
  <line x1="1014.59208" y1="714.6700000000001" x2="1018.59208" y2="706.6700000000001" stroke="#000000" stroke-width="0.8"/>
  <text x="1012.904" y="705.6700000000001" text-anchor="middle" font-family="'Arial Narrow', Arial, sans-serif" font-size="10" fill="#000000">120</text>
  <line x1="1016.59208" y1="692.6700000000001" x2="1016.59208" y2="712.6700000000001" stroke="#000000" stroke-width="0.35"/>
  <line x1="1237.8768799999998" y1="692.6700000000001" x2="1237.8768799999998" y2="712.6700000000001" stroke="#000000" stroke-width="0.35"/>
  <line x1="1016.59208" y1="710.6700000000001" x2="1237.8768799999998" y2="710.6700000000001" stroke="#000000" stroke-width="0.5"/>
  <line x1="1014.59208" y1="714.6700000000001" x2="1018.59208" y2="706.6700000000001" stroke="#000000" stroke-width="0.8"/>
  <line x1="1235.8768799999998" y1="714.6700000000001" x2="1239.8768799999998" y2="706.6700000000001" stroke="#000000" stroke-width="0.8"/>
  <text x="1127.2344799999998" y="705.6700000000001" text-anchor="middle" font-family="'Arial Narrow', Arial, sans-serif" font-size="10" fill="#000000">3600</text>
  <line x1="1237.8768799999998" y1="692.6700000000001" x2="1237.8768799999998" y2="712.6700000000001" stroke="#000000" stroke-width="0.35"/>
  <line x1="1245.25304" y1="692.6700000000001" x2="1245.25304" y2="712.6700000000001" stroke="#000000" stroke-width="0.35"/>
  <line x1="1237.8768799999998" y1="710.6700000000001" x2="1245.25304" y2="710.6700000000001" stroke="#000000" stroke-width="0.5"/>
  <line x1="1235.8768799999998" y1="714.6700000000001" x2="1239.8768799999998" y2="706.6700000000001" stroke="#000000" stroke-width="0.8"/>
  <line x1="1243.25304" y1="714.6700000000001" x2="1247.25304" y2="706.6700000000001" stroke="#000000" stroke-width="0.8"/>
  <text x="1241.56496" y="705.6700000000001" text-anchor="middle" font-family="'Arial Narrow', Arial, sans-serif" font-size="10" fill="#000000">120</text>
  <line x1="1245.25304" y1="692.6700000000001" x2="1245.25304" y2="712.6700000000001" stroke="#000000" stroke-width="0.35"/>
  <line x1="1430.8863999999999" y1="692.6700000000001" x2="1430.8863999999999" y2="712.6700000000001" stroke="#000000" stroke-width="0.35"/>
  <line x1="1245.25304" y1="710.6700000000001" x2="1430.8863999999999" y2="710.6700000000001" stroke="#000000" stroke-width="0.5"/>
  <line x1="1243.25304" y1="714.6700000000001" x2="1247.25304" y2="706.6700000000001" stroke="#000000" stroke-width="0.8"/>
  <line x1="1428.8863999999999" y1="714.6700000000001" x2="1432.8863999999999" y2="706.6700000000001" stroke="#000000" stroke-width="0.8"/>
  <text x="1338.06972" y="705.6700000000001" text-anchor="middle" font-family="'Arial Narrow', Arial, sans-serif" font-size="10" fill="#000000">3020</text>
  <line x1="1430.8863999999999" y1="692.6700000000001" x2="1430.8863999999999" y2="712.6700000000001" stroke="#000000" stroke-width="0.35"/>
  <line x1="1443.1799999999998" y1="692.6700000000001" x2="1443.1799999999998" y2="712.6700000000001" stroke="#000000" stroke-width="0.35"/>
  <line x1="1430.8863999999999" y1="710.6700000000001" x2="1443.1799999999998" y2="710.6700000000001" stroke="#000000" stroke-width="0.5"/>
  <line x1="1428.8863999999999" y1="714.6700000000001" x2="1432.8863999999999" y2="706.6700000000001" stroke="#000000" stroke-width="0.8"/>
  <line x1="1441.1799999999998" y1="714.6700000000001" x2="1445.1799999999998" y2="706.6700000000001" stroke="#000000" stroke-width="0.8"/>
  <text x="1437.0331999999999" y="705.6700000000001" text-anchor="middle" font-family="'Arial Narrow', Arial, sans-serif" font-size="10" fill="#000000">200</text>
  <line x1="213.82000000000005" y1="692.6700000000001" x2="213.82000000000005" y2="734.6700000000001" stroke="#000000" stroke-width="0.35"/>
  <line x1="226.11360000000005" y1="692.6700000000001" x2="226.11360000000005" y2="734.6700000000001" stroke="#000000" stroke-width="0.35"/>
  <line x1="213.82000000000005" y1="732.6700000000001" x2="226.11360000000005" y2="732.6700000000001" stroke="#000000" stroke-width="0.5"/>
  <line x1="211.82000000000005" y1="736.6700000000001" x2="215.82000000000005" y2="728.6700000000001" stroke="#000000" stroke-width="0.8"/>
  <line x1="224.11360000000005" y1="736.6700000000001" x2="228.11360000000005" y2="728.6700000000001" stroke="#000000" stroke-width="0.8"/>
  <text x="219.96680000000003" y="727.6700000000001" text-anchor="middle" font-family="'Arial Narrow', Arial, sans-serif" font-size="10" fill="#000000">200</text>
  <line x1="226.11360000000005" y1="692.6700000000001" x2="226.11360000000005" y2="734.6700000000001" stroke="#000000" stroke-width="0.35"/>
  <line x1="510.09576000000004" y1="692.6700000000001" x2="510.09576000000004" y2="734.6700000000001" stroke="#000000" stroke-width="0.35"/>
  <line x1="226.11360000000005" y1="732.6700000000001" x2="510.09576000000004" y2="732.6700000000001" stroke="#000000" stroke-width="0.5"/>
  <line x1="224.11360000000005" y1="736.6700000000001" x2="228.11360000000005" y2="728.6700000000001" stroke="#000000" stroke-width="0.8"/>
  <line x1="508.09576000000004" y1="736.6700000000001" x2="512.09576" y2="728.6700000000001" stroke="#000000" stroke-width="0.8"/>
  <text x="368.10468000000003" y="727.6700000000001" text-anchor="middle" font-family="'Arial Narrow', Arial, sans-serif" font-size="10" fill="#000000">4620</text>
  <line x1="510.09576000000004" y1="692.6700000000001" x2="510.09576000000004" y2="734.6700000000001" stroke="#000000" stroke-width="0.35"/>
  <line x1="763.34392" y1="692.6700000000001" x2="763.34392" y2="734.6700000000001" stroke="#000000" stroke-width="0.35"/>
  <line x1="510.09576000000004" y1="732.6700000000001" x2="763.34392" y2="732.6700000000001" stroke="#000000" stroke-width="0.5"/>
  <line x1="508.09576000000004" y1="736.6700000000001" x2="512.09576" y2="728.6700000000001" stroke="#000000" stroke-width="0.8"/>
  <line x1="761.34392" y1="736.6700000000001" x2="765.34392" y2="728.6700000000001" stroke="#000000" stroke-width="0.8"/>
  <text x="636.71984" y="727.6700000000001" text-anchor="middle" font-family="'Arial Narrow', Arial, sans-serif" font-size="10" fill="#000000">4120</text>
  <line x1="763.34392" y1="692.6700000000001" x2="763.34392" y2="734.6700000000001" stroke="#000000" stroke-width="0.35"/>
  <line x1="1016.59208" y1="692.6700000000001" x2="1016.59208" y2="734.6700000000001" stroke="#000000" stroke-width="0.35"/>
  <line x1="763.34392" y1="732.6700000000001" x2="1016.59208" y2="732.6700000000001" stroke="#000000" stroke-width="0.5"/>
  <line x1="761.34392" y1="736.6700000000001" x2="765.34392" y2="728.6700000000001" stroke="#000000" stroke-width="0.8"/>
  <line x1="1014.59208" y1="736.6700000000001" x2="1018.59208" y2="728.6700000000001" stroke="#000000" stroke-width="0.8"/>
  <text x="889.9680000000001" y="727.6700000000001" text-anchor="middle" font-family="'Arial Narrow', Arial, sans-serif" font-size="10" fill="#000000">4120</text>
  <line x1="1016.59208" y1="692.6700000000001" x2="1016.59208" y2="734.6700000000001" stroke="#000000" stroke-width="0.35"/>
  <line x1="1245.25304" y1="692.6700000000001" x2="1245.25304" y2="734.6700000000001" stroke="#000000" stroke-width="0.35"/>
  <line x1="1016.59208" y1="732.6700000000001" x2="1245.25304" y2="732.6700000000001" stroke="#000000" stroke-width="0.5"/>
  <line x1="1014.59208" y1="736.6700000000001" x2="1018.59208" y2="728.6700000000001" stroke="#000000" stroke-width="0.8"/>
  <line x1="1243.25304" y1="736.6700000000001" x2="1247.25304" y2="728.6700000000001" stroke="#000000" stroke-width="0.8"/>
  <text x="1130.92256" y="727.6700000000001" text-anchor="middle" font-family="'Arial Narrow', Arial, sans-serif" font-size="10" fill="#000000">3720</text>
  <line x1="1245.25304" y1="692.6700000000001" x2="1245.25304" y2="734.6700000000001" stroke="#000000" stroke-width="0.35"/>
  <line x1="1443.1799999999998" y1="692.6700000000001" x2="1443.1799999999998" y2="734.6700000000001" stroke="#000000" stroke-width="0.35"/>
  <line x1="1245.25304" y1="732.6700000000001" x2="1443.1799999999998" y2="732.6700000000001" stroke="#000000" stroke-width="0.5"/>
  <line x1="1243.25304" y1="736.6700000000001" x2="1247.25304" y2="728.6700000000001" stroke="#000000" stroke-width="0.8"/>
  <line x1="1441.1799999999998" y1="736.6700000000001" x2="1445.1799999999998" y2="728.6700000000001" stroke="#000000" stroke-width="0.8"/>
  <text x="1344.21652" y="727.6700000000001" text-anchor="middle" font-family="'Arial Narrow', Arial, sans-serif" font-size="10" fill="#000000">3220</text>
  <line x1="213.82000000000005" y1="692.6700000000001" x2="213.82000000000005" y2="756.6700000000001" stroke="#000000" stroke-width="0.35"/>
  <line x1="1443.1799999999998" y1="692.6700000000001" x2="1443.1799999999998" y2="756.6700000000001" stroke="#000000" stroke-width="0.35"/>
  <line x1="213.82000000000005" y1="754.6700000000001" x2="1443.1799999999998" y2="754.6700000000001" stroke="#000000" stroke-width="0.5"/>
  <line x1="211.82000000000005" y1="758.6700000000001" x2="215.82000000000005" y2="750.6700000000001" stroke="#000000" stroke-width="0.8"/>
  <line x1="1441.1799999999998" y1="758.6700000000001" x2="1445.1799999999998" y2="750.6700000000001" stroke="#000000" stroke-width="0.8"/>
  <text x="828.5" y="749.6700000000001" text-anchor="middle" font-family="'Arial Narrow', Arial, sans-serif" font-size="10" fill="#000000">20000</text>
  <line x1="211.82000000000005" y1="383.33000000000004" x2="191.82000000000005" y2="383.33000000000004" stroke="#000000" stroke-width="0.35"/>
  <line x1="211.82000000000005" y1="395.62360000000007" x2="191.82000000000005" y2="395.62360000000007" stroke="#000000" stroke-width="0.35"/>
  <line x1="193.82000000000005" y1="383.33000000000004" x2="193.82000000000005" y2="395.62360000000007" stroke="#000000" stroke-width="0.5"/>
  <line x1="189.82000000000005" y1="385.33000000000004" x2="197.82000000000005" y2="381.33000000000004" stroke="#000000" stroke-width="0.8"/>
  <line x1="189.82000000000005" y1="397.62360000000007" x2="197.82000000000005" y2="393.62360000000007" stroke="#000000" stroke-width="0.8"/>
  <text x="185.82000000000005" y="389.4768" text-anchor="middle" font-family="'Arial Narrow', Arial, sans-serif" font-size="7.5" fill="#000000" transform="rotate(-90, 185.82000000000005, 389.4768)">200</text>
  <line x1="211.82000000000005" y1="395.62360000000007" x2="191.82000000000005" y2="395.62360000000007" stroke="#000000" stroke-width="0.35"/>
  <line x1="211.82000000000005" y1="678.3764" x2="191.82000000000005" y2="678.3764" stroke="#000000" stroke-width="0.35"/>
  <line x1="193.82000000000005" y1="395.62360000000007" x2="193.82000000000005" y2="678.3764" stroke="#000000" stroke-width="0.5"/>
  <line x1="189.82000000000005" y1="397.62360000000007" x2="197.82000000000005" y2="393.62360000000007" stroke="#000000" stroke-width="0.8"/>
  <line x1="189.82000000000005" y1="680.3764" x2="197.82000000000005" y2="676.3764" stroke="#000000" stroke-width="0.8"/>
  <text x="185.82000000000005" y="537" text-anchor="middle" font-family="'Arial Narrow', Arial, sans-serif" font-size="7.5" fill="#000000" transform="rotate(-90, 185.82000000000005, 537)">4600</text>
  <line x1="211.82000000000005" y1="678.3764" x2="191.82000000000005" y2="678.3764" stroke="#000000" stroke-width="0.35"/>
  <line x1="211.82000000000005" y1="690.6700000000001" x2="191.82000000000005" y2="690.6700000000001" stroke="#000000" stroke-width="0.35"/>
  <line x1="193.82000000000005" y1="678.3764" x2="193.82000000000005" y2="690.6700000000001" stroke="#000000" stroke-width="0.5"/>
  <line x1="189.82000000000005" y1="680.3764" x2="197.82000000000005" y2="676.3764" stroke="#000000" stroke-width="0.8"/>
  <line x1="189.82000000000005" y1="692.6700000000001" x2="197.82000000000005" y2="688.6700000000001" stroke="#000000" stroke-width="0.8"/>
  <text x="185.82000000000005" y="684.5232000000001" text-anchor="middle" font-family="'Arial Narrow', Arial, sans-serif" font-size="7.5" fill="#000000" transform="rotate(-90, 185.82000000000005, 684.5232000000001)">200</text>
  <line x1="211.82000000000005" y1="383.33000000000004" x2="169.82000000000005" y2="383.33000000000004" stroke="#000000" stroke-width="0.35"/>
  <line x1="211.82000000000005" y1="690.6700000000001" x2="169.82000000000005" y2="690.6700000000001" stroke="#000000" stroke-width="0.35"/>
  <line x1="171.82000000000005" y1="383.33000000000004" x2="171.82000000000005" y2="690.6700000000001" stroke="#000000" stroke-width="0.5"/>
  <line x1="167.82000000000005" y1="385.33000000000004" x2="175.82000000000005" y2="381.33000000000004" stroke="#000000" stroke-width="0.8"/>
  <line x1="167.82000000000005" y1="692.6700000000001" x2="175.82000000000005" y2="688.6700000000001" stroke="#000000" stroke-width="0.8"/>
  <text x="163.82000000000005" y="537" text-anchor="middle" font-family="'Arial Narrow', Arial, sans-serif" font-size="7.5" fill="#000000" transform="rotate(-90, 163.82000000000005, 537)">5000</text>
  <line x1="211.82000000000005" y1="383.33000000000004" x2="147.82000000000005" y2="383.33000000000004" stroke="#000000" stroke-width="0.35"/>
  <line x1="211.82000000000005" y1="690.6700000000001" x2="147.82000000000005" y2="690.6700000000001" stroke="#000000" stroke-width="0.35"/>
  <line x1="149.82000000000005" y1="383.33000000000004" x2="149.82000000000005" y2="690.6700000000001" stroke="#000000" stroke-width="0.5"/>
  <line x1="145.82000000000005" y1="385.33000000000004" x2="153.82000000000005" y2="381.33000000000004" stroke="#000000" stroke-width="0.8"/>
  <line x1="145.82000000000005" y1="692.6700000000001" x2="153.82000000000005" y2="688.6700000000001" stroke="#000000" stroke-width="0.8"/>
  <text x="141.82000000000005" y="537" text-anchor="middle" font-family="'Arial Narrow', Arial, sans-serif" font-size="7.5" fill="#000000" transform="rotate(-90, 141.82000000000005, 537)">5000</text>
  <line x1="213.82000000000005" y1="381.33000000000004" x2="213.82000000000005" y2="361.33000000000004" stroke="#000000" stroke-width="0.35"/>
  <line x1="226.11360000000005" y1="381.33000000000004" x2="226.11360000000005" y2="361.33000000000004" stroke="#000000" stroke-width="0.35"/>
  <line x1="213.82000000000005" y1="363.33000000000004" x2="226.11360000000005" y2="363.33000000000004" stroke="#000000" stroke-width="0.5"/>
  <line x1="211.82000000000005" y1="367.33000000000004" x2="215.82000000000005" y2="359.33000000000004" stroke="#000000" stroke-width="0.8"/>
  <line x1="224.11360000000005" y1="367.33000000000004" x2="228.11360000000005" y2="359.33000000000004" stroke="#000000" stroke-width="0.8"/>
  <text x="219.96680000000003" y="376.33000000000004" text-anchor="middle" font-family="'Arial Narrow', Arial, sans-serif" font-size="10" fill="#000000">200</text>
  <line x1="226.11360000000005" y1="381.33000000000004" x2="226.11360000000005" y2="361.33000000000004" stroke="#000000" stroke-width="0.35"/>
  <line x1="502.71960000000007" y1="381.33000000000004" x2="502.71960000000007" y2="361.33000000000004" stroke="#000000" stroke-width="0.35"/>
  <line x1="226.11360000000005" y1="363.33000000000004" x2="502.71960000000007" y2="363.33000000000004" stroke="#000000" stroke-width="0.5"/>
  <line x1="224.11360000000005" y1="367.33000000000004" x2="228.11360000000005" y2="359.33000000000004" stroke="#000000" stroke-width="0.8"/>
  <line x1="500.71960000000007" y1="367.33000000000004" x2="504.71960000000007" y2="359.33000000000004" stroke="#000000" stroke-width="0.8"/>
  <text x="364.4166000000001" y="376.33000000000004" text-anchor="middle" font-family="'Arial Narrow', Arial, sans-serif" font-size="10" fill="#000000">4500</text>
  <line x1="502.71960000000007" y1="381.33000000000004" x2="502.71960000000007" y2="361.33000000000004" stroke="#000000" stroke-width="0.35"/>
  <line x1="510.09576000000004" y1="381.33000000000004" x2="510.09576000000004" y2="361.33000000000004" stroke="#000000" stroke-width="0.35"/>
  <line x1="502.71960000000007" y1="363.33000000000004" x2="510.09576000000004" y2="363.33000000000004" stroke="#000000" stroke-width="0.5"/>
  <line x1="500.71960000000007" y1="367.33000000000004" x2="504.71960000000007" y2="359.33000000000004" stroke="#000000" stroke-width="0.8"/>
  <line x1="508.09576000000004" y1="367.33000000000004" x2="512.09576" y2="359.33000000000004" stroke="#000000" stroke-width="0.8"/>
  <text x="506.40768" y="376.33000000000004" text-anchor="middle" font-family="'Arial Narrow', Arial, sans-serif" font-size="10" fill="#000000">120</text>
  <line x1="510.09576000000004" y1="381.33000000000004" x2="510.09576000000004" y2="361.33000000000004" stroke="#000000" stroke-width="0.35"/>
  <line x1="755.96776" y1="381.33000000000004" x2="755.96776" y2="361.33000000000004" stroke="#000000" stroke-width="0.35"/>
  <line x1="510.09576000000004" y1="363.33000000000004" x2="755.96776" y2="363.33000000000004" stroke="#000000" stroke-width="0.5"/>
  <line x1="508.09576000000004" y1="367.33000000000004" x2="512.09576" y2="359.33000000000004" stroke="#000000" stroke-width="0.8"/>
  <line x1="753.96776" y1="367.33000000000004" x2="757.96776" y2="359.33000000000004" stroke="#000000" stroke-width="0.8"/>
  <text x="633.0317600000001" y="376.33000000000004" text-anchor="middle" font-family="'Arial Narrow', Arial, sans-serif" font-size="10" fill="#000000">4000</text>
  <line x1="755.96776" y1="381.33000000000004" x2="755.96776" y2="361.33000000000004" stroke="#000000" stroke-width="0.35"/>
  <line x1="763.34392" y1="381.33000000000004" x2="763.34392" y2="361.33000000000004" stroke="#000000" stroke-width="0.35"/>
  <line x1="755.96776" y1="363.33000000000004" x2="763.34392" y2="363.33000000000004" stroke="#000000" stroke-width="0.5"/>
  <line x1="753.96776" y1="367.33000000000004" x2="757.96776" y2="359.33000000000004" stroke="#000000" stroke-width="0.8"/>
  <line x1="761.34392" y1="367.33000000000004" x2="765.34392" y2="359.33000000000004" stroke="#000000" stroke-width="0.8"/>
  <text x="759.65584" y="376.33000000000004" text-anchor="middle" font-family="'Arial Narrow', Arial, sans-serif" font-size="10" fill="#000000">120</text>
  <line x1="763.34392" y1="381.33000000000004" x2="763.34392" y2="361.33000000000004" stroke="#000000" stroke-width="0.35"/>
  <line x1="1009.21592" y1="381.33000000000004" x2="1009.21592" y2="361.33000000000004" stroke="#000000" stroke-width="0.35"/>
  <line x1="763.34392" y1="363.33000000000004" x2="1009.21592" y2="363.33000000000004" stroke="#000000" stroke-width="0.5"/>
  <line x1="761.34392" y1="367.33000000000004" x2="765.34392" y2="359.33000000000004" stroke="#000000" stroke-width="0.8"/>
  <line x1="1007.21592" y1="367.33000000000004" x2="1011.21592" y2="359.33000000000004" stroke="#000000" stroke-width="0.8"/>
  <text x="886.27992" y="376.33000000000004" text-anchor="middle" font-family="'Arial Narrow', Arial, sans-serif" font-size="10" fill="#000000">4000</text>
  <line x1="1009.21592" y1="381.33000000000004" x2="1009.21592" y2="361.33000000000004" stroke="#000000" stroke-width="0.35"/>
  <line x1="1016.59208" y1="381.33000000000004" x2="1016.59208" y2="361.33000000000004" stroke="#000000" stroke-width="0.35"/>
  <line x1="1009.21592" y1="363.33000000000004" x2="1016.59208" y2="363.33000000000004" stroke="#000000" stroke-width="0.5"/>
  <line x1="1007.21592" y1="367.33000000000004" x2="1011.21592" y2="359.33000000000004" stroke="#000000" stroke-width="0.8"/>
  <line x1="1014.59208" y1="367.33000000000004" x2="1018.59208" y2="359.33000000000004" stroke="#000000" stroke-width="0.8"/>
  <text x="1012.904" y="376.33000000000004" text-anchor="middle" font-family="'Arial Narrow', Arial, sans-serif" font-size="10" fill="#000000">120</text>
  <line x1="1016.59208" y1="381.33000000000004" x2="1016.59208" y2="361.33000000000004" stroke="#000000" stroke-width="0.35"/>
  <line x1="1237.8768799999998" y1="381.33000000000004" x2="1237.8768799999998" y2="361.33000000000004" stroke="#000000" stroke-width="0.35"/>
  <line x1="1016.59208" y1="363.33000000000004" x2="1237.8768799999998" y2="363.33000000000004" stroke="#000000" stroke-width="0.5"/>
  <line x1="1014.59208" y1="367.33000000000004" x2="1018.59208" y2="359.33000000000004" stroke="#000000" stroke-width="0.8"/>
  <line x1="1235.8768799999998" y1="367.33000000000004" x2="1239.8768799999998" y2="359.33000000000004" stroke="#000000" stroke-width="0.8"/>
  <text x="1127.2344799999998" y="376.33000000000004" text-anchor="middle" font-family="'Arial Narrow', Arial, sans-serif" font-size="10" fill="#000000">3600</text>
  <line x1="1237.8768799999998" y1="381.33000000000004" x2="1237.8768799999998" y2="361.33000000000004" stroke="#000000" stroke-width="0.35"/>
  <line x1="1245.25304" y1="381.33000000000004" x2="1245.25304" y2="361.33000000000004" stroke="#000000" stroke-width="0.35"/>
  <line x1="1237.8768799999998" y1="363.33000000000004" x2="1245.25304" y2="363.33000000000004" stroke="#000000" stroke-width="0.5"/>
  <line x1="1235.8768799999998" y1="367.33000000000004" x2="1239.8768799999998" y2="359.33000000000004" stroke="#000000" stroke-width="0.8"/>
  <line x1="1243.25304" y1="367.33000000000004" x2="1247.25304" y2="359.33000000000004" stroke="#000000" stroke-width="0.8"/>
  <text x="1241.56496" y="376.33000000000004" text-anchor="middle" font-family="'Arial Narrow', Arial, sans-serif" font-size="10" fill="#000000">120</text>
  <line x1="1245.25304" y1="381.33000000000004" x2="1245.25304" y2="361.33000000000004" stroke="#000000" stroke-width="0.35"/>
  <line x1="1430.8863999999999" y1="381.33000000000004" x2="1430.8863999999999" y2="361.33000000000004" stroke="#000000" stroke-width="0.35"/>
  <line x1="1245.25304" y1="363.33000000000004" x2="1430.8863999999999" y2="363.33000000000004" stroke="#000000" stroke-width="0.5"/>
  <line x1="1243.25304" y1="367.33000000000004" x2="1247.25304" y2="359.33000000000004" stroke="#000000" stroke-width="0.8"/>
  <line x1="1428.8863999999999" y1="367.33000000000004" x2="1432.8863999999999" y2="359.33000000000004" stroke="#000000" stroke-width="0.8"/>
  <text x="1338.06972" y="376.33000000000004" text-anchor="middle" font-family="'Arial Narrow', Arial, sans-serif" font-size="10" fill="#000000">3020</text>
  <line x1="1430.8863999999999" y1="381.33000000000004" x2="1430.8863999999999" y2="361.33000000000004" stroke="#000000" stroke-width="0.35"/>
  <line x1="1443.1799999999998" y1="381.33000000000004" x2="1443.1799999999998" y2="361.33000000000004" stroke="#000000" stroke-width="0.35"/>
  <line x1="1430.8863999999999" y1="363.33000000000004" x2="1443.1799999999998" y2="363.33000000000004" stroke="#000000" stroke-width="0.5"/>
  <line x1="1428.8863999999999" y1="367.33000000000004" x2="1432.8863999999999" y2="359.33000000000004" stroke="#000000" stroke-width="0.8"/>
  <line x1="1441.1799999999998" y1="367.33000000000004" x2="1445.1799999999998" y2="359.33000000000004" stroke="#000000" stroke-width="0.8"/>
  <text x="1437.0331999999999" y="376.33000000000004" text-anchor="middle" font-family="'Arial Narrow', Arial, sans-serif" font-size="10" fill="#000000">200</text>
  <line x1="213.82000000000005" y1="381.33000000000004" x2="213.82000000000005" y2="339.33000000000004" stroke="#000000" stroke-width="0.35"/>
  <line x1="226.11360000000005" y1="381.33000000000004" x2="226.11360000000005" y2="339.33000000000004" stroke="#000000" stroke-width="0.35"/>
  <line x1="213.82000000000005" y1="341.33000000000004" x2="226.11360000000005" y2="341.33000000000004" stroke="#000000" stroke-width="0.5"/>
  <line x1="211.82000000000005" y1="345.33000000000004" x2="215.82000000000005" y2="337.33000000000004" stroke="#000000" stroke-width="0.8"/>
  <line x1="224.11360000000005" y1="345.33000000000004" x2="228.11360000000005" y2="337.33000000000004" stroke="#000000" stroke-width="0.8"/>
  <text x="219.96680000000003" y="354.33000000000004" text-anchor="middle" font-family="'Arial Narrow', Arial, sans-serif" font-size="10" fill="#000000">200</text>
  <line x1="226.11360000000005" y1="381.33000000000004" x2="226.11360000000005" y2="339.33000000000004" stroke="#000000" stroke-width="0.35"/>
  <line x1="510.09576000000004" y1="381.33000000000004" x2="510.09576000000004" y2="339.33000000000004" stroke="#000000" stroke-width="0.35"/>
  <line x1="226.11360000000005" y1="341.33000000000004" x2="510.09576000000004" y2="341.33000000000004" stroke="#000000" stroke-width="0.5"/>
  <line x1="224.11360000000005" y1="345.33000000000004" x2="228.11360000000005" y2="337.33000000000004" stroke="#000000" stroke-width="0.8"/>
  <line x1="508.09576000000004" y1="345.33000000000004" x2="512.09576" y2="337.33000000000004" stroke="#000000" stroke-width="0.8"/>
  <text x="368.10468000000003" y="354.33000000000004" text-anchor="middle" font-family="'Arial Narrow', Arial, sans-serif" font-size="10" fill="#000000">4620</text>
  <line x1="510.09576000000004" y1="381.33000000000004" x2="510.09576000000004" y2="339.33000000000004" stroke="#000000" stroke-width="0.35"/>
  <line x1="763.34392" y1="381.33000000000004" x2="763.34392" y2="339.33000000000004" stroke="#000000" stroke-width="0.35"/>
  <line x1="510.09576000000004" y1="341.33000000000004" x2="763.34392" y2="341.33000000000004" stroke="#000000" stroke-width="0.5"/>
  <line x1="508.09576000000004" y1="345.33000000000004" x2="512.09576" y2="337.33000000000004" stroke="#000000" stroke-width="0.8"/>
  <line x1="761.34392" y1="345.33000000000004" x2="765.34392" y2="337.33000000000004" stroke="#000000" stroke-width="0.8"/>
  <text x="636.71984" y="354.33000000000004" text-anchor="middle" font-family="'Arial Narrow', Arial, sans-serif" font-size="10" fill="#000000">4120</text>
  <line x1="763.34392" y1="381.33000000000004" x2="763.34392" y2="339.33000000000004" stroke="#000000" stroke-width="0.35"/>
  <line x1="1016.59208" y1="381.33000000000004" x2="1016.59208" y2="339.33000000000004" stroke="#000000" stroke-width="0.35"/>
  <line x1="763.34392" y1="341.33000000000004" x2="1016.59208" y2="341.33000000000004" stroke="#000000" stroke-width="0.5"/>
  <line x1="761.34392" y1="345.33000000000004" x2="765.34392" y2="337.33000000000004" stroke="#000000" stroke-width="0.8"/>
  <line x1="1014.59208" y1="345.33000000000004" x2="1018.59208" y2="337.33000000000004" stroke="#000000" stroke-width="0.8"/>
  <text x="889.9680000000001" y="354.33000000000004" text-anchor="middle" font-family="'Arial Narrow', Arial, sans-serif" font-size="10" fill="#000000">4120</text>
  <line x1="1016.59208" y1="381.33000000000004" x2="1016.59208" y2="339.33000000000004" stroke="#000000" stroke-width="0.35"/>
  <line x1="1245.25304" y1="381.33000000000004" x2="1245.25304" y2="339.33000000000004" stroke="#000000" stroke-width="0.35"/>
  <line x1="1016.59208" y1="341.33000000000004" x2="1245.25304" y2="341.33000000000004" stroke="#000000" stroke-width="0.5"/>
  <line x1="1014.59208" y1="345.33000000000004" x2="1018.59208" y2="337.33000000000004" stroke="#000000" stroke-width="0.8"/>
  <line x1="1243.25304" y1="345.33000000000004" x2="1247.25304" y2="337.33000000000004" stroke="#000000" stroke-width="0.8"/>
  <text x="1130.92256" y="354.33000000000004" text-anchor="middle" font-family="'Arial Narrow', Arial, sans-serif" font-size="10" fill="#000000">3720</text>
  <line x1="1245.25304" y1="381.33000000000004" x2="1245.25304" y2="339.33000000000004" stroke="#000000" stroke-width="0.35"/>
  <line x1="1443.1799999999998" y1="381.33000000000004" x2="1443.1799999999998" y2="339.33000000000004" stroke="#000000" stroke-width="0.35"/>
  <line x1="1245.25304" y1="341.33000000000004" x2="1443.1799999999998" y2="341.33000000000004" stroke="#000000" stroke-width="0.5"/>
  <line x1="1243.25304" y1="345.33000000000004" x2="1247.25304" y2="337.33000000000004" stroke="#000000" stroke-width="0.8"/>
  <line x1="1441.1799999999998" y1="345.33000000000004" x2="1445.1799999999998" y2="337.33000000000004" stroke="#000000" stroke-width="0.8"/>
  <text x="1344.21652" y="354.33000000000004" text-anchor="middle" font-family="'Arial Narrow', Arial, sans-serif" font-size="10" fill="#000000">3220</text>
  <line x1="213.82000000000005" y1="381.33000000000004" x2="213.82000000000005" y2="317.33000000000004" stroke="#000000" stroke-width="0.35"/>
  <line x1="1443.1799999999998" y1="381.33000000000004" x2="1443.1799999999998" y2="317.33000000000004" stroke="#000000" stroke-width="0.35"/>
  <line x1="213.82000000000005" y1="319.33000000000004" x2="1443.1799999999998" y2="319.33000000000004" stroke="#000000" stroke-width="0.5"/>
  <line x1="211.82000000000005" y1="323.33000000000004" x2="215.82000000000005" y2="315.33000000000004" stroke="#000000" stroke-width="0.8"/>
  <line x1="1441.1799999999998" y1="323.33000000000004" x2="1445.1799999999998" y2="315.33000000000004" stroke="#000000" stroke-width="0.8"/>
  <text x="828.5" y="332.33000000000004" text-anchor="middle" font-family="'Arial Narrow', Arial, sans-serif" font-size="10" fill="#000000">20000</text>
  <line x1="141.82000000000005" y1="537" x2="1515.1799999999998" y2="537" stroke="#000" stroke-width="0.8" stroke-dasharray="12 3 3 3"/>
  <circle cx="141.82000000000005" cy="537" r="10" fill="white" stroke="#000" stroke-width="1"/>
  <text x="141.82000000000005" y="541" text-anchor="middle" font-family="'Arial Narrow', Arial, sans-serif" font-size="10" fill="#000" font-weight="bold">A</text>
  <circle cx="1515.1799999999998" cy="537" r="10" fill="white" stroke="#000" stroke-width="1"/>
  <text x="1515.1799999999998" y="541" text-anchor="middle" font-family="'Arial Narrow', Arial, sans-serif" font-size="10" fill="#000" font-weight="bold">A</text>
  <path d="M 127.82000000000005 534 L 127.82000000000005 540 L 130.82000000000005 537 Z" fill="#000" stroke="none"/>
  <path d="M 1529.1799999999998 534 L 1529.1799999999998 540 L 1526.1799999999998 537 Z" fill="#000" stroke="none"/>
  <text x="828.5" y="1100" text-anchor="middle" font-family="'Arial Narrow', Arial, sans-serif" font-size="18" fill="#000000" font-weight="bold" letter-spacing="2">MẶT BẰNG LẦU 1</text>
  <text x="828.5" y="1116" text-anchor="middle" font-family="'Arial Narrow', Arial, sans-serif" font-size="13" fill="#000000">TL: 1/61 (xoay 90°)</text>
  <text x="8" y="1120" font-family="'Arial Narrow', Arial, sans-serif" font-size="7" fill="#888888">⚠ Tầng 1: Hố thang "Cầu thang" (1.2×2.5m) hơi nhỏ cho thang U-shape — khuyến nghị ≥2.1×3.5m. | Tầng 1: Nhà phố hẹp (5m × 20m, 1 mặt tiền) — nên thêm giếng trời ≥1.2×2m ở giữa hoặc cuối nhà để thông gió + lấy sáng.</text>
</svg>