<?xml version="1.0" encoding="UTF-8"?>
<svg xmlns="http://www.w3.org/2000/svg" width="760" height="1480" viewBox="0 0 760 1480">
  <defs>
    <marker id="arrowDim" markerWidth="6" markerHeight="6" refX="3" refY="3" orient="auto">
      <path d="M0,0 L6,3 L0,6 Z" fill="#0066CC"/>
    </marker>
  </defs>
  <rect width="760" height="1480" fill="white"/>
  <!-- Floor plan: TẦNG TRỆT | 5m x 20m | BMT Decor -->
  <line x1="140" y1="120" x2="140" y2="1360" stroke="#CCC" stroke-width="0.5" stroke-dasharray="4 6"/>
  <circle cx="140" cy="120" r="10" fill="white" stroke="#888" stroke-width="0.8"/>
  <text x="140" y="124" text-anchor="middle" font-family="Arial, sans-serif" font-size="9" fill="#555">1</text>
  <line x1="200" y1="120" x2="200" y2="1360" stroke="#CCC" stroke-width="0.5" stroke-dasharray="4 6"/>
  <circle cx="200" cy="120" r="10" fill="white" stroke="#888" stroke-width="0.8"/>
  <text x="200" y="124" text-anchor="middle" font-family="Arial, sans-serif" font-size="9" fill="#555">2</text>
  <line x1="260" y1="120" x2="260" y2="1360" stroke="#CCC" stroke-width="0.5" stroke-dasharray="4 6"/>
  <circle cx="260" cy="120" r="10" fill="white" stroke="#888" stroke-width="0.8"/>
  <text x="260" y="124" text-anchor="middle" font-family="Arial, sans-serif" font-size="9" fill="#555">3</text>
  <line x1="320" y1="120" x2="320" y2="1360" stroke="#CCC" stroke-width="0.5" stroke-dasharray="4 6"/>
  <circle cx="320" cy="120" r="10" fill="white" stroke="#888" stroke-width="0.8"/>
  <text x="320" y="124" text-anchor="middle" font-family="Arial, sans-serif" font-size="9" fill="#555">4</text>
  <line x1="380" y1="120" x2="380" y2="1360" stroke="#CCC" stroke-width="0.5" stroke-dasharray="4 6"/>
  <circle cx="380" cy="120" r="10" fill="white" stroke="#888" stroke-width="0.8"/>
  <text x="380" y="124" text-anchor="middle" font-family="Arial, sans-serif" font-size="9" fill="#555">5</text>
  <line x1="440" y1="120" x2="440" y2="1360" stroke="#CCC" stroke-width="0.5" stroke-dasharray="4 6"/>
  <circle cx="440" cy="120" r="10" fill="white" stroke="#888" stroke-width="0.8"/>
  <text x="440" y="124" text-anchor="middle" font-family="Arial, sans-serif" font-size="9" fill="#555">6</text>
  <line x1="120" y1="140" x2="460" y2="140" stroke="#CCC" stroke-width="0.5" stroke-dasharray="4 6"/>
  <circle cx="120" cy="140" r="10" fill="white" stroke="#888" stroke-width="0.8"/>
  <text x="120" y="144" text-anchor="middle" font-family="Arial, sans-serif" font-size="9" fill="#555">A</text>
  <line x1="120" y1="200" x2="460" y2="200" stroke="#CCC" stroke-width="0.5" stroke-dasharray="4 6"/>
  <circle cx="120" cy="200" r="10" fill="white" stroke="#888" stroke-width="0.8"/>
  <text x="120" y="204" text-anchor="middle" font-family="Arial, sans-serif" font-size="9" fill="#555">B</text>
  <line x1="120" y1="260" x2="460" y2="260" stroke="#CCC" stroke-width="0.5" stroke-dasharray="4 6"/>
  <circle cx="120" cy="260" r="10" fill="white" stroke="#888" stroke-width="0.8"/>
  <text x="120" y="264" text-anchor="middle" font-family="Arial, sans-serif" font-size="9" fill="#555">C</text>
  <line x1="120" y1="320" x2="460" y2="320" stroke="#CCC" stroke-width="0.5" stroke-dasharray="4 6"/>
  <circle cx="120" cy="320" r="10" fill="white" stroke="#888" stroke-width="0.8"/>
  <text x="120" y="324" text-anchor="middle" font-family="Arial, sans-serif" font-size="9" fill="#555">D</text>
  <line x1="120" y1="380" x2="460" y2="380" stroke="#CCC" stroke-width="0.5" stroke-dasharray="4 6"/>
  <circle cx="120" cy="380" r="10" fill="white" stroke="#888" stroke-width="0.8"/>
  <text x="120" y="384" text-anchor="middle" font-family="Arial, sans-serif" font-size="9" fill="#555">E</text>
  <line x1="120" y1="440" x2="460" y2="440" stroke="#CCC" stroke-width="0.5" stroke-dasharray="4 6"/>
  <circle cx="120" cy="440" r="10" fill="white" stroke="#888" stroke-width="0.8"/>
  <text x="120" y="444" text-anchor="middle" font-family="Arial, sans-serif" font-size="9" fill="#555">F</text>
  <line x1="120" y1="500" x2="460" y2="500" stroke="#CCC" stroke-width="0.5" stroke-dasharray="4 6"/>
  <circle cx="120" cy="500" r="10" fill="white" stroke="#888" stroke-width="0.8"/>
  <text x="120" y="504" text-anchor="middle" font-family="Arial, sans-serif" font-size="9" fill="#555">G</text>
  <line x1="120" y1="560" x2="460" y2="560" stroke="#CCC" stroke-width="0.5" stroke-dasharray="4 6"/>
  <circle cx="120" cy="560" r="10" fill="white" stroke="#888" stroke-width="0.8"/>
  <text x="120" y="564" text-anchor="middle" font-family="Arial, sans-serif" font-size="9" fill="#555">H</text>
  <line x1="120" y1="620" x2="460" y2="620" stroke="#CCC" stroke-width="0.5" stroke-dasharray="4 6"/>
  <circle cx="120" cy="620" r="10" fill="white" stroke="#888" stroke-width="0.8"/>
  <text x="120" y="624" text-anchor="middle" font-family="Arial, sans-serif" font-size="9" fill="#555">I</text>
  <line x1="120" y1="680" x2="460" y2="680" stroke="#CCC" stroke-width="0.5" stroke-dasharray="4 6"/>
  <circle cx="120" cy="680" r="10" fill="white" stroke="#888" stroke-width="0.8"/>
  <text x="120" y="684" text-anchor="middle" font-family="Arial, sans-serif" font-size="9" fill="#555">J</text>
  <line x1="120" y1="740" x2="460" y2="740" stroke="#CCC" stroke-width="0.5" stroke-dasharray="4 6"/>
  <circle cx="120" cy="740" r="10" fill="white" stroke="#888" stroke-width="0.8"/>
  <text x="120" y="744" text-anchor="middle" font-family="Arial, sans-serif" font-size="9" fill="#555">K</text>
  <line x1="120" y1="800" x2="460" y2="800" stroke="#CCC" stroke-width="0.5" stroke-dasharray="4 6"/>
  <circle cx="120" cy="800" r="10" fill="white" stroke="#888" stroke-width="0.8"/>
  <text x="120" y="804" text-anchor="middle" font-family="Arial, sans-serif" font-size="9" fill="#555">L</text>
  <line x1="120" y1="860" x2="460" y2="860" stroke="#CCC" stroke-width="0.5" stroke-dasharray="4 6"/>
  <circle cx="120" cy="860" r="10" fill="white" stroke="#888" stroke-width="0.8"/>
  <text x="120" y="864" text-anchor="middle" font-family="Arial, sans-serif" font-size="9" fill="#555">M</text>
  <line x1="120" y1="920" x2="460" y2="920" stroke="#CCC" stroke-width="0.5" stroke-dasharray="4 6"/>
  <circle cx="120" cy="920" r="10" fill="white" stroke="#888" stroke-width="0.8"/>
  <text x="120" y="924" text-anchor="middle" font-family="Arial, sans-serif" font-size="9" fill="#555">N</text>
  <line x1="120" y1="980" x2="460" y2="980" stroke="#CCC" stroke-width="0.5" stroke-dasharray="4 6"/>
  <circle cx="120" cy="980" r="10" fill="white" stroke="#888" stroke-width="0.8"/>
  <text x="120" y="984" text-anchor="middle" font-family="Arial, sans-serif" font-size="9" fill="#555">O</text>
  <line x1="120" y1="1040" x2="460" y2="1040" stroke="#CCC" stroke-width="0.5" stroke-dasharray="4 6"/>
  <circle cx="120" cy="1040" r="10" fill="white" stroke="#888" stroke-width="0.8"/>
  <text x="120" y="1044" text-anchor="middle" font-family="Arial, sans-serif" font-size="9" fill="#555">P</text>
  <line x1="120" y1="1100" x2="460" y2="1100" stroke="#CCC" stroke-width="0.5" stroke-dasharray="4 6"/>
  <circle cx="120" cy="1100" r="10" fill="white" stroke="#888" stroke-width="0.8"/>
  <text x="120" y="1104" text-anchor="middle" font-family="Arial, sans-serif" font-size="9" fill="#555">Q</text>
  <line x1="120" y1="1160" x2="460" y2="1160" stroke="#CCC" stroke-width="0.5" stroke-dasharray="4 6"/>
  <circle cx="120" cy="1160" r="10" fill="white" stroke="#888" stroke-width="0.8"/>
  <text x="120" y="1164" text-anchor="middle" font-family="Arial, sans-serif" font-size="9" fill="#555">R</text>
  <line x1="120" y1="1220" x2="460" y2="1220" stroke="#CCC" stroke-width="0.5" stroke-dasharray="4 6"/>
  <circle cx="120" cy="1220" r="10" fill="white" stroke="#888" stroke-width="0.8"/>
  <text x="120" y="1224" text-anchor="middle" font-family="Arial, sans-serif" font-size="9" fill="#555">S</text>
  <line x1="120" y1="1280" x2="460" y2="1280" stroke="#CCC" stroke-width="0.5" stroke-dasharray="4 6"/>
  <circle cx="120" cy="1280" r="10" fill="white" stroke="#888" stroke-width="0.8"/>
  <text x="120" y="1284" text-anchor="middle" font-family="Arial, sans-serif" font-size="9" fill="#555">T</text>
  <line x1="120" y1="1340" x2="460" y2="1340" stroke="#CCC" stroke-width="0.5" stroke-dasharray="4 6"/>
  <circle cx="120" cy="1340" r="10" fill="white" stroke="#888" stroke-width="0.8"/>
  <text x="120" y="1344" text-anchor="middle" font-family="Arial, sans-serif" font-size="9" fill="#555">U</text>
  <line x1="140" y1="212" x2="440" y2="212" stroke="#F44336" stroke-width="1" stroke-dasharray="8 4"/>
  <text x="445" y="216" font-family="Arial, sans-serif" font-size="7.5" fill="#F44336">KL 1.2m</text>
  <rect x="140" y="140" width="300" height="360" fill="#FFF9F0" stroke="#222" stroke-width="1.5"/>
  <text x="290" y="312" text-anchor="middle" font-family="Arial, sans-serif" font-size="9" fill="#333" font-weight="bold">Phòng khách</text>
  <text x="290" y="328" text-anchor="middle" font-family="Arial, sans-serif" font-size="8" fill="#555">5.0×6.0m</text>
  <text x="290" y="340" text-anchor="middle" font-family="Arial, sans-serif" font-size="7.5" fill="#777">S=30.0m²</text>
  <rect x="449" y="140" width="-9" height="300" fill="#F0FFF4" stroke="#222" stroke-width="1.5"/>
  <text x="444.5" y="282" text-anchor="middle" font-family="Arial, sans-serif" font-size="9" fill="#333" font-weight="bold">Phòng bếp + Ăn</text>
  <text x="444.5" y="298" text-anchor="middle" font-family="Arial, sans-serif" font-size="8" fill="#555">-0.1×5.0m</text>
  <text x="444.5" y="310" text-anchor="middle" font-family="Arial, sans-serif" font-size="7.5" fill="#777">S=-0.8m²</text>
  <rect x="449" y="140" width="-9" height="120" fill="#F5F0FF" stroke="#222" stroke-width="1.5"/>
  <text x="444.5" y="192" text-anchor="middle" font-family="Arial, sans-serif" font-size="9" fill="#333" font-weight="bold">Phòng vệ sinh</text>
  <text x="444.5" y="208" text-anchor="middle" font-family="Arial, sans-serif" font-size="8" fill="#555">-0.1×2.0m</text>
  <text x="444.5" y="220" text-anchor="middle" font-family="Arial, sans-serif" font-size="7.5" fill="#777">S=-0.3m²</text>
  <rect x="449" y="140" width="-9" height="120" fill="#FAFAFA" stroke="#222" stroke-width="1.5"/>
  <text x="444.5" y="192" text-anchor="middle" font-family="Arial, sans-serif" font-size="9" fill="#333" font-weight="bold">Sân sau</text>
  <text x="444.5" y="208" text-anchor="middle" font-family="Arial, sans-serif" font-size="8" fill="#555">-0.1×2.0m</text>
  <text x="444.5" y="220" text-anchor="middle" font-family="Arial, sans-serif" font-size="7.5" fill="#777">S=-0.3m²</text>
  <line x1="140" y1="140" x2="440" y2="140" stroke="#111" stroke-width="3" stroke-linecap="square"/>
  <line x1="140" y1="1340" x2="440" y2="1340" stroke="#111" stroke-width="3" stroke-linecap="square"/>
  <line x1="140" y1="140" x2="140" y2="1340" stroke="#111" stroke-width="3" stroke-linecap="square"/>
  <line x1="440" y1="140" x2="440" y2="1340" stroke="#111" stroke-width="3" stroke-linecap="square"/>
  <line x1="440" y1="140" x2="440" y2="440" stroke="#444" stroke-width="1.5" stroke-linecap="square"/>
  <line x1="440" y1="140" x2="440" y2="260" stroke="#444" stroke-width="1.5" stroke-linecap="square"/>
  <line x1="440" y1="140" x2="440" y2="260" stroke="#444" stroke-width="1.5" stroke-linecap="square"/>
  <line x1="440" y1="140" x2="440" y2="260" stroke="#444" stroke-width="1.5" stroke-linecap="square"/>
  <line x1="440" y1="140" x2="440" y2="260" stroke="#444" stroke-width="1.5" stroke-linecap="square"/>
  <line x1="440" y1="140" x2="440" y2="260" stroke="#444" stroke-width="1.5" stroke-linecap="square"/>
  <line x1="260" y1="140" x2="320" y2="140" stroke="#fff" stroke-width="4"/>
  <line x1="260" y1="140" x2="320" y2="140" stroke="#E91E63" stroke-width="2" stroke-dasharray="none"/>
  <path d="M 260 140 A 60 60 0 0 1 320 200" fill="none" stroke="#E91E63" stroke-width="1" stroke-dasharray="4 2"/>
  <line x1="440" y1="266" x2="488" y2="266" stroke="#fff" stroke-width="4"/>
  <line x1="440" y1="266" x2="488" y2="266" stroke="#E91E63" stroke-width="2" stroke-dasharray="none"/>
  <path d="M 440 266 A 48 48 0 0 1 488 314" fill="none" stroke="#E91E63" stroke-width="1" stroke-dasharray="4 2"/>
  <line x1="440" y1="176" x2="488" y2="176" stroke="#fff" stroke-width="4"/>
  <line x1="440" y1="176" x2="488" y2="176" stroke="#E91E63" stroke-width="2" stroke-dasharray="none"/>
  <path d="M 488 176 A 48 48 0 0 0 440 224" fill="none" stroke="#E91E63" stroke-width="1" stroke-dasharray="4 2"/>
  <line x1="245" y1="137" x2="335" y2="137" stroke="#1976D2" stroke-width="3"/>
  <line x1="245" y1="143" x2="335" y2="143" stroke="#1976D2" stroke-width="3"/>
  <line x1="446.6" y1="137" x2="442.40000000000003" y2="137" stroke="#1976D2" stroke-width="3"/>
  <line x1="446.6" y1="143" x2="442.40000000000003" y2="143" stroke="#1976D2" stroke-width="3"/>
  <line x1="446.6" y1="137" x2="442.40000000000003" y2="137" stroke="#1976D2" stroke-width="3"/>
  <line x1="446.6" y1="143" x2="442.40000000000003" y2="143" stroke="#1976D2" stroke-width="3"/>
  <line x1="140" y1="1340" x2="140" y2="1370" stroke="#0066CC" stroke-width="0.5" stroke-dasharray="2 2"/>
  <line x1="440" y1="1340" x2="440" y2="1370" stroke="#0066CC" stroke-width="0.5" stroke-dasharray="2 2"/>
  <line x1="140" y1="1370" x2="440" y2="1370" stroke="#0066CC" stroke-width="0.8" marker-start="url(#arrowDim)" marker-end="url(#arrowDim)"/>
  <text x="290" y="1366" text-anchor="middle" font-family="Arial, sans-serif" font-size="8" fill="#0066CC">5.00m</text>
  <line x1="440" y1="1340" x2="440" y2="1370" stroke="#0066CC" stroke-width="0.5" stroke-dasharray="2 2"/>
  <line x1="449" y1="1340" x2="449" y2="1370" stroke="#0066CC" stroke-width="0.5" stroke-dasharray="2 2"/>
  <line x1="440" y1="1370" x2="449" y2="1370" stroke="#0066CC" stroke-width="0.8" marker-start="url(#arrowDim)" marker-end="url(#arrowDim)"/>
  <text x="444.5" y="1366" text-anchor="middle" font-family="Arial, sans-serif" font-size="8" fill="#0066CC">0.15m</text>
  <line x1="449" y1="1340" x2="449" y2="1370" stroke="#0066CC" stroke-width="0.5" stroke-dasharray="2 2"/>
  <line x1="440" y1="1340" x2="440" y2="1370" stroke="#0066CC" stroke-width="0.5" stroke-dasharray="2 2"/>
  <line x1="449" y1="1370" x2="440" y2="1370" stroke="#0066CC" stroke-width="0.8" marker-start="url(#arrowDim)" marker-end="url(#arrowDim)"/>
  <text x="444.5" y="1366" text-anchor="middle" font-family="Arial, sans-serif" font-size="8" fill="#0066CC">-0.15m</text>
  <line x1="440" y1="1340" x2="440" y2="1370" stroke="#0066CC" stroke-width="0.5" stroke-dasharray="2 2"/>
  <line x1="449" y1="1340" x2="449" y2="1370" stroke="#0066CC" stroke-width="0.5" stroke-dasharray="2 2"/>
  <line x1="440" y1="1370" x2="449" y2="1370" stroke="#0066CC" stroke-width="0.8" marker-start="url(#arrowDim)" marker-end="url(#arrowDim)"/>
  <text x="444.5" y="1366" text-anchor="middle" font-family="Arial, sans-serif" font-size="8" fill="#0066CC">0.15m</text>
  <line x1="449" y1="1340" x2="449" y2="1370" stroke="#0066CC" stroke-width="0.5" stroke-dasharray="2 2"/>
  <line x1="440" y1="1340" x2="440" y2="1370" stroke="#0066CC" stroke-width="0.5" stroke-dasharray="2 2"/>
  <line x1="449" y1="1370" x2="440" y2="1370" stroke="#0066CC" stroke-width="0.8" marker-start="url(#arrowDim)" marker-end="url(#arrowDim)"/>
  <text x="444.5" y="1366" text-anchor="middle" font-family="Arial, sans-serif" font-size="8" fill="#0066CC">-0.15m</text>
  <line x1="440" y1="1340" x2="440" y2="1370" stroke="#0066CC" stroke-width="0.5" stroke-dasharray="2 2"/>
  <line x1="449" y1="1340" x2="449" y2="1370" stroke="#0066CC" stroke-width="0.5" stroke-dasharray="2 2"/>
  <line x1="440" y1="1370" x2="449" y2="1370" stroke="#0066CC" stroke-width="0.8" marker-start="url(#arrowDim)" marker-end="url(#arrowDim)"/>
  <text x="444.5" y="1366" text-anchor="middle" font-family="Arial, sans-serif" font-size="8" fill="#0066CC">0.15m</text>
  <line x1="449" y1="1340" x2="449" y2="1370" stroke="#0066CC" stroke-width="0.5" stroke-dasharray="2 2"/>
  <line x1="440" y1="1340" x2="440" y2="1370" stroke="#0066CC" stroke-width="0.5" stroke-dasharray="2 2"/>
  <line x1="449" y1="1370" x2="440" y2="1370" stroke="#0066CC" stroke-width="0.8" marker-start="url(#arrowDim)" marker-end="url(#arrowDim)"/>
  <text x="444.5" y="1366" text-anchor="middle" font-family="Arial, sans-serif" font-size="8" fill="#0066CC">-0.15m</text>
  <line x1="140" y1="1340" x2="140" y2="1398" stroke="#0066CC" stroke-width="0.5" stroke-dasharray="2 2"/>
  <line x1="440" y1="1340" x2="440" y2="1398" stroke="#0066CC" stroke-width="0.5" stroke-dasharray="2 2"/>
  <line x1="140" y1="1398" x2="440" y2="1398" stroke="#0066CC" stroke-width="0.8" marker-start="url(#arrowDim)" marker-end="url(#arrowDim)"/>
  <text x="290" y="1394" text-anchor="middle" font-family="Arial, sans-serif" font-size="8" fill="#0066CC">5.00m (Tổng)</text>
  <line x1="140" y1="140" x2="110" y2="140" stroke="#0066CC" stroke-width="0.5" stroke-dasharray="2 2"/>
  <line x1="140" y1="500" x2="110" y2="500" stroke="#0066CC" stroke-width="0.5" stroke-dasharray="2 2"/>
  <line x1="110" y1="140" x2="110" y2="500" stroke="#0066CC" stroke-width="0.8" marker-start="url(#arrowDim)" marker-end="url(#arrowDim)"/>
  <text x="104" y="320" text-anchor="middle" font-family="Arial, sans-serif" font-size="8" fill="#0066CC" transform="rotate(-90, 104, 320)">6.00m</text>
  <line x1="140" y1="500" x2="110" y2="500" stroke="#0066CC" stroke-width="0.5" stroke-dasharray="2 2"/>
  <line x1="140" y1="1340" x2="110" y2="1340" stroke="#0066CC" stroke-width="0.5" stroke-dasharray="2 2"/>
  <line x1="110" y1="500" x2="110" y2="1340" stroke="#0066CC" stroke-width="0.8" marker-start="url(#arrowDim)" marker-end="url(#arrowDim)"/>
  <text x="104" y="920" text-anchor="middle" font-family="Arial, sans-serif" font-size="8" fill="#0066CC" transform="rotate(-90, 104, 920)">14.00m</text>
  <line x1="140" y1="140" x2="82" y2="140" stroke="#0066CC" stroke-width="0.5" stroke-dasharray="2 2"/>
  <line x1="140" y1="1340" x2="82" y2="1340" stroke="#0066CC" stroke-width="0.5" stroke-dasharray="2 2"/>
  <line x1="82" y1="140" x2="82" y2="1340" stroke="#0066CC" stroke-width="0.8" marker-start="url(#arrowDim)" marker-end="url(#arrowDim)"/>
  <text x="76" y="740" text-anchor="middle" font-family="Arial, sans-serif" font-size="8" fill="#0066CC" transform="rotate(-90, 76, 740)">20.00m (Tổng)</text>
  <rect x="450" y="20" width="160" height="1440" fill="white" stroke="#333" stroke-width="1"/>
  <rect x="450" y="20" width="160" height="40" fill="#1A237E"/>
  <text x="530" y="45" text-anchor="middle" font-family="Arial, sans-serif" font-size="12" fill="white" font-weight="bold">BMT DECOR</text>
  <text x="530" y="58" text-anchor="middle" font-family="Arial, sans-serif" font-size="7" fill="#90CAF9">thicongtramsac.vn</text>
  <text x="530" y="82" text-anchor="middle" font-family="Arial, sans-serif" font-size="10" fill="#1A237E" font-weight="bold">TẦNG TRỆT</text>
  <line x1="450" y1="92" x2="610" y2="92" stroke="#CCC" stroke-width="0.5"/>
  <text x="458" y="105" font-family="Arial, sans-serif" font-size="7.5" fill="#777">ĐƠN VỊ</text>
  <text x="458" y="117" font-family="Arial, sans-serif" font-size="9" fill="#222" font-weight="bold">BMT DECOR</text>
  <line x1="450" y1="123" x2="610" y2="123" stroke="#EEE" stroke-width="0.5"/>
  <text x="458" y="133" font-family="Arial, sans-serif" font-size="7.5" fill="#777">GIÁM ĐỐC</text>
  <text x="458" y="145" font-family="Arial, sans-serif" font-size="9" fill="#222" font-weight="bold">Võ Quốc Bảo</text>
  <line x1="450" y1="151" x2="610" y2="151" stroke="#EEE" stroke-width="0.5"/>
  <text x="458" y="161" font-family="Arial, sans-serif" font-size="7.5" fill="#777">TỈ LỆ</text>
  <text x="458" y="173" font-family="Arial, sans-serif" font-size="9" fill="#222" font-weight="bold">1/100</text>
  <line x1="450" y1="179" x2="610" y2="179" stroke="#EEE" stroke-width="0.5"/>
  <text x="458" y="189" font-family="Arial, sans-serif" font-size="7.5" fill="#777">KHU ĐẤT</text>
  <text x="458" y="201" font-family="Arial, sans-serif" font-size="9" fill="#222" font-weight="bold">5×20m</text>
  <line x1="450" y1="207" x2="610" y2="207" stroke="#EEE" stroke-width="0.5"/>
  <text x="458" y="217" font-family="Arial, sans-serif" font-size="7.5" fill="#777">DIỆN TÍCH</text>
  <text x="458" y="229" font-family="Arial, sans-serif" font-size="9" fill="#222" font-weight="bold">28.6 m²</text>
  <line x1="450" y1="235" x2="610" y2="235" stroke="#EEE" stroke-width="0.5"/>
  <text x="530" y="1450" text-anchor="middle" font-family="Arial, sans-serif" font-size="7" fill="#999">7/92 Thành Thái, Q.10, TP.HCM</text>
  <text x="530" y="1462" text-anchor="middle" font-family="Arial, sans-serif" font-size="7" fill="#BBB">Bản vẽ: KT-0T</text>
  <text x="290" y="1470" text-anchor="middle" font-family="Arial, sans-serif" font-size="9" fill="#555">MẶT BẰNG TẦNG TRỆT  –  TỈ LỆ 1:100  –  BMT DECOR</text>
  <rect x="140" y="140" width="300" height="1200" fill="none" stroke="#111" stroke-width="2"/>
</svg>