<?xml version="1.0" encoding="UTF-8"?>
<svg xmlns="http://www.w3.org/2000/svg" width="420mm" height="297mm" viewBox="0 0 1587 1122" preserveAspectRatio="xMidYMid meet">
  <defs>
  <!-- Tường ngoài: gạch chéo đôi (cross-hatch) — chuẩn CAD kiến trúc -->
  <pattern id="hatch-ext" patternUnits="userSpaceOnUse" width="5" height="5">
    <line x1="0" y1="0" x2="5" y2="5" stroke="#000" stroke-width="0.6"/>
    <line x1="5" y1="0" x2="0" y2="5" stroke="#000" stroke-width="0.6"/>
  </pattern>
  <!-- Tường trong: gạch chéo đơn — mảnh hơn -->
  <pattern id="hatch-int" patternUnits="userSpaceOnUse" width="4" height="4">
    <line x1="0" y1="0" x2="4" y2="4" stroke="#555" stroke-width="0.4"/>
  </pattern>
  <!-- Tường tô đặc (cho cột / tường chịu lực) -->
  <pattern id="hatch-solid" patternUnits="userSpaceOnUse" width="3" height="3">
    <rect width="3" height="3" fill="#333"/>
  </pattern>
</defs>
  <rect width="1587" height="1122" fill="white"/>
  <!-- TẦNG TRỆT | 7m×20m | Scale 1/61 | A3 landscape | BMT Decor -->
  <line x1="213.82000000000005" y1="281.862" x2="213.82000000000005" y2="792.1379999999999" stroke="#999999" stroke-width="0.4" stroke-dasharray="8 4 2 4"/>
  <circle cx="213.82000000000005" cy="792.1379999999999" r="14" fill="white" stroke="#000000" stroke-width="1.2"/>
  <text x="213.82000000000005" y="797.1379999999999" text-anchor="middle" font-family="'Arial Narrow', Arial, sans-serif" font-size="13" fill="#000000" font-weight="bold">1</text>
  <circle cx="213.82000000000005" cy="281.862" r="14" fill="white" stroke="#000000" stroke-width="1.2"/>
  <text x="213.82000000000005" y="286.862" text-anchor="middle" font-family="'Arial Narrow', Arial, sans-serif" font-size="13" fill="#000000" font-weight="bold">1</text>
  <line x1="299.87520000000006" y1="281.862" x2="299.87520000000006" y2="792.1379999999999" stroke="#999999" stroke-width="0.4" stroke-dasharray="8 4 2 4"/>
  <circle cx="299.87520000000006" cy="792.1379999999999" r="14" fill="white" stroke="#000000" stroke-width="1.2"/>
  <text x="299.87520000000006" y="797.1379999999999" text-anchor="middle" font-family="'Arial Narrow', Arial, sans-serif" font-size="13" fill="#000000" font-weight="bold">2</text>
  <circle cx="299.87520000000006" cy="281.862" r="14" fill="white" stroke="#000000" stroke-width="1.2"/>
  <text x="299.87520000000006" y="286.862" text-anchor="middle" font-family="'Arial Narrow', Arial, sans-serif" font-size="13" fill="#000000" font-weight="bold">2</text>
  <line x1="676.05936" y1="281.862" x2="676.05936" y2="792.1379999999999" stroke="#999999" stroke-width="0.4" stroke-dasharray="8 4 2 4"/>
  <circle cx="676.05936" cy="792.1379999999999" r="14" fill="white" stroke="#000000" stroke-width="1.2"/>
  <text x="676.05936" y="797.1379999999999" text-anchor="middle" font-family="'Arial Narrow', Arial, sans-serif" font-size="13" fill="#000000" font-weight="bold">3</text>
  <circle cx="676.05936" cy="281.862" r="14" fill="white" stroke="#000000" stroke-width="1.2"/>
  <text x="676.05936" y="286.862" text-anchor="middle" font-family="'Arial Narrow', Arial, sans-serif" font-size="13" fill="#000000" font-weight="bold">3</text>
  <line x1="1052.24352" y1="281.862" x2="1052.24352" y2="792.1379999999999" stroke="#999999" stroke-width="0.4" stroke-dasharray="8 4 2 4"/>
  <circle cx="1052.24352" cy="792.1379999999999" r="14" fill="white" stroke="#000000" stroke-width="1.2"/>
  <text x="1052.24352" y="797.1379999999999" text-anchor="middle" font-family="'Arial Narrow', Arial, sans-serif" font-size="13" fill="#000000" font-weight="bold">4</text>
  <circle cx="1052.24352" cy="281.862" r="14" fill="white" stroke="#000000" stroke-width="1.2"/>
  <text x="1052.24352" y="286.862" text-anchor="middle" font-family="'Arial Narrow', Arial, sans-serif" font-size="13" fill="#000000" font-weight="bold">4</text>
  <line x1="1443.1799999999998" y1="281.862" x2="1443.1799999999998" y2="792.1379999999999" stroke="#999999" stroke-width="0.4" stroke-dasharray="8 4 2 4"/>
  <circle cx="1443.1799999999998" cy="792.1379999999999" r="14" fill="white" stroke="#000000" stroke-width="1.2"/>
  <text x="1443.1799999999998" y="797.1379999999999" text-anchor="middle" font-family="'Arial Narrow', Arial, sans-serif" font-size="13" fill="#000000" font-weight="bold">5</text>
  <circle cx="1443.1799999999998" cy="281.862" r="14" fill="white" stroke="#000000" stroke-width="1.2"/>
  <text x="1443.1799999999998" y="286.862" text-anchor="middle" font-family="'Arial Narrow', Arial, sans-serif" font-size="13" fill="#000000" font-weight="bold">5</text>
  <line x1="173.82000000000005" y1="334.15560000000005" x2="1483.1799999999998" y2="334.15560000000005" stroke="#999999" stroke-width="0.4" stroke-dasharray="8 4 2 4"/>
  <circle cx="173.82000000000005" cy="334.15560000000005" r="14" fill="white" stroke="#000000" stroke-width="1.2"/>
  <text x="173.82000000000005" y="339.15560000000005" text-anchor="middle" font-family="'Arial Narrow', Arial, sans-serif" font-size="13" fill="#000000" font-weight="bold">A</text>
  <circle cx="1483.1799999999998" cy="334.15560000000005" r="14" fill="white" stroke="#000000" stroke-width="1.2"/>
  <text x="1483.1799999999998" y="339.15560000000005" text-anchor="middle" font-family="'Arial Narrow', Arial, sans-serif" font-size="13" fill="#000000" font-weight="bold">A</text>
  <line x1="173.82000000000005" y1="752.1379999999999" x2="1483.1799999999998" y2="752.1379999999999" stroke="#999999" stroke-width="0.4" stroke-dasharray="8 4 2 4"/>
  <circle cx="173.82000000000005" cy="752.1379999999999" r="14" fill="white" stroke="#000000" stroke-width="1.2"/>
  <text x="173.82000000000005" y="757.1379999999999" text-anchor="middle" font-family="'Arial Narrow', Arial, sans-serif" font-size="13" fill="#000000" font-weight="bold">B</text>
  <circle cx="1483.1799999999998" cy="752.1379999999999" r="14" fill="white" stroke="#000000" stroke-width="1.2"/>
  <text x="1483.1799999999998" y="757.1379999999999" text-anchor="middle" font-family="'Arial Narrow', Arial, sans-serif" font-size="13" fill="#000000" font-weight="bold">B</text>
  <rect x="207.67320000000004" y="328.00880000000006" width="12.2936" height="12.2936" fill="#000000" stroke="none"/>
  <rect x="207.67320000000004" y="745.9911999999999" width="12.2936" height="12.2936" fill="#000000" stroke="none"/>
  <rect x="293.7284000000001" y="328.00880000000006" width="12.2936" height="12.2936" fill="#000000" stroke="none"/>
  <rect x="293.7284000000001" y="745.9911999999999" width="12.2936" height="12.2936" fill="#000000" stroke="none"/>
  <rect x="669.91256" y="328.00880000000006" width="12.2936" height="12.2936" fill="#000000" stroke="none"/>
  <rect x="669.91256" y="745.9911999999999" width="12.2936" height="12.2936" fill="#000000" stroke="none"/>
  <rect x="1046.09672" y="328.00880000000006" width="12.2936" height="12.2936" fill="#000000" stroke="none"/>
  <rect x="1046.09672" y="745.9911999999999" width="12.2936" height="12.2936" fill="#000000" stroke="none"/>
  <rect x="1437.0331999999999" y="328.00880000000006" width="12.2936" height="12.2936" fill="#000000" stroke="none"/>
  <rect x="1437.0331999999999" y="745.9911999999999" width="12.2936" height="12.2936" fill="#000000" stroke="none"/>
  <rect x="299.87520000000006" y="334.15560000000005" width="368.808" height="405.68879999999996" fill="white" stroke="none"/>
  <rect x="444.27920000000006" y="506" width="80" height="62" rx="4" fill="white" stroke="#000000" stroke-width="0.9"/>
  <rect x="452.27920000000006" y="510.34" width="64" height="8.680000000000001" rx="2" fill="#dedede" stroke="#000000" stroke-width="0.4"/>
  <rect x="452.27920000000006" y="554.98" width="64" height="8.680000000000001" rx="2" fill="#dedede" stroke="#000000" stroke-width="0.4"/>
  <rect x="456.27920000000006" y="521.5" width="56" height="31" rx="2" fill="none" stroke="#000000" stroke-width="0.4"/>
  <text x="484.27920000000006" y="535" text-anchor="middle" font-family="'Arial Narrow', Arial, sans-serif" font-size="9" fill="#000" font-weight="bold">Gara</text>
  <text x="484.27920000000006" y="547" text-anchor="middle" font-family="'Arial Narrow', Arial, sans-serif" font-size="7.5" fill="#333">39.6m²</text>
  <rect x="676.05936" y="334.15560000000005" width="368.808" height="405.68879999999996" fill="white" stroke="none"/>
  <rect x="785.46336" y="359.97216000000003" width="150" height="9.6" fill="#e0e0e0" stroke="#000000" stroke-width="0.5"/>
  <rect x="785.46336" y="369.57216000000005" width="150" height="22.4" fill="white" stroke="#000000" stroke-width="0.7"/>
  <rect x="773.30336" y="359.97216000000003" width="12.16" height="32" rx="2" fill="white" stroke="#000000" stroke-width="0.6"/>
  <rect x="935.46336" y="359.97216000000003" width="12.16" height="32" rx="2" fill="white" stroke="#000000" stroke-width="0.6"/>
  <rect x="825.46336" y="519" width="70" height="36" rx="3" fill="none" stroke="#000000" stroke-width="0.7"/>
  <rect x="794.46336" y="523" width="28" height="28" rx="2" fill="white" stroke="#000000" stroke-width="0.6"/>
  <rect x="898.46336" y="523" width="28" height="28" rx="2" fill="white" stroke="#000000" stroke-width="0.6"/>
  <text x="860.46336" y="535" text-anchor="middle" font-family="'Arial Narrow', Arial, sans-serif" font-size="9" fill="#000" font-weight="bold">Phòng khách</text>
  <text x="860.46336" y="547" text-anchor="middle" font-family="'Arial Narrow', Arial, sans-serif" font-size="7.5" fill="#333">39.6m²</text>
  <path d="M 688.05936 725.8444 L 682.05936 731.8444 L 694.05936 731.8444 Z" fill="#000" stroke="none"/>
  <text x="697.05936" y="733.8444" font-family="'Arial Narrow', Arial, sans-serif" font-size="8" fill="#000">+0.000</text>
  <rect x="1052.24352" y="334.15560000000005" width="378.64288" height="405.68879999999996" fill="white" stroke="none"/>
  <rect x="1078.7485216" y="360.66060160000006" width="325.63287679999996" height="28" fill="white" stroke="#000000" stroke-width="0.7"/>
  <circle cx="1169.925727104" cy="374.66060160000006" r="8.96" fill="none" stroke="#000000" stroke-width="0.6"/>
  <circle cx="1248.077617536" cy="374.66060160000006" r="8.96" fill="none" stroke="#000000" stroke-width="0.6"/>
  <rect x="1306.69153536" y="364.0206016000001" width="71.639232896" height="21.28" rx="2" fill="none" stroke="#000000" stroke-width="0.5"/>
  <ellipse cx="1241.56496" cy="600.482183424" rx="40" ry="25" fill="none" stroke="#000000" stroke-width="0.7"/>
  <rect x="1208.3982933333332" y="560.482183424" width="13" height="13" rx="1" fill="white" stroke="#000000" stroke-width="0.5"/>
  <rect x="1208.3982933333332" y="627.482183424" width="13" height="13" rx="1" fill="white" stroke="#000000" stroke-width="0.5"/>
  <rect x="1235.06496" y="560.482183424" width="13" height="13" rx="1" fill="white" stroke="#000000" stroke-width="0.5"/>
  <rect x="1235.06496" y="627.482183424" width="13" height="13" rx="1" fill="white" stroke="#000000" stroke-width="0.5"/>
  <text x="1241.56496" y="535" text-anchor="middle" font-family="'Arial Narrow', Arial, sans-serif" font-size="9" fill="#000" font-weight="bold">Bếp + Ăn</text>
  <text x="1241.56496" y="547" text-anchor="middle" font-family="'Arial Narrow', Arial, sans-serif" font-size="7.5" fill="#333">40.7m²</text>
  <polygon points="207.67,321.86 207.67,752.14 219.97,752.14 219.97,321.86" fill="url(#hatch-ext)" stroke="#000" stroke-width="1.4"/>
  <line x1="207.67320000000004" y1="321.862" x2="207.67320000000004" y2="752.1379999999999" stroke="#000" stroke-width="1.5" stroke-linecap="square"/>
  <line x1="219.96680000000006" y1="321.862" x2="219.96680000000006" y2="752.1379999999999" stroke="#000" stroke-width="1.5" stroke-linecap="square"/>
  <polygon points="1437.03,321.86 1437.03,752.14 1449.33,752.14 1449.33,321.86" fill="url(#hatch-ext)" stroke="#000" stroke-width="1.4"/>
  <line x1="1437.0331999999999" y1="321.862" x2="1437.0331999999999" y2="752.1379999999999" stroke="#000" stroke-width="1.5" stroke-linecap="square"/>
  <line x1="1449.3267999999998" y1="321.862" x2="1449.3267999999998" y2="752.1379999999999" stroke="#000" stroke-width="1.5" stroke-linecap="square"/>
  <polygon points="213.82,328.01 1443.18,328.01 1443.18,315.72 213.82,315.72" fill="url(#hatch-ext)" stroke="#000" stroke-width="1.4"/>
  <line x1="213.82000000000005" y1="328.0088" x2="1443.1799999999998" y2="328.0088" stroke="#000" stroke-width="1.5" stroke-linecap="square"/>
  <line x1="213.82000000000005" y1="315.71520000000004" x2="1443.1799999999998" y2="315.71520000000004" stroke="#000" stroke-width="1.5" stroke-linecap="square"/>
  <polygon points="213.82,758.28 1443.18,758.28 1443.18,745.99 213.82,745.99" fill="url(#hatch-ext)" stroke="#000" stroke-width="1.4"/>
  <line x1="213.82000000000005" y1="758.2847999999999" x2="1443.1799999999998" y2="758.2847999999999" stroke="#000" stroke-width="1.5" stroke-linecap="square"/>
  <line x1="213.82000000000005" y1="745.9911999999999" x2="1443.1799999999998" y2="745.9911999999999" stroke="#000" stroke-width="1.5" stroke-linecap="square"/>
  <polygon points="665.00,334.16 665.00,739.84 672.37,739.84 672.37,334.16" fill="url(#hatch-int)" stroke="#000" stroke-width="0.7"/>
  <line x1="664.99512" y1="334.15560000000005" x2="664.99512" y2="739.8444" stroke="#000" stroke-width="0.8" stroke-linecap="square"/>
  <line x1="672.3712800000001" y1="334.15560000000005" x2="672.3712800000001" y2="739.8444" stroke="#000" stroke-width="0.8" stroke-linecap="square"/>
  <polygon points="1041.18,334.16 1041.18,739.84 1048.56,739.84 1048.56,334.16" fill="url(#hatch-int)" stroke="#000" stroke-width="0.7"/>
  <line x1="1041.17928" y1="334.15560000000005" x2="1041.17928" y2="739.8444" stroke="#000" stroke-width="0.8" stroke-linecap="square"/>
  <line x1="1048.5554399999999" y1="334.15560000000005" x2="1048.5554399999999" y2="739.8444" stroke="#000" stroke-width="0.8" stroke-linecap="square"/>
  <polygon points="206.17,568.73 206.17,505.27 221.47,505.27 221.47,568.73" fill="white" stroke="none"/>
  <polygon points="663.50,562.59 663.50,511.41 673.87,511.41 673.87,562.59" fill="white" stroke="none"/>
  <polygon points="1039.68,562.59 1039.68,511.41 1050.06,511.41 1050.06,562.59" fill="white" stroke="none"/>
  <rect x="1442.1799999999998" y="492.4724" width="63.467999999999996" height="15.2936" fill="white" stroke="none"/>
  <line x1="1443.1799999999998" y1="497.1192" x2="1504.648" y2="497.1192" stroke="#000000" stroke-width="2"/>
  <line x1="1443.1799999999998" y1="503.1192" x2="1504.648" y2="503.1192" stroke="#000000" stroke-width="2"/>
  <line x1="1443.1799999999998" y1="497.1192" x2="1443.1799999999998" y2="503.1192" stroke="#000000" stroke-width="1"/>
  <line x1="1504.648" y1="497.1192" x2="1504.648" y2="503.1192" stroke="#000000" stroke-width="1"/>
  <line x1="1443.1799999999998" y1="497.1192" x2="1504.648" y2="503.1192" stroke="#000000" stroke-width="0.5"/>
  <line x1="1504.648" y1="497.1192" x2="1443.1799999999998" y2="503.1192" stroke="#000000" stroke-width="0.5"/>
  <rect x="1463.9139999999998" y="478.1192" width="20" height="12" rx="2" fill="white" stroke="#000" stroke-width="0.5"/>
  <text x="1473.9139999999998" y="488.1192" text-anchor="middle" font-family="'Arial Narrow', Arial, sans-serif" font-size="7" fill="#000">S1</text>
  <line x1="213.82000000000005" y1="506.266" x2="275.28800000000007" y2="506.266" stroke="#000000" stroke-width="2"/>
  <line x1="213.82000000000005" y1="506.266" x2="213.82000000000005" y2="567.734" stroke="#000000" stroke-width="0.8"/>
  <path d="M 213.82000000000005 567.734 A 61.467999999999996 61.467999999999996 0 0 1 275.28800000000007 506.266" fill="none" stroke="#000000" stroke-width="0.7"/>
  <rect x="234.55400000000006" y="486.266" width="20" height="12" rx="2" fill="white" stroke="#000" stroke-width="0.5"/>
  <text x="244.55400000000006" y="496.266" text-anchor="middle" font-family="'Arial Narrow', Arial, sans-serif" font-size="7" fill="#000">D1</text>
  <line x1="668.6832" y1="512.4128000000001" x2="717.8576" y2="512.4128000000001" stroke="#000000" stroke-width="2"/>
  <line x1="717.8576" y1="512.4128000000001" x2="717.8576" y2="561.5872" stroke="#000000" stroke-width="0.8"/>
  <path d="M 717.8576 561.5872 A 49.1744 49.1744 0 0 0 668.6832 512.4128000000001" fill="none" stroke="#000000" stroke-width="0.7"/>
  <rect x="683.2704000000001" y="492.41280000000006" width="20" height="12" rx="2" fill="white" stroke="#000" stroke-width="0.5"/>
  <text x="693.2704000000001" y="502.41280000000006" text-anchor="middle" font-family="'Arial Narrow', Arial, sans-serif" font-size="7" fill="#000">D2</text>
  <line x1="1044.86736" y1="512.4128000000001" x2="1094.04176" y2="512.4128000000001" stroke="#000000" stroke-width="2"/>
  <line x1="1094.04176" y1="512.4128000000001" x2="1094.04176" y2="561.5872" stroke="#000000" stroke-width="0.8"/>
  <path d="M 1094.04176 561.5872 A 49.1744 49.1744 0 0 0 1044.86736 512.4128000000001" fill="none" stroke="#000000" stroke-width="0.7"/>
  <rect x="1059.45456" y="492.41280000000006" width="20" height="12" rx="2" fill="white" stroke="#000" stroke-width="0.5"/>
  <text x="1069.45456" y="502.41280000000006" text-anchor="middle" font-family="'Arial Narrow', Arial, sans-serif" font-size="7" fill="#000">D3</text>
  <circle cx="1473.1799999999998" cy="351.862" r="16" fill="white" stroke="#000" stroke-width="1"/>
  <path d="M 1473.1799999999998 338.862 L 1468.1799999999998 351.862 L 1473.1799999999998 346.862 L 1478.1799999999998 351.862 Z" fill="#000" stroke="none"/>
  <path d="M 1473.1799999999998 364.862 L 1468.1799999999998 351.862 L 1473.1799999999998 356.862 L 1478.1799999999998 351.862 Z" fill="white" stroke="#000" stroke-width="0.6"/>
  <text x="1473.1799999999998" y="331.862" text-anchor="middle" font-family="'Arial Narrow', Arial, sans-serif" font-size="9" fill="#000" font-weight="bold">N</text>
  <rect x="213.82000000000005" y="321.862" width="1229.36" height="430.27599999999995" fill="none" stroke="#000000" stroke-width="2"/>
  <line x1="213.82000000000005" y1="754.1379999999999" x2="213.82000000000005" y2="774.1379999999999" stroke="#000000" stroke-width="0.35"/>
  <line x1="299.87520000000006" y1="754.1379999999999" x2="299.87520000000006" y2="774.1379999999999" stroke="#000000" stroke-width="0.35"/>
  <line x1="213.82000000000005" y1="772.1379999999999" x2="299.87520000000006" y2="772.1379999999999" stroke="#000000" stroke-width="0.5"/>
  <line x1="211.82000000000005" y1="776.1379999999999" x2="215.82000000000005" y2="768.1379999999999" stroke="#000000" stroke-width="0.8"/>
  <line x1="297.87520000000006" y1="776.1379999999999" x2="301.87520000000006" y2="768.1379999999999" stroke="#000000" stroke-width="0.8"/>
  <text x="256.84760000000006" y="767.1379999999999" text-anchor="middle" font-family="'Arial Narrow', Arial, sans-serif" font-size="10" fill="#000000">1400</text>
  <line x1="299.87520000000006" y1="754.1379999999999" x2="299.87520000000006" y2="774.1379999999999" stroke="#000000" stroke-width="0.35"/>
  <line x1="668.6832" y1="754.1379999999999" x2="668.6832" y2="774.1379999999999" stroke="#000000" stroke-width="0.35"/>
  <line x1="299.87520000000006" y1="772.1379999999999" x2="668.6832" y2="772.1379999999999" stroke="#000000" stroke-width="0.5"/>
  <line x1="297.87520000000006" y1="776.1379999999999" x2="301.87520000000006" y2="768.1379999999999" stroke="#000000" stroke-width="0.8"/>
  <line x1="666.6832" y1="776.1379999999999" x2="670.6832" y2="768.1379999999999" stroke="#000000" stroke-width="0.8"/>
  <text x="484.27920000000006" y="767.1379999999999" text-anchor="middle" font-family="'Arial Narrow', Arial, sans-serif" font-size="10" fill="#000000">6000</text>
  <line x1="668.6832" y1="754.1379999999999" x2="668.6832" y2="774.1379999999999" stroke="#000000" stroke-width="0.35"/>
  <line x1="676.05936" y1="754.1379999999999" x2="676.05936" y2="774.1379999999999" stroke="#000000" stroke-width="0.35"/>
  <line x1="668.6832" y1="772.1379999999999" x2="676.05936" y2="772.1379999999999" stroke="#000000" stroke-width="0.5"/>
  <line x1="666.6832" y1="776.1379999999999" x2="670.6832" y2="768.1379999999999" stroke="#000000" stroke-width="0.8"/>
  <line x1="674.05936" y1="776.1379999999999" x2="678.05936" y2="768.1379999999999" stroke="#000000" stroke-width="0.8"/>
  <text x="672.3712800000001" y="767.1379999999999" text-anchor="middle" font-family="'Arial Narrow', Arial, sans-serif" font-size="10" fill="#000000">120</text>
  <line x1="676.05936" y1="754.1379999999999" x2="676.05936" y2="774.1379999999999" stroke="#000000" stroke-width="0.35"/>
  <line x1="1044.86736" y1="754.1379999999999" x2="1044.86736" y2="774.1379999999999" stroke="#000000" stroke-width="0.35"/>
  <line x1="676.05936" y1="772.1379999999999" x2="1044.86736" y2="772.1379999999999" stroke="#000000" stroke-width="0.5"/>
  <line x1="674.05936" y1="776.1379999999999" x2="678.05936" y2="768.1379999999999" stroke="#000000" stroke-width="0.8"/>
  <line x1="1042.86736" y1="776.1379999999999" x2="1046.86736" y2="768.1379999999999" stroke="#000000" stroke-width="0.8"/>
  <text x="860.46336" y="767.1379999999999" text-anchor="middle" font-family="'Arial Narrow', Arial, sans-serif" font-size="10" fill="#000000">6000</text>
  <line x1="1044.86736" y1="754.1379999999999" x2="1044.86736" y2="774.1379999999999" stroke="#000000" stroke-width="0.35"/>
  <line x1="1052.24352" y1="754.1379999999999" x2="1052.24352" y2="774.1379999999999" stroke="#000000" stroke-width="0.35"/>
  <line x1="1044.86736" y1="772.1379999999999" x2="1052.24352" y2="772.1379999999999" stroke="#000000" stroke-width="0.5"/>
  <line x1="1042.86736" y1="776.1379999999999" x2="1046.86736" y2="768.1379999999999" stroke="#000000" stroke-width="0.8"/>
  <line x1="1050.24352" y1="776.1379999999999" x2="1054.24352" y2="768.1379999999999" stroke="#000000" stroke-width="0.8"/>
  <text x="1048.55544" y="767.1379999999999" text-anchor="middle" font-family="'Arial Narrow', Arial, sans-serif" font-size="10" fill="#000000">120</text>
  <line x1="1052.24352" y1="754.1379999999999" x2="1052.24352" y2="774.1379999999999" stroke="#000000" stroke-width="0.35"/>
  <line x1="1430.8863999999999" y1="754.1379999999999" x2="1430.8863999999999" y2="774.1379999999999" stroke="#000000" stroke-width="0.35"/>
  <line x1="1052.24352" y1="772.1379999999999" x2="1430.8863999999999" y2="772.1379999999999" stroke="#000000" stroke-width="0.5"/>
  <line x1="1050.24352" y1="776.1379999999999" x2="1054.24352" y2="768.1379999999999" stroke="#000000" stroke-width="0.8"/>
  <line x1="1428.8863999999999" y1="776.1379999999999" x2="1432.8863999999999" y2="768.1379999999999" stroke="#000000" stroke-width="0.8"/>
  <text x="1241.56496" y="767.1379999999999" text-anchor="middle" font-family="'Arial Narrow', Arial, sans-serif" font-size="10" fill="#000000">6160</text>
  <line x1="1430.8863999999999" y1="754.1379999999999" x2="1430.8863999999999" y2="774.1379999999999" stroke="#000000" stroke-width="0.35"/>
  <line x1="1443.1799999999998" y1="754.1379999999999" x2="1443.1799999999998" y2="774.1379999999999" stroke="#000000" stroke-width="0.35"/>
  <line x1="1430.8863999999999" y1="772.1379999999999" x2="1443.1799999999998" y2="772.1379999999999" stroke="#000000" stroke-width="0.5"/>
  <line x1="1428.8863999999999" y1="776.1379999999999" x2="1432.8863999999999" y2="768.1379999999999" stroke="#000000" stroke-width="0.8"/>
  <line x1="1441.1799999999998" y1="776.1379999999999" x2="1445.1799999999998" y2="768.1379999999999" stroke="#000000" stroke-width="0.8"/>
  <text x="1437.0331999999999" y="767.1379999999999" text-anchor="middle" font-family="'Arial Narrow', Arial, sans-serif" font-size="10" fill="#000000">200</text>
  <line x1="213.82000000000005" y1="754.1379999999999" x2="213.82000000000005" y2="796.1379999999999" stroke="#000000" stroke-width="0.35"/>
  <line x1="299.87520000000006" y1="754.1379999999999" x2="299.87520000000006" y2="796.1379999999999" stroke="#000000" stroke-width="0.35"/>
  <line x1="213.82000000000005" y1="794.1379999999999" x2="299.87520000000006" y2="794.1379999999999" stroke="#000000" stroke-width="0.5"/>
  <line x1="211.82000000000005" y1="798.1379999999999" x2="215.82000000000005" y2="790.1379999999999" stroke="#000000" stroke-width="0.8"/>
  <line x1="297.87520000000006" y1="798.1379999999999" x2="301.87520000000006" y2="790.1379999999999" stroke="#000000" stroke-width="0.8"/>
  <text x="256.84760000000006" y="789.1379999999999" text-anchor="middle" font-family="'Arial Narrow', Arial, sans-serif" font-size="10" fill="#000000">1400</text>
  <line x1="299.87520000000006" y1="754.1379999999999" x2="299.87520000000006" y2="796.1379999999999" stroke="#000000" stroke-width="0.35"/>
  <line x1="676.05936" y1="754.1379999999999" x2="676.05936" y2="796.1379999999999" stroke="#000000" stroke-width="0.35"/>
  <line x1="299.87520000000006" y1="794.1379999999999" x2="676.05936" y2="794.1379999999999" stroke="#000000" stroke-width="0.5"/>
  <line x1="297.87520000000006" y1="798.1379999999999" x2="301.87520000000006" y2="790.1379999999999" stroke="#000000" stroke-width="0.8"/>
  <line x1="674.05936" y1="798.1379999999999" x2="678.05936" y2="790.1379999999999" stroke="#000000" stroke-width="0.8"/>
  <text x="487.96728" y="789.1379999999999" text-anchor="middle" font-family="'Arial Narrow', Arial, sans-serif" font-size="10" fill="#000000">6120</text>
  <line x1="676.05936" y1="754.1379999999999" x2="676.05936" y2="796.1379999999999" stroke="#000000" stroke-width="0.35"/>
  <line x1="1052.24352" y1="754.1379999999999" x2="1052.24352" y2="796.1379999999999" stroke="#000000" stroke-width="0.35"/>
  <line x1="676.05936" y1="794.1379999999999" x2="1052.24352" y2="794.1379999999999" stroke="#000000" stroke-width="0.5"/>
  <line x1="674.05936" y1="798.1379999999999" x2="678.05936" y2="790.1379999999999" stroke="#000000" stroke-width="0.8"/>
  <line x1="1050.24352" y1="798.1379999999999" x2="1054.24352" y2="790.1379999999999" stroke="#000000" stroke-width="0.8"/>
  <text x="864.15144" y="789.1379999999999" text-anchor="middle" font-family="'Arial Narrow', Arial, sans-serif" font-size="10" fill="#000000">6120</text>
  <line x1="1052.24352" y1="754.1379999999999" x2="1052.24352" y2="796.1379999999999" stroke="#000000" stroke-width="0.35"/>
  <line x1="1443.1799999999998" y1="754.1379999999999" x2="1443.1799999999998" y2="796.1379999999999" stroke="#000000" stroke-width="0.35"/>
  <line x1="1052.24352" y1="794.1379999999999" x2="1443.1799999999998" y2="794.1379999999999" stroke="#000000" stroke-width="0.5"/>
  <line x1="1050.24352" y1="798.1379999999999" x2="1054.24352" y2="790.1379999999999" stroke="#000000" stroke-width="0.8"/>
  <line x1="1441.1799999999998" y1="798.1379999999999" x2="1445.1799999999998" y2="790.1379999999999" stroke="#000000" stroke-width="0.8"/>
  <text x="1247.71176" y="789.1379999999999" text-anchor="middle" font-family="'Arial Narrow', Arial, sans-serif" font-size="10" fill="#000000">6360</text>
  <line x1="213.82000000000005" y1="754.1379999999999" x2="213.82000000000005" y2="818.1379999999999" stroke="#000000" stroke-width="0.35"/>
  <line x1="1443.1799999999998" y1="754.1379999999999" x2="1443.1799999999998" y2="818.1379999999999" stroke="#000000" stroke-width="0.35"/>
  <line x1="213.82000000000005" y1="816.1379999999999" x2="1443.1799999999998" y2="816.1379999999999" stroke="#000000" stroke-width="0.5"/>
  <line x1="211.82000000000005" y1="820.1379999999999" x2="215.82000000000005" y2="812.1379999999999" stroke="#000000" stroke-width="0.8"/>
  <line x1="1441.1799999999998" y1="820.1379999999999" x2="1445.1799999999998" y2="812.1379999999999" stroke="#000000" stroke-width="0.8"/>
  <text x="828.5" y="811.1379999999999" text-anchor="middle" font-family="'Arial Narrow', Arial, sans-serif" font-size="10" fill="#000000">20000</text>
  <line x1="211.82000000000005" y1="321.862" x2="191.82000000000005" y2="321.862" stroke="#000000" stroke-width="0.35"/>
  <line x1="211.82000000000005" y1="334.15560000000005" x2="191.82000000000005" y2="334.15560000000005" stroke="#000000" stroke-width="0.35"/>
  <line x1="193.82000000000005" y1="321.862" x2="193.82000000000005" y2="334.15560000000005" stroke="#000000" stroke-width="0.5"/>
  <line x1="189.82000000000005" y1="323.862" x2="197.82000000000005" y2="319.862" stroke="#000000" stroke-width="0.8"/>
  <line x1="189.82000000000005" y1="336.15560000000005" x2="197.82000000000005" y2="332.15560000000005" stroke="#000000" stroke-width="0.8"/>
  <text x="185.82000000000005" y="328.00880000000006" text-anchor="middle" font-family="'Arial Narrow', Arial, sans-serif" font-size="7.5" fill="#000000" transform="rotate(-90, 185.82000000000005, 328.00880000000006)">200</text>
  <line x1="211.82000000000005" y1="334.15560000000005" x2="191.82000000000005" y2="334.15560000000005" stroke="#000000" stroke-width="0.35"/>
  <line x1="211.82000000000005" y1="739.8444" x2="191.82000000000005" y2="739.8444" stroke="#000000" stroke-width="0.35"/>
  <line x1="193.82000000000005" y1="334.15560000000005" x2="193.82000000000005" y2="739.8444" stroke="#000000" stroke-width="0.5"/>
  <line x1="189.82000000000005" y1="336.15560000000005" x2="197.82000000000005" y2="332.15560000000005" stroke="#000000" stroke-width="0.8"/>
  <line x1="189.82000000000005" y1="741.8444" x2="197.82000000000005" y2="737.8444" stroke="#000000" stroke-width="0.8"/>
  <text x="185.82000000000005" y="537" text-anchor="middle" font-family="'Arial Narrow', Arial, sans-serif" font-size="7.5" fill="#000000" transform="rotate(-90, 185.82000000000005, 537)">6600</text>
  <line x1="211.82000000000005" y1="739.8444" x2="191.82000000000005" y2="739.8444" stroke="#000000" stroke-width="0.35"/>
  <line x1="211.82000000000005" y1="752.1379999999999" x2="191.82000000000005" y2="752.1379999999999" stroke="#000000" stroke-width="0.35"/>
  <line x1="193.82000000000005" y1="739.8444" x2="193.82000000000005" y2="752.1379999999999" stroke="#000000" stroke-width="0.5"/>
  <line x1="189.82000000000005" y1="741.8444" x2="197.82000000000005" y2="737.8444" stroke="#000000" stroke-width="0.8"/>
  <line x1="189.82000000000005" y1="754.1379999999999" x2="197.82000000000005" y2="750.1379999999999" stroke="#000000" stroke-width="0.8"/>
  <text x="185.82000000000005" y="745.9911999999999" text-anchor="middle" font-family="'Arial Narrow', Arial, sans-serif" font-size="7.5" fill="#000000" transform="rotate(-90, 185.82000000000005, 745.9911999999999)">200</text>
  <line x1="211.82000000000005" y1="321.862" x2="169.82000000000005" y2="321.862" stroke="#000000" stroke-width="0.35"/>
  <line x1="211.82000000000005" y1="334.15560000000005" x2="169.82000000000005" y2="334.15560000000005" stroke="#000000" stroke-width="0.35"/>
  <line x1="171.82000000000005" y1="321.862" x2="171.82000000000005" y2="334.15560000000005" stroke="#000000" stroke-width="0.5"/>
  <line x1="167.82000000000005" y1="323.862" x2="175.82000000000005" y2="319.862" stroke="#000000" stroke-width="0.8"/>
  <line x1="167.82000000000005" y1="336.15560000000005" x2="175.82000000000005" y2="332.15560000000005" stroke="#000000" stroke-width="0.8"/>
  <text x="163.82000000000005" y="328.00880000000006" text-anchor="middle" font-family="'Arial Narrow', Arial, sans-serif" font-size="7.5" fill="#000000" transform="rotate(-90, 163.82000000000005, 328.00880000000006)">200</text>
  <line x1="211.82000000000005" y1="334.15560000000005" x2="169.82000000000005" y2="334.15560000000005" stroke="#000000" stroke-width="0.35"/>
  <line x1="211.82000000000005" y1="752.1379999999999" x2="169.82000000000005" y2="752.1379999999999" stroke="#000000" stroke-width="0.35"/>
  <line x1="171.82000000000005" y1="334.15560000000005" x2="171.82000000000005" y2="752.1379999999999" stroke="#000000" stroke-width="0.5"/>
  <line x1="167.82000000000005" y1="336.15560000000005" x2="175.82000000000005" y2="332.15560000000005" stroke="#000000" stroke-width="0.8"/>
  <line x1="167.82000000000005" y1="754.1379999999999" x2="175.82000000000005" y2="750.1379999999999" stroke="#000000" stroke-width="0.8"/>
  <text x="163.82000000000005" y="543.1468" text-anchor="middle" font-family="'Arial Narrow', Arial, sans-serif" font-size="7.5" fill="#000000" transform="rotate(-90, 163.82000000000005, 543.1468)">6800</text>
  <line x1="211.82000000000005" y1="321.862" x2="147.82000000000005" y2="321.862" stroke="#000000" stroke-width="0.35"/>
  <line x1="211.82000000000005" y1="752.1379999999999" x2="147.82000000000005" y2="752.1379999999999" stroke="#000000" stroke-width="0.35"/>
  <line x1="149.82000000000005" y1="321.862" x2="149.82000000000005" y2="752.1379999999999" stroke="#000000" stroke-width="0.5"/>
  <line x1="145.82000000000005" y1="323.862" x2="153.82000000000005" y2="319.862" stroke="#000000" stroke-width="0.8"/>
  <line x1="145.82000000000005" y1="754.1379999999999" x2="153.82000000000005" y2="750.1379999999999" stroke="#000000" stroke-width="0.8"/>
  <text x="141.82000000000005" y="537" text-anchor="middle" font-family="'Arial Narrow', Arial, sans-serif" font-size="7.5" fill="#000000" transform="rotate(-90, 141.82000000000005, 537)">7000</text>
  <line x1="213.82000000000005" y1="319.862" x2="213.82000000000005" y2="299.862" stroke="#000000" stroke-width="0.35"/>
  <line x1="299.87520000000006" y1="319.862" x2="299.87520000000006" y2="299.862" stroke="#000000" stroke-width="0.35"/>
  <line x1="213.82000000000005" y1="301.862" x2="299.87520000000006" y2="301.862" stroke="#000000" stroke-width="0.5"/>
  <line x1="211.82000000000005" y1="305.862" x2="215.82000000000005" y2="297.862" stroke="#000000" stroke-width="0.8"/>
  <line x1="297.87520000000006" y1="305.862" x2="301.87520000000006" y2="297.862" stroke="#000000" stroke-width="0.8"/>
  <text x="256.84760000000006" y="314.862" text-anchor="middle" font-family="'Arial Narrow', Arial, sans-serif" font-size="10" fill="#000000">1400</text>
  <line x1="299.87520000000006" y1="319.862" x2="299.87520000000006" y2="299.862" stroke="#000000" stroke-width="0.35"/>
  <line x1="668.6832" y1="319.862" x2="668.6832" y2="299.862" stroke="#000000" stroke-width="0.35"/>
  <line x1="299.87520000000006" y1="301.862" x2="668.6832" y2="301.862" stroke="#000000" stroke-width="0.5"/>
  <line x1="297.87520000000006" y1="305.862" x2="301.87520000000006" y2="297.862" stroke="#000000" stroke-width="0.8"/>
  <line x1="666.6832" y1="305.862" x2="670.6832" y2="297.862" stroke="#000000" stroke-width="0.8"/>
  <text x="484.27920000000006" y="314.862" text-anchor="middle" font-family="'Arial Narrow', Arial, sans-serif" font-size="10" fill="#000000">6000</text>
  <line x1="668.6832" y1="319.862" x2="668.6832" y2="299.862" stroke="#000000" stroke-width="0.35"/>
  <line x1="676.05936" y1="319.862" x2="676.05936" y2="299.862" stroke="#000000" stroke-width="0.35"/>
  <line x1="668.6832" y1="301.862" x2="676.05936" y2="301.862" stroke="#000000" stroke-width="0.5"/>
  <line x1="666.6832" y1="305.862" x2="670.6832" y2="297.862" stroke="#000000" stroke-width="0.8"/>
  <line x1="674.05936" y1="305.862" x2="678.05936" y2="297.862" stroke="#000000" stroke-width="0.8"/>
  <text x="672.3712800000001" y="314.862" text-anchor="middle" font-family="'Arial Narrow', Arial, sans-serif" font-size="10" fill="#000000">120</text>
  <line x1="676.05936" y1="319.862" x2="676.05936" y2="299.862" stroke="#000000" stroke-width="0.35"/>
  <line x1="1044.86736" y1="319.862" x2="1044.86736" y2="299.862" stroke="#000000" stroke-width="0.35"/>
  <line x1="676.05936" y1="301.862" x2="1044.86736" y2="301.862" stroke="#000000" stroke-width="0.5"/>
  <line x1="674.05936" y1="305.862" x2="678.05936" y2="297.862" stroke="#000000" stroke-width="0.8"/>
  <line x1="1042.86736" y1="305.862" x2="1046.86736" y2="297.862" stroke="#000000" stroke-width="0.8"/>
  <text x="860.46336" y="314.862" text-anchor="middle" font-family="'Arial Narrow', Arial, sans-serif" font-size="10" fill="#000000">6000</text>
  <line x1="1044.86736" y1="319.862" x2="1044.86736" y2="299.862" stroke="#000000" stroke-width="0.35"/>
  <line x1="1052.24352" y1="319.862" x2="1052.24352" y2="299.862" stroke="#000000" stroke-width="0.35"/>
  <line x1="1044.86736" y1="301.862" x2="1052.24352" y2="301.862" stroke="#000000" stroke-width="0.5"/>
  <line x1="1042.86736" y1="305.862" x2="1046.86736" y2="297.862" stroke="#000000" stroke-width="0.8"/>
  <line x1="1050.24352" y1="305.862" x2="1054.24352" y2="297.862" stroke="#000000" stroke-width="0.8"/>
  <text x="1048.55544" y="314.862" text-anchor="middle" font-family="'Arial Narrow', Arial, sans-serif" font-size="10" fill="#000000">120</text>
  <line x1="1052.24352" y1="319.862" x2="1052.24352" y2="299.862" stroke="#000000" stroke-width="0.35"/>
  <line x1="1430.8863999999999" y1="319.862" x2="1430.8863999999999" y2="299.862" stroke="#000000" stroke-width="0.35"/>
  <line x1="1052.24352" y1="301.862" x2="1430.8863999999999" y2="301.862" stroke="#000000" stroke-width="0.5"/>
  <line x1="1050.24352" y1="305.862" x2="1054.24352" y2="297.862" stroke="#000000" stroke-width="0.8"/>
  <line x1="1428.8863999999999" y1="305.862" x2="1432.8863999999999" y2="297.862" stroke="#000000" stroke-width="0.8"/>
  <text x="1241.56496" y="314.862" text-anchor="middle" font-family="'Arial Narrow', Arial, sans-serif" font-size="10" fill="#000000">6160</text>
  <line x1="1430.8863999999999" y1="319.862" x2="1430.8863999999999" y2="299.862" stroke="#000000" stroke-width="0.35"/>
  <line x1="1443.1799999999998" y1="319.862" x2="1443.1799999999998" y2="299.862" stroke="#000000" stroke-width="0.35"/>
  <line x1="1430.8863999999999" y1="301.862" x2="1443.1799999999998" y2="301.862" stroke="#000000" stroke-width="0.5"/>
  <line x1="1428.8863999999999" y1="305.862" x2="1432.8863999999999" y2="297.862" stroke="#000000" stroke-width="0.8"/>
  <line x1="1441.1799999999998" y1="305.862" x2="1445.1799999999998" y2="297.862" stroke="#000000" stroke-width="0.8"/>
  <text x="1437.0331999999999" y="314.862" text-anchor="middle" font-family="'Arial Narrow', Arial, sans-serif" font-size="10" fill="#000000">200</text>
  <line x1="213.82000000000005" y1="319.862" x2="213.82000000000005" y2="277.862" stroke="#000000" stroke-width="0.35"/>
  <line x1="299.87520000000006" y1="319.862" x2="299.87520000000006" y2="277.862" stroke="#000000" stroke-width="0.35"/>
  <line x1="213.82000000000005" y1="279.862" x2="299.87520000000006" y2="279.862" stroke="#000000" stroke-width="0.5"/>
  <line x1="211.82000000000005" y1="283.862" x2="215.82000000000005" y2="275.862" stroke="#000000" stroke-width="0.8"/>
  <line x1="297.87520000000006" y1="283.862" x2="301.87520000000006" y2="275.862" stroke="#000000" stroke-width="0.8"/>
  <text x="256.84760000000006" y="292.862" text-anchor="middle" font-family="'Arial Narrow', Arial, sans-serif" font-size="10" fill="#000000">1400</text>
  <line x1="299.87520000000006" y1="319.862" x2="299.87520000000006" y2="277.862" stroke="#000000" stroke-width="0.35"/>
  <line x1="676.05936" y1="319.862" x2="676.05936" y2="277.862" stroke="#000000" stroke-width="0.35"/>
  <line x1="299.87520000000006" y1="279.862" x2="676.05936" y2="279.862" stroke="#000000" stroke-width="0.5"/>
  <line x1="297.87520000000006" y1="283.862" x2="301.87520000000006" y2="275.862" stroke="#000000" stroke-width="0.8"/>
  <line x1="674.05936" y1="283.862" x2="678.05936" y2="275.862" stroke="#000000" stroke-width="0.8"/>
  <text x="487.96728" y="292.862" text-anchor="middle" font-family="'Arial Narrow', Arial, sans-serif" font-size="10" fill="#000000">6120</text>
  <line x1="676.05936" y1="319.862" x2="676.05936" y2="277.862" stroke="#000000" stroke-width="0.35"/>
  <line x1="1052.24352" y1="319.862" x2="1052.24352" y2="277.862" stroke="#000000" stroke-width="0.35"/>
  <line x1="676.05936" y1="279.862" x2="1052.24352" y2="279.862" stroke="#000000" stroke-width="0.5"/>
  <line x1="674.05936" y1="283.862" x2="678.05936" y2="275.862" stroke="#000000" stroke-width="0.8"/>
  <line x1="1050.24352" y1="283.862" x2="1054.24352" y2="275.862" stroke="#000000" stroke-width="0.8"/>
  <text x="864.15144" y="292.862" text-anchor="middle" font-family="'Arial Narrow', Arial, sans-serif" font-size="10" fill="#000000">6120</text>
  <line x1="1052.24352" y1="319.862" x2="1052.24352" y2="277.862" stroke="#000000" stroke-width="0.35"/>
  <line x1="1443.1799999999998" y1="319.862" x2="1443.1799999999998" y2="277.862" stroke="#000000" stroke-width="0.35"/>
  <line x1="1052.24352" y1="279.862" x2="1443.1799999999998" y2="279.862" stroke="#000000" stroke-width="0.5"/>
  <line x1="1050.24352" y1="283.862" x2="1054.24352" y2="275.862" stroke="#000000" stroke-width="0.8"/>
  <line x1="1441.1799999999998" y1="283.862" x2="1445.1799999999998" y2="275.862" stroke="#000000" stroke-width="0.8"/>
  <text x="1247.71176" y="292.862" text-anchor="middle" font-family="'Arial Narrow', Arial, sans-serif" font-size="10" fill="#000000">6360</text>
  <line x1="213.82000000000005" y1="319.862" x2="213.82000000000005" y2="255.86200000000002" stroke="#000000" stroke-width="0.35"/>
  <line x1="1443.1799999999998" y1="319.862" x2="1443.1799999999998" y2="255.86200000000002" stroke="#000000" stroke-width="0.35"/>
  <line x1="213.82000000000005" y1="257.862" x2="1443.1799999999998" y2="257.862" stroke="#000000" stroke-width="0.5"/>
  <line x1="211.82000000000005" y1="261.862" x2="215.82000000000005" y2="253.86200000000002" stroke="#000000" stroke-width="0.8"/>
  <line x1="1441.1799999999998" y1="261.862" x2="1445.1799999999998" y2="253.86200000000002" stroke="#000000" stroke-width="0.8"/>
  <text x="828.5" y="270.862" text-anchor="middle" font-family="'Arial Narrow', Arial, sans-serif" font-size="10" fill="#000000">20000</text>
  <line x1="141.82000000000005" y1="537" x2="1515.1799999999998" y2="537" stroke="#000" stroke-width="0.8" stroke-dasharray="12 3 3 3"/>
  <circle cx="141.82000000000005" cy="537" r="10" fill="white" stroke="#000" stroke-width="1"/>
  <text x="141.82000000000005" y="541" text-anchor="middle" font-family="'Arial Narrow', Arial, sans-serif" font-size="10" fill="#000" font-weight="bold">A</text>
  <circle cx="1515.1799999999998" cy="537" r="10" fill="white" stroke="#000" stroke-width="1"/>
  <text x="1515.1799999999998" y="541" text-anchor="middle" font-family="'Arial Narrow', Arial, sans-serif" font-size="10" fill="#000" font-weight="bold">A</text>
  <path d="M 127.82000000000005 534 L 127.82000000000005 540 L 130.82000000000005 537 Z" fill="#000" stroke="none"/>
  <path d="M 1529.1799999999998 534 L 1529.1799999999998 540 L 1526.1799999999998 537 Z" fill="#000" stroke="none"/>
  <text x="828.5" y="1100" text-anchor="middle" font-family="'Arial Narrow', Arial, sans-serif" font-size="18" fill="#000000" font-weight="bold" letter-spacing="2">MẶT BẰNG TẦNG TRỆT</text>
  <text x="828.5" y="1116" text-anchor="middle" font-family="'Arial Narrow', Arial, sans-serif" font-size="13" fill="#000000">TL: 1/61 (xoay 90°)</text>
  <text x="8" y="1120" font-family="'Arial Narrow', Arial, sans-serif" font-size="7" fill="#888888">⚠ Tầng 1: Hố thang "Cầu thang" (1.2×2.5m) hơi nhỏ cho thang U-shape — khuyến nghị ≥2.1×3.5m. | Tầng 2: Hố thang "Cầu thang" (1.2×2.5m) hơi nhỏ cho thang U-shape — khuyến nghị ≥2.1×3.5m.</text>
</svg>